G04 #@! TF.GenerationSoftware,KiCad,Pcbnew,10.0.3*
G04 #@! TF.CreationDate,2026-08-01T19:13:47+08:00*
G04 #@! TF.ProjectId,UREX_PDB,55524558-5f50-4444-922e-6b696361645f,rev?*
G04 #@! TF.SameCoordinates,Original*
G04 #@! TF.FileFunction,Soldermask,Bot*
G04 #@! TF.FilePolarity,Negative*
%FSLAX46Y46*%
G04 Gerber Fmt 4.6, Leading zero omitted, Abs format (unit mm)*
G04 Created by KiCad (PCBNEW 10.0.3) date 2026-08-01 19:13:47*
%MOMM*%
%LPD*%
G01*
G04 APERTURE LIST*
G04 Aperture macros list*
%AMRoundRect*
0 Rectangle with rounded corners*
0 $1 Rounding radius*
0 $2 $3 $4 $5 $6 $7 $8 $9 X,Y pos of 4 corners*
0 Add a 4 corners polygon primitive as box body*
4,1,4,$2,$3,$4,$5,$6,$7,$8,$9,$2,$3,0*
0 Add four circle primitives for the rounded corners*
1,1,$1+$1,$2,$3*
1,1,$1+$1,$4,$5*
1,1,$1+$1,$6,$7*
1,1,$1+$1,$8,$9*
0 Add four rect primitives between the rounded corners*
20,1,$1+$1,$2,$3,$4,$5,0*
20,1,$1+$1,$4,$5,$6,$7,0*
20,1,$1+$1,$6,$7,$8,$9,0*
20,1,$1+$1,$8,$9,$2,$3,0*%
G04 Aperture macros list end*
%ADD10R,1.500000X3.400000*%
%ADD11R,1.000000X3.500000*%
%ADD12RoundRect,0.200000X0.200000X0.275000X-0.200000X0.275000X-0.200000X-0.275000X0.200000X-0.275000X0*%
%ADD13R,0.450000X1.200000*%
%ADD14RoundRect,0.250000X-0.350000X-0.625000X0.350000X-0.625000X0.350000X0.625000X-0.350000X0.625000X0*%
%ADD15O,1.200000X1.750000*%
%ADD16C,3.500000*%
%ADD17RoundRect,0.250000X0.625000X-0.350000X0.625000X0.350000X-0.625000X0.350000X-0.625000X-0.350000X0*%
%ADD18O,1.750000X1.200000*%
%ADD19O,3.500000X2.200000*%
%ADD20R,2.500000X1.500000*%
%ADD21O,2.500000X1.500000*%
%ADD22RoundRect,0.760000X1.140000X-1.140000X1.140000X1.140000X-1.140000X1.140000X-1.140000X-1.140000X0*%
%ADD23C,4.000000*%
%ADD24R,2.100000X2.100000*%
%ADD25C,2.100000*%
%ADD26C,2.850000*%
%ADD27RoundRect,0.200000X0.275000X-0.200000X0.275000X0.200000X-0.275000X0.200000X-0.275000X-0.200000X0*%
%ADD28RoundRect,0.250000X0.337500X0.475000X-0.337500X0.475000X-0.337500X-0.475000X0.337500X-0.475000X0*%
%ADD29R,0.650000X1.800000*%
%ADD30RoundRect,0.225000X-0.250000X0.225000X-0.250000X-0.225000X0.250000X-0.225000X0.250000X0.225000X0*%
%ADD31RoundRect,0.250000X-0.337500X-0.475000X0.337500X-0.475000X0.337500X0.475000X-0.337500X0.475000X0*%
%ADD32R,1.600000X3.500000*%
%ADD33RoundRect,0.200000X-0.275000X0.200000X-0.275000X-0.200000X0.275000X-0.200000X0.275000X0.200000X0*%
%ADD34RoundRect,0.225000X-0.225000X-0.250000X0.225000X-0.250000X0.225000X0.250000X-0.225000X0.250000X0*%
%ADD35R,1.500000X1.000000*%
%ADD36R,2.200000X3.150000*%
%ADD37RoundRect,0.155000X-0.212500X-0.155000X0.212500X-0.155000X0.212500X0.155000X-0.212500X0.155000X0*%
%ADD38R,2.100000X2.200000*%
%ADD39R,0.250000X0.575000*%
%ADD40R,0.250000X0.825000*%
%ADD41R,0.575000X0.250000*%
%ADD42RoundRect,0.155000X0.212500X0.155000X-0.212500X0.155000X-0.212500X-0.155000X0.212500X-0.155000X0*%
%ADD43R,1.200000X0.450000*%
%ADD44R,0.850000X0.300000*%
%ADD45R,0.300000X0.850000*%
%ADD46R,1.550000X1.550000*%
%ADD47RoundRect,0.250000X0.475000X-0.337500X0.475000X0.337500X-0.475000X0.337500X-0.475000X-0.337500X0*%
%ADD48R,1.500000X1.500000*%
%ADD49RoundRect,0.160000X0.197500X0.160000X-0.197500X0.160000X-0.197500X-0.160000X0.197500X-0.160000X0*%
G04 APERTURE END LIST*
G04 #@! TO.C,JP4*
G36*
X88850000Y-101050000D02*
G01*
X90350000Y-101050000D01*
X90350000Y-101350000D01*
X88850000Y-101350000D01*
X88850000Y-101050000D01*
G37*
G04 #@! TO.C,JP3*
G36*
X85050000Y-101000000D02*
G01*
X86550000Y-101000000D01*
X86550000Y-101300000D01*
X85050000Y-101300000D01*
X85050000Y-101000000D01*
G37*
G04 #@! TD*
D10*
G04 #@! TO.C,J1*
X114450000Y-66700000D03*
X107750000Y-66700000D03*
D11*
X112100000Y-72450000D03*
X110100000Y-72450000D03*
G04 #@! TD*
D12*
G04 #@! TO.C,R2*
X110275000Y-76300000D03*
X111925000Y-76300000D03*
G04 #@! TD*
D13*
G04 #@! TO.C,IC1*
X112075000Y-78900000D03*
X111425000Y-78900000D03*
X110775000Y-78900000D03*
X110125000Y-78900000D03*
X110125000Y-81400000D03*
X110775000Y-81400000D03*
X111425000Y-81400000D03*
X112075000Y-81400000D03*
G04 #@! TD*
D14*
G04 #@! TO.C,J33*
X134650000Y-117150000D03*
D15*
X136650000Y-117150000D03*
G04 #@! TD*
D16*
G04 #@! TO.C,H5*
X119750000Y-69100000D03*
G04 #@! TD*
D17*
G04 #@! TO.C,J37*
X165250000Y-90700000D03*
D18*
X165250000Y-88700000D03*
G04 #@! TD*
D19*
G04 #@! TO.C,S1*
X84800000Y-66700000D03*
X84800000Y-74900000D03*
D20*
X84800000Y-68800000D03*
D21*
X84800000Y-70800000D03*
X84800000Y-72800000D03*
G04 #@! TD*
D16*
G04 #@! TO.C,H8*
X119750000Y-114100000D03*
G04 #@! TD*
D17*
G04 #@! TO.C,J36*
X165250000Y-77100000D03*
D18*
X165250000Y-75100000D03*
G04 #@! TD*
D22*
G04 #@! TO.C,J11*
X167900000Y-106050000D03*
D23*
X167900000Y-101050000D03*
G04 #@! TD*
D24*
G04 #@! TO.C,PS5*
X142000000Y-92870000D03*
D25*
X142000000Y-85250000D03*
X142000000Y-77630000D03*
D26*
X128360000Y-77630000D03*
D25*
X128360000Y-81440000D03*
X128360000Y-85250000D03*
X128360000Y-89060000D03*
D26*
X128360000Y-92870000D03*
G04 #@! TD*
D16*
G04 #@! TO.C,H7*
X164750000Y-114100000D03*
G04 #@! TD*
G04 #@! TO.C,H6*
X164750000Y-69100000D03*
G04 #@! TD*
D14*
G04 #@! TO.C,J34*
X145400000Y-117000000D03*
D15*
X147400000Y-117000000D03*
G04 #@! TD*
D27*
G04 #@! TO.C,R45*
X129500000Y-104925000D03*
X129500000Y-103275000D03*
G04 #@! TD*
D28*
G04 #@! TO.C,C2*
X133437500Y-92000000D03*
X131362500Y-92000000D03*
G04 #@! TD*
D29*
G04 #@! TO.C,Q1*
X131545000Y-108375000D03*
X132815000Y-108375000D03*
X134085000Y-108375000D03*
X135355000Y-108375000D03*
X135355000Y-113625000D03*
X134085000Y-113625000D03*
X132815000Y-113625000D03*
X131545000Y-113625000D03*
G04 #@! TD*
D30*
G04 #@! TO.C,C48*
X83450000Y-106725000D03*
X83450000Y-108275000D03*
G04 #@! TD*
D28*
G04 #@! TO.C,C4*
X133437500Y-87500000D03*
X131362500Y-87500000D03*
G04 #@! TD*
D31*
G04 #@! TO.C,C8*
X135762500Y-94650000D03*
X137837500Y-94650000D03*
G04 #@! TD*
G04 #@! TO.C,C7*
X135712500Y-92433333D03*
X137787500Y-92433333D03*
G04 #@! TD*
D11*
G04 #@! TO.C,J5*
X128000000Y-72380000D03*
X130000000Y-72380000D03*
X132000000Y-72380000D03*
D32*
X134400000Y-66680000D03*
X125600000Y-66680000D03*
G04 #@! TD*
D27*
G04 #@! TO.C,R54*
X95800000Y-106625000D03*
X95800000Y-104975000D03*
G04 #@! TD*
D33*
G04 #@! TO.C,R53*
X85250000Y-106675000D03*
X85250000Y-108325000D03*
G04 #@! TD*
D31*
G04 #@! TO.C,C31*
X115712500Y-109500000D03*
X117787500Y-109500000D03*
G04 #@! TD*
D34*
G04 #@! TO.C,C52*
X121800000Y-79200000D03*
X123350000Y-79200000D03*
G04 #@! TD*
D28*
G04 #@! TO.C,C1*
X133437500Y-94250000D03*
X131362500Y-94250000D03*
G04 #@! TD*
D31*
G04 #@! TO.C,C6*
X135662500Y-90216667D03*
X137737500Y-90216667D03*
G04 #@! TD*
D35*
G04 #@! TO.C,JP4*
X89600000Y-100550000D03*
X89600000Y-101850000D03*
G04 #@! TD*
D36*
G04 #@! TO.C,D7*
X155325000Y-106125000D03*
X162325000Y-106125000D03*
G04 #@! TD*
D34*
G04 #@! TO.C,C54*
X103925000Y-82500000D03*
X105475000Y-82500000D03*
G04 #@! TD*
D37*
G04 #@! TO.C,C47*
X134032500Y-100100000D03*
X135167500Y-100100000D03*
G04 #@! TD*
D12*
G04 #@! TO.C,R42*
X125225000Y-107150000D03*
X123575000Y-107150000D03*
G04 #@! TD*
D35*
G04 #@! TO.C,JP3*
X85800000Y-100500000D03*
X85800000Y-101800000D03*
G04 #@! TD*
D11*
G04 #@! TO.C,J7*
X108350000Y-115650000D03*
X106350000Y-115650000D03*
D10*
X110700000Y-121400000D03*
X104000000Y-121400000D03*
G04 #@! TD*
D28*
G04 #@! TO.C,C3*
X133437500Y-89750000D03*
X131362500Y-89750000D03*
G04 #@! TD*
D38*
G04 #@! TO.C,D9*
X141300000Y-108600000D03*
X141300000Y-113000000D03*
G04 #@! TD*
D39*
G04 #@! TO.C,IC9*
X111750000Y-105763000D03*
D40*
X112250000Y-105888000D03*
X112750000Y-105888000D03*
D39*
X113250000Y-105763000D03*
D41*
X113412000Y-106426000D03*
D39*
X113250000Y-107089000D03*
D40*
X112750000Y-106964000D03*
X112250000Y-106964000D03*
D39*
X111750000Y-107089000D03*
D41*
X111587000Y-106426000D03*
G04 #@! TD*
D42*
G04 #@! TO.C,C27*
X111317500Y-103650000D03*
X110182500Y-103650000D03*
G04 #@! TD*
D11*
G04 #@! TO.C,J9*
X97845905Y-116282595D03*
X95845905Y-116282595D03*
X93845905Y-116282595D03*
X91845905Y-116282595D03*
X89845905Y-116282595D03*
X87845905Y-116282595D03*
D32*
X85445905Y-121982595D03*
X100245905Y-121982595D03*
G04 #@! TD*
D43*
G04 #@! TO.C,IC4*
X135250000Y-96775000D03*
X135250000Y-97425000D03*
X135250000Y-98075000D03*
X135250000Y-98725000D03*
X132750000Y-98725000D03*
X132750000Y-98075000D03*
X132750000Y-97425000D03*
X132750000Y-96775000D03*
G04 #@! TD*
D44*
G04 #@! TO.C,IC5*
X104950000Y-86750000D03*
X104950000Y-87250000D03*
X104950000Y-87750000D03*
X104950000Y-88250000D03*
D45*
X104250000Y-88950000D03*
X103750000Y-88950000D03*
X103250000Y-88950000D03*
X102750000Y-88950000D03*
D44*
X102050000Y-88250000D03*
X102050000Y-87750000D03*
X102050000Y-87250000D03*
X102050000Y-86750000D03*
D45*
X102750000Y-86050000D03*
X103250000Y-86050000D03*
X103750000Y-86050000D03*
X104250000Y-86050000D03*
D46*
X103500000Y-87500000D03*
G04 #@! TD*
D29*
G04 #@! TO.C,Q2*
X144695000Y-108375000D03*
X145965000Y-108375000D03*
X147235000Y-108375000D03*
X148505000Y-108375000D03*
X148505000Y-113625000D03*
X147235000Y-113625000D03*
X145965000Y-113625000D03*
X144695000Y-113625000D03*
G04 #@! TD*
D11*
G04 #@! TO.C,J6*
X93150000Y-71800000D03*
X95150000Y-71800000D03*
X97150000Y-71800000D03*
X99150000Y-71800000D03*
D32*
X101550000Y-66100000D03*
X90750000Y-66100000D03*
G04 #@! TD*
D34*
G04 #@! TO.C,C53*
X103925000Y-84250000D03*
X105475000Y-84250000D03*
G04 #@! TD*
D47*
G04 #@! TO.C,C29*
X108300000Y-107537500D03*
X108300000Y-105462500D03*
G04 #@! TD*
D34*
G04 #@! TO.C,C51*
X121850000Y-77600000D03*
X123400000Y-77600000D03*
G04 #@! TD*
D11*
G04 #@! TO.C,J8*
X140600000Y-72380000D03*
X142600000Y-72380000D03*
X144600000Y-72380000D03*
D32*
X147000000Y-66680000D03*
X138200000Y-66680000D03*
G04 #@! TD*
D27*
G04 #@! TO.C,R55*
X97800000Y-106625000D03*
X97800000Y-104975000D03*
G04 #@! TD*
D12*
G04 #@! TO.C,R43*
X125225000Y-108800000D03*
X123575000Y-108800000D03*
G04 #@! TD*
D48*
G04 #@! TO.C,TP8*
X104400000Y-116100000D03*
G04 #@! TD*
D31*
G04 #@! TO.C,C5*
X135662500Y-88000000D03*
X137737500Y-88000000D03*
G04 #@! TD*
D27*
G04 #@! TO.C,R44*
X127450000Y-104925000D03*
X127450000Y-103275000D03*
G04 #@! TD*
D38*
G04 #@! TO.C,D6*
X128200000Y-107700000D03*
X128200000Y-112100000D03*
G04 #@! TD*
D49*
G04 #@! TO.C,R20*
X114947500Y-103650000D03*
X113752500Y-103650000D03*
G04 #@! TD*
M02*
