G04 #@! TF.GenerationSoftware,KiCad,Pcbnew,10.0.3*
G04 #@! TF.CreationDate,2026-08-01T19:13:47+08:00*
G04 #@! TF.ProjectId,UREX_PDB,55524558-5f50-4444-922e-6b696361645f,rev?*
G04 #@! TF.SameCoordinates,Original*
G04 #@! TF.FileFunction,Soldermask,Top*
G04 #@! TF.FilePolarity,Negative*
%FSLAX46Y46*%
G04 Gerber Fmt 4.6, Leading zero omitted, Abs format (unit mm)*
G04 Created by KiCad (PCBNEW 10.0.3) date 2026-08-01 19:13:47*
%MOMM*%
%LPD*%
G01*
G04 APERTURE LIST*
G04 Aperture macros list*
%AMRoundRect*
0 Rectangle with rounded corners*
0 $1 Rounding radius*
0 $2 $3 $4 $5 $6 $7 $8 $9 X,Y pos of 4 corners*
0 Add a 4 corners polygon primitive as box body*
4,1,4,$2,$3,$4,$5,$6,$7,$8,$9,$2,$3,0*
0 Add four circle primitives for the rounded corners*
1,1,$1+$1,$2,$3*
1,1,$1+$1,$4,$5*
1,1,$1+$1,$6,$7*
1,1,$1+$1,$8,$9*
0 Add four rect primitives between the rounded corners*
20,1,$1+$1,$2,$3,$4,$5,0*
20,1,$1+$1,$4,$5,$6,$7,0*
20,1,$1+$1,$6,$7,$8,$9,0*
20,1,$1+$1,$8,$9,$2,$3,0*%
G04 Aperture macros list end*
%ADD10RoundRect,0.225000X-0.225000X-0.250000X0.225000X-0.250000X0.225000X0.250000X-0.225000X0.250000X0*%
%ADD11RoundRect,0.200000X0.275000X-0.200000X0.275000X0.200000X-0.275000X0.200000X-0.275000X-0.200000X0*%
%ADD12RoundRect,0.250000X-0.350000X-0.625000X0.350000X-0.625000X0.350000X0.625000X-0.350000X0.625000X0*%
%ADD13O,1.200000X1.750000*%
%ADD14RoundRect,0.250000X1.100000X-0.412500X1.100000X0.412500X-1.100000X0.412500X-1.100000X-0.412500X0*%
%ADD15RoundRect,0.200000X0.200000X0.275000X-0.200000X0.275000X-0.200000X-0.275000X0.200000X-0.275000X0*%
%ADD16RoundRect,0.160000X-0.197500X-0.160000X0.197500X-0.160000X0.197500X0.160000X-0.197500X0.160000X0*%
%ADD17R,1.000000X3.500000*%
%ADD18R,1.500000X3.400000*%
%ADD19C,3.500000*%
%ADD20RoundRect,0.250000X0.625000X-0.350000X0.625000X0.350000X-0.625000X0.350000X-0.625000X-0.350000X0*%
%ADD21O,1.750000X1.200000*%
%ADD22RoundRect,0.225000X0.225000X0.250000X-0.225000X0.250000X-0.225000X-0.250000X0.225000X-0.250000X0*%
%ADD23O,3.500000X2.200000*%
%ADD24R,2.500000X1.500000*%
%ADD25O,2.500000X1.500000*%
%ADD26R,4.240000X3.810000*%
%ADD27R,1.500000X1.500000*%
%ADD28R,0.900000X1.500000*%
%ADD29R,1.500000X0.900000*%
%ADD30C,0.600000*%
%ADD31R,3.800000X3.800000*%
%ADD32R,1.450000X1.150000*%
%ADD33R,0.450000X1.475000*%
%ADD34R,3.370000X2.780000*%
%ADD35RoundRect,0.760000X1.140000X-1.140000X1.140000X1.140000X-1.140000X1.140000X-1.140000X-1.140000X0*%
%ADD36C,4.000000*%
%ADD37R,2.100000X2.100000*%
%ADD38C,2.100000*%
%ADD39C,2.850000*%
%ADD40RoundRect,0.200000X-0.200000X-0.275000X0.200000X-0.275000X0.200000X0.275000X-0.200000X0.275000X0*%
%ADD41RoundRect,0.250000X-0.337500X-0.475000X0.337500X-0.475000X0.337500X0.475000X-0.337500X0.475000X0*%
%ADD42RoundRect,0.250000X0.475000X-0.337500X0.475000X0.337500X-0.475000X0.337500X-0.475000X-0.337500X0*%
%ADD43RoundRect,0.155000X0.212500X0.155000X-0.212500X0.155000X-0.212500X-0.155000X0.212500X-0.155000X0*%
%ADD44RoundRect,0.150000X-0.150000X0.587500X-0.150000X-0.587500X0.150000X-0.587500X0.150000X0.587500X0*%
%ADD45RoundRect,0.150000X0.150000X-0.512500X0.150000X0.512500X-0.150000X0.512500X-0.150000X-0.512500X0*%
%ADD46RoundRect,0.250000X-0.475000X0.337500X-0.475000X-0.337500X0.475000X-0.337500X0.475000X0.337500X0*%
%ADD47R,5.100000X3.500000*%
%ADD48RoundRect,0.200000X-0.275000X0.200000X-0.275000X-0.200000X0.275000X-0.200000X0.275000X0.200000X0*%
%ADD49R,1.200000X0.600000*%
%ADD50R,0.250000X0.575000*%
%ADD51R,0.250000X0.825000*%
%ADD52R,0.575000X0.250000*%
G04 APERTURE END LIST*
D10*
G04 #@! TO.C,C50*
X84525000Y-116200000D03*
X86075000Y-116200000D03*
G04 #@! TD*
D11*
G04 #@! TO.C,R9*
X156500000Y-71575000D03*
X156500000Y-69925000D03*
G04 #@! TD*
D12*
G04 #@! TO.C,J33*
X134650000Y-117150000D03*
D13*
X136650000Y-117150000D03*
G04 #@! TD*
D14*
G04 #@! TO.C,C23*
X113900000Y-96562500D03*
X113900000Y-93437500D03*
G04 #@! TD*
D15*
G04 #@! TO.C,R6*
X154325000Y-79250000D03*
X152675000Y-79250000D03*
G04 #@! TD*
D16*
G04 #@! TO.C,R21*
X118402500Y-103500000D03*
X119597500Y-103500000D03*
G04 #@! TD*
D11*
G04 #@! TO.C,R5*
X156500000Y-84025000D03*
X156500000Y-82375000D03*
G04 #@! TD*
D17*
G04 #@! TO.C,J10*
X111250000Y-115650000D03*
X113250000Y-115650000D03*
D18*
X108900000Y-121400000D03*
X115600000Y-121400000D03*
G04 #@! TD*
D19*
G04 #@! TO.C,H5*
X119750000Y-69100000D03*
G04 #@! TD*
D20*
G04 #@! TO.C,J37*
X165250000Y-90700000D03*
D21*
X165250000Y-88700000D03*
G04 #@! TD*
D15*
G04 #@! TO.C,R3*
X163075000Y-83250000D03*
X161425000Y-83250000D03*
G04 #@! TD*
D11*
G04 #@! TO.C,R12*
X155400000Y-97725000D03*
X155400000Y-96075000D03*
G04 #@! TD*
D15*
G04 #@! TO.C,R16*
X157075000Y-85500000D03*
X155425000Y-85500000D03*
G04 #@! TD*
D22*
G04 #@! TO.C,C18*
X118775000Y-90250000D03*
X117225000Y-90250000D03*
G04 #@! TD*
D23*
G04 #@! TO.C,S1*
X84800000Y-66700000D03*
X84800000Y-74900000D03*
D24*
X84800000Y-68800000D03*
D25*
X84800000Y-70800000D03*
X84800000Y-72800000D03*
G04 #@! TD*
D26*
G04 #@! TO.C,F1*
X161490000Y-107100000D03*
X155110000Y-107100000D03*
G04 #@! TD*
D27*
G04 #@! TO.C,TP2*
X156150000Y-120475000D03*
G04 #@! TD*
D19*
G04 #@! TO.C,H8*
X119750000Y-114100000D03*
G04 #@! TD*
D28*
G04 #@! TO.C,U1*
X83130000Y-112500000D03*
X84400000Y-112500000D03*
X85670000Y-112500000D03*
X86940000Y-112500000D03*
X88210000Y-112500000D03*
X89480000Y-112500000D03*
X90750000Y-112500000D03*
X92020000Y-112500000D03*
X93290000Y-112500000D03*
X94560000Y-112500000D03*
X95830000Y-112500000D03*
X97100000Y-112500000D03*
X98370000Y-112500000D03*
X99640000Y-112500000D03*
D29*
X100890000Y-109465000D03*
X100890000Y-108195000D03*
X100890000Y-106925000D03*
X100890000Y-105655000D03*
X100890000Y-104385000D03*
X100890000Y-103115000D03*
X100890000Y-101845000D03*
X100890000Y-100575000D03*
X100890000Y-99305000D03*
X100890000Y-98035000D03*
D28*
X99640000Y-95000000D03*
X98370000Y-95000000D03*
X97100000Y-95000000D03*
X95830000Y-95000000D03*
X94560000Y-95000000D03*
X93290000Y-95000000D03*
X92020000Y-95000000D03*
X90750000Y-95000000D03*
X89480000Y-95000000D03*
X88210000Y-95000000D03*
X86940000Y-95000000D03*
X85670000Y-95000000D03*
X84400000Y-95000000D03*
X83130000Y-95000000D03*
D30*
X89770000Y-106650000D03*
X91170000Y-106650000D03*
X89070000Y-105950000D03*
X90470000Y-105950000D03*
X91870000Y-105950000D03*
X89770000Y-105250000D03*
D31*
X90470000Y-105250000D03*
D30*
X91170000Y-105250000D03*
X89070000Y-104550000D03*
X90470000Y-104550000D03*
X91870000Y-104550000D03*
X89770000Y-103850000D03*
X91170000Y-103850000D03*
G04 #@! TD*
D32*
G04 #@! TO.C,FB1*
X118750000Y-86650000D03*
X118750000Y-84850000D03*
G04 #@! TD*
D33*
G04 #@! TO.C,IC3*
X155550000Y-93176000D03*
X156200000Y-93176000D03*
X156850000Y-93176000D03*
X157500000Y-93176000D03*
X158150000Y-93176000D03*
X158800000Y-93176000D03*
X159450000Y-93176000D03*
X160100000Y-93176000D03*
X160100000Y-87300000D03*
X159450000Y-87300000D03*
X158800000Y-87300000D03*
X158150000Y-87300000D03*
X157500000Y-87300000D03*
X156850000Y-87300000D03*
X156200000Y-87300000D03*
X155550000Y-87300000D03*
D34*
X157825000Y-90238000D03*
G04 #@! TD*
D16*
G04 #@! TO.C,R19*
X110152500Y-103650000D03*
X111347500Y-103650000D03*
G04 #@! TD*
D17*
G04 #@! TO.C,J4*
X125950000Y-115550000D03*
X127950000Y-115550000D03*
D18*
X123600000Y-121300000D03*
X130300000Y-121300000D03*
G04 #@! TD*
D33*
G04 #@! TO.C,IC2*
X155604317Y-79517424D03*
X156254317Y-79517424D03*
X156904317Y-79517424D03*
X157554317Y-79517424D03*
X158204317Y-79517424D03*
X158854317Y-79517424D03*
X159504317Y-79517424D03*
X160154317Y-79517424D03*
X160154317Y-73641424D03*
X159504317Y-73641424D03*
X158854317Y-73641424D03*
X158204317Y-73641424D03*
X157554317Y-73641424D03*
X156904317Y-73641424D03*
X156254317Y-73641424D03*
X155604317Y-73641424D03*
D34*
X157879317Y-76579424D03*
G04 #@! TD*
D22*
G04 #@! TO.C,C25*
X118775000Y-88500000D03*
X117225000Y-88500000D03*
G04 #@! TD*
D27*
G04 #@! TO.C,TP5*
X118000000Y-78750000D03*
G04 #@! TD*
D20*
G04 #@! TO.C,J36*
X165250000Y-77100000D03*
D21*
X165250000Y-75100000D03*
G04 #@! TD*
D10*
G04 #@! TO.C,C13*
X94225000Y-75250000D03*
X95775000Y-75250000D03*
G04 #@! TD*
D14*
G04 #@! TO.C,C32*
X117300000Y-96562500D03*
X117300000Y-93437500D03*
G04 #@! TD*
D27*
G04 #@! TO.C,TP7*
X118800000Y-118400000D03*
G04 #@! TD*
D15*
G04 #@! TO.C,R15*
X154325000Y-87250000D03*
X152675000Y-87250000D03*
G04 #@! TD*
D10*
G04 #@! TO.C,C49*
X84525000Y-114500000D03*
X86075000Y-114500000D03*
G04 #@! TD*
D35*
G04 #@! TO.C,J11*
X167900000Y-106050000D03*
D36*
X167900000Y-101050000D03*
G04 #@! TD*
D14*
G04 #@! TO.C,C24*
X110400000Y-96562500D03*
X110400000Y-93437500D03*
G04 #@! TD*
D15*
G04 #@! TO.C,R57*
X85025000Y-86400000D03*
X83375000Y-86400000D03*
G04 #@! TD*
D37*
G04 #@! TO.C,PS5*
X142000000Y-92870000D03*
D38*
X142000000Y-85250000D03*
X142000000Y-77630000D03*
D39*
X128360000Y-77630000D03*
D38*
X128360000Y-81440000D03*
X128360000Y-85250000D03*
X128360000Y-89060000D03*
D39*
X128360000Y-92870000D03*
G04 #@! TD*
D15*
G04 #@! TO.C,R56*
X85825000Y-88200000D03*
X84175000Y-88200000D03*
G04 #@! TD*
D22*
G04 #@! TO.C,C11*
X123150000Y-92000000D03*
X121600000Y-92000000D03*
G04 #@! TD*
D19*
G04 #@! TO.C,H7*
X164750000Y-114100000D03*
G04 #@! TD*
G04 #@! TO.C,H6*
X164750000Y-69100000D03*
G04 #@! TD*
D15*
G04 #@! TO.C,R13*
X153625000Y-94700000D03*
X151975000Y-94700000D03*
G04 #@! TD*
D40*
G04 #@! TO.C,R4*
X152675000Y-71250000D03*
X154325000Y-71250000D03*
G04 #@! TD*
D41*
G04 #@! TO.C,C28*
X115712500Y-107175000D03*
X117787500Y-107175000D03*
G04 #@! TD*
D42*
G04 #@! TO.C,C9*
X152700000Y-92937500D03*
X152700000Y-90862500D03*
G04 #@! TD*
D43*
G04 #@! TO.C,C33*
X123317500Y-103500000D03*
X122182500Y-103500000D03*
G04 #@! TD*
D41*
G04 #@! TO.C,C34*
X124212500Y-106500000D03*
X126287500Y-106500000D03*
G04 #@! TD*
D44*
G04 #@! TO.C,D2*
X153700000Y-96562500D03*
X151800000Y-96562500D03*
X152750000Y-98437500D03*
G04 #@! TD*
D43*
G04 #@! TO.C,C26*
X114917500Y-103650000D03*
X113782500Y-103650000D03*
G04 #@! TD*
D15*
G04 #@! TO.C,R8*
X154325000Y-72800000D03*
X152675000Y-72800000D03*
G04 #@! TD*
D11*
G04 #@! TO.C,R10*
X157100000Y-97725000D03*
X157100000Y-96075000D03*
G04 #@! TD*
D45*
G04 #@! TO.C,U7*
X95050000Y-79387500D03*
X96000000Y-79387500D03*
X96950000Y-79387500D03*
X96950000Y-77112500D03*
X96000000Y-77112500D03*
X95050000Y-77112500D03*
G04 #@! TD*
D46*
G04 #@! TO.C,C10*
X150500000Y-73712500D03*
X150500000Y-75787500D03*
G04 #@! TD*
D12*
G04 #@! TO.C,J34*
X145400000Y-117000000D03*
D13*
X147400000Y-117000000D03*
G04 #@! TD*
D44*
G04 #@! TO.C,D1*
X154887500Y-82062500D03*
X152987500Y-82062500D03*
X153937500Y-83937500D03*
G04 #@! TD*
D47*
G04 #@! TO.C,R1*
X146850000Y-103345000D03*
X146850000Y-107455000D03*
G04 #@! TD*
D41*
G04 #@! TO.C,C30*
X115712500Y-109500000D03*
X117787500Y-109500000D03*
G04 #@! TD*
D48*
G04 #@! TO.C,R62*
X88700000Y-70175000D03*
X88700000Y-71825000D03*
G04 #@! TD*
D22*
G04 #@! TO.C,C12*
X123175000Y-93700000D03*
X121625000Y-93700000D03*
G04 #@! TD*
D15*
G04 #@! TO.C,R14*
X162225000Y-94900000D03*
X160575000Y-94900000D03*
G04 #@! TD*
D49*
G04 #@! TO.C,PS1*
X123450000Y-90200000D03*
X123450000Y-89250000D03*
X123450000Y-88300000D03*
X120950000Y-88300000D03*
X120950000Y-90200000D03*
G04 #@! TD*
D41*
G04 #@! TO.C,C35*
X124212500Y-108750000D03*
X126287500Y-108750000D03*
G04 #@! TD*
D11*
G04 #@! TO.C,R11*
X158900000Y-97725000D03*
X158900000Y-96075000D03*
G04 #@! TD*
D27*
G04 #@! TO.C,TP4*
X159250000Y-70750000D03*
G04 #@! TD*
G04 #@! TO.C,TP3*
X165500000Y-84750000D03*
G04 #@! TD*
D50*
G04 #@! TO.C,IC8*
X113250000Y-105750000D03*
D51*
X112750000Y-105875000D03*
X112250000Y-105875000D03*
D50*
X111750000Y-105750000D03*
D52*
X111588000Y-106413000D03*
D50*
X111750000Y-107076000D03*
D51*
X112250000Y-106951000D03*
X112750000Y-106951000D03*
D50*
X113250000Y-107076000D03*
D52*
X113413000Y-106413000D03*
G04 #@! TD*
D15*
G04 #@! TO.C,R7*
X163075000Y-81500000D03*
X161425000Y-81500000D03*
G04 #@! TD*
D27*
G04 #@! TO.C,TP6*
X127900000Y-111300000D03*
G04 #@! TD*
D50*
G04 #@! TO.C,IC10*
X121700000Y-105587000D03*
D51*
X121200000Y-105712000D03*
X120700000Y-105712000D03*
D50*
X120200000Y-105587000D03*
D52*
X120038000Y-106250000D03*
D50*
X120200000Y-106913000D03*
D51*
X120700000Y-106788000D03*
X121200000Y-106788000D03*
D50*
X121700000Y-106913000D03*
D52*
X121863000Y-106250000D03*
G04 #@! TD*
M02*
