M48
; DRILL file KiCad 10.0.3 date 2026-08-01T19:13:47
; FORMAT={-:-/ absolute / metric / decimal}
; #@! TF.CreationDate,2026-08-01T19:13:47+08:00
; #@! TF.GenerationSoftware,Kicad,Pcbnew,10.0.3
; #@! TF.FileFunction,Plated,1,4,PTH
FMAT,2
METRIC
; #@! TA.AperFunction,Plated,PTH,ComponentDrill
T1C0.200
; #@! TA.AperFunction,Plated,PTH,ViaDrill
T2C0.300
; #@! TA.AperFunction,Plated,PTH,ComponentDrill
T3C0.750
; #@! TA.AperFunction,Plated,PTH,ComponentDrill
T4C0.900
; #@! TA.AperFunction,Plated,PTH,ComponentDrill
T5C1.400
; #@! TA.AperFunction,Plated,PTH,ComponentDrill
T6C1.500
; #@! TA.AperFunction,Plated,PTH,ComponentDrill
T7C1.900
; #@! TA.AperFunction,Plated,PTH,ComponentDrill
T8C2.200
; #@! TA.AperFunction,Plated,PTH,ComponentDrill
T9C2.700
%
G90
G05
T1
X89.07Y-104.55
X89.07Y-105.95
X89.77Y-103.85
X89.77Y-105.25
X89.77Y-106.65
X90.47Y-104.55
X90.47Y-105.95
X91.17Y-103.85
X91.17Y-105.25
X91.17Y-106.65
X91.87Y-104.55
X91.87Y-105.95
T2
X83.04Y-96.1
X83.1Y-111.3
X84.5Y-111.25
X85.2Y-85.4
X85.4Y-92.6
X85.725Y-111.225
X86.0Y-87.2
X86.25Y-106.75
X86.25Y-108.25
X86.9Y-116.2
X87.1Y-114.5
X87.9Y-118.5
X88.6Y-73.0
X90.2Y-74.4
X91.2Y-75.2
X91.45Y-98.483
X92.0Y-110.8
X92.0Y-113.7
X92.02Y-92.5
X93.25Y-73.75
X93.29Y-92.71
X93.3Y-109.4
X93.5Y-75.25
X94.0Y-113.9
X94.25Y-76.75
X95.8Y-107.5
X96.0Y-80.5
X96.5Y-75.25
X97.0Y-86.7
X97.75Y-76.75
X97.8Y-107.4
X97.9Y-118.4
X98.9Y-65.225
X99.05Y-66.6
X99.4Y-93.3
X100.75Y-91.0
X101.0Y-86.25
X102.2Y-80.9
X102.25Y-85.0
X102.4Y-109.1
X102.7Y-95.8
X102.8Y-96.9
X102.95Y-82.5
X102.95Y-84.25
X103.5Y-80.2
X103.5Y-87.5
X104.0Y-96.6
X104.05Y-90.475
X105.0Y-96.6
X105.9Y-96.6
X106.0Y-99.3
X106.0Y-100.8
X106.5Y-82.0
X106.5Y-83.0
X106.5Y-84.0
X106.5Y-85.0
X106.9Y-96.6
X106.9Y-100.4
X107.5Y-103.25
X107.7Y-96.6
X107.7Y-99.7
X109.0Y-89.0
X109.0Y-92.0
X109.25Y-104.25
X109.65Y-105.45
X110.0Y-112.5
X110.0Y-113.5
X110.0Y-114.5
X110.0Y-115.75
X110.0Y-117.0
X110.604Y-82.75
X111.1Y-92.0
X111.345Y-102.873
X111.4Y-82.5
X112.25Y-78.0
X112.8Y-92.0
X114.5Y-92.0
X115.1Y-87.7
X115.8Y-103.65
X116.25Y-88.525
X116.25Y-90.275
X116.652Y-104.5
X116.75Y-83.5
X116.75Y-92.0
X116.9Y-81.3
X117.6Y-103.5
X118.0Y-92.0
X118.0Y-105.9
X118.1Y-83.55
X118.25Y-81.25
X118.25Y-82.3
X119.0Y-106.5
X119.0Y-108.5
X119.9Y-81.3
X119.9Y-82.3
X120.0Y-108.5
X120.2Y-77.7
X120.2Y-78.6
X120.2Y-79.5
X120.2Y-80.4
X120.75Y-92.0
X120.75Y-93.75
X121.5Y-87.35
X123.15Y-114.25
X123.25Y-115.75
X123.25Y-117.5
X124.216Y-103.5
X124.225Y-104.525
X124.75Y-114.25
X124.75Y-115.75
X124.75Y-117.5
X127.5Y-70.25
X127.5Y-105.9
X129.0Y-105.9
X130.0Y-70.2
X130.0Y-106.4
X130.05Y-107.8
X131.693Y-97.0
X132.0Y-102.5
X132.0Y-103.5
X132.5Y-70.0
X133.3Y-100.1
X133.5Y-102.5
X133.5Y-103.5
X134.5Y-86.0
X134.5Y-87.5
X134.5Y-89.0
X134.5Y-90.5
X134.5Y-92.0
X134.5Y-93.5
X134.5Y-95.0
X135.0Y-102.5
X135.0Y-103.5
X136.0Y-99.9
X136.3Y-98.1
X136.4Y-96.75
X136.5Y-119.5
X136.5Y-120.5
X136.5Y-121.5
X137.5Y-119.5
X137.5Y-120.5
X137.5Y-121.5
X137.7Y-97.7
X138.5Y-119.5
X138.5Y-120.5
X138.5Y-121.5
X139.5Y-115.5
X139.5Y-116.5
X139.5Y-117.5
X139.5Y-118.5
X139.5Y-119.5
X139.5Y-120.5
X139.5Y-121.5
X140.5Y-70.25
X140.5Y-115.5
X140.5Y-116.5
X140.5Y-117.5
X140.5Y-118.5
X140.5Y-119.5
X140.5Y-120.5
X140.5Y-121.5
X141.5Y-115.5
X141.5Y-116.5
X141.5Y-117.5
X141.5Y-118.5
X141.5Y-119.5
X141.5Y-120.5
X141.5Y-121.5
X142.5Y-115.5
X142.5Y-116.5
X142.5Y-117.5
X142.5Y-118.5
X142.5Y-119.5
X142.5Y-120.5
X142.5Y-121.5
X142.6Y-70.1
X143.5Y-119.5
X143.5Y-120.5
X143.5Y-121.5
X144.5Y-119.5
X144.5Y-120.5
X144.5Y-121.5
X144.75Y-70.25
X145.2Y-99.3
X145.5Y-119.5
X145.5Y-120.5
X145.5Y-121.5
X146.5Y-119.5
X146.5Y-120.5
X146.5Y-121.5
X147.0Y-76.0
X147.0Y-78.0
X147.0Y-80.0
X147.0Y-82.0
X147.0Y-84.0
X147.0Y-86.0
X147.0Y-88.0
X147.0Y-90.0
X149.0Y-77.0
X149.0Y-79.0
X149.0Y-81.0
X149.0Y-83.0
X149.0Y-85.0
X149.0Y-87.0
X149.0Y-89.0
X150.5Y-72.75
X151.0Y-78.0
X151.0Y-80.0
X151.0Y-82.0
X151.0Y-84.0
X151.0Y-86.0
X151.0Y-88.0
X151.75Y-73.0
X152.75Y-80.25
X152.75Y-86.25
X153.6Y-99.2
X153.75Y-85.0
X153.9Y-93.0
X154.3Y-111.7
X154.3Y-113.4
X154.3Y-115.25
X154.5Y-85.5
X155.25Y-71.25
X155.4Y-98.65
X156.5Y-69.0
X156.875Y-111.7
X156.875Y-113.4
X156.875Y-115.25
X157.1Y-98.7
X157.5Y-83.75
X158.0Y-81.4
X159.45Y-105.15
X159.45Y-106.9
X159.45Y-109.0
X159.45Y-111.7
X159.45Y-113.4
X159.45Y-115.25
X161.475Y-118.275
X161.475Y-119.975
X161.475Y-121.825
X163.0Y-95.0
X164.0Y-81.5
X164.05Y-118.275
X164.05Y-119.975
X164.05Y-121.825
X164.1Y-82.7
X166.625Y-118.275
X166.625Y-119.975
X166.625Y-121.825
X169.375Y-111.75
X169.375Y-113.45
X169.375Y-115.3
X169.4Y-118.15
X169.4Y-119.85
X169.4Y-121.7
T3
X134.65Y-117.15
X136.65Y-117.15
X145.4Y-117.0
X147.4Y-117.0
X165.25Y-75.1
X165.25Y-77.1
X165.25Y-88.7
X165.25Y-90.7
T4
X84.8Y-68.8
X84.8Y-70.8
X84.8Y-72.8
T5
X128.36Y-81.44
X128.36Y-85.25
X128.36Y-89.06
X142.0Y-77.63
X142.0Y-85.25
X142.0Y-92.87
T6
X84.8Y-66.7
X84.8Y-74.9
T7
X128.36Y-77.63
X128.36Y-92.87
T8
X119.75Y-69.1
X119.75Y-114.1
X164.75Y-69.1
X164.75Y-114.1
T9
X167.9Y-101.05
X167.9Y-106.05
M30
