%TF.GenerationSoftware,KiCad,Pcbnew,10.0.3*%
%TF.CreationDate,2026-08-01T19:13:47+08:00*%
%TF.ProjectId,UREX_PDB,55524558-5f50-4444-922e-6b696361645f,rev?*%
%TF.SameCoordinates,Original*%
%TF.FileFunction,Drillmap*%
%TF.FilePolarity,Positive*%
%FSLAX45Y45*%
G04 Gerber Fmt 4.5, Leading zero omitted, Abs format (unit mm)*
G04 Created by KiCad (PCBNEW 10.0.3) date 2026-08-01 19:13:47*
%MOMM*%
%LPD*%
G01*
G04 APERTURE LIST*
%ADD10C,0.200000*%
G04 APERTURE END LIST*
D10*
X8200000Y-6602500D02*
G75*
G02*
X8400000Y-6402500I200000J0D01*
G01*
X8200000Y-12202500D02*
X8200000Y-6602500D01*
X8400000Y-6402500D02*
X17000000Y-6402500D01*
X8400000Y-12402500D02*
G75*
G02*
X8200000Y-12202500I0J200000D01*
G01*
X17000000Y-6402500D02*
G75*
G02*
X17200000Y-6602500I0J-200000D01*
G01*
X17000000Y-12402500D02*
X8400000Y-12402500D01*
X17200000Y-6602500D02*
X17200000Y-12202500D01*
X17200000Y-12202500D02*
G75*
G02*
X17000000Y-12402500I-200000J0D01*
G01*
X8450777Y-12723984D02*
X8450777Y-12523984D01*
X8450777Y-12523984D02*
X8498396Y-12523984D01*
X8498396Y-12523984D02*
X8526967Y-12533508D01*
X8526967Y-12533508D02*
X8546015Y-12552555D01*
X8546015Y-12552555D02*
X8555539Y-12571603D01*
X8555539Y-12571603D02*
X8565063Y-12609698D01*
X8565063Y-12609698D02*
X8565063Y-12638269D01*
X8565063Y-12638269D02*
X8555539Y-12676365D01*
X8555539Y-12676365D02*
X8546015Y-12695412D01*
X8546015Y-12695412D02*
X8526967Y-12714460D01*
X8526967Y-12714460D02*
X8498396Y-12723984D01*
X8498396Y-12723984D02*
X8450777Y-12723984D01*
X8650777Y-12723984D02*
X8650777Y-12590650D01*
X8650777Y-12628746D02*
X8660301Y-12609698D01*
X8660301Y-12609698D02*
X8669824Y-12600174D01*
X8669824Y-12600174D02*
X8688872Y-12590650D01*
X8688872Y-12590650D02*
X8707920Y-12590650D01*
X8774586Y-12723984D02*
X8774586Y-12590650D01*
X8774586Y-12523984D02*
X8765063Y-12533508D01*
X8765063Y-12533508D02*
X8774586Y-12543031D01*
X8774586Y-12543031D02*
X8784110Y-12533508D01*
X8784110Y-12533508D02*
X8774586Y-12523984D01*
X8774586Y-12523984D02*
X8774586Y-12543031D01*
X8898396Y-12723984D02*
X8879348Y-12714460D01*
X8879348Y-12714460D02*
X8869824Y-12695412D01*
X8869824Y-12695412D02*
X8869824Y-12523984D01*
X9003158Y-12723984D02*
X8984110Y-12714460D01*
X8984110Y-12714460D02*
X8974586Y-12695412D01*
X8974586Y-12695412D02*
X8974586Y-12523984D01*
X9231729Y-12723984D02*
X9231729Y-12523984D01*
X9231729Y-12523984D02*
X9298396Y-12666841D01*
X9298396Y-12666841D02*
X9365063Y-12523984D01*
X9365063Y-12523984D02*
X9365063Y-12723984D01*
X9546015Y-12723984D02*
X9546015Y-12619222D01*
X9546015Y-12619222D02*
X9536491Y-12600174D01*
X9536491Y-12600174D02*
X9517444Y-12590650D01*
X9517444Y-12590650D02*
X9479348Y-12590650D01*
X9479348Y-12590650D02*
X9460301Y-12600174D01*
X9546015Y-12714460D02*
X9526967Y-12723984D01*
X9526967Y-12723984D02*
X9479348Y-12723984D01*
X9479348Y-12723984D02*
X9460301Y-12714460D01*
X9460301Y-12714460D02*
X9450777Y-12695412D01*
X9450777Y-12695412D02*
X9450777Y-12676365D01*
X9450777Y-12676365D02*
X9460301Y-12657317D01*
X9460301Y-12657317D02*
X9479348Y-12647793D01*
X9479348Y-12647793D02*
X9526967Y-12647793D01*
X9526967Y-12647793D02*
X9546015Y-12638269D01*
X9641253Y-12590650D02*
X9641253Y-12790650D01*
X9641253Y-12600174D02*
X9660301Y-12590650D01*
X9660301Y-12590650D02*
X9698396Y-12590650D01*
X9698396Y-12590650D02*
X9717444Y-12600174D01*
X9717444Y-12600174D02*
X9726967Y-12609698D01*
X9726967Y-12609698D02*
X9736491Y-12628746D01*
X9736491Y-12628746D02*
X9736491Y-12685888D01*
X9736491Y-12685888D02*
X9726967Y-12704936D01*
X9726967Y-12704936D02*
X9717444Y-12714460D01*
X9717444Y-12714460D02*
X9698396Y-12723984D01*
X9698396Y-12723984D02*
X9660301Y-12723984D01*
X9660301Y-12723984D02*
X9641253Y-12714460D01*
X9822205Y-12704936D02*
X9831729Y-12714460D01*
X9831729Y-12714460D02*
X9822205Y-12723984D01*
X9822205Y-12723984D02*
X9812682Y-12714460D01*
X9812682Y-12714460D02*
X9822205Y-12704936D01*
X9822205Y-12704936D02*
X9822205Y-12723984D01*
X9822205Y-12600174D02*
X9831729Y-12609698D01*
X9831729Y-12609698D02*
X9822205Y-12619222D01*
X9822205Y-12619222D02*
X9812682Y-12609698D01*
X9812682Y-12609698D02*
X9822205Y-12600174D01*
X9822205Y-12600174D02*
X9822205Y-12619222D01*
M02*
