%TF.GenerationSoftware,KiCad,Pcbnew,10.0.3*%
%TF.CreationDate,2026-08-01T19:13:47+08:00*%
%TF.ProjectId,UREX_PDB,55524558-5f50-4444-922e-6b696361645f,rev?*%
%TF.SameCoordinates,Original*%
%TF.FileFunction,Drillmap*%
%TF.FilePolarity,Positive*%
%FSLAX45Y45*%
G04 Gerber Fmt 4.5, Leading zero omitted, Abs format (unit mm)*
G04 Created by KiCad (PCBNEW 10.0.3) date 2026-08-01 19:13:47*
%MOMM*%
%LPD*%
G01*
G04 APERTURE LIST*
%ADD10C,0.200000*%
%ADD11C,0.100000*%
%ADD12C,0.140000*%
%ADD13C,0.150000*%
%ADD14C,0.190000*%
%ADD15C,0.220000*%
%ADD16C,0.270000*%
G04 APERTURE END LIST*
D10*
X8200000Y-6602500D02*
G75*
G02*
X8400000Y-6402500I200000J0D01*
G01*
X8200000Y-12202500D02*
X8200000Y-6602500D01*
X8400000Y-6402500D02*
X17000000Y-6402500D01*
X8400000Y-12402500D02*
G75*
G02*
X8200000Y-12202500I0J200000D01*
G01*
X17000000Y-6402500D02*
G75*
G02*
X17200000Y-6602500I0J-200000D01*
G01*
X17000000Y-12402500D02*
X8400000Y-12402500D01*
X17200000Y-6602500D02*
X17200000Y-12202500D01*
X17200000Y-12202500D02*
G75*
G02*
X17000000Y-12402500I-200000J0D01*
G01*
D11*
X8897000Y-10445000D02*
X8917000Y-10465000D01*
X8917000Y-10445000D02*
X8897000Y-10465000D01*
X8897000Y-10585000D02*
X8917000Y-10605000D01*
X8917000Y-10585000D02*
X8897000Y-10605000D01*
X8967000Y-10375000D02*
X8987000Y-10395000D01*
X8987000Y-10375000D02*
X8967000Y-10395000D01*
X8967000Y-10515000D02*
X8987000Y-10535000D01*
X8987000Y-10515000D02*
X8967000Y-10535000D01*
X8967000Y-10655000D02*
X8987000Y-10675000D01*
X8987000Y-10655000D02*
X8967000Y-10675000D01*
X9037000Y-10445000D02*
X9057000Y-10465000D01*
X9057000Y-10445000D02*
X9037000Y-10465000D01*
X9037000Y-10585000D02*
X9057000Y-10605000D01*
X9057000Y-10585000D02*
X9037000Y-10605000D01*
X9107000Y-10375000D02*
X9127000Y-10395000D01*
X9127000Y-10375000D02*
X9107000Y-10395000D01*
X9107000Y-10515000D02*
X9127000Y-10535000D01*
X9127000Y-10515000D02*
X9107000Y-10535000D01*
X9107000Y-10655000D02*
X9127000Y-10675000D01*
X9127000Y-10655000D02*
X9107000Y-10675000D01*
X9177000Y-10445000D02*
X9197000Y-10465000D01*
X9197000Y-10445000D02*
X9177000Y-10465000D01*
X9177000Y-10585000D02*
X9197000Y-10605000D01*
X9197000Y-10585000D02*
X9177000Y-10605000D01*
X8319000Y-9610000D02*
G75*
G02*
X8289000Y-9610000I-15000J0D01*
G01*
X8289000Y-9610000D02*
G75*
G02*
X8319000Y-9610000I15000J0D01*
G01*
X8325000Y-11130000D02*
G75*
G02*
X8295000Y-11130000I-15000J0D01*
G01*
X8295000Y-11130000D02*
G75*
G02*
X8325000Y-11130000I15000J0D01*
G01*
X8465000Y-11125000D02*
G75*
G02*
X8435000Y-11125000I-15000J0D01*
G01*
X8435000Y-11125000D02*
G75*
G02*
X8465000Y-11125000I15000J0D01*
G01*
X8535000Y-8540000D02*
G75*
G02*
X8505000Y-8540000I-15000J0D01*
G01*
X8505000Y-8540000D02*
G75*
G02*
X8535000Y-8540000I15000J0D01*
G01*
X8555000Y-9260000D02*
G75*
G02*
X8525000Y-9260000I-15000J0D01*
G01*
X8525000Y-9260000D02*
G75*
G02*
X8555000Y-9260000I15000J0D01*
G01*
X8587500Y-11122500D02*
G75*
G02*
X8557500Y-11122500I-15000J0D01*
G01*
X8557500Y-11122500D02*
G75*
G02*
X8587500Y-11122500I15000J0D01*
G01*
X8615000Y-8720000D02*
G75*
G02*
X8585000Y-8720000I-15000J0D01*
G01*
X8585000Y-8720000D02*
G75*
G02*
X8615000Y-8720000I15000J0D01*
G01*
X8640000Y-10675000D02*
G75*
G02*
X8610000Y-10675000I-15000J0D01*
G01*
X8610000Y-10675000D02*
G75*
G02*
X8640000Y-10675000I15000J0D01*
G01*
X8640000Y-10825000D02*
G75*
G02*
X8610000Y-10825000I-15000J0D01*
G01*
X8610000Y-10825000D02*
G75*
G02*
X8640000Y-10825000I15000J0D01*
G01*
X8705000Y-11620000D02*
G75*
G02*
X8675000Y-11620000I-15000J0D01*
G01*
X8675000Y-11620000D02*
G75*
G02*
X8705000Y-11620000I15000J0D01*
G01*
X8725000Y-11450000D02*
G75*
G02*
X8695000Y-11450000I-15000J0D01*
G01*
X8695000Y-11450000D02*
G75*
G02*
X8725000Y-11450000I15000J0D01*
G01*
X8805000Y-11850000D02*
G75*
G02*
X8775000Y-11850000I-15000J0D01*
G01*
X8775000Y-11850000D02*
G75*
G02*
X8805000Y-11850000I15000J0D01*
G01*
X8875000Y-7300000D02*
G75*
G02*
X8845000Y-7300000I-15000J0D01*
G01*
X8845000Y-7300000D02*
G75*
G02*
X8875000Y-7300000I15000J0D01*
G01*
X9035000Y-7440000D02*
G75*
G02*
X9005000Y-7440000I-15000J0D01*
G01*
X9005000Y-7440000D02*
G75*
G02*
X9035000Y-7440000I15000J0D01*
G01*
X9135000Y-7520000D02*
G75*
G02*
X9105000Y-7520000I-15000J0D01*
G01*
X9105000Y-7520000D02*
G75*
G02*
X9135000Y-7520000I15000J0D01*
G01*
X9160000Y-9848350D02*
G75*
G02*
X9130000Y-9848350I-15000J0D01*
G01*
X9130000Y-9848350D02*
G75*
G02*
X9160000Y-9848350I15000J0D01*
G01*
X9215000Y-11080000D02*
G75*
G02*
X9185000Y-11080000I-15000J0D01*
G01*
X9185000Y-11080000D02*
G75*
G02*
X9215000Y-11080000I15000J0D01*
G01*
X9215000Y-11370000D02*
G75*
G02*
X9185000Y-11370000I-15000J0D01*
G01*
X9185000Y-11370000D02*
G75*
G02*
X9215000Y-11370000I15000J0D01*
G01*
X9217000Y-9250000D02*
G75*
G02*
X9187000Y-9250000I-15000J0D01*
G01*
X9187000Y-9250000D02*
G75*
G02*
X9217000Y-9250000I15000J0D01*
G01*
X9340000Y-7375000D02*
G75*
G02*
X9310000Y-7375000I-15000J0D01*
G01*
X9310000Y-7375000D02*
G75*
G02*
X9340000Y-7375000I15000J0D01*
G01*
X9344000Y-9271000D02*
G75*
G02*
X9314000Y-9271000I-15000J0D01*
G01*
X9314000Y-9271000D02*
G75*
G02*
X9344000Y-9271000I15000J0D01*
G01*
X9345000Y-10940000D02*
G75*
G02*
X9315000Y-10940000I-15000J0D01*
G01*
X9315000Y-10940000D02*
G75*
G02*
X9345000Y-10940000I15000J0D01*
G01*
X9365000Y-7525000D02*
G75*
G02*
X9335000Y-7525000I-15000J0D01*
G01*
X9335000Y-7525000D02*
G75*
G02*
X9365000Y-7525000I15000J0D01*
G01*
X9415000Y-11390000D02*
G75*
G02*
X9385000Y-11390000I-15000J0D01*
G01*
X9385000Y-11390000D02*
G75*
G02*
X9415000Y-11390000I15000J0D01*
G01*
X9440000Y-7675000D02*
G75*
G02*
X9410000Y-7675000I-15000J0D01*
G01*
X9410000Y-7675000D02*
G75*
G02*
X9440000Y-7675000I15000J0D01*
G01*
X9595000Y-10750000D02*
G75*
G02*
X9565000Y-10750000I-15000J0D01*
G01*
X9565000Y-10750000D02*
G75*
G02*
X9595000Y-10750000I15000J0D01*
G01*
X9615000Y-8050000D02*
G75*
G02*
X9585000Y-8050000I-15000J0D01*
G01*
X9585000Y-8050000D02*
G75*
G02*
X9615000Y-8050000I15000J0D01*
G01*
X9665000Y-7525000D02*
G75*
G02*
X9635000Y-7525000I-15000J0D01*
G01*
X9635000Y-7525000D02*
G75*
G02*
X9665000Y-7525000I15000J0D01*
G01*
X9715000Y-8670000D02*
G75*
G02*
X9685000Y-8670000I-15000J0D01*
G01*
X9685000Y-8670000D02*
G75*
G02*
X9715000Y-8670000I15000J0D01*
G01*
X9790000Y-7675000D02*
G75*
G02*
X9760000Y-7675000I-15000J0D01*
G01*
X9760000Y-7675000D02*
G75*
G02*
X9790000Y-7675000I15000J0D01*
G01*
X9795000Y-10740000D02*
G75*
G02*
X9765000Y-10740000I-15000J0D01*
G01*
X9765000Y-10740000D02*
G75*
G02*
X9795000Y-10740000I15000J0D01*
G01*
X9805000Y-11840000D02*
G75*
G02*
X9775000Y-11840000I-15000J0D01*
G01*
X9775000Y-11840000D02*
G75*
G02*
X9805000Y-11840000I15000J0D01*
G01*
X9905000Y-6522500D02*
G75*
G02*
X9875000Y-6522500I-15000J0D01*
G01*
X9875000Y-6522500D02*
G75*
G02*
X9905000Y-6522500I15000J0D01*
G01*
X9920000Y-6660000D02*
G75*
G02*
X9890000Y-6660000I-15000J0D01*
G01*
X9890000Y-6660000D02*
G75*
G02*
X9920000Y-6660000I15000J0D01*
G01*
X9955000Y-9330000D02*
G75*
G02*
X9925000Y-9330000I-15000J0D01*
G01*
X9925000Y-9330000D02*
G75*
G02*
X9955000Y-9330000I15000J0D01*
G01*
X10090000Y-9100000D02*
G75*
G02*
X10060000Y-9100000I-15000J0D01*
G01*
X10060000Y-9100000D02*
G75*
G02*
X10090000Y-9100000I15000J0D01*
G01*
X10115000Y-8625000D02*
G75*
G02*
X10085000Y-8625000I-15000J0D01*
G01*
X10085000Y-8625000D02*
G75*
G02*
X10115000Y-8625000I15000J0D01*
G01*
X10235000Y-8090000D02*
G75*
G02*
X10205000Y-8090000I-15000J0D01*
G01*
X10205000Y-8090000D02*
G75*
G02*
X10235000Y-8090000I15000J0D01*
G01*
X10240000Y-8500000D02*
G75*
G02*
X10210000Y-8500000I-15000J0D01*
G01*
X10210000Y-8500000D02*
G75*
G02*
X10240000Y-8500000I15000J0D01*
G01*
X10255000Y-10910000D02*
G75*
G02*
X10225000Y-10910000I-15000J0D01*
G01*
X10225000Y-10910000D02*
G75*
G02*
X10255000Y-10910000I15000J0D01*
G01*
X10285000Y-9580000D02*
G75*
G02*
X10255000Y-9580000I-15000J0D01*
G01*
X10255000Y-9580000D02*
G75*
G02*
X10285000Y-9580000I15000J0D01*
G01*
X10295000Y-9690000D02*
G75*
G02*
X10265000Y-9690000I-15000J0D01*
G01*
X10265000Y-9690000D02*
G75*
G02*
X10295000Y-9690000I15000J0D01*
G01*
X10310000Y-8250000D02*
G75*
G02*
X10280000Y-8250000I-15000J0D01*
G01*
X10280000Y-8250000D02*
G75*
G02*
X10310000Y-8250000I15000J0D01*
G01*
X10310000Y-8425000D02*
G75*
G02*
X10280000Y-8425000I-15000J0D01*
G01*
X10280000Y-8425000D02*
G75*
G02*
X10310000Y-8425000I15000J0D01*
G01*
X10365000Y-8020000D02*
G75*
G02*
X10335000Y-8020000I-15000J0D01*
G01*
X10335000Y-8020000D02*
G75*
G02*
X10365000Y-8020000I15000J0D01*
G01*
X10365000Y-8750000D02*
G75*
G02*
X10335000Y-8750000I-15000J0D01*
G01*
X10335000Y-8750000D02*
G75*
G02*
X10365000Y-8750000I15000J0D01*
G01*
X10415000Y-9660000D02*
G75*
G02*
X10385000Y-9660000I-15000J0D01*
G01*
X10385000Y-9660000D02*
G75*
G02*
X10415000Y-9660000I15000J0D01*
G01*
X10420000Y-9047500D02*
G75*
G02*
X10390000Y-9047500I-15000J0D01*
G01*
X10390000Y-9047500D02*
G75*
G02*
X10420000Y-9047500I15000J0D01*
G01*
X10515000Y-9660000D02*
G75*
G02*
X10485000Y-9660000I-15000J0D01*
G01*
X10485000Y-9660000D02*
G75*
G02*
X10515000Y-9660000I15000J0D01*
G01*
X10605000Y-9660000D02*
G75*
G02*
X10575000Y-9660000I-15000J0D01*
G01*
X10575000Y-9660000D02*
G75*
G02*
X10605000Y-9660000I15000J0D01*
G01*
X10615000Y-9930000D02*
G75*
G02*
X10585000Y-9930000I-15000J0D01*
G01*
X10585000Y-9930000D02*
G75*
G02*
X10615000Y-9930000I15000J0D01*
G01*
X10615000Y-10080000D02*
G75*
G02*
X10585000Y-10080000I-15000J0D01*
G01*
X10585000Y-10080000D02*
G75*
G02*
X10615000Y-10080000I15000J0D01*
G01*
X10665000Y-8200000D02*
G75*
G02*
X10635000Y-8200000I-15000J0D01*
G01*
X10635000Y-8200000D02*
G75*
G02*
X10665000Y-8200000I15000J0D01*
G01*
X10665000Y-8300000D02*
G75*
G02*
X10635000Y-8300000I-15000J0D01*
G01*
X10635000Y-8300000D02*
G75*
G02*
X10665000Y-8300000I15000J0D01*
G01*
X10665000Y-8400000D02*
G75*
G02*
X10635000Y-8400000I-15000J0D01*
G01*
X10635000Y-8400000D02*
G75*
G02*
X10665000Y-8400000I15000J0D01*
G01*
X10665000Y-8500000D02*
G75*
G02*
X10635000Y-8500000I-15000J0D01*
G01*
X10635000Y-8500000D02*
G75*
G02*
X10665000Y-8500000I15000J0D01*
G01*
X10705000Y-9660000D02*
G75*
G02*
X10675000Y-9660000I-15000J0D01*
G01*
X10675000Y-9660000D02*
G75*
G02*
X10705000Y-9660000I15000J0D01*
G01*
X10705000Y-10040000D02*
G75*
G02*
X10675000Y-10040000I-15000J0D01*
G01*
X10675000Y-10040000D02*
G75*
G02*
X10705000Y-10040000I15000J0D01*
G01*
X10765000Y-10325000D02*
G75*
G02*
X10735000Y-10325000I-15000J0D01*
G01*
X10735000Y-10325000D02*
G75*
G02*
X10765000Y-10325000I15000J0D01*
G01*
X10785000Y-9660000D02*
G75*
G02*
X10755000Y-9660000I-15000J0D01*
G01*
X10755000Y-9660000D02*
G75*
G02*
X10785000Y-9660000I15000J0D01*
G01*
X10785000Y-9970000D02*
G75*
G02*
X10755000Y-9970000I-15000J0D01*
G01*
X10755000Y-9970000D02*
G75*
G02*
X10785000Y-9970000I15000J0D01*
G01*
X10915000Y-8900000D02*
G75*
G02*
X10885000Y-8900000I-15000J0D01*
G01*
X10885000Y-8900000D02*
G75*
G02*
X10915000Y-8900000I15000J0D01*
G01*
X10915000Y-9200000D02*
G75*
G02*
X10885000Y-9200000I-15000J0D01*
G01*
X10885000Y-9200000D02*
G75*
G02*
X10915000Y-9200000I15000J0D01*
G01*
X10940000Y-10425000D02*
G75*
G02*
X10910000Y-10425000I-15000J0D01*
G01*
X10910000Y-10425000D02*
G75*
G02*
X10940000Y-10425000I15000J0D01*
G01*
X10980000Y-10545000D02*
G75*
G02*
X10950000Y-10545000I-15000J0D01*
G01*
X10950000Y-10545000D02*
G75*
G02*
X10980000Y-10545000I15000J0D01*
G01*
X11015000Y-11250000D02*
G75*
G02*
X10985000Y-11250000I-15000J0D01*
G01*
X10985000Y-11250000D02*
G75*
G02*
X11015000Y-11250000I15000J0D01*
G01*
X11015000Y-11350000D02*
G75*
G02*
X10985000Y-11350000I-15000J0D01*
G01*
X10985000Y-11350000D02*
G75*
G02*
X11015000Y-11350000I15000J0D01*
G01*
X11015000Y-11450000D02*
G75*
G02*
X10985000Y-11450000I-15000J0D01*
G01*
X10985000Y-11450000D02*
G75*
G02*
X11015000Y-11450000I15000J0D01*
G01*
X11015000Y-11575000D02*
G75*
G02*
X10985000Y-11575000I-15000J0D01*
G01*
X10985000Y-11575000D02*
G75*
G02*
X11015000Y-11575000I15000J0D01*
G01*
X11015000Y-11700000D02*
G75*
G02*
X10985000Y-11700000I-15000J0D01*
G01*
X10985000Y-11700000D02*
G75*
G02*
X11015000Y-11700000I15000J0D01*
G01*
X11075388Y-8275000D02*
G75*
G02*
X11045388Y-8275000I-15000J0D01*
G01*
X11045388Y-8275000D02*
G75*
G02*
X11075388Y-8275000I15000J0D01*
G01*
X11125000Y-9200000D02*
G75*
G02*
X11095000Y-9200000I-15000J0D01*
G01*
X11095000Y-9200000D02*
G75*
G02*
X11125000Y-9200000I15000J0D01*
G01*
X11149467Y-10287260D02*
G75*
G02*
X11119467Y-10287260I-15000J0D01*
G01*
X11119467Y-10287260D02*
G75*
G02*
X11149467Y-10287260I15000J0D01*
G01*
X11155000Y-8250000D02*
G75*
G02*
X11125000Y-8250000I-15000J0D01*
G01*
X11125000Y-8250000D02*
G75*
G02*
X11155000Y-8250000I15000J0D01*
G01*
X11240000Y-7800000D02*
G75*
G02*
X11210000Y-7800000I-15000J0D01*
G01*
X11210000Y-7800000D02*
G75*
G02*
X11240000Y-7800000I15000J0D01*
G01*
X11295000Y-9200000D02*
G75*
G02*
X11265000Y-9200000I-15000J0D01*
G01*
X11265000Y-9200000D02*
G75*
G02*
X11295000Y-9200000I15000J0D01*
G01*
X11465000Y-9200000D02*
G75*
G02*
X11435000Y-9200000I-15000J0D01*
G01*
X11435000Y-9200000D02*
G75*
G02*
X11465000Y-9200000I15000J0D01*
G01*
X11525000Y-8770000D02*
G75*
G02*
X11495000Y-8770000I-15000J0D01*
G01*
X11495000Y-8770000D02*
G75*
G02*
X11525000Y-8770000I15000J0D01*
G01*
X11595000Y-10365000D02*
G75*
G02*
X11565000Y-10365000I-15000J0D01*
G01*
X11565000Y-10365000D02*
G75*
G02*
X11595000Y-10365000I15000J0D01*
G01*
X11640000Y-8852500D02*
G75*
G02*
X11610000Y-8852500I-15000J0D01*
G01*
X11610000Y-8852500D02*
G75*
G02*
X11640000Y-8852500I15000J0D01*
G01*
X11640000Y-9027500D02*
G75*
G02*
X11610000Y-9027500I-15000J0D01*
G01*
X11610000Y-9027500D02*
G75*
G02*
X11640000Y-9027500I15000J0D01*
G01*
X11680231Y-10450000D02*
G75*
G02*
X11650231Y-10450000I-15000J0D01*
G01*
X11650231Y-10450000D02*
G75*
G02*
X11680231Y-10450000I15000J0D01*
G01*
X11690000Y-8350000D02*
G75*
G02*
X11660000Y-8350000I-15000J0D01*
G01*
X11660000Y-8350000D02*
G75*
G02*
X11690000Y-8350000I15000J0D01*
G01*
X11690000Y-9200000D02*
G75*
G02*
X11660000Y-9200000I-15000J0D01*
G01*
X11660000Y-9200000D02*
G75*
G02*
X11690000Y-9200000I15000J0D01*
G01*
X11705000Y-8130000D02*
G75*
G02*
X11675000Y-8130000I-15000J0D01*
G01*
X11675000Y-8130000D02*
G75*
G02*
X11705000Y-8130000I15000J0D01*
G01*
X11775000Y-10350000D02*
G75*
G02*
X11745000Y-10350000I-15000J0D01*
G01*
X11745000Y-10350000D02*
G75*
G02*
X11775000Y-10350000I15000J0D01*
G01*
X11815000Y-9200000D02*
G75*
G02*
X11785000Y-9200000I-15000J0D01*
G01*
X11785000Y-9200000D02*
G75*
G02*
X11815000Y-9200000I15000J0D01*
G01*
X11815000Y-10590000D02*
G75*
G02*
X11785000Y-10590000I-15000J0D01*
G01*
X11785000Y-10590000D02*
G75*
G02*
X11815000Y-10590000I15000J0D01*
G01*
X11825000Y-8355000D02*
G75*
G02*
X11795000Y-8355000I-15000J0D01*
G01*
X11795000Y-8355000D02*
G75*
G02*
X11825000Y-8355000I15000J0D01*
G01*
X11840000Y-8125000D02*
G75*
G02*
X11810000Y-8125000I-15000J0D01*
G01*
X11810000Y-8125000D02*
G75*
G02*
X11840000Y-8125000I15000J0D01*
G01*
X11840000Y-8230000D02*
G75*
G02*
X11810000Y-8230000I-15000J0D01*
G01*
X11810000Y-8230000D02*
G75*
G02*
X11840000Y-8230000I15000J0D01*
G01*
X11915000Y-10650000D02*
G75*
G02*
X11885000Y-10650000I-15000J0D01*
G01*
X11885000Y-10650000D02*
G75*
G02*
X11915000Y-10650000I15000J0D01*
G01*
X11915000Y-10850000D02*
G75*
G02*
X11885000Y-10850000I-15000J0D01*
G01*
X11885000Y-10850000D02*
G75*
G02*
X11915000Y-10850000I15000J0D01*
G01*
X12005000Y-8130000D02*
G75*
G02*
X11975000Y-8130000I-15000J0D01*
G01*
X11975000Y-8130000D02*
G75*
G02*
X12005000Y-8130000I15000J0D01*
G01*
X12005000Y-8230000D02*
G75*
G02*
X11975000Y-8230000I-15000J0D01*
G01*
X11975000Y-8230000D02*
G75*
G02*
X12005000Y-8230000I15000J0D01*
G01*
X12015000Y-10850000D02*
G75*
G02*
X11985000Y-10850000I-15000J0D01*
G01*
X11985000Y-10850000D02*
G75*
G02*
X12015000Y-10850000I15000J0D01*
G01*
X12035000Y-7770000D02*
G75*
G02*
X12005000Y-7770000I-15000J0D01*
G01*
X12005000Y-7770000D02*
G75*
G02*
X12035000Y-7770000I15000J0D01*
G01*
X12035000Y-7860000D02*
G75*
G02*
X12005000Y-7860000I-15000J0D01*
G01*
X12005000Y-7860000D02*
G75*
G02*
X12035000Y-7860000I15000J0D01*
G01*
X12035000Y-7950000D02*
G75*
G02*
X12005000Y-7950000I-15000J0D01*
G01*
X12005000Y-7950000D02*
G75*
G02*
X12035000Y-7950000I15000J0D01*
G01*
X12035000Y-8040000D02*
G75*
G02*
X12005000Y-8040000I-15000J0D01*
G01*
X12005000Y-8040000D02*
G75*
G02*
X12035000Y-8040000I15000J0D01*
G01*
X12090000Y-9200000D02*
G75*
G02*
X12060000Y-9200000I-15000J0D01*
G01*
X12060000Y-9200000D02*
G75*
G02*
X12090000Y-9200000I15000J0D01*
G01*
X12090000Y-9375000D02*
G75*
G02*
X12060000Y-9375000I-15000J0D01*
G01*
X12060000Y-9375000D02*
G75*
G02*
X12090000Y-9375000I15000J0D01*
G01*
X12165000Y-8735000D02*
G75*
G02*
X12135000Y-8735000I-15000J0D01*
G01*
X12135000Y-8735000D02*
G75*
G02*
X12165000Y-8735000I15000J0D01*
G01*
X12330000Y-11425000D02*
G75*
G02*
X12300000Y-11425000I-15000J0D01*
G01*
X12300000Y-11425000D02*
G75*
G02*
X12330000Y-11425000I15000J0D01*
G01*
X12340000Y-11575000D02*
G75*
G02*
X12310000Y-11575000I-15000J0D01*
G01*
X12310000Y-11575000D02*
G75*
G02*
X12340000Y-11575000I15000J0D01*
G01*
X12340000Y-11750000D02*
G75*
G02*
X12310000Y-11750000I-15000J0D01*
G01*
X12310000Y-11750000D02*
G75*
G02*
X12340000Y-11750000I15000J0D01*
G01*
X12436640Y-10350000D02*
G75*
G02*
X12406640Y-10350000I-15000J0D01*
G01*
X12406640Y-10350000D02*
G75*
G02*
X12436640Y-10350000I15000J0D01*
G01*
X12437500Y-10452500D02*
G75*
G02*
X12407500Y-10452500I-15000J0D01*
G01*
X12407500Y-10452500D02*
G75*
G02*
X12437500Y-10452500I15000J0D01*
G01*
X12490000Y-11425000D02*
G75*
G02*
X12460000Y-11425000I-15000J0D01*
G01*
X12460000Y-11425000D02*
G75*
G02*
X12490000Y-11425000I15000J0D01*
G01*
X12490000Y-11575000D02*
G75*
G02*
X12460000Y-11575000I-15000J0D01*
G01*
X12460000Y-11575000D02*
G75*
G02*
X12490000Y-11575000I15000J0D01*
G01*
X12490000Y-11750000D02*
G75*
G02*
X12460000Y-11750000I-15000J0D01*
G01*
X12460000Y-11750000D02*
G75*
G02*
X12490000Y-11750000I15000J0D01*
G01*
X12765000Y-7025000D02*
G75*
G02*
X12735000Y-7025000I-15000J0D01*
G01*
X12735000Y-7025000D02*
G75*
G02*
X12765000Y-7025000I15000J0D01*
G01*
X12765000Y-10590000D02*
G75*
G02*
X12735000Y-10590000I-15000J0D01*
G01*
X12735000Y-10590000D02*
G75*
G02*
X12765000Y-10590000I15000J0D01*
G01*
X12915000Y-10590000D02*
G75*
G02*
X12885000Y-10590000I-15000J0D01*
G01*
X12885000Y-10590000D02*
G75*
G02*
X12915000Y-10590000I15000J0D01*
G01*
X13015000Y-7020000D02*
G75*
G02*
X12985000Y-7020000I-15000J0D01*
G01*
X12985000Y-7020000D02*
G75*
G02*
X13015000Y-7020000I15000J0D01*
G01*
X13015000Y-10640000D02*
G75*
G02*
X12985000Y-10640000I-15000J0D01*
G01*
X12985000Y-10640000D02*
G75*
G02*
X13015000Y-10640000I15000J0D01*
G01*
X13020000Y-10780000D02*
G75*
G02*
X12990000Y-10780000I-15000J0D01*
G01*
X12990000Y-10780000D02*
G75*
G02*
X13020000Y-10780000I15000J0D01*
G01*
X13184260Y-9700000D02*
G75*
G02*
X13154260Y-9700000I-15000J0D01*
G01*
X13154260Y-9700000D02*
G75*
G02*
X13184260Y-9700000I15000J0D01*
G01*
X13215000Y-10250000D02*
G75*
G02*
X13185000Y-10250000I-15000J0D01*
G01*
X13185000Y-10250000D02*
G75*
G02*
X13215000Y-10250000I15000J0D01*
G01*
X13215000Y-10350000D02*
G75*
G02*
X13185000Y-10350000I-15000J0D01*
G01*
X13185000Y-10350000D02*
G75*
G02*
X13215000Y-10350000I15000J0D01*
G01*
X13265000Y-7000000D02*
G75*
G02*
X13235000Y-7000000I-15000J0D01*
G01*
X13235000Y-7000000D02*
G75*
G02*
X13265000Y-7000000I15000J0D01*
G01*
X13345000Y-10010000D02*
G75*
G02*
X13315000Y-10010000I-15000J0D01*
G01*
X13315000Y-10010000D02*
G75*
G02*
X13345000Y-10010000I15000J0D01*
G01*
X13365000Y-10250000D02*
G75*
G02*
X13335000Y-10250000I-15000J0D01*
G01*
X13335000Y-10250000D02*
G75*
G02*
X13365000Y-10250000I15000J0D01*
G01*
X13365000Y-10350000D02*
G75*
G02*
X13335000Y-10350000I-15000J0D01*
G01*
X13335000Y-10350000D02*
G75*
G02*
X13365000Y-10350000I15000J0D01*
G01*
X13465000Y-8600000D02*
G75*
G02*
X13435000Y-8600000I-15000J0D01*
G01*
X13435000Y-8600000D02*
G75*
G02*
X13465000Y-8600000I15000J0D01*
G01*
X13465000Y-8750000D02*
G75*
G02*
X13435000Y-8750000I-15000J0D01*
G01*
X13435000Y-8750000D02*
G75*
G02*
X13465000Y-8750000I15000J0D01*
G01*
X13465000Y-8900000D02*
G75*
G02*
X13435000Y-8900000I-15000J0D01*
G01*
X13435000Y-8900000D02*
G75*
G02*
X13465000Y-8900000I15000J0D01*
G01*
X13465000Y-9050000D02*
G75*
G02*
X13435000Y-9050000I-15000J0D01*
G01*
X13435000Y-9050000D02*
G75*
G02*
X13465000Y-9050000I15000J0D01*
G01*
X13465000Y-9200000D02*
G75*
G02*
X13435000Y-9200000I-15000J0D01*
G01*
X13435000Y-9200000D02*
G75*
G02*
X13465000Y-9200000I15000J0D01*
G01*
X13465000Y-9350000D02*
G75*
G02*
X13435000Y-9350000I-15000J0D01*
G01*
X13435000Y-9350000D02*
G75*
G02*
X13465000Y-9350000I15000J0D01*
G01*
X13465000Y-9500000D02*
G75*
G02*
X13435000Y-9500000I-15000J0D01*
G01*
X13435000Y-9500000D02*
G75*
G02*
X13465000Y-9500000I15000J0D01*
G01*
X13515000Y-10250000D02*
G75*
G02*
X13485000Y-10250000I-15000J0D01*
G01*
X13485000Y-10250000D02*
G75*
G02*
X13515000Y-10250000I15000J0D01*
G01*
X13515000Y-10350000D02*
G75*
G02*
X13485000Y-10350000I-15000J0D01*
G01*
X13485000Y-10350000D02*
G75*
G02*
X13515000Y-10350000I15000J0D01*
G01*
X13615000Y-9990000D02*
G75*
G02*
X13585000Y-9990000I-15000J0D01*
G01*
X13585000Y-9990000D02*
G75*
G02*
X13615000Y-9990000I15000J0D01*
G01*
X13645000Y-9810000D02*
G75*
G02*
X13615000Y-9810000I-15000J0D01*
G01*
X13615000Y-9810000D02*
G75*
G02*
X13645000Y-9810000I15000J0D01*
G01*
X13655000Y-9675000D02*
G75*
G02*
X13625000Y-9675000I-15000J0D01*
G01*
X13625000Y-9675000D02*
G75*
G02*
X13655000Y-9675000I15000J0D01*
G01*
X13665000Y-11950000D02*
G75*
G02*
X13635000Y-11950000I-15000J0D01*
G01*
X13635000Y-11950000D02*
G75*
G02*
X13665000Y-11950000I15000J0D01*
G01*
X13665000Y-12050000D02*
G75*
G02*
X13635000Y-12050000I-15000J0D01*
G01*
X13635000Y-12050000D02*
G75*
G02*
X13665000Y-12050000I15000J0D01*
G01*
X13665000Y-12150000D02*
G75*
G02*
X13635000Y-12150000I-15000J0D01*
G01*
X13635000Y-12150000D02*
G75*
G02*
X13665000Y-12150000I15000J0D01*
G01*
X13765000Y-11950000D02*
G75*
G02*
X13735000Y-11950000I-15000J0D01*
G01*
X13735000Y-11950000D02*
G75*
G02*
X13765000Y-11950000I15000J0D01*
G01*
X13765000Y-12050000D02*
G75*
G02*
X13735000Y-12050000I-15000J0D01*
G01*
X13735000Y-12050000D02*
G75*
G02*
X13765000Y-12050000I15000J0D01*
G01*
X13765000Y-12150000D02*
G75*
G02*
X13735000Y-12150000I-15000J0D01*
G01*
X13735000Y-12150000D02*
G75*
G02*
X13765000Y-12150000I15000J0D01*
G01*
X13785000Y-9770000D02*
G75*
G02*
X13755000Y-9770000I-15000J0D01*
G01*
X13755000Y-9770000D02*
G75*
G02*
X13785000Y-9770000I15000J0D01*
G01*
X13865000Y-11950000D02*
G75*
G02*
X13835000Y-11950000I-15000J0D01*
G01*
X13835000Y-11950000D02*
G75*
G02*
X13865000Y-11950000I15000J0D01*
G01*
X13865000Y-12050000D02*
G75*
G02*
X13835000Y-12050000I-15000J0D01*
G01*
X13835000Y-12050000D02*
G75*
G02*
X13865000Y-12050000I15000J0D01*
G01*
X13865000Y-12150000D02*
G75*
G02*
X13835000Y-12150000I-15000J0D01*
G01*
X13835000Y-12150000D02*
G75*
G02*
X13865000Y-12150000I15000J0D01*
G01*
X13965000Y-11550000D02*
G75*
G02*
X13935000Y-11550000I-15000J0D01*
G01*
X13935000Y-11550000D02*
G75*
G02*
X13965000Y-11550000I15000J0D01*
G01*
X13965000Y-11650000D02*
G75*
G02*
X13935000Y-11650000I-15000J0D01*
G01*
X13935000Y-11650000D02*
G75*
G02*
X13965000Y-11650000I15000J0D01*
G01*
X13965000Y-11750000D02*
G75*
G02*
X13935000Y-11750000I-15000J0D01*
G01*
X13935000Y-11750000D02*
G75*
G02*
X13965000Y-11750000I15000J0D01*
G01*
X13965000Y-11850000D02*
G75*
G02*
X13935000Y-11850000I-15000J0D01*
G01*
X13935000Y-11850000D02*
G75*
G02*
X13965000Y-11850000I15000J0D01*
G01*
X13965000Y-11950000D02*
G75*
G02*
X13935000Y-11950000I-15000J0D01*
G01*
X13935000Y-11950000D02*
G75*
G02*
X13965000Y-11950000I15000J0D01*
G01*
X13965000Y-12050000D02*
G75*
G02*
X13935000Y-12050000I-15000J0D01*
G01*
X13935000Y-12050000D02*
G75*
G02*
X13965000Y-12050000I15000J0D01*
G01*
X13965000Y-12150000D02*
G75*
G02*
X13935000Y-12150000I-15000J0D01*
G01*
X13935000Y-12150000D02*
G75*
G02*
X13965000Y-12150000I15000J0D01*
G01*
X14065000Y-7025000D02*
G75*
G02*
X14035000Y-7025000I-15000J0D01*
G01*
X14035000Y-7025000D02*
G75*
G02*
X14065000Y-7025000I15000J0D01*
G01*
X14065000Y-11550000D02*
G75*
G02*
X14035000Y-11550000I-15000J0D01*
G01*
X14035000Y-11550000D02*
G75*
G02*
X14065000Y-11550000I15000J0D01*
G01*
X14065000Y-11650000D02*
G75*
G02*
X14035000Y-11650000I-15000J0D01*
G01*
X14035000Y-11650000D02*
G75*
G02*
X14065000Y-11650000I15000J0D01*
G01*
X14065000Y-11750000D02*
G75*
G02*
X14035000Y-11750000I-15000J0D01*
G01*
X14035000Y-11750000D02*
G75*
G02*
X14065000Y-11750000I15000J0D01*
G01*
X14065000Y-11850000D02*
G75*
G02*
X14035000Y-11850000I-15000J0D01*
G01*
X14035000Y-11850000D02*
G75*
G02*
X14065000Y-11850000I15000J0D01*
G01*
X14065000Y-11950000D02*
G75*
G02*
X14035000Y-11950000I-15000J0D01*
G01*
X14035000Y-11950000D02*
G75*
G02*
X14065000Y-11950000I15000J0D01*
G01*
X14065000Y-12050000D02*
G75*
G02*
X14035000Y-12050000I-15000J0D01*
G01*
X14035000Y-12050000D02*
G75*
G02*
X14065000Y-12050000I15000J0D01*
G01*
X14065000Y-12150000D02*
G75*
G02*
X14035000Y-12150000I-15000J0D01*
G01*
X14035000Y-12150000D02*
G75*
G02*
X14065000Y-12150000I15000J0D01*
G01*
X14165000Y-11550000D02*
G75*
G02*
X14135000Y-11550000I-15000J0D01*
G01*
X14135000Y-11550000D02*
G75*
G02*
X14165000Y-11550000I15000J0D01*
G01*
X14165000Y-11650000D02*
G75*
G02*
X14135000Y-11650000I-15000J0D01*
G01*
X14135000Y-11650000D02*
G75*
G02*
X14165000Y-11650000I15000J0D01*
G01*
X14165000Y-11750000D02*
G75*
G02*
X14135000Y-11750000I-15000J0D01*
G01*
X14135000Y-11750000D02*
G75*
G02*
X14165000Y-11750000I15000J0D01*
G01*
X14165000Y-11850000D02*
G75*
G02*
X14135000Y-11850000I-15000J0D01*
G01*
X14135000Y-11850000D02*
G75*
G02*
X14165000Y-11850000I15000J0D01*
G01*
X14165000Y-11950000D02*
G75*
G02*
X14135000Y-11950000I-15000J0D01*
G01*
X14135000Y-11950000D02*
G75*
G02*
X14165000Y-11950000I15000J0D01*
G01*
X14165000Y-12050000D02*
G75*
G02*
X14135000Y-12050000I-15000J0D01*
G01*
X14135000Y-12050000D02*
G75*
G02*
X14165000Y-12050000I15000J0D01*
G01*
X14165000Y-12150000D02*
G75*
G02*
X14135000Y-12150000I-15000J0D01*
G01*
X14135000Y-12150000D02*
G75*
G02*
X14165000Y-12150000I15000J0D01*
G01*
X14265000Y-11550000D02*
G75*
G02*
X14235000Y-11550000I-15000J0D01*
G01*
X14235000Y-11550000D02*
G75*
G02*
X14265000Y-11550000I15000J0D01*
G01*
X14265000Y-11650000D02*
G75*
G02*
X14235000Y-11650000I-15000J0D01*
G01*
X14235000Y-11650000D02*
G75*
G02*
X14265000Y-11650000I15000J0D01*
G01*
X14265000Y-11750000D02*
G75*
G02*
X14235000Y-11750000I-15000J0D01*
G01*
X14235000Y-11750000D02*
G75*
G02*
X14265000Y-11750000I15000J0D01*
G01*
X14265000Y-11850000D02*
G75*
G02*
X14235000Y-11850000I-15000J0D01*
G01*
X14235000Y-11850000D02*
G75*
G02*
X14265000Y-11850000I15000J0D01*
G01*
X14265000Y-11950000D02*
G75*
G02*
X14235000Y-11950000I-15000J0D01*
G01*
X14235000Y-11950000D02*
G75*
G02*
X14265000Y-11950000I15000J0D01*
G01*
X14265000Y-12050000D02*
G75*
G02*
X14235000Y-12050000I-15000J0D01*
G01*
X14235000Y-12050000D02*
G75*
G02*
X14265000Y-12050000I15000J0D01*
G01*
X14265000Y-12150000D02*
G75*
G02*
X14235000Y-12150000I-15000J0D01*
G01*
X14235000Y-12150000D02*
G75*
G02*
X14265000Y-12150000I15000J0D01*
G01*
X14275000Y-7010000D02*
G75*
G02*
X14245000Y-7010000I-15000J0D01*
G01*
X14245000Y-7010000D02*
G75*
G02*
X14275000Y-7010000I15000J0D01*
G01*
X14365000Y-11950000D02*
G75*
G02*
X14335000Y-11950000I-15000J0D01*
G01*
X14335000Y-11950000D02*
G75*
G02*
X14365000Y-11950000I15000J0D01*
G01*
X14365000Y-12050000D02*
G75*
G02*
X14335000Y-12050000I-15000J0D01*
G01*
X14335000Y-12050000D02*
G75*
G02*
X14365000Y-12050000I15000J0D01*
G01*
X14365000Y-12150000D02*
G75*
G02*
X14335000Y-12150000I-15000J0D01*
G01*
X14335000Y-12150000D02*
G75*
G02*
X14365000Y-12150000I15000J0D01*
G01*
X14465000Y-11950000D02*
G75*
G02*
X14435000Y-11950000I-15000J0D01*
G01*
X14435000Y-11950000D02*
G75*
G02*
X14465000Y-11950000I15000J0D01*
G01*
X14465000Y-12050000D02*
G75*
G02*
X14435000Y-12050000I-15000J0D01*
G01*
X14435000Y-12050000D02*
G75*
G02*
X14465000Y-12050000I15000J0D01*
G01*
X14465000Y-12150000D02*
G75*
G02*
X14435000Y-12150000I-15000J0D01*
G01*
X14435000Y-12150000D02*
G75*
G02*
X14465000Y-12150000I15000J0D01*
G01*
X14490000Y-7025000D02*
G75*
G02*
X14460000Y-7025000I-15000J0D01*
G01*
X14460000Y-7025000D02*
G75*
G02*
X14490000Y-7025000I15000J0D01*
G01*
X14535000Y-9930000D02*
G75*
G02*
X14505000Y-9930000I-15000J0D01*
G01*
X14505000Y-9930000D02*
G75*
G02*
X14535000Y-9930000I15000J0D01*
G01*
X14565000Y-11950000D02*
G75*
G02*
X14535000Y-11950000I-15000J0D01*
G01*
X14535000Y-11950000D02*
G75*
G02*
X14565000Y-11950000I15000J0D01*
G01*
X14565000Y-12050000D02*
G75*
G02*
X14535000Y-12050000I-15000J0D01*
G01*
X14535000Y-12050000D02*
G75*
G02*
X14565000Y-12050000I15000J0D01*
G01*
X14565000Y-12150000D02*
G75*
G02*
X14535000Y-12150000I-15000J0D01*
G01*
X14535000Y-12150000D02*
G75*
G02*
X14565000Y-12150000I15000J0D01*
G01*
X14665000Y-11950000D02*
G75*
G02*
X14635000Y-11950000I-15000J0D01*
G01*
X14635000Y-11950000D02*
G75*
G02*
X14665000Y-11950000I15000J0D01*
G01*
X14665000Y-12050000D02*
G75*
G02*
X14635000Y-12050000I-15000J0D01*
G01*
X14635000Y-12050000D02*
G75*
G02*
X14665000Y-12050000I15000J0D01*
G01*
X14665000Y-12150000D02*
G75*
G02*
X14635000Y-12150000I-15000J0D01*
G01*
X14635000Y-12150000D02*
G75*
G02*
X14665000Y-12150000I15000J0D01*
G01*
X14715000Y-7600000D02*
G75*
G02*
X14685000Y-7600000I-15000J0D01*
G01*
X14685000Y-7600000D02*
G75*
G02*
X14715000Y-7600000I15000J0D01*
G01*
X14715000Y-7800000D02*
G75*
G02*
X14685000Y-7800000I-15000J0D01*
G01*
X14685000Y-7800000D02*
G75*
G02*
X14715000Y-7800000I15000J0D01*
G01*
X14715000Y-8000000D02*
G75*
G02*
X14685000Y-8000000I-15000J0D01*
G01*
X14685000Y-8000000D02*
G75*
G02*
X14715000Y-8000000I15000J0D01*
G01*
X14715000Y-8200000D02*
G75*
G02*
X14685000Y-8200000I-15000J0D01*
G01*
X14685000Y-8200000D02*
G75*
G02*
X14715000Y-8200000I15000J0D01*
G01*
X14715000Y-8400000D02*
G75*
G02*
X14685000Y-8400000I-15000J0D01*
G01*
X14685000Y-8400000D02*
G75*
G02*
X14715000Y-8400000I15000J0D01*
G01*
X14715000Y-8600000D02*
G75*
G02*
X14685000Y-8600000I-15000J0D01*
G01*
X14685000Y-8600000D02*
G75*
G02*
X14715000Y-8600000I15000J0D01*
G01*
X14715000Y-8800000D02*
G75*
G02*
X14685000Y-8800000I-15000J0D01*
G01*
X14685000Y-8800000D02*
G75*
G02*
X14715000Y-8800000I15000J0D01*
G01*
X14715000Y-9000000D02*
G75*
G02*
X14685000Y-9000000I-15000J0D01*
G01*
X14685000Y-9000000D02*
G75*
G02*
X14715000Y-9000000I15000J0D01*
G01*
X14915000Y-7700000D02*
G75*
G02*
X14885000Y-7700000I-15000J0D01*
G01*
X14885000Y-7700000D02*
G75*
G02*
X14915000Y-7700000I15000J0D01*
G01*
X14915000Y-7900000D02*
G75*
G02*
X14885000Y-7900000I-15000J0D01*
G01*
X14885000Y-7900000D02*
G75*
G02*
X14915000Y-7900000I15000J0D01*
G01*
X14915000Y-8100000D02*
G75*
G02*
X14885000Y-8100000I-15000J0D01*
G01*
X14885000Y-8100000D02*
G75*
G02*
X14915000Y-8100000I15000J0D01*
G01*
X14915000Y-8300000D02*
G75*
G02*
X14885000Y-8300000I-15000J0D01*
G01*
X14885000Y-8300000D02*
G75*
G02*
X14915000Y-8300000I15000J0D01*
G01*
X14915000Y-8500000D02*
G75*
G02*
X14885000Y-8500000I-15000J0D01*
G01*
X14885000Y-8500000D02*
G75*
G02*
X14915000Y-8500000I15000J0D01*
G01*
X14915000Y-8700000D02*
G75*
G02*
X14885000Y-8700000I-15000J0D01*
G01*
X14885000Y-8700000D02*
G75*
G02*
X14915000Y-8700000I15000J0D01*
G01*
X14915000Y-8900000D02*
G75*
G02*
X14885000Y-8900000I-15000J0D01*
G01*
X14885000Y-8900000D02*
G75*
G02*
X14915000Y-8900000I15000J0D01*
G01*
X15065000Y-7275000D02*
G75*
G02*
X15035000Y-7275000I-15000J0D01*
G01*
X15035000Y-7275000D02*
G75*
G02*
X15065000Y-7275000I15000J0D01*
G01*
X15115000Y-7800000D02*
G75*
G02*
X15085000Y-7800000I-15000J0D01*
G01*
X15085000Y-7800000D02*
G75*
G02*
X15115000Y-7800000I15000J0D01*
G01*
X15115000Y-8000000D02*
G75*
G02*
X15085000Y-8000000I-15000J0D01*
G01*
X15085000Y-8000000D02*
G75*
G02*
X15115000Y-8000000I15000J0D01*
G01*
X15115000Y-8200000D02*
G75*
G02*
X15085000Y-8200000I-15000J0D01*
G01*
X15085000Y-8200000D02*
G75*
G02*
X15115000Y-8200000I15000J0D01*
G01*
X15115000Y-8400000D02*
G75*
G02*
X15085000Y-8400000I-15000J0D01*
G01*
X15085000Y-8400000D02*
G75*
G02*
X15115000Y-8400000I15000J0D01*
G01*
X15115000Y-8600000D02*
G75*
G02*
X15085000Y-8600000I-15000J0D01*
G01*
X15085000Y-8600000D02*
G75*
G02*
X15115000Y-8600000I15000J0D01*
G01*
X15115000Y-8800000D02*
G75*
G02*
X15085000Y-8800000I-15000J0D01*
G01*
X15085000Y-8800000D02*
G75*
G02*
X15115000Y-8800000I15000J0D01*
G01*
X15190000Y-7300000D02*
G75*
G02*
X15160000Y-7300000I-15000J0D01*
G01*
X15160000Y-7300000D02*
G75*
G02*
X15190000Y-7300000I15000J0D01*
G01*
X15290000Y-8025000D02*
G75*
G02*
X15260000Y-8025000I-15000J0D01*
G01*
X15260000Y-8025000D02*
G75*
G02*
X15290000Y-8025000I15000J0D01*
G01*
X15290000Y-8625000D02*
G75*
G02*
X15260000Y-8625000I-15000J0D01*
G01*
X15260000Y-8625000D02*
G75*
G02*
X15290000Y-8625000I15000J0D01*
G01*
X15375000Y-9920000D02*
G75*
G02*
X15345000Y-9920000I-15000J0D01*
G01*
X15345000Y-9920000D02*
G75*
G02*
X15375000Y-9920000I15000J0D01*
G01*
X15390000Y-8500000D02*
G75*
G02*
X15360000Y-8500000I-15000J0D01*
G01*
X15360000Y-8500000D02*
G75*
G02*
X15390000Y-8500000I15000J0D01*
G01*
X15405000Y-9300000D02*
G75*
G02*
X15375000Y-9300000I-15000J0D01*
G01*
X15375000Y-9300000D02*
G75*
G02*
X15405000Y-9300000I15000J0D01*
G01*
X15445000Y-11170000D02*
G75*
G02*
X15415000Y-11170000I-15000J0D01*
G01*
X15415000Y-11170000D02*
G75*
G02*
X15445000Y-11170000I15000J0D01*
G01*
X15445000Y-11340000D02*
G75*
G02*
X15415000Y-11340000I-15000J0D01*
G01*
X15415000Y-11340000D02*
G75*
G02*
X15445000Y-11340000I15000J0D01*
G01*
X15445000Y-11525000D02*
G75*
G02*
X15415000Y-11525000I-15000J0D01*
G01*
X15415000Y-11525000D02*
G75*
G02*
X15445000Y-11525000I15000J0D01*
G01*
X15465000Y-8550000D02*
G75*
G02*
X15435000Y-8550000I-15000J0D01*
G01*
X15435000Y-8550000D02*
G75*
G02*
X15465000Y-8550000I15000J0D01*
G01*
X15540000Y-7125000D02*
G75*
G02*
X15510000Y-7125000I-15000J0D01*
G01*
X15510000Y-7125000D02*
G75*
G02*
X15540000Y-7125000I15000J0D01*
G01*
X15555000Y-9865000D02*
G75*
G02*
X15525000Y-9865000I-15000J0D01*
G01*
X15525000Y-9865000D02*
G75*
G02*
X15555000Y-9865000I15000J0D01*
G01*
X15665000Y-6900000D02*
G75*
G02*
X15635000Y-6900000I-15000J0D01*
G01*
X15635000Y-6900000D02*
G75*
G02*
X15665000Y-6900000I15000J0D01*
G01*
X15702500Y-11170000D02*
G75*
G02*
X15672500Y-11170000I-15000J0D01*
G01*
X15672500Y-11170000D02*
G75*
G02*
X15702500Y-11170000I15000J0D01*
G01*
X15702500Y-11340000D02*
G75*
G02*
X15672500Y-11340000I-15000J0D01*
G01*
X15672500Y-11340000D02*
G75*
G02*
X15702500Y-11340000I15000J0D01*
G01*
X15702500Y-11525000D02*
G75*
G02*
X15672500Y-11525000I-15000J0D01*
G01*
X15672500Y-11525000D02*
G75*
G02*
X15702500Y-11525000I15000J0D01*
G01*
X15725000Y-9870000D02*
G75*
G02*
X15695000Y-9870000I-15000J0D01*
G01*
X15695000Y-9870000D02*
G75*
G02*
X15725000Y-9870000I15000J0D01*
G01*
X15765000Y-8375000D02*
G75*
G02*
X15735000Y-8375000I-15000J0D01*
G01*
X15735000Y-8375000D02*
G75*
G02*
X15765000Y-8375000I15000J0D01*
G01*
X15815000Y-8140000D02*
G75*
G02*
X15785000Y-8140000I-15000J0D01*
G01*
X15785000Y-8140000D02*
G75*
G02*
X15815000Y-8140000I15000J0D01*
G01*
X15960000Y-10515000D02*
G75*
G02*
X15930000Y-10515000I-15000J0D01*
G01*
X15930000Y-10515000D02*
G75*
G02*
X15960000Y-10515000I15000J0D01*
G01*
X15960000Y-10690000D02*
G75*
G02*
X15930000Y-10690000I-15000J0D01*
G01*
X15930000Y-10690000D02*
G75*
G02*
X15960000Y-10690000I15000J0D01*
G01*
X15960000Y-10900000D02*
G75*
G02*
X15930000Y-10900000I-15000J0D01*
G01*
X15930000Y-10900000D02*
G75*
G02*
X15960000Y-10900000I15000J0D01*
G01*
X15960000Y-11170000D02*
G75*
G02*
X15930000Y-11170000I-15000J0D01*
G01*
X15930000Y-11170000D02*
G75*
G02*
X15960000Y-11170000I15000J0D01*
G01*
X15960000Y-11340000D02*
G75*
G02*
X15930000Y-11340000I-15000J0D01*
G01*
X15930000Y-11340000D02*
G75*
G02*
X15960000Y-11340000I15000J0D01*
G01*
X15960000Y-11525000D02*
G75*
G02*
X15930000Y-11525000I-15000J0D01*
G01*
X15930000Y-11525000D02*
G75*
G02*
X15960000Y-11525000I15000J0D01*
G01*
X16162500Y-11827500D02*
G75*
G02*
X16132500Y-11827500I-15000J0D01*
G01*
X16132500Y-11827500D02*
G75*
G02*
X16162500Y-11827500I15000J0D01*
G01*
X16162500Y-11997500D02*
G75*
G02*
X16132500Y-11997500I-15000J0D01*
G01*
X16132500Y-11997500D02*
G75*
G02*
X16162500Y-11997500I15000J0D01*
G01*
X16162500Y-12182500D02*
G75*
G02*
X16132500Y-12182500I-15000J0D01*
G01*
X16132500Y-12182500D02*
G75*
G02*
X16162500Y-12182500I15000J0D01*
G01*
X16315000Y-9500000D02*
G75*
G02*
X16285000Y-9500000I-15000J0D01*
G01*
X16285000Y-9500000D02*
G75*
G02*
X16315000Y-9500000I15000J0D01*
G01*
X16415000Y-8150000D02*
G75*
G02*
X16385000Y-8150000I-15000J0D01*
G01*
X16385000Y-8150000D02*
G75*
G02*
X16415000Y-8150000I15000J0D01*
G01*
X16420000Y-11827500D02*
G75*
G02*
X16390000Y-11827500I-15000J0D01*
G01*
X16390000Y-11827500D02*
G75*
G02*
X16420000Y-11827500I15000J0D01*
G01*
X16420000Y-11997500D02*
G75*
G02*
X16390000Y-11997500I-15000J0D01*
G01*
X16390000Y-11997500D02*
G75*
G02*
X16420000Y-11997500I15000J0D01*
G01*
X16420000Y-12182500D02*
G75*
G02*
X16390000Y-12182500I-15000J0D01*
G01*
X16390000Y-12182500D02*
G75*
G02*
X16420000Y-12182500I15000J0D01*
G01*
X16425000Y-8270000D02*
G75*
G02*
X16395000Y-8270000I-15000J0D01*
G01*
X16395000Y-8270000D02*
G75*
G02*
X16425000Y-8270000I15000J0D01*
G01*
X16677500Y-11827500D02*
G75*
G02*
X16647500Y-11827500I-15000J0D01*
G01*
X16647500Y-11827500D02*
G75*
G02*
X16677500Y-11827500I15000J0D01*
G01*
X16677500Y-11997500D02*
G75*
G02*
X16647500Y-11997500I-15000J0D01*
G01*
X16647500Y-11997500D02*
G75*
G02*
X16677500Y-11997500I15000J0D01*
G01*
X16677500Y-12182500D02*
G75*
G02*
X16647500Y-12182500I-15000J0D01*
G01*
X16647500Y-12182500D02*
G75*
G02*
X16677500Y-12182500I15000J0D01*
G01*
X16952500Y-11175000D02*
G75*
G02*
X16922500Y-11175000I-15000J0D01*
G01*
X16922500Y-11175000D02*
G75*
G02*
X16952500Y-11175000I15000J0D01*
G01*
X16952500Y-11345000D02*
G75*
G02*
X16922500Y-11345000I-15000J0D01*
G01*
X16922500Y-11345000D02*
G75*
G02*
X16952500Y-11345000I15000J0D01*
G01*
X16952500Y-11530000D02*
G75*
G02*
X16922500Y-11530000I-15000J0D01*
G01*
X16922500Y-11530000D02*
G75*
G02*
X16952500Y-11530000I15000J0D01*
G01*
X16955000Y-11815000D02*
G75*
G02*
X16925000Y-11815000I-15000J0D01*
G01*
X16925000Y-11815000D02*
G75*
G02*
X16955000Y-11815000I15000J0D01*
G01*
X16955000Y-11985000D02*
G75*
G02*
X16925000Y-11985000I-15000J0D01*
G01*
X16925000Y-11985000D02*
G75*
G02*
X16955000Y-11985000I15000J0D01*
G01*
X16955000Y-12170000D02*
G75*
G02*
X16925000Y-12170000I-15000J0D01*
G01*
X16925000Y-12170000D02*
G75*
G02*
X16955000Y-12170000I15000J0D01*
G01*
X13465000Y-11677500D02*
X13465000Y-11752500D01*
X13427500Y-11715000D02*
X13502500Y-11715000D01*
X13665000Y-11677500D02*
X13665000Y-11752500D01*
X13627500Y-11715000D02*
X13702500Y-11715000D01*
X14540000Y-11662500D02*
X14540000Y-11737500D01*
X14502500Y-11700000D02*
X14577500Y-11700000D01*
X14740000Y-11662500D02*
X14740000Y-11737500D01*
X14702500Y-11700000D02*
X14777500Y-11700000D01*
X16525000Y-7472500D02*
X16525000Y-7547500D01*
X16487500Y-7510000D02*
X16562500Y-7510000D01*
X16525000Y-7672500D02*
X16525000Y-7747500D01*
X16487500Y-7710000D02*
X16562500Y-7710000D01*
X16525000Y-8832500D02*
X16525000Y-8907500D01*
X16487500Y-8870000D02*
X16562500Y-8870000D01*
X16525000Y-9032500D02*
X16525000Y-9107500D01*
X16487500Y-9070000D02*
X16562500Y-9070000D01*
X8511820Y-6911820D02*
X8511820Y-6848180D01*
X8448180Y-6848180D01*
X8448180Y-6911820D01*
X8511820Y-6911820D01*
X8511820Y-7111820D02*
X8511820Y-7048180D01*
X8448180Y-7048180D01*
X8448180Y-7111820D01*
X8511820Y-7111820D01*
X8511820Y-7311820D02*
X8511820Y-7248180D01*
X8448180Y-7248180D01*
X8448180Y-7311820D01*
X8511820Y-7311820D01*
D12*
X12836000Y-8214000D02*
X12906000Y-8144000D01*
X12836000Y-8074000D01*
X12766000Y-8144000D01*
X12836000Y-8214000D01*
X12836000Y-8595000D02*
X12906000Y-8525000D01*
X12836000Y-8455000D01*
X12766000Y-8525000D01*
X12836000Y-8595000D01*
X12836000Y-8976000D02*
X12906000Y-8906000D01*
X12836000Y-8836000D01*
X12766000Y-8906000D01*
X12836000Y-8976000D01*
X14200000Y-7833000D02*
X14270000Y-7763000D01*
X14200000Y-7693000D01*
X14130000Y-7763000D01*
X14200000Y-7833000D01*
X14200000Y-8595000D02*
X14270000Y-8525000D01*
X14200000Y-8455000D01*
X14130000Y-8525000D01*
X14200000Y-8595000D01*
X14200000Y-9357000D02*
X14270000Y-9287000D01*
X14200000Y-9217000D01*
X14130000Y-9287000D01*
X14200000Y-9357000D01*
D13*
X8405000Y-6595000D02*
X8555000Y-6745000D01*
X8555000Y-6595000D02*
X8405000Y-6745000D01*
X8555000Y-6670000D02*
G75*
G02*
X8405000Y-6670000I-75000J0D01*
G01*
X8405000Y-6670000D02*
G75*
G02*
X8555000Y-6670000I75000J0D01*
G01*
X8405000Y-7415000D02*
X8555000Y-7565000D01*
X8555000Y-7415000D02*
X8405000Y-7565000D01*
X8555000Y-7490000D02*
G75*
G02*
X8405000Y-7490000I-75000J0D01*
G01*
X8405000Y-7490000D02*
G75*
G02*
X8555000Y-7490000I75000J0D01*
G01*
D14*
X12741000Y-7668000D02*
X12931000Y-7858000D01*
X12931000Y-7668000D02*
X12741000Y-7858000D01*
X12836000Y-7668000D02*
X12836000Y-7858000D01*
X12741000Y-7763000D02*
X12931000Y-7763000D01*
X12741000Y-9192000D02*
X12931000Y-9382000D01*
X12931000Y-9192000D02*
X12741000Y-9382000D01*
X12836000Y-9192000D02*
X12836000Y-9382000D01*
X12741000Y-9287000D02*
X12931000Y-9287000D01*
D15*
X11865000Y-6800000D02*
X12085000Y-7020000D01*
X12085000Y-6800000D02*
X11865000Y-7020000D01*
X12052782Y-6987782D02*
X12052782Y-6832217D01*
X11897217Y-6832217D01*
X11897217Y-6987782D01*
X12052782Y-6987782D01*
X11865000Y-11300000D02*
X12085000Y-11520000D01*
X12085000Y-11300000D02*
X11865000Y-11520000D01*
X12052782Y-11487782D02*
X12052782Y-11332217D01*
X11897217Y-11332217D01*
X11897217Y-11487782D01*
X12052782Y-11487782D01*
X16365000Y-6800000D02*
X16585000Y-7020000D01*
X16585000Y-6800000D02*
X16365000Y-7020000D01*
X16552782Y-6987782D02*
X16552782Y-6832217D01*
X16397217Y-6832217D01*
X16397217Y-6987782D01*
X16552782Y-6987782D01*
X16365000Y-11300000D02*
X16585000Y-11520000D01*
X16585000Y-11300000D02*
X16365000Y-11520000D01*
X16552782Y-11487782D02*
X16552782Y-11332217D01*
X16397217Y-11332217D01*
X16397217Y-11487782D01*
X16552782Y-11487782D01*
D16*
X16655000Y-9970000D02*
X16925000Y-10240000D01*
X16925000Y-9970000D02*
X16655000Y-10240000D01*
X16790000Y-10240000D02*
X16925000Y-10105000D01*
X16790000Y-9970000D01*
X16655000Y-10105000D01*
X16790000Y-10240000D01*
X16655000Y-10470000D02*
X16925000Y-10740000D01*
X16925000Y-10470000D02*
X16655000Y-10740000D01*
X16790000Y-10740000D02*
X16925000Y-10605000D01*
X16790000Y-10470000D01*
X16655000Y-10605000D01*
X16790000Y-10740000D01*
D10*
X8450777Y-12723984D02*
X8450777Y-12523984D01*
X8450777Y-12523984D02*
X8498396Y-12523984D01*
X8498396Y-12523984D02*
X8526967Y-12533508D01*
X8526967Y-12533508D02*
X8546015Y-12552555D01*
X8546015Y-12552555D02*
X8555539Y-12571603D01*
X8555539Y-12571603D02*
X8565063Y-12609698D01*
X8565063Y-12609698D02*
X8565063Y-12638269D01*
X8565063Y-12638269D02*
X8555539Y-12676365D01*
X8555539Y-12676365D02*
X8546015Y-12695412D01*
X8546015Y-12695412D02*
X8526967Y-12714460D01*
X8526967Y-12714460D02*
X8498396Y-12723984D01*
X8498396Y-12723984D02*
X8450777Y-12723984D01*
X8650777Y-12723984D02*
X8650777Y-12590650D01*
X8650777Y-12628746D02*
X8660301Y-12609698D01*
X8660301Y-12609698D02*
X8669824Y-12600174D01*
X8669824Y-12600174D02*
X8688872Y-12590650D01*
X8688872Y-12590650D02*
X8707920Y-12590650D01*
X8774586Y-12723984D02*
X8774586Y-12590650D01*
X8774586Y-12523984D02*
X8765063Y-12533508D01*
X8765063Y-12533508D02*
X8774586Y-12543031D01*
X8774586Y-12543031D02*
X8784110Y-12533508D01*
X8784110Y-12533508D02*
X8774586Y-12523984D01*
X8774586Y-12523984D02*
X8774586Y-12543031D01*
X8898396Y-12723984D02*
X8879348Y-12714460D01*
X8879348Y-12714460D02*
X8869824Y-12695412D01*
X8869824Y-12695412D02*
X8869824Y-12523984D01*
X9003158Y-12723984D02*
X8984110Y-12714460D01*
X8984110Y-12714460D02*
X8974586Y-12695412D01*
X8974586Y-12695412D02*
X8974586Y-12523984D01*
X9231729Y-12723984D02*
X9231729Y-12523984D01*
X9231729Y-12523984D02*
X9298396Y-12666841D01*
X9298396Y-12666841D02*
X9365063Y-12523984D01*
X9365063Y-12523984D02*
X9365063Y-12723984D01*
X9546015Y-12723984D02*
X9546015Y-12619222D01*
X9546015Y-12619222D02*
X9536491Y-12600174D01*
X9536491Y-12600174D02*
X9517444Y-12590650D01*
X9517444Y-12590650D02*
X9479348Y-12590650D01*
X9479348Y-12590650D02*
X9460301Y-12600174D01*
X9546015Y-12714460D02*
X9526967Y-12723984D01*
X9526967Y-12723984D02*
X9479348Y-12723984D01*
X9479348Y-12723984D02*
X9460301Y-12714460D01*
X9460301Y-12714460D02*
X9450777Y-12695412D01*
X9450777Y-12695412D02*
X9450777Y-12676365D01*
X9450777Y-12676365D02*
X9460301Y-12657317D01*
X9460301Y-12657317D02*
X9479348Y-12647793D01*
X9479348Y-12647793D02*
X9526967Y-12647793D01*
X9526967Y-12647793D02*
X9546015Y-12638269D01*
X9641253Y-12590650D02*
X9641253Y-12790650D01*
X9641253Y-12600174D02*
X9660301Y-12590650D01*
X9660301Y-12590650D02*
X9698396Y-12590650D01*
X9698396Y-12590650D02*
X9717444Y-12600174D01*
X9717444Y-12600174D02*
X9726967Y-12609698D01*
X9726967Y-12609698D02*
X9736491Y-12628746D01*
X9736491Y-12628746D02*
X9736491Y-12685888D01*
X9736491Y-12685888D02*
X9726967Y-12704936D01*
X9726967Y-12704936D02*
X9717444Y-12714460D01*
X9717444Y-12714460D02*
X9698396Y-12723984D01*
X9698396Y-12723984D02*
X9660301Y-12723984D01*
X9660301Y-12723984D02*
X9641253Y-12714460D01*
X9822205Y-12704936D02*
X9831729Y-12714460D01*
X9831729Y-12714460D02*
X9822205Y-12723984D01*
X9822205Y-12723984D02*
X9812682Y-12714460D01*
X9812682Y-12714460D02*
X9822205Y-12704936D01*
X9822205Y-12704936D02*
X9822205Y-12723984D01*
X9822205Y-12600174D02*
X9831729Y-12609698D01*
X9831729Y-12609698D02*
X9822205Y-12619222D01*
X9822205Y-12619222D02*
X9812682Y-12609698D01*
X9812682Y-12609698D02*
X9822205Y-12600174D01*
X9822205Y-12600174D02*
X9822205Y-12619222D01*
D11*
X8170000Y-13042500D02*
X8190000Y-13062500D01*
X8190000Y-13042500D02*
X8170000Y-13062500D01*
D10*
X8488872Y-12943984D02*
X8507920Y-12943984D01*
X8507920Y-12943984D02*
X8526967Y-12953508D01*
X8526967Y-12953508D02*
X8536491Y-12963031D01*
X8536491Y-12963031D02*
X8546015Y-12982079D01*
X8546015Y-12982079D02*
X8555539Y-13020174D01*
X8555539Y-13020174D02*
X8555539Y-13067793D01*
X8555539Y-13067793D02*
X8546015Y-13105888D01*
X8546015Y-13105888D02*
X8536491Y-13124936D01*
X8536491Y-13124936D02*
X8526967Y-13134460D01*
X8526967Y-13134460D02*
X8507920Y-13143984D01*
X8507920Y-13143984D02*
X8488872Y-13143984D01*
X8488872Y-13143984D02*
X8469824Y-13134460D01*
X8469824Y-13134460D02*
X8460301Y-13124936D01*
X8460301Y-13124936D02*
X8450777Y-13105888D01*
X8450777Y-13105888D02*
X8441253Y-13067793D01*
X8441253Y-13067793D02*
X8441253Y-13020174D01*
X8441253Y-13020174D02*
X8450777Y-12982079D01*
X8450777Y-12982079D02*
X8460301Y-12963031D01*
X8460301Y-12963031D02*
X8469824Y-12953508D01*
X8469824Y-12953508D02*
X8488872Y-12943984D01*
X8641253Y-13124936D02*
X8650777Y-13134460D01*
X8650777Y-13134460D02*
X8641253Y-13143984D01*
X8641253Y-13143984D02*
X8631729Y-13134460D01*
X8631729Y-13134460D02*
X8641253Y-13124936D01*
X8641253Y-13124936D02*
X8641253Y-13143984D01*
X8726967Y-12963031D02*
X8736491Y-12953508D01*
X8736491Y-12953508D02*
X8755539Y-12943984D01*
X8755539Y-12943984D02*
X8803158Y-12943984D01*
X8803158Y-12943984D02*
X8822205Y-12953508D01*
X8822205Y-12953508D02*
X8831729Y-12963031D01*
X8831729Y-12963031D02*
X8841253Y-12982079D01*
X8841253Y-12982079D02*
X8841253Y-13001127D01*
X8841253Y-13001127D02*
X8831729Y-13029698D01*
X8831729Y-13029698D02*
X8717444Y-13143984D01*
X8717444Y-13143984D02*
X8841253Y-13143984D01*
X8965063Y-12943984D02*
X8984110Y-12943984D01*
X8984110Y-12943984D02*
X9003158Y-12953508D01*
X9003158Y-12953508D02*
X9012682Y-12963031D01*
X9012682Y-12963031D02*
X9022205Y-12982079D01*
X9022205Y-12982079D02*
X9031729Y-13020174D01*
X9031729Y-13020174D02*
X9031729Y-13067793D01*
X9031729Y-13067793D02*
X9022205Y-13105888D01*
X9022205Y-13105888D02*
X9012682Y-13124936D01*
X9012682Y-13124936D02*
X9003158Y-13134460D01*
X9003158Y-13134460D02*
X8984110Y-13143984D01*
X8984110Y-13143984D02*
X8965063Y-13143984D01*
X8965063Y-13143984D02*
X8946015Y-13134460D01*
X8946015Y-13134460D02*
X8936491Y-13124936D01*
X8936491Y-13124936D02*
X8926967Y-13105888D01*
X8926967Y-13105888D02*
X8917444Y-13067793D01*
X8917444Y-13067793D02*
X8917444Y-13020174D01*
X8917444Y-13020174D02*
X8926967Y-12982079D01*
X8926967Y-12982079D02*
X8936491Y-12963031D01*
X8936491Y-12963031D02*
X8946015Y-12953508D01*
X8946015Y-12953508D02*
X8965063Y-12943984D01*
X9155539Y-12943984D02*
X9174586Y-12943984D01*
X9174586Y-12943984D02*
X9193634Y-12953508D01*
X9193634Y-12953508D02*
X9203158Y-12963031D01*
X9203158Y-12963031D02*
X9212682Y-12982079D01*
X9212682Y-12982079D02*
X9222205Y-13020174D01*
X9222205Y-13020174D02*
X9222205Y-13067793D01*
X9222205Y-13067793D02*
X9212682Y-13105888D01*
X9212682Y-13105888D02*
X9203158Y-13124936D01*
X9203158Y-13124936D02*
X9193634Y-13134460D01*
X9193634Y-13134460D02*
X9174586Y-13143984D01*
X9174586Y-13143984D02*
X9155539Y-13143984D01*
X9155539Y-13143984D02*
X9136491Y-13134460D01*
X9136491Y-13134460D02*
X9126967Y-13124936D01*
X9126967Y-13124936D02*
X9117444Y-13105888D01*
X9117444Y-13105888D02*
X9107920Y-13067793D01*
X9107920Y-13067793D02*
X9107920Y-13020174D01*
X9107920Y-13020174D02*
X9117444Y-12982079D01*
X9117444Y-12982079D02*
X9126967Y-12963031D01*
X9126967Y-12963031D02*
X9136491Y-12953508D01*
X9136491Y-12953508D02*
X9155539Y-12943984D01*
X9307920Y-13143984D02*
X9307920Y-13010650D01*
X9307920Y-13029698D02*
X9317444Y-13020174D01*
X9317444Y-13020174D02*
X9336491Y-13010650D01*
X9336491Y-13010650D02*
X9365063Y-13010650D01*
X9365063Y-13010650D02*
X9384110Y-13020174D01*
X9384110Y-13020174D02*
X9393634Y-13039222D01*
X9393634Y-13039222D02*
X9393634Y-13143984D01*
X9393634Y-13039222D02*
X9403158Y-13020174D01*
X9403158Y-13020174D02*
X9422205Y-13010650D01*
X9422205Y-13010650D02*
X9450777Y-13010650D01*
X9450777Y-13010650D02*
X9469825Y-13020174D01*
X9469825Y-13020174D02*
X9479348Y-13039222D01*
X9479348Y-13039222D02*
X9479348Y-13143984D01*
X9574586Y-13143984D02*
X9574586Y-13010650D01*
X9574586Y-13029698D02*
X9584110Y-13020174D01*
X9584110Y-13020174D02*
X9603158Y-13010650D01*
X9603158Y-13010650D02*
X9631729Y-13010650D01*
X9631729Y-13010650D02*
X9650777Y-13020174D01*
X9650777Y-13020174D02*
X9660301Y-13039222D01*
X9660301Y-13039222D02*
X9660301Y-13143984D01*
X9660301Y-13039222D02*
X9669825Y-13020174D01*
X9669825Y-13020174D02*
X9688872Y-13010650D01*
X9688872Y-13010650D02*
X9717444Y-13010650D01*
X9717444Y-13010650D02*
X9736491Y-13020174D01*
X9736491Y-13020174D02*
X9746015Y-13039222D01*
X9746015Y-13039222D02*
X9746015Y-13143984D01*
X10136491Y-12934460D02*
X9965063Y-13191603D01*
X10393634Y-12943984D02*
X10412682Y-12943984D01*
X10412682Y-12943984D02*
X10431729Y-12953508D01*
X10431729Y-12953508D02*
X10441253Y-12963031D01*
X10441253Y-12963031D02*
X10450777Y-12982079D01*
X10450777Y-12982079D02*
X10460301Y-13020174D01*
X10460301Y-13020174D02*
X10460301Y-13067793D01*
X10460301Y-13067793D02*
X10450777Y-13105888D01*
X10450777Y-13105888D02*
X10441253Y-13124936D01*
X10441253Y-13124936D02*
X10431729Y-13134460D01*
X10431729Y-13134460D02*
X10412682Y-13143984D01*
X10412682Y-13143984D02*
X10393634Y-13143984D01*
X10393634Y-13143984D02*
X10374587Y-13134460D01*
X10374587Y-13134460D02*
X10365063Y-13124936D01*
X10365063Y-13124936D02*
X10355539Y-13105888D01*
X10355539Y-13105888D02*
X10346015Y-13067793D01*
X10346015Y-13067793D02*
X10346015Y-13020174D01*
X10346015Y-13020174D02*
X10355539Y-12982079D01*
X10355539Y-12982079D02*
X10365063Y-12963031D01*
X10365063Y-12963031D02*
X10374587Y-12953508D01*
X10374587Y-12953508D02*
X10393634Y-12943984D01*
X10546015Y-13124936D02*
X10555539Y-13134460D01*
X10555539Y-13134460D02*
X10546015Y-13143984D01*
X10546015Y-13143984D02*
X10536491Y-13134460D01*
X10536491Y-13134460D02*
X10546015Y-13124936D01*
X10546015Y-13124936D02*
X10546015Y-13143984D01*
X10679348Y-12943984D02*
X10698396Y-12943984D01*
X10698396Y-12943984D02*
X10717444Y-12953508D01*
X10717444Y-12953508D02*
X10726968Y-12963031D01*
X10726968Y-12963031D02*
X10736491Y-12982079D01*
X10736491Y-12982079D02*
X10746015Y-13020174D01*
X10746015Y-13020174D02*
X10746015Y-13067793D01*
X10746015Y-13067793D02*
X10736491Y-13105888D01*
X10736491Y-13105888D02*
X10726968Y-13124936D01*
X10726968Y-13124936D02*
X10717444Y-13134460D01*
X10717444Y-13134460D02*
X10698396Y-13143984D01*
X10698396Y-13143984D02*
X10679348Y-13143984D01*
X10679348Y-13143984D02*
X10660301Y-13134460D01*
X10660301Y-13134460D02*
X10650777Y-13124936D01*
X10650777Y-13124936D02*
X10641253Y-13105888D01*
X10641253Y-13105888D02*
X10631729Y-13067793D01*
X10631729Y-13067793D02*
X10631729Y-13020174D01*
X10631729Y-13020174D02*
X10641253Y-12982079D01*
X10641253Y-12982079D02*
X10650777Y-12963031D01*
X10650777Y-12963031D02*
X10660301Y-12953508D01*
X10660301Y-12953508D02*
X10679348Y-12943984D01*
X10869825Y-12943984D02*
X10888872Y-12943984D01*
X10888872Y-12943984D02*
X10907920Y-12953508D01*
X10907920Y-12953508D02*
X10917444Y-12963031D01*
X10917444Y-12963031D02*
X10926968Y-12982079D01*
X10926968Y-12982079D02*
X10936491Y-13020174D01*
X10936491Y-13020174D02*
X10936491Y-13067793D01*
X10936491Y-13067793D02*
X10926968Y-13105888D01*
X10926968Y-13105888D02*
X10917444Y-13124936D01*
X10917444Y-13124936D02*
X10907920Y-13134460D01*
X10907920Y-13134460D02*
X10888872Y-13143984D01*
X10888872Y-13143984D02*
X10869825Y-13143984D01*
X10869825Y-13143984D02*
X10850777Y-13134460D01*
X10850777Y-13134460D02*
X10841253Y-13124936D01*
X10841253Y-13124936D02*
X10831729Y-13105888D01*
X10831729Y-13105888D02*
X10822206Y-13067793D01*
X10822206Y-13067793D02*
X10822206Y-13020174D01*
X10822206Y-13020174D02*
X10831729Y-12982079D01*
X10831729Y-12982079D02*
X10841253Y-12963031D01*
X10841253Y-12963031D02*
X10850777Y-12953508D01*
X10850777Y-12953508D02*
X10869825Y-12943984D01*
X11003158Y-12943984D02*
X11136491Y-12943984D01*
X11136491Y-12943984D02*
X11050777Y-13143984D01*
X11222206Y-13143984D02*
X11260301Y-13143984D01*
X11260301Y-13143984D02*
X11279348Y-13134460D01*
X11279348Y-13134460D02*
X11288872Y-13124936D01*
X11288872Y-13124936D02*
X11307920Y-13096365D01*
X11307920Y-13096365D02*
X11317444Y-13058269D01*
X11317444Y-13058269D02*
X11317444Y-12982079D01*
X11317444Y-12982079D02*
X11307920Y-12963031D01*
X11307920Y-12963031D02*
X11298396Y-12953508D01*
X11298396Y-12953508D02*
X11279348Y-12943984D01*
X11279348Y-12943984D02*
X11241253Y-12943984D01*
X11241253Y-12943984D02*
X11222206Y-12953508D01*
X11222206Y-12953508D02*
X11212682Y-12963031D01*
X11212682Y-12963031D02*
X11203158Y-12982079D01*
X11203158Y-12982079D02*
X11203158Y-13029698D01*
X11203158Y-13029698D02*
X11212682Y-13048746D01*
X11212682Y-13048746D02*
X11222206Y-13058269D01*
X11222206Y-13058269D02*
X11241253Y-13067793D01*
X11241253Y-13067793D02*
X11279348Y-13067793D01*
X11279348Y-13067793D02*
X11298396Y-13058269D01*
X11298396Y-13058269D02*
X11307920Y-13048746D01*
X11307920Y-13048746D02*
X11317444Y-13029698D01*
X11393634Y-12943984D02*
X11393634Y-12982079D01*
X11469825Y-12943984D02*
X11469825Y-12982079D01*
X11765063Y-13220174D02*
X11755539Y-13210650D01*
X11755539Y-13210650D02*
X11736491Y-13182079D01*
X11736491Y-13182079D02*
X11726968Y-13163031D01*
X11726968Y-13163031D02*
X11717444Y-13134460D01*
X11717444Y-13134460D02*
X11707920Y-13086841D01*
X11707920Y-13086841D02*
X11707920Y-13048746D01*
X11707920Y-13048746D02*
X11717444Y-13001127D01*
X11717444Y-13001127D02*
X11726968Y-12972555D01*
X11726968Y-12972555D02*
X11736491Y-12953508D01*
X11736491Y-12953508D02*
X11755539Y-12924936D01*
X11755539Y-12924936D02*
X11765063Y-12915412D01*
X11946015Y-13143984D02*
X11831729Y-13143984D01*
X11888872Y-13143984D02*
X11888872Y-12943984D01*
X11888872Y-12943984D02*
X11869825Y-12972555D01*
X11869825Y-12972555D02*
X11850777Y-12991603D01*
X11850777Y-12991603D02*
X11831729Y-13001127D01*
X12022206Y-12963031D02*
X12031729Y-12953508D01*
X12031729Y-12953508D02*
X12050777Y-12943984D01*
X12050777Y-12943984D02*
X12098396Y-12943984D01*
X12098396Y-12943984D02*
X12117444Y-12953508D01*
X12117444Y-12953508D02*
X12126968Y-12963031D01*
X12126968Y-12963031D02*
X12136491Y-12982079D01*
X12136491Y-12982079D02*
X12136491Y-13001127D01*
X12136491Y-13001127D02*
X12126968Y-13029698D01*
X12126968Y-13029698D02*
X12012682Y-13143984D01*
X12012682Y-13143984D02*
X12136491Y-13143984D01*
X12374587Y-13143984D02*
X12374587Y-12943984D01*
X12460301Y-13143984D02*
X12460301Y-13039222D01*
X12460301Y-13039222D02*
X12450777Y-13020174D01*
X12450777Y-13020174D02*
X12431730Y-13010650D01*
X12431730Y-13010650D02*
X12403158Y-13010650D01*
X12403158Y-13010650D02*
X12384110Y-13020174D01*
X12384110Y-13020174D02*
X12374587Y-13029698D01*
X12584110Y-13143984D02*
X12565063Y-13134460D01*
X12565063Y-13134460D02*
X12555539Y-13124936D01*
X12555539Y-13124936D02*
X12546015Y-13105888D01*
X12546015Y-13105888D02*
X12546015Y-13048746D01*
X12546015Y-13048746D02*
X12555539Y-13029698D01*
X12555539Y-13029698D02*
X12565063Y-13020174D01*
X12565063Y-13020174D02*
X12584110Y-13010650D01*
X12584110Y-13010650D02*
X12612682Y-13010650D01*
X12612682Y-13010650D02*
X12631730Y-13020174D01*
X12631730Y-13020174D02*
X12641253Y-13029698D01*
X12641253Y-13029698D02*
X12650777Y-13048746D01*
X12650777Y-13048746D02*
X12650777Y-13105888D01*
X12650777Y-13105888D02*
X12641253Y-13124936D01*
X12641253Y-13124936D02*
X12631730Y-13134460D01*
X12631730Y-13134460D02*
X12612682Y-13143984D01*
X12612682Y-13143984D02*
X12584110Y-13143984D01*
X12765063Y-13143984D02*
X12746015Y-13134460D01*
X12746015Y-13134460D02*
X12736491Y-13115412D01*
X12736491Y-13115412D02*
X12736491Y-12943984D01*
X12917444Y-13134460D02*
X12898396Y-13143984D01*
X12898396Y-13143984D02*
X12860301Y-13143984D01*
X12860301Y-13143984D02*
X12841253Y-13134460D01*
X12841253Y-13134460D02*
X12831730Y-13115412D01*
X12831730Y-13115412D02*
X12831730Y-13039222D01*
X12831730Y-13039222D02*
X12841253Y-13020174D01*
X12841253Y-13020174D02*
X12860301Y-13010650D01*
X12860301Y-13010650D02*
X12898396Y-13010650D01*
X12898396Y-13010650D02*
X12917444Y-13020174D01*
X12917444Y-13020174D02*
X12926968Y-13039222D01*
X12926968Y-13039222D02*
X12926968Y-13058269D01*
X12926968Y-13058269D02*
X12831730Y-13077317D01*
X13003158Y-13134460D02*
X13022206Y-13143984D01*
X13022206Y-13143984D02*
X13060301Y-13143984D01*
X13060301Y-13143984D02*
X13079349Y-13134460D01*
X13079349Y-13134460D02*
X13088872Y-13115412D01*
X13088872Y-13115412D02*
X13088872Y-13105888D01*
X13088872Y-13105888D02*
X13079349Y-13086841D01*
X13079349Y-13086841D02*
X13060301Y-13077317D01*
X13060301Y-13077317D02*
X13031730Y-13077317D01*
X13031730Y-13077317D02*
X13012682Y-13067793D01*
X13012682Y-13067793D02*
X13003158Y-13048746D01*
X13003158Y-13048746D02*
X13003158Y-13039222D01*
X13003158Y-13039222D02*
X13012682Y-13020174D01*
X13012682Y-13020174D02*
X13031730Y-13010650D01*
X13031730Y-13010650D02*
X13060301Y-13010650D01*
X13060301Y-13010650D02*
X13079349Y-13020174D01*
X13155539Y-13220174D02*
X13165063Y-13210650D01*
X13165063Y-13210650D02*
X13184111Y-13182079D01*
X13184111Y-13182079D02*
X13193634Y-13163031D01*
X13193634Y-13163031D02*
X13203158Y-13134460D01*
X13203158Y-13134460D02*
X13212682Y-13086841D01*
X13212682Y-13086841D02*
X13212682Y-13048746D01*
X13212682Y-13048746D02*
X13203158Y-13001127D01*
X13203158Y-13001127D02*
X13193634Y-12972555D01*
X13193634Y-12972555D02*
X13184111Y-12953508D01*
X13184111Y-12953508D02*
X13165063Y-12924936D01*
X13165063Y-12924936D02*
X13155539Y-12915412D01*
D11*
X8190000Y-13316500D02*
G75*
G02*
X8160000Y-13316500I-15000J0D01*
G01*
X8160000Y-13316500D02*
G75*
G02*
X8190000Y-13316500I15000J0D01*
G01*
D10*
X8488872Y-13207984D02*
X8507920Y-13207984D01*
X8507920Y-13207984D02*
X8526967Y-13217508D01*
X8526967Y-13217508D02*
X8536491Y-13227031D01*
X8536491Y-13227031D02*
X8546015Y-13246079D01*
X8546015Y-13246079D02*
X8555539Y-13284174D01*
X8555539Y-13284174D02*
X8555539Y-13331793D01*
X8555539Y-13331793D02*
X8546015Y-13369888D01*
X8546015Y-13369888D02*
X8536491Y-13388936D01*
X8536491Y-13388936D02*
X8526967Y-13398460D01*
X8526967Y-13398460D02*
X8507920Y-13407984D01*
X8507920Y-13407984D02*
X8488872Y-13407984D01*
X8488872Y-13407984D02*
X8469824Y-13398460D01*
X8469824Y-13398460D02*
X8460301Y-13388936D01*
X8460301Y-13388936D02*
X8450777Y-13369888D01*
X8450777Y-13369888D02*
X8441253Y-13331793D01*
X8441253Y-13331793D02*
X8441253Y-13284174D01*
X8441253Y-13284174D02*
X8450777Y-13246079D01*
X8450777Y-13246079D02*
X8460301Y-13227031D01*
X8460301Y-13227031D02*
X8469824Y-13217508D01*
X8469824Y-13217508D02*
X8488872Y-13207984D01*
X8641253Y-13388936D02*
X8650777Y-13398460D01*
X8650777Y-13398460D02*
X8641253Y-13407984D01*
X8641253Y-13407984D02*
X8631729Y-13398460D01*
X8631729Y-13398460D02*
X8641253Y-13388936D01*
X8641253Y-13388936D02*
X8641253Y-13407984D01*
X8717444Y-13207984D02*
X8841253Y-13207984D01*
X8841253Y-13207984D02*
X8774586Y-13284174D01*
X8774586Y-13284174D02*
X8803158Y-13284174D01*
X8803158Y-13284174D02*
X8822205Y-13293698D01*
X8822205Y-13293698D02*
X8831729Y-13303222D01*
X8831729Y-13303222D02*
X8841253Y-13322269D01*
X8841253Y-13322269D02*
X8841253Y-13369888D01*
X8841253Y-13369888D02*
X8831729Y-13388936D01*
X8831729Y-13388936D02*
X8822205Y-13398460D01*
X8822205Y-13398460D02*
X8803158Y-13407984D01*
X8803158Y-13407984D02*
X8746015Y-13407984D01*
X8746015Y-13407984D02*
X8726967Y-13398460D01*
X8726967Y-13398460D02*
X8717444Y-13388936D01*
X8965063Y-13207984D02*
X8984110Y-13207984D01*
X8984110Y-13207984D02*
X9003158Y-13217508D01*
X9003158Y-13217508D02*
X9012682Y-13227031D01*
X9012682Y-13227031D02*
X9022205Y-13246079D01*
X9022205Y-13246079D02*
X9031729Y-13284174D01*
X9031729Y-13284174D02*
X9031729Y-13331793D01*
X9031729Y-13331793D02*
X9022205Y-13369888D01*
X9022205Y-13369888D02*
X9012682Y-13388936D01*
X9012682Y-13388936D02*
X9003158Y-13398460D01*
X9003158Y-13398460D02*
X8984110Y-13407984D01*
X8984110Y-13407984D02*
X8965063Y-13407984D01*
X8965063Y-13407984D02*
X8946015Y-13398460D01*
X8946015Y-13398460D02*
X8936491Y-13388936D01*
X8936491Y-13388936D02*
X8926967Y-13369888D01*
X8926967Y-13369888D02*
X8917444Y-13331793D01*
X8917444Y-13331793D02*
X8917444Y-13284174D01*
X8917444Y-13284174D02*
X8926967Y-13246079D01*
X8926967Y-13246079D02*
X8936491Y-13227031D01*
X8936491Y-13227031D02*
X8946015Y-13217508D01*
X8946015Y-13217508D02*
X8965063Y-13207984D01*
X9155539Y-13207984D02*
X9174586Y-13207984D01*
X9174586Y-13207984D02*
X9193634Y-13217508D01*
X9193634Y-13217508D02*
X9203158Y-13227031D01*
X9203158Y-13227031D02*
X9212682Y-13246079D01*
X9212682Y-13246079D02*
X9222205Y-13284174D01*
X9222205Y-13284174D02*
X9222205Y-13331793D01*
X9222205Y-13331793D02*
X9212682Y-13369888D01*
X9212682Y-13369888D02*
X9203158Y-13388936D01*
X9203158Y-13388936D02*
X9193634Y-13398460D01*
X9193634Y-13398460D02*
X9174586Y-13407984D01*
X9174586Y-13407984D02*
X9155539Y-13407984D01*
X9155539Y-13407984D02*
X9136491Y-13398460D01*
X9136491Y-13398460D02*
X9126967Y-13388936D01*
X9126967Y-13388936D02*
X9117444Y-13369888D01*
X9117444Y-13369888D02*
X9107920Y-13331793D01*
X9107920Y-13331793D02*
X9107920Y-13284174D01*
X9107920Y-13284174D02*
X9117444Y-13246079D01*
X9117444Y-13246079D02*
X9126967Y-13227031D01*
X9126967Y-13227031D02*
X9136491Y-13217508D01*
X9136491Y-13217508D02*
X9155539Y-13207984D01*
X9307920Y-13407984D02*
X9307920Y-13274650D01*
X9307920Y-13293698D02*
X9317444Y-13284174D01*
X9317444Y-13284174D02*
X9336491Y-13274650D01*
X9336491Y-13274650D02*
X9365063Y-13274650D01*
X9365063Y-13274650D02*
X9384110Y-13284174D01*
X9384110Y-13284174D02*
X9393634Y-13303222D01*
X9393634Y-13303222D02*
X9393634Y-13407984D01*
X9393634Y-13303222D02*
X9403158Y-13284174D01*
X9403158Y-13284174D02*
X9422205Y-13274650D01*
X9422205Y-13274650D02*
X9450777Y-13274650D01*
X9450777Y-13274650D02*
X9469825Y-13284174D01*
X9469825Y-13284174D02*
X9479348Y-13303222D01*
X9479348Y-13303222D02*
X9479348Y-13407984D01*
X9574586Y-13407984D02*
X9574586Y-13274650D01*
X9574586Y-13293698D02*
X9584110Y-13284174D01*
X9584110Y-13284174D02*
X9603158Y-13274650D01*
X9603158Y-13274650D02*
X9631729Y-13274650D01*
X9631729Y-13274650D02*
X9650777Y-13284174D01*
X9650777Y-13284174D02*
X9660301Y-13303222D01*
X9660301Y-13303222D02*
X9660301Y-13407984D01*
X9660301Y-13303222D02*
X9669825Y-13284174D01*
X9669825Y-13284174D02*
X9688872Y-13274650D01*
X9688872Y-13274650D02*
X9717444Y-13274650D01*
X9717444Y-13274650D02*
X9736491Y-13284174D01*
X9736491Y-13284174D02*
X9746015Y-13303222D01*
X9746015Y-13303222D02*
X9746015Y-13407984D01*
X10136491Y-13198460D02*
X9965063Y-13455603D01*
X10393634Y-13207984D02*
X10412682Y-13207984D01*
X10412682Y-13207984D02*
X10431729Y-13217508D01*
X10431729Y-13217508D02*
X10441253Y-13227031D01*
X10441253Y-13227031D02*
X10450777Y-13246079D01*
X10450777Y-13246079D02*
X10460301Y-13284174D01*
X10460301Y-13284174D02*
X10460301Y-13331793D01*
X10460301Y-13331793D02*
X10450777Y-13369888D01*
X10450777Y-13369888D02*
X10441253Y-13388936D01*
X10441253Y-13388936D02*
X10431729Y-13398460D01*
X10431729Y-13398460D02*
X10412682Y-13407984D01*
X10412682Y-13407984D02*
X10393634Y-13407984D01*
X10393634Y-13407984D02*
X10374587Y-13398460D01*
X10374587Y-13398460D02*
X10365063Y-13388936D01*
X10365063Y-13388936D02*
X10355539Y-13369888D01*
X10355539Y-13369888D02*
X10346015Y-13331793D01*
X10346015Y-13331793D02*
X10346015Y-13284174D01*
X10346015Y-13284174D02*
X10355539Y-13246079D01*
X10355539Y-13246079D02*
X10365063Y-13227031D01*
X10365063Y-13227031D02*
X10374587Y-13217508D01*
X10374587Y-13217508D02*
X10393634Y-13207984D01*
X10546015Y-13388936D02*
X10555539Y-13398460D01*
X10555539Y-13398460D02*
X10546015Y-13407984D01*
X10546015Y-13407984D02*
X10536491Y-13398460D01*
X10536491Y-13398460D02*
X10546015Y-13388936D01*
X10546015Y-13388936D02*
X10546015Y-13407984D01*
X10679348Y-13207984D02*
X10698396Y-13207984D01*
X10698396Y-13207984D02*
X10717444Y-13217508D01*
X10717444Y-13217508D02*
X10726968Y-13227031D01*
X10726968Y-13227031D02*
X10736491Y-13246079D01*
X10736491Y-13246079D02*
X10746015Y-13284174D01*
X10746015Y-13284174D02*
X10746015Y-13331793D01*
X10746015Y-13331793D02*
X10736491Y-13369888D01*
X10736491Y-13369888D02*
X10726968Y-13388936D01*
X10726968Y-13388936D02*
X10717444Y-13398460D01*
X10717444Y-13398460D02*
X10698396Y-13407984D01*
X10698396Y-13407984D02*
X10679348Y-13407984D01*
X10679348Y-13407984D02*
X10660301Y-13398460D01*
X10660301Y-13398460D02*
X10650777Y-13388936D01*
X10650777Y-13388936D02*
X10641253Y-13369888D01*
X10641253Y-13369888D02*
X10631729Y-13331793D01*
X10631729Y-13331793D02*
X10631729Y-13284174D01*
X10631729Y-13284174D02*
X10641253Y-13246079D01*
X10641253Y-13246079D02*
X10650777Y-13227031D01*
X10650777Y-13227031D02*
X10660301Y-13217508D01*
X10660301Y-13217508D02*
X10679348Y-13207984D01*
X10936491Y-13407984D02*
X10822206Y-13407984D01*
X10879348Y-13407984D02*
X10879348Y-13207984D01*
X10879348Y-13207984D02*
X10860301Y-13236555D01*
X10860301Y-13236555D02*
X10841253Y-13255603D01*
X10841253Y-13255603D02*
X10822206Y-13265127D01*
X11126968Y-13407984D02*
X11012682Y-13407984D01*
X11069825Y-13407984D02*
X11069825Y-13207984D01*
X11069825Y-13207984D02*
X11050777Y-13236555D01*
X11050777Y-13236555D02*
X11031729Y-13255603D01*
X11031729Y-13255603D02*
X11012682Y-13265127D01*
X11241253Y-13293698D02*
X11222206Y-13284174D01*
X11222206Y-13284174D02*
X11212682Y-13274650D01*
X11212682Y-13274650D02*
X11203158Y-13255603D01*
X11203158Y-13255603D02*
X11203158Y-13246079D01*
X11203158Y-13246079D02*
X11212682Y-13227031D01*
X11212682Y-13227031D02*
X11222206Y-13217508D01*
X11222206Y-13217508D02*
X11241253Y-13207984D01*
X11241253Y-13207984D02*
X11279348Y-13207984D01*
X11279348Y-13207984D02*
X11298396Y-13217508D01*
X11298396Y-13217508D02*
X11307920Y-13227031D01*
X11307920Y-13227031D02*
X11317444Y-13246079D01*
X11317444Y-13246079D02*
X11317444Y-13255603D01*
X11317444Y-13255603D02*
X11307920Y-13274650D01*
X11307920Y-13274650D02*
X11298396Y-13284174D01*
X11298396Y-13284174D02*
X11279348Y-13293698D01*
X11279348Y-13293698D02*
X11241253Y-13293698D01*
X11241253Y-13293698D02*
X11222206Y-13303222D01*
X11222206Y-13303222D02*
X11212682Y-13312746D01*
X11212682Y-13312746D02*
X11203158Y-13331793D01*
X11203158Y-13331793D02*
X11203158Y-13369888D01*
X11203158Y-13369888D02*
X11212682Y-13388936D01*
X11212682Y-13388936D02*
X11222206Y-13398460D01*
X11222206Y-13398460D02*
X11241253Y-13407984D01*
X11241253Y-13407984D02*
X11279348Y-13407984D01*
X11279348Y-13407984D02*
X11298396Y-13398460D01*
X11298396Y-13398460D02*
X11307920Y-13388936D01*
X11307920Y-13388936D02*
X11317444Y-13369888D01*
X11317444Y-13369888D02*
X11317444Y-13331793D01*
X11317444Y-13331793D02*
X11307920Y-13312746D01*
X11307920Y-13312746D02*
X11298396Y-13303222D01*
X11298396Y-13303222D02*
X11279348Y-13293698D01*
X11393634Y-13207984D02*
X11393634Y-13246079D01*
X11469825Y-13207984D02*
X11469825Y-13246079D01*
X11765063Y-13484174D02*
X11755539Y-13474650D01*
X11755539Y-13474650D02*
X11736491Y-13446079D01*
X11736491Y-13446079D02*
X11726968Y-13427031D01*
X11726968Y-13427031D02*
X11717444Y-13398460D01*
X11717444Y-13398460D02*
X11707920Y-13350841D01*
X11707920Y-13350841D02*
X11707920Y-13312746D01*
X11707920Y-13312746D02*
X11717444Y-13265127D01*
X11717444Y-13265127D02*
X11726968Y-13236555D01*
X11726968Y-13236555D02*
X11736491Y-13217508D01*
X11736491Y-13217508D02*
X11755539Y-13188936D01*
X11755539Y-13188936D02*
X11765063Y-13179412D01*
X11831729Y-13227031D02*
X11841253Y-13217508D01*
X11841253Y-13217508D02*
X11860301Y-13207984D01*
X11860301Y-13207984D02*
X11907920Y-13207984D01*
X11907920Y-13207984D02*
X11926968Y-13217508D01*
X11926968Y-13217508D02*
X11936491Y-13227031D01*
X11936491Y-13227031D02*
X11946015Y-13246079D01*
X11946015Y-13246079D02*
X11946015Y-13265127D01*
X11946015Y-13265127D02*
X11936491Y-13293698D01*
X11936491Y-13293698D02*
X11822206Y-13407984D01*
X11822206Y-13407984D02*
X11946015Y-13407984D01*
X12126968Y-13207984D02*
X12031729Y-13207984D01*
X12031729Y-13207984D02*
X12022206Y-13303222D01*
X12022206Y-13303222D02*
X12031729Y-13293698D01*
X12031729Y-13293698D02*
X12050777Y-13284174D01*
X12050777Y-13284174D02*
X12098396Y-13284174D01*
X12098396Y-13284174D02*
X12117444Y-13293698D01*
X12117444Y-13293698D02*
X12126968Y-13303222D01*
X12126968Y-13303222D02*
X12136491Y-13322269D01*
X12136491Y-13322269D02*
X12136491Y-13369888D01*
X12136491Y-13369888D02*
X12126968Y-13388936D01*
X12126968Y-13388936D02*
X12117444Y-13398460D01*
X12117444Y-13398460D02*
X12098396Y-13407984D01*
X12098396Y-13407984D02*
X12050777Y-13407984D01*
X12050777Y-13407984D02*
X12031729Y-13398460D01*
X12031729Y-13398460D02*
X12022206Y-13388936D01*
X12317444Y-13207984D02*
X12222206Y-13207984D01*
X12222206Y-13207984D02*
X12212682Y-13303222D01*
X12212682Y-13303222D02*
X12222206Y-13293698D01*
X12222206Y-13293698D02*
X12241253Y-13284174D01*
X12241253Y-13284174D02*
X12288872Y-13284174D01*
X12288872Y-13284174D02*
X12307920Y-13293698D01*
X12307920Y-13293698D02*
X12317444Y-13303222D01*
X12317444Y-13303222D02*
X12326968Y-13322269D01*
X12326968Y-13322269D02*
X12326968Y-13369888D01*
X12326968Y-13369888D02*
X12317444Y-13388936D01*
X12317444Y-13388936D02*
X12307920Y-13398460D01*
X12307920Y-13398460D02*
X12288872Y-13407984D01*
X12288872Y-13407984D02*
X12241253Y-13407984D01*
X12241253Y-13407984D02*
X12222206Y-13398460D01*
X12222206Y-13398460D02*
X12212682Y-13388936D01*
X12565063Y-13407984D02*
X12565063Y-13207984D01*
X12650777Y-13407984D02*
X12650777Y-13303222D01*
X12650777Y-13303222D02*
X12641253Y-13284174D01*
X12641253Y-13284174D02*
X12622206Y-13274650D01*
X12622206Y-13274650D02*
X12593634Y-13274650D01*
X12593634Y-13274650D02*
X12574587Y-13284174D01*
X12574587Y-13284174D02*
X12565063Y-13293698D01*
X12774587Y-13407984D02*
X12755539Y-13398460D01*
X12755539Y-13398460D02*
X12746015Y-13388936D01*
X12746015Y-13388936D02*
X12736491Y-13369888D01*
X12736491Y-13369888D02*
X12736491Y-13312746D01*
X12736491Y-13312746D02*
X12746015Y-13293698D01*
X12746015Y-13293698D02*
X12755539Y-13284174D01*
X12755539Y-13284174D02*
X12774587Y-13274650D01*
X12774587Y-13274650D02*
X12803158Y-13274650D01*
X12803158Y-13274650D02*
X12822206Y-13284174D01*
X12822206Y-13284174D02*
X12831730Y-13293698D01*
X12831730Y-13293698D02*
X12841253Y-13312746D01*
X12841253Y-13312746D02*
X12841253Y-13369888D01*
X12841253Y-13369888D02*
X12831730Y-13388936D01*
X12831730Y-13388936D02*
X12822206Y-13398460D01*
X12822206Y-13398460D02*
X12803158Y-13407984D01*
X12803158Y-13407984D02*
X12774587Y-13407984D01*
X12955539Y-13407984D02*
X12936491Y-13398460D01*
X12936491Y-13398460D02*
X12926968Y-13379412D01*
X12926968Y-13379412D02*
X12926968Y-13207984D01*
X13107920Y-13398460D02*
X13088872Y-13407984D01*
X13088872Y-13407984D02*
X13050777Y-13407984D01*
X13050777Y-13407984D02*
X13031730Y-13398460D01*
X13031730Y-13398460D02*
X13022206Y-13379412D01*
X13022206Y-13379412D02*
X13022206Y-13303222D01*
X13022206Y-13303222D02*
X13031730Y-13284174D01*
X13031730Y-13284174D02*
X13050777Y-13274650D01*
X13050777Y-13274650D02*
X13088872Y-13274650D01*
X13088872Y-13274650D02*
X13107920Y-13284174D01*
X13107920Y-13284174D02*
X13117444Y-13303222D01*
X13117444Y-13303222D02*
X13117444Y-13322269D01*
X13117444Y-13322269D02*
X13022206Y-13341317D01*
X13193634Y-13398460D02*
X13212682Y-13407984D01*
X13212682Y-13407984D02*
X13250777Y-13407984D01*
X13250777Y-13407984D02*
X13269825Y-13398460D01*
X13269825Y-13398460D02*
X13279349Y-13379412D01*
X13279349Y-13379412D02*
X13279349Y-13369888D01*
X13279349Y-13369888D02*
X13269825Y-13350841D01*
X13269825Y-13350841D02*
X13250777Y-13341317D01*
X13250777Y-13341317D02*
X13222206Y-13341317D01*
X13222206Y-13341317D02*
X13203158Y-13331793D01*
X13203158Y-13331793D02*
X13193634Y-13312746D01*
X13193634Y-13312746D02*
X13193634Y-13303222D01*
X13193634Y-13303222D02*
X13203158Y-13284174D01*
X13203158Y-13284174D02*
X13222206Y-13274650D01*
X13222206Y-13274650D02*
X13250777Y-13274650D01*
X13250777Y-13274650D02*
X13269825Y-13284174D01*
X13346015Y-13484174D02*
X13355539Y-13474650D01*
X13355539Y-13474650D02*
X13374587Y-13446079D01*
X13374587Y-13446079D02*
X13384111Y-13427031D01*
X13384111Y-13427031D02*
X13393634Y-13398460D01*
X13393634Y-13398460D02*
X13403158Y-13350841D01*
X13403158Y-13350841D02*
X13403158Y-13312746D01*
X13403158Y-13312746D02*
X13393634Y-13265127D01*
X13393634Y-13265127D02*
X13384111Y-13236555D01*
X13384111Y-13236555D02*
X13374587Y-13217508D01*
X13374587Y-13217508D02*
X13355539Y-13188936D01*
X13355539Y-13188936D02*
X13346015Y-13179412D01*
D11*
X8152500Y-13543000D02*
X8152500Y-13618000D01*
X8115000Y-13580500D02*
X8190000Y-13580500D01*
D10*
X8488872Y-13471984D02*
X8507920Y-13471984D01*
X8507920Y-13471984D02*
X8526967Y-13481508D01*
X8526967Y-13481508D02*
X8536491Y-13491031D01*
X8536491Y-13491031D02*
X8546015Y-13510079D01*
X8546015Y-13510079D02*
X8555539Y-13548174D01*
X8555539Y-13548174D02*
X8555539Y-13595793D01*
X8555539Y-13595793D02*
X8546015Y-13633888D01*
X8546015Y-13633888D02*
X8536491Y-13652936D01*
X8536491Y-13652936D02*
X8526967Y-13662460D01*
X8526967Y-13662460D02*
X8507920Y-13671984D01*
X8507920Y-13671984D02*
X8488872Y-13671984D01*
X8488872Y-13671984D02*
X8469824Y-13662460D01*
X8469824Y-13662460D02*
X8460301Y-13652936D01*
X8460301Y-13652936D02*
X8450777Y-13633888D01*
X8450777Y-13633888D02*
X8441253Y-13595793D01*
X8441253Y-13595793D02*
X8441253Y-13548174D01*
X8441253Y-13548174D02*
X8450777Y-13510079D01*
X8450777Y-13510079D02*
X8460301Y-13491031D01*
X8460301Y-13491031D02*
X8469824Y-13481508D01*
X8469824Y-13481508D02*
X8488872Y-13471984D01*
X8641253Y-13652936D02*
X8650777Y-13662460D01*
X8650777Y-13662460D02*
X8641253Y-13671984D01*
X8641253Y-13671984D02*
X8631729Y-13662460D01*
X8631729Y-13662460D02*
X8641253Y-13652936D01*
X8641253Y-13652936D02*
X8641253Y-13671984D01*
X8717444Y-13471984D02*
X8850777Y-13471984D01*
X8850777Y-13471984D02*
X8765063Y-13671984D01*
X9022205Y-13471984D02*
X8926967Y-13471984D01*
X8926967Y-13471984D02*
X8917444Y-13567222D01*
X8917444Y-13567222D02*
X8926967Y-13557698D01*
X8926967Y-13557698D02*
X8946015Y-13548174D01*
X8946015Y-13548174D02*
X8993634Y-13548174D01*
X8993634Y-13548174D02*
X9012682Y-13557698D01*
X9012682Y-13557698D02*
X9022205Y-13567222D01*
X9022205Y-13567222D02*
X9031729Y-13586269D01*
X9031729Y-13586269D02*
X9031729Y-13633888D01*
X9031729Y-13633888D02*
X9022205Y-13652936D01*
X9022205Y-13652936D02*
X9012682Y-13662460D01*
X9012682Y-13662460D02*
X8993634Y-13671984D01*
X8993634Y-13671984D02*
X8946015Y-13671984D01*
X8946015Y-13671984D02*
X8926967Y-13662460D01*
X8926967Y-13662460D02*
X8917444Y-13652936D01*
X9155539Y-13471984D02*
X9174586Y-13471984D01*
X9174586Y-13471984D02*
X9193634Y-13481508D01*
X9193634Y-13481508D02*
X9203158Y-13491031D01*
X9203158Y-13491031D02*
X9212682Y-13510079D01*
X9212682Y-13510079D02*
X9222205Y-13548174D01*
X9222205Y-13548174D02*
X9222205Y-13595793D01*
X9222205Y-13595793D02*
X9212682Y-13633888D01*
X9212682Y-13633888D02*
X9203158Y-13652936D01*
X9203158Y-13652936D02*
X9193634Y-13662460D01*
X9193634Y-13662460D02*
X9174586Y-13671984D01*
X9174586Y-13671984D02*
X9155539Y-13671984D01*
X9155539Y-13671984D02*
X9136491Y-13662460D01*
X9136491Y-13662460D02*
X9126967Y-13652936D01*
X9126967Y-13652936D02*
X9117444Y-13633888D01*
X9117444Y-13633888D02*
X9107920Y-13595793D01*
X9107920Y-13595793D02*
X9107920Y-13548174D01*
X9107920Y-13548174D02*
X9117444Y-13510079D01*
X9117444Y-13510079D02*
X9126967Y-13491031D01*
X9126967Y-13491031D02*
X9136491Y-13481508D01*
X9136491Y-13481508D02*
X9155539Y-13471984D01*
X9307920Y-13671984D02*
X9307920Y-13538650D01*
X9307920Y-13557698D02*
X9317444Y-13548174D01*
X9317444Y-13548174D02*
X9336491Y-13538650D01*
X9336491Y-13538650D02*
X9365063Y-13538650D01*
X9365063Y-13538650D02*
X9384110Y-13548174D01*
X9384110Y-13548174D02*
X9393634Y-13567222D01*
X9393634Y-13567222D02*
X9393634Y-13671984D01*
X9393634Y-13567222D02*
X9403158Y-13548174D01*
X9403158Y-13548174D02*
X9422205Y-13538650D01*
X9422205Y-13538650D02*
X9450777Y-13538650D01*
X9450777Y-13538650D02*
X9469825Y-13548174D01*
X9469825Y-13548174D02*
X9479348Y-13567222D01*
X9479348Y-13567222D02*
X9479348Y-13671984D01*
X9574586Y-13671984D02*
X9574586Y-13538650D01*
X9574586Y-13557698D02*
X9584110Y-13548174D01*
X9584110Y-13548174D02*
X9603158Y-13538650D01*
X9603158Y-13538650D02*
X9631729Y-13538650D01*
X9631729Y-13538650D02*
X9650777Y-13548174D01*
X9650777Y-13548174D02*
X9660301Y-13567222D01*
X9660301Y-13567222D02*
X9660301Y-13671984D01*
X9660301Y-13567222D02*
X9669825Y-13548174D01*
X9669825Y-13548174D02*
X9688872Y-13538650D01*
X9688872Y-13538650D02*
X9717444Y-13538650D01*
X9717444Y-13538650D02*
X9736491Y-13548174D01*
X9736491Y-13548174D02*
X9746015Y-13567222D01*
X9746015Y-13567222D02*
X9746015Y-13671984D01*
X10136491Y-13462460D02*
X9965063Y-13719603D01*
X10393634Y-13471984D02*
X10412682Y-13471984D01*
X10412682Y-13471984D02*
X10431729Y-13481508D01*
X10431729Y-13481508D02*
X10441253Y-13491031D01*
X10441253Y-13491031D02*
X10450777Y-13510079D01*
X10450777Y-13510079D02*
X10460301Y-13548174D01*
X10460301Y-13548174D02*
X10460301Y-13595793D01*
X10460301Y-13595793D02*
X10450777Y-13633888D01*
X10450777Y-13633888D02*
X10441253Y-13652936D01*
X10441253Y-13652936D02*
X10431729Y-13662460D01*
X10431729Y-13662460D02*
X10412682Y-13671984D01*
X10412682Y-13671984D02*
X10393634Y-13671984D01*
X10393634Y-13671984D02*
X10374587Y-13662460D01*
X10374587Y-13662460D02*
X10365063Y-13652936D01*
X10365063Y-13652936D02*
X10355539Y-13633888D01*
X10355539Y-13633888D02*
X10346015Y-13595793D01*
X10346015Y-13595793D02*
X10346015Y-13548174D01*
X10346015Y-13548174D02*
X10355539Y-13510079D01*
X10355539Y-13510079D02*
X10365063Y-13491031D01*
X10365063Y-13491031D02*
X10374587Y-13481508D01*
X10374587Y-13481508D02*
X10393634Y-13471984D01*
X10546015Y-13652936D02*
X10555539Y-13662460D01*
X10555539Y-13662460D02*
X10546015Y-13671984D01*
X10546015Y-13671984D02*
X10536491Y-13662460D01*
X10536491Y-13662460D02*
X10546015Y-13652936D01*
X10546015Y-13652936D02*
X10546015Y-13671984D01*
X10679348Y-13471984D02*
X10698396Y-13471984D01*
X10698396Y-13471984D02*
X10717444Y-13481508D01*
X10717444Y-13481508D02*
X10726968Y-13491031D01*
X10726968Y-13491031D02*
X10736491Y-13510079D01*
X10736491Y-13510079D02*
X10746015Y-13548174D01*
X10746015Y-13548174D02*
X10746015Y-13595793D01*
X10746015Y-13595793D02*
X10736491Y-13633888D01*
X10736491Y-13633888D02*
X10726968Y-13652936D01*
X10726968Y-13652936D02*
X10717444Y-13662460D01*
X10717444Y-13662460D02*
X10698396Y-13671984D01*
X10698396Y-13671984D02*
X10679348Y-13671984D01*
X10679348Y-13671984D02*
X10660301Y-13662460D01*
X10660301Y-13662460D02*
X10650777Y-13652936D01*
X10650777Y-13652936D02*
X10641253Y-13633888D01*
X10641253Y-13633888D02*
X10631729Y-13595793D01*
X10631729Y-13595793D02*
X10631729Y-13548174D01*
X10631729Y-13548174D02*
X10641253Y-13510079D01*
X10641253Y-13510079D02*
X10650777Y-13491031D01*
X10650777Y-13491031D02*
X10660301Y-13481508D01*
X10660301Y-13481508D02*
X10679348Y-13471984D01*
X10822206Y-13491031D02*
X10831729Y-13481508D01*
X10831729Y-13481508D02*
X10850777Y-13471984D01*
X10850777Y-13471984D02*
X10898396Y-13471984D01*
X10898396Y-13471984D02*
X10917444Y-13481508D01*
X10917444Y-13481508D02*
X10926968Y-13491031D01*
X10926968Y-13491031D02*
X10936491Y-13510079D01*
X10936491Y-13510079D02*
X10936491Y-13529127D01*
X10936491Y-13529127D02*
X10926968Y-13557698D01*
X10926968Y-13557698D02*
X10812682Y-13671984D01*
X10812682Y-13671984D02*
X10936491Y-13671984D01*
X11031729Y-13671984D02*
X11069825Y-13671984D01*
X11069825Y-13671984D02*
X11088872Y-13662460D01*
X11088872Y-13662460D02*
X11098396Y-13652936D01*
X11098396Y-13652936D02*
X11117444Y-13624365D01*
X11117444Y-13624365D02*
X11126968Y-13586269D01*
X11126968Y-13586269D02*
X11126968Y-13510079D01*
X11126968Y-13510079D02*
X11117444Y-13491031D01*
X11117444Y-13491031D02*
X11107920Y-13481508D01*
X11107920Y-13481508D02*
X11088872Y-13471984D01*
X11088872Y-13471984D02*
X11050777Y-13471984D01*
X11050777Y-13471984D02*
X11031729Y-13481508D01*
X11031729Y-13481508D02*
X11022206Y-13491031D01*
X11022206Y-13491031D02*
X11012682Y-13510079D01*
X11012682Y-13510079D02*
X11012682Y-13557698D01*
X11012682Y-13557698D02*
X11022206Y-13576746D01*
X11022206Y-13576746D02*
X11031729Y-13586269D01*
X11031729Y-13586269D02*
X11050777Y-13595793D01*
X11050777Y-13595793D02*
X11088872Y-13595793D01*
X11088872Y-13595793D02*
X11107920Y-13586269D01*
X11107920Y-13586269D02*
X11117444Y-13576746D01*
X11117444Y-13576746D02*
X11126968Y-13557698D01*
X11307920Y-13471984D02*
X11212682Y-13471984D01*
X11212682Y-13471984D02*
X11203158Y-13567222D01*
X11203158Y-13567222D02*
X11212682Y-13557698D01*
X11212682Y-13557698D02*
X11231729Y-13548174D01*
X11231729Y-13548174D02*
X11279348Y-13548174D01*
X11279348Y-13548174D02*
X11298396Y-13557698D01*
X11298396Y-13557698D02*
X11307920Y-13567222D01*
X11307920Y-13567222D02*
X11317444Y-13586269D01*
X11317444Y-13586269D02*
X11317444Y-13633888D01*
X11317444Y-13633888D02*
X11307920Y-13652936D01*
X11307920Y-13652936D02*
X11298396Y-13662460D01*
X11298396Y-13662460D02*
X11279348Y-13671984D01*
X11279348Y-13671984D02*
X11231729Y-13671984D01*
X11231729Y-13671984D02*
X11212682Y-13662460D01*
X11212682Y-13662460D02*
X11203158Y-13652936D01*
X11393634Y-13471984D02*
X11393634Y-13510079D01*
X11469825Y-13471984D02*
X11469825Y-13510079D01*
X11765063Y-13748174D02*
X11755539Y-13738650D01*
X11755539Y-13738650D02*
X11736491Y-13710079D01*
X11736491Y-13710079D02*
X11726968Y-13691031D01*
X11726968Y-13691031D02*
X11717444Y-13662460D01*
X11717444Y-13662460D02*
X11707920Y-13614841D01*
X11707920Y-13614841D02*
X11707920Y-13576746D01*
X11707920Y-13576746D02*
X11717444Y-13529127D01*
X11717444Y-13529127D02*
X11726968Y-13500555D01*
X11726968Y-13500555D02*
X11736491Y-13481508D01*
X11736491Y-13481508D02*
X11755539Y-13452936D01*
X11755539Y-13452936D02*
X11765063Y-13443412D01*
X11869825Y-13557698D02*
X11850777Y-13548174D01*
X11850777Y-13548174D02*
X11841253Y-13538650D01*
X11841253Y-13538650D02*
X11831729Y-13519603D01*
X11831729Y-13519603D02*
X11831729Y-13510079D01*
X11831729Y-13510079D02*
X11841253Y-13491031D01*
X11841253Y-13491031D02*
X11850777Y-13481508D01*
X11850777Y-13481508D02*
X11869825Y-13471984D01*
X11869825Y-13471984D02*
X11907920Y-13471984D01*
X11907920Y-13471984D02*
X11926968Y-13481508D01*
X11926968Y-13481508D02*
X11936491Y-13491031D01*
X11936491Y-13491031D02*
X11946015Y-13510079D01*
X11946015Y-13510079D02*
X11946015Y-13519603D01*
X11946015Y-13519603D02*
X11936491Y-13538650D01*
X11936491Y-13538650D02*
X11926968Y-13548174D01*
X11926968Y-13548174D02*
X11907920Y-13557698D01*
X11907920Y-13557698D02*
X11869825Y-13557698D01*
X11869825Y-13557698D02*
X11850777Y-13567222D01*
X11850777Y-13567222D02*
X11841253Y-13576746D01*
X11841253Y-13576746D02*
X11831729Y-13595793D01*
X11831729Y-13595793D02*
X11831729Y-13633888D01*
X11831729Y-13633888D02*
X11841253Y-13652936D01*
X11841253Y-13652936D02*
X11850777Y-13662460D01*
X11850777Y-13662460D02*
X11869825Y-13671984D01*
X11869825Y-13671984D02*
X11907920Y-13671984D01*
X11907920Y-13671984D02*
X11926968Y-13662460D01*
X11926968Y-13662460D02*
X11936491Y-13652936D01*
X11936491Y-13652936D02*
X11946015Y-13633888D01*
X11946015Y-13633888D02*
X11946015Y-13595793D01*
X11946015Y-13595793D02*
X11936491Y-13576746D01*
X11936491Y-13576746D02*
X11926968Y-13567222D01*
X11926968Y-13567222D02*
X11907920Y-13557698D01*
X12184110Y-13671984D02*
X12184110Y-13471984D01*
X12269825Y-13671984D02*
X12269825Y-13567222D01*
X12269825Y-13567222D02*
X12260301Y-13548174D01*
X12260301Y-13548174D02*
X12241253Y-13538650D01*
X12241253Y-13538650D02*
X12212682Y-13538650D01*
X12212682Y-13538650D02*
X12193634Y-13548174D01*
X12193634Y-13548174D02*
X12184110Y-13557698D01*
X12393634Y-13671984D02*
X12374587Y-13662460D01*
X12374587Y-13662460D02*
X12365063Y-13652936D01*
X12365063Y-13652936D02*
X12355539Y-13633888D01*
X12355539Y-13633888D02*
X12355539Y-13576746D01*
X12355539Y-13576746D02*
X12365063Y-13557698D01*
X12365063Y-13557698D02*
X12374587Y-13548174D01*
X12374587Y-13548174D02*
X12393634Y-13538650D01*
X12393634Y-13538650D02*
X12422206Y-13538650D01*
X12422206Y-13538650D02*
X12441253Y-13548174D01*
X12441253Y-13548174D02*
X12450777Y-13557698D01*
X12450777Y-13557698D02*
X12460301Y-13576746D01*
X12460301Y-13576746D02*
X12460301Y-13633888D01*
X12460301Y-13633888D02*
X12450777Y-13652936D01*
X12450777Y-13652936D02*
X12441253Y-13662460D01*
X12441253Y-13662460D02*
X12422206Y-13671984D01*
X12422206Y-13671984D02*
X12393634Y-13671984D01*
X12574587Y-13671984D02*
X12555539Y-13662460D01*
X12555539Y-13662460D02*
X12546015Y-13643412D01*
X12546015Y-13643412D02*
X12546015Y-13471984D01*
X12726968Y-13662460D02*
X12707920Y-13671984D01*
X12707920Y-13671984D02*
X12669825Y-13671984D01*
X12669825Y-13671984D02*
X12650777Y-13662460D01*
X12650777Y-13662460D02*
X12641253Y-13643412D01*
X12641253Y-13643412D02*
X12641253Y-13567222D01*
X12641253Y-13567222D02*
X12650777Y-13548174D01*
X12650777Y-13548174D02*
X12669825Y-13538650D01*
X12669825Y-13538650D02*
X12707920Y-13538650D01*
X12707920Y-13538650D02*
X12726968Y-13548174D01*
X12726968Y-13548174D02*
X12736491Y-13567222D01*
X12736491Y-13567222D02*
X12736491Y-13586269D01*
X12736491Y-13586269D02*
X12641253Y-13605317D01*
X12812682Y-13662460D02*
X12831730Y-13671984D01*
X12831730Y-13671984D02*
X12869825Y-13671984D01*
X12869825Y-13671984D02*
X12888872Y-13662460D01*
X12888872Y-13662460D02*
X12898396Y-13643412D01*
X12898396Y-13643412D02*
X12898396Y-13633888D01*
X12898396Y-13633888D02*
X12888872Y-13614841D01*
X12888872Y-13614841D02*
X12869825Y-13605317D01*
X12869825Y-13605317D02*
X12841253Y-13605317D01*
X12841253Y-13605317D02*
X12822206Y-13595793D01*
X12822206Y-13595793D02*
X12812682Y-13576746D01*
X12812682Y-13576746D02*
X12812682Y-13567222D01*
X12812682Y-13567222D02*
X12822206Y-13548174D01*
X12822206Y-13548174D02*
X12841253Y-13538650D01*
X12841253Y-13538650D02*
X12869825Y-13538650D01*
X12869825Y-13538650D02*
X12888872Y-13548174D01*
X12965063Y-13748174D02*
X12974587Y-13738650D01*
X12974587Y-13738650D02*
X12993634Y-13710079D01*
X12993634Y-13710079D02*
X13003158Y-13691031D01*
X13003158Y-13691031D02*
X13012682Y-13662460D01*
X13012682Y-13662460D02*
X13022206Y-13614841D01*
X13022206Y-13614841D02*
X13022206Y-13576746D01*
X13022206Y-13576746D02*
X13012682Y-13529127D01*
X13012682Y-13529127D02*
X13003158Y-13500555D01*
X13003158Y-13500555D02*
X12993634Y-13481508D01*
X12993634Y-13481508D02*
X12974587Y-13452936D01*
X12974587Y-13452936D02*
X12965063Y-13443412D01*
D11*
X8176820Y-13876320D02*
X8176820Y-13812680D01*
X8113180Y-13812680D01*
X8113180Y-13876320D01*
X8176820Y-13876320D01*
D10*
X8488872Y-13735984D02*
X8507920Y-13735984D01*
X8507920Y-13735984D02*
X8526967Y-13745508D01*
X8526967Y-13745508D02*
X8536491Y-13755031D01*
X8536491Y-13755031D02*
X8546015Y-13774079D01*
X8546015Y-13774079D02*
X8555539Y-13812174D01*
X8555539Y-13812174D02*
X8555539Y-13859793D01*
X8555539Y-13859793D02*
X8546015Y-13897888D01*
X8546015Y-13897888D02*
X8536491Y-13916936D01*
X8536491Y-13916936D02*
X8526967Y-13926460D01*
X8526967Y-13926460D02*
X8507920Y-13935984D01*
X8507920Y-13935984D02*
X8488872Y-13935984D01*
X8488872Y-13935984D02*
X8469824Y-13926460D01*
X8469824Y-13926460D02*
X8460301Y-13916936D01*
X8460301Y-13916936D02*
X8450777Y-13897888D01*
X8450777Y-13897888D02*
X8441253Y-13859793D01*
X8441253Y-13859793D02*
X8441253Y-13812174D01*
X8441253Y-13812174D02*
X8450777Y-13774079D01*
X8450777Y-13774079D02*
X8460301Y-13755031D01*
X8460301Y-13755031D02*
X8469824Y-13745508D01*
X8469824Y-13745508D02*
X8488872Y-13735984D01*
X8641253Y-13916936D02*
X8650777Y-13926460D01*
X8650777Y-13926460D02*
X8641253Y-13935984D01*
X8641253Y-13935984D02*
X8631729Y-13926460D01*
X8631729Y-13926460D02*
X8641253Y-13916936D01*
X8641253Y-13916936D02*
X8641253Y-13935984D01*
X8746015Y-13935984D02*
X8784110Y-13935984D01*
X8784110Y-13935984D02*
X8803158Y-13926460D01*
X8803158Y-13926460D02*
X8812682Y-13916936D01*
X8812682Y-13916936D02*
X8831729Y-13888365D01*
X8831729Y-13888365D02*
X8841253Y-13850269D01*
X8841253Y-13850269D02*
X8841253Y-13774079D01*
X8841253Y-13774079D02*
X8831729Y-13755031D01*
X8831729Y-13755031D02*
X8822205Y-13745508D01*
X8822205Y-13745508D02*
X8803158Y-13735984D01*
X8803158Y-13735984D02*
X8765063Y-13735984D01*
X8765063Y-13735984D02*
X8746015Y-13745508D01*
X8746015Y-13745508D02*
X8736491Y-13755031D01*
X8736491Y-13755031D02*
X8726967Y-13774079D01*
X8726967Y-13774079D02*
X8726967Y-13821698D01*
X8726967Y-13821698D02*
X8736491Y-13840746D01*
X8736491Y-13840746D02*
X8746015Y-13850269D01*
X8746015Y-13850269D02*
X8765063Y-13859793D01*
X8765063Y-13859793D02*
X8803158Y-13859793D01*
X8803158Y-13859793D02*
X8822205Y-13850269D01*
X8822205Y-13850269D02*
X8831729Y-13840746D01*
X8831729Y-13840746D02*
X8841253Y-13821698D01*
X8965063Y-13735984D02*
X8984110Y-13735984D01*
X8984110Y-13735984D02*
X9003158Y-13745508D01*
X9003158Y-13745508D02*
X9012682Y-13755031D01*
X9012682Y-13755031D02*
X9022205Y-13774079D01*
X9022205Y-13774079D02*
X9031729Y-13812174D01*
X9031729Y-13812174D02*
X9031729Y-13859793D01*
X9031729Y-13859793D02*
X9022205Y-13897888D01*
X9022205Y-13897888D02*
X9012682Y-13916936D01*
X9012682Y-13916936D02*
X9003158Y-13926460D01*
X9003158Y-13926460D02*
X8984110Y-13935984D01*
X8984110Y-13935984D02*
X8965063Y-13935984D01*
X8965063Y-13935984D02*
X8946015Y-13926460D01*
X8946015Y-13926460D02*
X8936491Y-13916936D01*
X8936491Y-13916936D02*
X8926967Y-13897888D01*
X8926967Y-13897888D02*
X8917444Y-13859793D01*
X8917444Y-13859793D02*
X8917444Y-13812174D01*
X8917444Y-13812174D02*
X8926967Y-13774079D01*
X8926967Y-13774079D02*
X8936491Y-13755031D01*
X8936491Y-13755031D02*
X8946015Y-13745508D01*
X8946015Y-13745508D02*
X8965063Y-13735984D01*
X9155539Y-13735984D02*
X9174586Y-13735984D01*
X9174586Y-13735984D02*
X9193634Y-13745508D01*
X9193634Y-13745508D02*
X9203158Y-13755031D01*
X9203158Y-13755031D02*
X9212682Y-13774079D01*
X9212682Y-13774079D02*
X9222205Y-13812174D01*
X9222205Y-13812174D02*
X9222205Y-13859793D01*
X9222205Y-13859793D02*
X9212682Y-13897888D01*
X9212682Y-13897888D02*
X9203158Y-13916936D01*
X9203158Y-13916936D02*
X9193634Y-13926460D01*
X9193634Y-13926460D02*
X9174586Y-13935984D01*
X9174586Y-13935984D02*
X9155539Y-13935984D01*
X9155539Y-13935984D02*
X9136491Y-13926460D01*
X9136491Y-13926460D02*
X9126967Y-13916936D01*
X9126967Y-13916936D02*
X9117444Y-13897888D01*
X9117444Y-13897888D02*
X9107920Y-13859793D01*
X9107920Y-13859793D02*
X9107920Y-13812174D01*
X9107920Y-13812174D02*
X9117444Y-13774079D01*
X9117444Y-13774079D02*
X9126967Y-13755031D01*
X9126967Y-13755031D02*
X9136491Y-13745508D01*
X9136491Y-13745508D02*
X9155539Y-13735984D01*
X9307920Y-13935984D02*
X9307920Y-13802650D01*
X9307920Y-13821698D02*
X9317444Y-13812174D01*
X9317444Y-13812174D02*
X9336491Y-13802650D01*
X9336491Y-13802650D02*
X9365063Y-13802650D01*
X9365063Y-13802650D02*
X9384110Y-13812174D01*
X9384110Y-13812174D02*
X9393634Y-13831222D01*
X9393634Y-13831222D02*
X9393634Y-13935984D01*
X9393634Y-13831222D02*
X9403158Y-13812174D01*
X9403158Y-13812174D02*
X9422205Y-13802650D01*
X9422205Y-13802650D02*
X9450777Y-13802650D01*
X9450777Y-13802650D02*
X9469825Y-13812174D01*
X9469825Y-13812174D02*
X9479348Y-13831222D01*
X9479348Y-13831222D02*
X9479348Y-13935984D01*
X9574586Y-13935984D02*
X9574586Y-13802650D01*
X9574586Y-13821698D02*
X9584110Y-13812174D01*
X9584110Y-13812174D02*
X9603158Y-13802650D01*
X9603158Y-13802650D02*
X9631729Y-13802650D01*
X9631729Y-13802650D02*
X9650777Y-13812174D01*
X9650777Y-13812174D02*
X9660301Y-13831222D01*
X9660301Y-13831222D02*
X9660301Y-13935984D01*
X9660301Y-13831222D02*
X9669825Y-13812174D01*
X9669825Y-13812174D02*
X9688872Y-13802650D01*
X9688872Y-13802650D02*
X9717444Y-13802650D01*
X9717444Y-13802650D02*
X9736491Y-13812174D01*
X9736491Y-13812174D02*
X9746015Y-13831222D01*
X9746015Y-13831222D02*
X9746015Y-13935984D01*
X10136491Y-13726460D02*
X9965063Y-13983603D01*
X10393634Y-13735984D02*
X10412682Y-13735984D01*
X10412682Y-13735984D02*
X10431729Y-13745508D01*
X10431729Y-13745508D02*
X10441253Y-13755031D01*
X10441253Y-13755031D02*
X10450777Y-13774079D01*
X10450777Y-13774079D02*
X10460301Y-13812174D01*
X10460301Y-13812174D02*
X10460301Y-13859793D01*
X10460301Y-13859793D02*
X10450777Y-13897888D01*
X10450777Y-13897888D02*
X10441253Y-13916936D01*
X10441253Y-13916936D02*
X10431729Y-13926460D01*
X10431729Y-13926460D02*
X10412682Y-13935984D01*
X10412682Y-13935984D02*
X10393634Y-13935984D01*
X10393634Y-13935984D02*
X10374587Y-13926460D01*
X10374587Y-13926460D02*
X10365063Y-13916936D01*
X10365063Y-13916936D02*
X10355539Y-13897888D01*
X10355539Y-13897888D02*
X10346015Y-13859793D01*
X10346015Y-13859793D02*
X10346015Y-13812174D01*
X10346015Y-13812174D02*
X10355539Y-13774079D01*
X10355539Y-13774079D02*
X10365063Y-13755031D01*
X10365063Y-13755031D02*
X10374587Y-13745508D01*
X10374587Y-13745508D02*
X10393634Y-13735984D01*
X10546015Y-13916936D02*
X10555539Y-13926460D01*
X10555539Y-13926460D02*
X10546015Y-13935984D01*
X10546015Y-13935984D02*
X10536491Y-13926460D01*
X10536491Y-13926460D02*
X10546015Y-13916936D01*
X10546015Y-13916936D02*
X10546015Y-13935984D01*
X10679348Y-13735984D02*
X10698396Y-13735984D01*
X10698396Y-13735984D02*
X10717444Y-13745508D01*
X10717444Y-13745508D02*
X10726968Y-13755031D01*
X10726968Y-13755031D02*
X10736491Y-13774079D01*
X10736491Y-13774079D02*
X10746015Y-13812174D01*
X10746015Y-13812174D02*
X10746015Y-13859793D01*
X10746015Y-13859793D02*
X10736491Y-13897888D01*
X10736491Y-13897888D02*
X10726968Y-13916936D01*
X10726968Y-13916936D02*
X10717444Y-13926460D01*
X10717444Y-13926460D02*
X10698396Y-13935984D01*
X10698396Y-13935984D02*
X10679348Y-13935984D01*
X10679348Y-13935984D02*
X10660301Y-13926460D01*
X10660301Y-13926460D02*
X10650777Y-13916936D01*
X10650777Y-13916936D02*
X10641253Y-13897888D01*
X10641253Y-13897888D02*
X10631729Y-13859793D01*
X10631729Y-13859793D02*
X10631729Y-13812174D01*
X10631729Y-13812174D02*
X10641253Y-13774079D01*
X10641253Y-13774079D02*
X10650777Y-13755031D01*
X10650777Y-13755031D02*
X10660301Y-13745508D01*
X10660301Y-13745508D02*
X10679348Y-13735984D01*
X10812682Y-13735984D02*
X10936491Y-13735984D01*
X10936491Y-13735984D02*
X10869825Y-13812174D01*
X10869825Y-13812174D02*
X10898396Y-13812174D01*
X10898396Y-13812174D02*
X10917444Y-13821698D01*
X10917444Y-13821698D02*
X10926968Y-13831222D01*
X10926968Y-13831222D02*
X10936491Y-13850269D01*
X10936491Y-13850269D02*
X10936491Y-13897888D01*
X10936491Y-13897888D02*
X10926968Y-13916936D01*
X10926968Y-13916936D02*
X10917444Y-13926460D01*
X10917444Y-13926460D02*
X10898396Y-13935984D01*
X10898396Y-13935984D02*
X10841253Y-13935984D01*
X10841253Y-13935984D02*
X10822206Y-13926460D01*
X10822206Y-13926460D02*
X10812682Y-13916936D01*
X11117444Y-13735984D02*
X11022206Y-13735984D01*
X11022206Y-13735984D02*
X11012682Y-13831222D01*
X11012682Y-13831222D02*
X11022206Y-13821698D01*
X11022206Y-13821698D02*
X11041253Y-13812174D01*
X11041253Y-13812174D02*
X11088872Y-13812174D01*
X11088872Y-13812174D02*
X11107920Y-13821698D01*
X11107920Y-13821698D02*
X11117444Y-13831222D01*
X11117444Y-13831222D02*
X11126968Y-13850269D01*
X11126968Y-13850269D02*
X11126968Y-13897888D01*
X11126968Y-13897888D02*
X11117444Y-13916936D01*
X11117444Y-13916936D02*
X11107920Y-13926460D01*
X11107920Y-13926460D02*
X11088872Y-13935984D01*
X11088872Y-13935984D02*
X11041253Y-13935984D01*
X11041253Y-13935984D02*
X11022206Y-13926460D01*
X11022206Y-13926460D02*
X11012682Y-13916936D01*
X11298396Y-13802650D02*
X11298396Y-13935984D01*
X11250777Y-13726460D02*
X11203158Y-13869317D01*
X11203158Y-13869317D02*
X11326967Y-13869317D01*
X11393634Y-13735984D02*
X11393634Y-13774079D01*
X11469825Y-13735984D02*
X11469825Y-13774079D01*
X11765063Y-14012174D02*
X11755539Y-14002650D01*
X11755539Y-14002650D02*
X11736491Y-13974079D01*
X11736491Y-13974079D02*
X11726968Y-13955031D01*
X11726968Y-13955031D02*
X11717444Y-13926460D01*
X11717444Y-13926460D02*
X11707920Y-13878841D01*
X11707920Y-13878841D02*
X11707920Y-13840746D01*
X11707920Y-13840746D02*
X11717444Y-13793127D01*
X11717444Y-13793127D02*
X11726968Y-13764555D01*
X11726968Y-13764555D02*
X11736491Y-13745508D01*
X11736491Y-13745508D02*
X11755539Y-13716936D01*
X11755539Y-13716936D02*
X11765063Y-13707412D01*
X11822206Y-13735984D02*
X11946015Y-13735984D01*
X11946015Y-13735984D02*
X11879348Y-13812174D01*
X11879348Y-13812174D02*
X11907920Y-13812174D01*
X11907920Y-13812174D02*
X11926968Y-13821698D01*
X11926968Y-13821698D02*
X11936491Y-13831222D01*
X11936491Y-13831222D02*
X11946015Y-13850269D01*
X11946015Y-13850269D02*
X11946015Y-13897888D01*
X11946015Y-13897888D02*
X11936491Y-13916936D01*
X11936491Y-13916936D02*
X11926968Y-13926460D01*
X11926968Y-13926460D02*
X11907920Y-13935984D01*
X11907920Y-13935984D02*
X11850777Y-13935984D01*
X11850777Y-13935984D02*
X11831729Y-13926460D01*
X11831729Y-13926460D02*
X11822206Y-13916936D01*
X12184110Y-13935984D02*
X12184110Y-13735984D01*
X12269825Y-13935984D02*
X12269825Y-13831222D01*
X12269825Y-13831222D02*
X12260301Y-13812174D01*
X12260301Y-13812174D02*
X12241253Y-13802650D01*
X12241253Y-13802650D02*
X12212682Y-13802650D01*
X12212682Y-13802650D02*
X12193634Y-13812174D01*
X12193634Y-13812174D02*
X12184110Y-13821698D01*
X12393634Y-13935984D02*
X12374587Y-13926460D01*
X12374587Y-13926460D02*
X12365063Y-13916936D01*
X12365063Y-13916936D02*
X12355539Y-13897888D01*
X12355539Y-13897888D02*
X12355539Y-13840746D01*
X12355539Y-13840746D02*
X12365063Y-13821698D01*
X12365063Y-13821698D02*
X12374587Y-13812174D01*
X12374587Y-13812174D02*
X12393634Y-13802650D01*
X12393634Y-13802650D02*
X12422206Y-13802650D01*
X12422206Y-13802650D02*
X12441253Y-13812174D01*
X12441253Y-13812174D02*
X12450777Y-13821698D01*
X12450777Y-13821698D02*
X12460301Y-13840746D01*
X12460301Y-13840746D02*
X12460301Y-13897888D01*
X12460301Y-13897888D02*
X12450777Y-13916936D01*
X12450777Y-13916936D02*
X12441253Y-13926460D01*
X12441253Y-13926460D02*
X12422206Y-13935984D01*
X12422206Y-13935984D02*
X12393634Y-13935984D01*
X12574587Y-13935984D02*
X12555539Y-13926460D01*
X12555539Y-13926460D02*
X12546015Y-13907412D01*
X12546015Y-13907412D02*
X12546015Y-13735984D01*
X12726968Y-13926460D02*
X12707920Y-13935984D01*
X12707920Y-13935984D02*
X12669825Y-13935984D01*
X12669825Y-13935984D02*
X12650777Y-13926460D01*
X12650777Y-13926460D02*
X12641253Y-13907412D01*
X12641253Y-13907412D02*
X12641253Y-13831222D01*
X12641253Y-13831222D02*
X12650777Y-13812174D01*
X12650777Y-13812174D02*
X12669825Y-13802650D01*
X12669825Y-13802650D02*
X12707920Y-13802650D01*
X12707920Y-13802650D02*
X12726968Y-13812174D01*
X12726968Y-13812174D02*
X12736491Y-13831222D01*
X12736491Y-13831222D02*
X12736491Y-13850269D01*
X12736491Y-13850269D02*
X12641253Y-13869317D01*
X12812682Y-13926460D02*
X12831730Y-13935984D01*
X12831730Y-13935984D02*
X12869825Y-13935984D01*
X12869825Y-13935984D02*
X12888872Y-13926460D01*
X12888872Y-13926460D02*
X12898396Y-13907412D01*
X12898396Y-13907412D02*
X12898396Y-13897888D01*
X12898396Y-13897888D02*
X12888872Y-13878841D01*
X12888872Y-13878841D02*
X12869825Y-13869317D01*
X12869825Y-13869317D02*
X12841253Y-13869317D01*
X12841253Y-13869317D02*
X12822206Y-13859793D01*
X12822206Y-13859793D02*
X12812682Y-13840746D01*
X12812682Y-13840746D02*
X12812682Y-13831222D01*
X12812682Y-13831222D02*
X12822206Y-13812174D01*
X12822206Y-13812174D02*
X12841253Y-13802650D01*
X12841253Y-13802650D02*
X12869825Y-13802650D01*
X12869825Y-13802650D02*
X12888872Y-13812174D01*
X12965063Y-14012174D02*
X12974587Y-14002650D01*
X12974587Y-14002650D02*
X12993634Y-13974079D01*
X12993634Y-13974079D02*
X13003158Y-13955031D01*
X13003158Y-13955031D02*
X13012682Y-13926460D01*
X13012682Y-13926460D02*
X13022206Y-13878841D01*
X13022206Y-13878841D02*
X13022206Y-13840746D01*
X13022206Y-13840746D02*
X13012682Y-13793127D01*
X13012682Y-13793127D02*
X13003158Y-13764555D01*
X13003158Y-13764555D02*
X12993634Y-13745508D01*
X12993634Y-13745508D02*
X12974587Y-13716936D01*
X12974587Y-13716936D02*
X12965063Y-13707412D01*
D12*
X8120000Y-14178500D02*
X8190000Y-14108500D01*
X8120000Y-14038500D01*
X8050000Y-14108500D01*
X8120000Y-14178500D01*
D10*
X8555539Y-14199984D02*
X8441253Y-14199984D01*
X8498396Y-14199984D02*
X8498396Y-13999984D01*
X8498396Y-13999984D02*
X8479348Y-14028555D01*
X8479348Y-14028555D02*
X8460301Y-14047603D01*
X8460301Y-14047603D02*
X8441253Y-14057127D01*
X8641253Y-14180936D02*
X8650777Y-14190460D01*
X8650777Y-14190460D02*
X8641253Y-14199984D01*
X8641253Y-14199984D02*
X8631729Y-14190460D01*
X8631729Y-14190460D02*
X8641253Y-14180936D01*
X8641253Y-14180936D02*
X8641253Y-14199984D01*
X8822205Y-14066650D02*
X8822205Y-14199984D01*
X8774586Y-13990460D02*
X8726967Y-14133317D01*
X8726967Y-14133317D02*
X8850777Y-14133317D01*
X8965063Y-13999984D02*
X8984110Y-13999984D01*
X8984110Y-13999984D02*
X9003158Y-14009508D01*
X9003158Y-14009508D02*
X9012682Y-14019031D01*
X9012682Y-14019031D02*
X9022205Y-14038079D01*
X9022205Y-14038079D02*
X9031729Y-14076174D01*
X9031729Y-14076174D02*
X9031729Y-14123793D01*
X9031729Y-14123793D02*
X9022205Y-14161888D01*
X9022205Y-14161888D02*
X9012682Y-14180936D01*
X9012682Y-14180936D02*
X9003158Y-14190460D01*
X9003158Y-14190460D02*
X8984110Y-14199984D01*
X8984110Y-14199984D02*
X8965063Y-14199984D01*
X8965063Y-14199984D02*
X8946015Y-14190460D01*
X8946015Y-14190460D02*
X8936491Y-14180936D01*
X8936491Y-14180936D02*
X8926967Y-14161888D01*
X8926967Y-14161888D02*
X8917444Y-14123793D01*
X8917444Y-14123793D02*
X8917444Y-14076174D01*
X8917444Y-14076174D02*
X8926967Y-14038079D01*
X8926967Y-14038079D02*
X8936491Y-14019031D01*
X8936491Y-14019031D02*
X8946015Y-14009508D01*
X8946015Y-14009508D02*
X8965063Y-13999984D01*
X9155539Y-13999984D02*
X9174586Y-13999984D01*
X9174586Y-13999984D02*
X9193634Y-14009508D01*
X9193634Y-14009508D02*
X9203158Y-14019031D01*
X9203158Y-14019031D02*
X9212682Y-14038079D01*
X9212682Y-14038079D02*
X9222205Y-14076174D01*
X9222205Y-14076174D02*
X9222205Y-14123793D01*
X9222205Y-14123793D02*
X9212682Y-14161888D01*
X9212682Y-14161888D02*
X9203158Y-14180936D01*
X9203158Y-14180936D02*
X9193634Y-14190460D01*
X9193634Y-14190460D02*
X9174586Y-14199984D01*
X9174586Y-14199984D02*
X9155539Y-14199984D01*
X9155539Y-14199984D02*
X9136491Y-14190460D01*
X9136491Y-14190460D02*
X9126967Y-14180936D01*
X9126967Y-14180936D02*
X9117444Y-14161888D01*
X9117444Y-14161888D02*
X9107920Y-14123793D01*
X9107920Y-14123793D02*
X9107920Y-14076174D01*
X9107920Y-14076174D02*
X9117444Y-14038079D01*
X9117444Y-14038079D02*
X9126967Y-14019031D01*
X9126967Y-14019031D02*
X9136491Y-14009508D01*
X9136491Y-14009508D02*
X9155539Y-13999984D01*
X9307920Y-14199984D02*
X9307920Y-14066650D01*
X9307920Y-14085698D02*
X9317444Y-14076174D01*
X9317444Y-14076174D02*
X9336491Y-14066650D01*
X9336491Y-14066650D02*
X9365063Y-14066650D01*
X9365063Y-14066650D02*
X9384110Y-14076174D01*
X9384110Y-14076174D02*
X9393634Y-14095222D01*
X9393634Y-14095222D02*
X9393634Y-14199984D01*
X9393634Y-14095222D02*
X9403158Y-14076174D01*
X9403158Y-14076174D02*
X9422205Y-14066650D01*
X9422205Y-14066650D02*
X9450777Y-14066650D01*
X9450777Y-14066650D02*
X9469825Y-14076174D01*
X9469825Y-14076174D02*
X9479348Y-14095222D01*
X9479348Y-14095222D02*
X9479348Y-14199984D01*
X9574586Y-14199984D02*
X9574586Y-14066650D01*
X9574586Y-14085698D02*
X9584110Y-14076174D01*
X9584110Y-14076174D02*
X9603158Y-14066650D01*
X9603158Y-14066650D02*
X9631729Y-14066650D01*
X9631729Y-14066650D02*
X9650777Y-14076174D01*
X9650777Y-14076174D02*
X9660301Y-14095222D01*
X9660301Y-14095222D02*
X9660301Y-14199984D01*
X9660301Y-14095222D02*
X9669825Y-14076174D01*
X9669825Y-14076174D02*
X9688872Y-14066650D01*
X9688872Y-14066650D02*
X9717444Y-14066650D01*
X9717444Y-14066650D02*
X9736491Y-14076174D01*
X9736491Y-14076174D02*
X9746015Y-14095222D01*
X9746015Y-14095222D02*
X9746015Y-14199984D01*
X10136491Y-13990460D02*
X9965063Y-14247603D01*
X10393634Y-13999984D02*
X10412682Y-13999984D01*
X10412682Y-13999984D02*
X10431729Y-14009508D01*
X10431729Y-14009508D02*
X10441253Y-14019031D01*
X10441253Y-14019031D02*
X10450777Y-14038079D01*
X10450777Y-14038079D02*
X10460301Y-14076174D01*
X10460301Y-14076174D02*
X10460301Y-14123793D01*
X10460301Y-14123793D02*
X10450777Y-14161888D01*
X10450777Y-14161888D02*
X10441253Y-14180936D01*
X10441253Y-14180936D02*
X10431729Y-14190460D01*
X10431729Y-14190460D02*
X10412682Y-14199984D01*
X10412682Y-14199984D02*
X10393634Y-14199984D01*
X10393634Y-14199984D02*
X10374587Y-14190460D01*
X10374587Y-14190460D02*
X10365063Y-14180936D01*
X10365063Y-14180936D02*
X10355539Y-14161888D01*
X10355539Y-14161888D02*
X10346015Y-14123793D01*
X10346015Y-14123793D02*
X10346015Y-14076174D01*
X10346015Y-14076174D02*
X10355539Y-14038079D01*
X10355539Y-14038079D02*
X10365063Y-14019031D01*
X10365063Y-14019031D02*
X10374587Y-14009508D01*
X10374587Y-14009508D02*
X10393634Y-13999984D01*
X10546015Y-14180936D02*
X10555539Y-14190460D01*
X10555539Y-14190460D02*
X10546015Y-14199984D01*
X10546015Y-14199984D02*
X10536491Y-14190460D01*
X10536491Y-14190460D02*
X10546015Y-14180936D01*
X10546015Y-14180936D02*
X10546015Y-14199984D01*
X10679348Y-13999984D02*
X10698396Y-13999984D01*
X10698396Y-13999984D02*
X10717444Y-14009508D01*
X10717444Y-14009508D02*
X10726968Y-14019031D01*
X10726968Y-14019031D02*
X10736491Y-14038079D01*
X10736491Y-14038079D02*
X10746015Y-14076174D01*
X10746015Y-14076174D02*
X10746015Y-14123793D01*
X10746015Y-14123793D02*
X10736491Y-14161888D01*
X10736491Y-14161888D02*
X10726968Y-14180936D01*
X10726968Y-14180936D02*
X10717444Y-14190460D01*
X10717444Y-14190460D02*
X10698396Y-14199984D01*
X10698396Y-14199984D02*
X10679348Y-14199984D01*
X10679348Y-14199984D02*
X10660301Y-14190460D01*
X10660301Y-14190460D02*
X10650777Y-14180936D01*
X10650777Y-14180936D02*
X10641253Y-14161888D01*
X10641253Y-14161888D02*
X10631729Y-14123793D01*
X10631729Y-14123793D02*
X10631729Y-14076174D01*
X10631729Y-14076174D02*
X10641253Y-14038079D01*
X10641253Y-14038079D02*
X10650777Y-14019031D01*
X10650777Y-14019031D02*
X10660301Y-14009508D01*
X10660301Y-14009508D02*
X10679348Y-13999984D01*
X10926968Y-13999984D02*
X10831729Y-13999984D01*
X10831729Y-13999984D02*
X10822206Y-14095222D01*
X10822206Y-14095222D02*
X10831729Y-14085698D01*
X10831729Y-14085698D02*
X10850777Y-14076174D01*
X10850777Y-14076174D02*
X10898396Y-14076174D01*
X10898396Y-14076174D02*
X10917444Y-14085698D01*
X10917444Y-14085698D02*
X10926968Y-14095222D01*
X10926968Y-14095222D02*
X10936491Y-14114269D01*
X10936491Y-14114269D02*
X10936491Y-14161888D01*
X10936491Y-14161888D02*
X10926968Y-14180936D01*
X10926968Y-14180936D02*
X10917444Y-14190460D01*
X10917444Y-14190460D02*
X10898396Y-14199984D01*
X10898396Y-14199984D02*
X10850777Y-14199984D01*
X10850777Y-14199984D02*
X10831729Y-14190460D01*
X10831729Y-14190460D02*
X10822206Y-14180936D01*
X11117444Y-13999984D02*
X11022206Y-13999984D01*
X11022206Y-13999984D02*
X11012682Y-14095222D01*
X11012682Y-14095222D02*
X11022206Y-14085698D01*
X11022206Y-14085698D02*
X11041253Y-14076174D01*
X11041253Y-14076174D02*
X11088872Y-14076174D01*
X11088872Y-14076174D02*
X11107920Y-14085698D01*
X11107920Y-14085698D02*
X11117444Y-14095222D01*
X11117444Y-14095222D02*
X11126968Y-14114269D01*
X11126968Y-14114269D02*
X11126968Y-14161888D01*
X11126968Y-14161888D02*
X11117444Y-14180936D01*
X11117444Y-14180936D02*
X11107920Y-14190460D01*
X11107920Y-14190460D02*
X11088872Y-14199984D01*
X11088872Y-14199984D02*
X11041253Y-14199984D01*
X11041253Y-14199984D02*
X11022206Y-14190460D01*
X11022206Y-14190460D02*
X11012682Y-14180936D01*
X11317444Y-14199984D02*
X11203158Y-14199984D01*
X11260301Y-14199984D02*
X11260301Y-13999984D01*
X11260301Y-13999984D02*
X11241253Y-14028555D01*
X11241253Y-14028555D02*
X11222206Y-14047603D01*
X11222206Y-14047603D02*
X11203158Y-14057127D01*
X11393634Y-13999984D02*
X11393634Y-14038079D01*
X11469825Y-13999984D02*
X11469825Y-14038079D01*
X11765063Y-14276174D02*
X11755539Y-14266650D01*
X11755539Y-14266650D02*
X11736491Y-14238079D01*
X11736491Y-14238079D02*
X11726968Y-14219031D01*
X11726968Y-14219031D02*
X11717444Y-14190460D01*
X11717444Y-14190460D02*
X11707920Y-14142841D01*
X11707920Y-14142841D02*
X11707920Y-14104746D01*
X11707920Y-14104746D02*
X11717444Y-14057127D01*
X11717444Y-14057127D02*
X11726968Y-14028555D01*
X11726968Y-14028555D02*
X11736491Y-14009508D01*
X11736491Y-14009508D02*
X11755539Y-13980936D01*
X11755539Y-13980936D02*
X11765063Y-13971412D01*
X11926968Y-13999984D02*
X11888872Y-13999984D01*
X11888872Y-13999984D02*
X11869825Y-14009508D01*
X11869825Y-14009508D02*
X11860301Y-14019031D01*
X11860301Y-14019031D02*
X11841253Y-14047603D01*
X11841253Y-14047603D02*
X11831729Y-14085698D01*
X11831729Y-14085698D02*
X11831729Y-14161888D01*
X11831729Y-14161888D02*
X11841253Y-14180936D01*
X11841253Y-14180936D02*
X11850777Y-14190460D01*
X11850777Y-14190460D02*
X11869825Y-14199984D01*
X11869825Y-14199984D02*
X11907920Y-14199984D01*
X11907920Y-14199984D02*
X11926968Y-14190460D01*
X11926968Y-14190460D02*
X11936491Y-14180936D01*
X11936491Y-14180936D02*
X11946015Y-14161888D01*
X11946015Y-14161888D02*
X11946015Y-14114269D01*
X11946015Y-14114269D02*
X11936491Y-14095222D01*
X11936491Y-14095222D02*
X11926968Y-14085698D01*
X11926968Y-14085698D02*
X11907920Y-14076174D01*
X11907920Y-14076174D02*
X11869825Y-14076174D01*
X11869825Y-14076174D02*
X11850777Y-14085698D01*
X11850777Y-14085698D02*
X11841253Y-14095222D01*
X11841253Y-14095222D02*
X11831729Y-14114269D01*
X12184110Y-14199984D02*
X12184110Y-13999984D01*
X12269825Y-14199984D02*
X12269825Y-14095222D01*
X12269825Y-14095222D02*
X12260301Y-14076174D01*
X12260301Y-14076174D02*
X12241253Y-14066650D01*
X12241253Y-14066650D02*
X12212682Y-14066650D01*
X12212682Y-14066650D02*
X12193634Y-14076174D01*
X12193634Y-14076174D02*
X12184110Y-14085698D01*
X12393634Y-14199984D02*
X12374587Y-14190460D01*
X12374587Y-14190460D02*
X12365063Y-14180936D01*
X12365063Y-14180936D02*
X12355539Y-14161888D01*
X12355539Y-14161888D02*
X12355539Y-14104746D01*
X12355539Y-14104746D02*
X12365063Y-14085698D01*
X12365063Y-14085698D02*
X12374587Y-14076174D01*
X12374587Y-14076174D02*
X12393634Y-14066650D01*
X12393634Y-14066650D02*
X12422206Y-14066650D01*
X12422206Y-14066650D02*
X12441253Y-14076174D01*
X12441253Y-14076174D02*
X12450777Y-14085698D01*
X12450777Y-14085698D02*
X12460301Y-14104746D01*
X12460301Y-14104746D02*
X12460301Y-14161888D01*
X12460301Y-14161888D02*
X12450777Y-14180936D01*
X12450777Y-14180936D02*
X12441253Y-14190460D01*
X12441253Y-14190460D02*
X12422206Y-14199984D01*
X12422206Y-14199984D02*
X12393634Y-14199984D01*
X12574587Y-14199984D02*
X12555539Y-14190460D01*
X12555539Y-14190460D02*
X12546015Y-14171412D01*
X12546015Y-14171412D02*
X12546015Y-13999984D01*
X12726968Y-14190460D02*
X12707920Y-14199984D01*
X12707920Y-14199984D02*
X12669825Y-14199984D01*
X12669825Y-14199984D02*
X12650777Y-14190460D01*
X12650777Y-14190460D02*
X12641253Y-14171412D01*
X12641253Y-14171412D02*
X12641253Y-14095222D01*
X12641253Y-14095222D02*
X12650777Y-14076174D01*
X12650777Y-14076174D02*
X12669825Y-14066650D01*
X12669825Y-14066650D02*
X12707920Y-14066650D01*
X12707920Y-14066650D02*
X12726968Y-14076174D01*
X12726968Y-14076174D02*
X12736491Y-14095222D01*
X12736491Y-14095222D02*
X12736491Y-14114269D01*
X12736491Y-14114269D02*
X12641253Y-14133317D01*
X12812682Y-14190460D02*
X12831730Y-14199984D01*
X12831730Y-14199984D02*
X12869825Y-14199984D01*
X12869825Y-14199984D02*
X12888872Y-14190460D01*
X12888872Y-14190460D02*
X12898396Y-14171412D01*
X12898396Y-14171412D02*
X12898396Y-14161888D01*
X12898396Y-14161888D02*
X12888872Y-14142841D01*
X12888872Y-14142841D02*
X12869825Y-14133317D01*
X12869825Y-14133317D02*
X12841253Y-14133317D01*
X12841253Y-14133317D02*
X12822206Y-14123793D01*
X12822206Y-14123793D02*
X12812682Y-14104746D01*
X12812682Y-14104746D02*
X12812682Y-14095222D01*
X12812682Y-14095222D02*
X12822206Y-14076174D01*
X12822206Y-14076174D02*
X12841253Y-14066650D01*
X12841253Y-14066650D02*
X12869825Y-14066650D01*
X12869825Y-14066650D02*
X12888872Y-14076174D01*
X12965063Y-14276174D02*
X12974587Y-14266650D01*
X12974587Y-14266650D02*
X12993634Y-14238079D01*
X12993634Y-14238079D02*
X13003158Y-14219031D01*
X13003158Y-14219031D02*
X13012682Y-14190460D01*
X13012682Y-14190460D02*
X13022206Y-14142841D01*
X13022206Y-14142841D02*
X13022206Y-14104746D01*
X13022206Y-14104746D02*
X13012682Y-14057127D01*
X13012682Y-14057127D02*
X13003158Y-14028555D01*
X13003158Y-14028555D02*
X12993634Y-14009508D01*
X12993634Y-14009508D02*
X12974587Y-13980936D01*
X12974587Y-13980936D02*
X12965063Y-13971412D01*
D13*
X8040000Y-14297500D02*
X8190000Y-14447500D01*
X8190000Y-14297500D02*
X8040000Y-14447500D01*
X8190000Y-14372500D02*
G75*
G02*
X8040000Y-14372500I-75000J0D01*
G01*
X8040000Y-14372500D02*
G75*
G02*
X8190000Y-14372500I75000J0D01*
G01*
D10*
X8555539Y-14463984D02*
X8441253Y-14463984D01*
X8498396Y-14463984D02*
X8498396Y-14263984D01*
X8498396Y-14263984D02*
X8479348Y-14292555D01*
X8479348Y-14292555D02*
X8460301Y-14311603D01*
X8460301Y-14311603D02*
X8441253Y-14321127D01*
X8641253Y-14444936D02*
X8650777Y-14454460D01*
X8650777Y-14454460D02*
X8641253Y-14463984D01*
X8641253Y-14463984D02*
X8631729Y-14454460D01*
X8631729Y-14454460D02*
X8641253Y-14444936D01*
X8641253Y-14444936D02*
X8641253Y-14463984D01*
X8831729Y-14263984D02*
X8736491Y-14263984D01*
X8736491Y-14263984D02*
X8726967Y-14359222D01*
X8726967Y-14359222D02*
X8736491Y-14349698D01*
X8736491Y-14349698D02*
X8755539Y-14340174D01*
X8755539Y-14340174D02*
X8803158Y-14340174D01*
X8803158Y-14340174D02*
X8822205Y-14349698D01*
X8822205Y-14349698D02*
X8831729Y-14359222D01*
X8831729Y-14359222D02*
X8841253Y-14378269D01*
X8841253Y-14378269D02*
X8841253Y-14425888D01*
X8841253Y-14425888D02*
X8831729Y-14444936D01*
X8831729Y-14444936D02*
X8822205Y-14454460D01*
X8822205Y-14454460D02*
X8803158Y-14463984D01*
X8803158Y-14463984D02*
X8755539Y-14463984D01*
X8755539Y-14463984D02*
X8736491Y-14454460D01*
X8736491Y-14454460D02*
X8726967Y-14444936D01*
X8965063Y-14263984D02*
X8984110Y-14263984D01*
X8984110Y-14263984D02*
X9003158Y-14273508D01*
X9003158Y-14273508D02*
X9012682Y-14283031D01*
X9012682Y-14283031D02*
X9022205Y-14302079D01*
X9022205Y-14302079D02*
X9031729Y-14340174D01*
X9031729Y-14340174D02*
X9031729Y-14387793D01*
X9031729Y-14387793D02*
X9022205Y-14425888D01*
X9022205Y-14425888D02*
X9012682Y-14444936D01*
X9012682Y-14444936D02*
X9003158Y-14454460D01*
X9003158Y-14454460D02*
X8984110Y-14463984D01*
X8984110Y-14463984D02*
X8965063Y-14463984D01*
X8965063Y-14463984D02*
X8946015Y-14454460D01*
X8946015Y-14454460D02*
X8936491Y-14444936D01*
X8936491Y-14444936D02*
X8926967Y-14425888D01*
X8926967Y-14425888D02*
X8917444Y-14387793D01*
X8917444Y-14387793D02*
X8917444Y-14340174D01*
X8917444Y-14340174D02*
X8926967Y-14302079D01*
X8926967Y-14302079D02*
X8936491Y-14283031D01*
X8936491Y-14283031D02*
X8946015Y-14273508D01*
X8946015Y-14273508D02*
X8965063Y-14263984D01*
X9155539Y-14263984D02*
X9174586Y-14263984D01*
X9174586Y-14263984D02*
X9193634Y-14273508D01*
X9193634Y-14273508D02*
X9203158Y-14283031D01*
X9203158Y-14283031D02*
X9212682Y-14302079D01*
X9212682Y-14302079D02*
X9222205Y-14340174D01*
X9222205Y-14340174D02*
X9222205Y-14387793D01*
X9222205Y-14387793D02*
X9212682Y-14425888D01*
X9212682Y-14425888D02*
X9203158Y-14444936D01*
X9203158Y-14444936D02*
X9193634Y-14454460D01*
X9193634Y-14454460D02*
X9174586Y-14463984D01*
X9174586Y-14463984D02*
X9155539Y-14463984D01*
X9155539Y-14463984D02*
X9136491Y-14454460D01*
X9136491Y-14454460D02*
X9126967Y-14444936D01*
X9126967Y-14444936D02*
X9117444Y-14425888D01*
X9117444Y-14425888D02*
X9107920Y-14387793D01*
X9107920Y-14387793D02*
X9107920Y-14340174D01*
X9107920Y-14340174D02*
X9117444Y-14302079D01*
X9117444Y-14302079D02*
X9126967Y-14283031D01*
X9126967Y-14283031D02*
X9136491Y-14273508D01*
X9136491Y-14273508D02*
X9155539Y-14263984D01*
X9307920Y-14463984D02*
X9307920Y-14330650D01*
X9307920Y-14349698D02*
X9317444Y-14340174D01*
X9317444Y-14340174D02*
X9336491Y-14330650D01*
X9336491Y-14330650D02*
X9365063Y-14330650D01*
X9365063Y-14330650D02*
X9384110Y-14340174D01*
X9384110Y-14340174D02*
X9393634Y-14359222D01*
X9393634Y-14359222D02*
X9393634Y-14463984D01*
X9393634Y-14359222D02*
X9403158Y-14340174D01*
X9403158Y-14340174D02*
X9422205Y-14330650D01*
X9422205Y-14330650D02*
X9450777Y-14330650D01*
X9450777Y-14330650D02*
X9469825Y-14340174D01*
X9469825Y-14340174D02*
X9479348Y-14359222D01*
X9479348Y-14359222D02*
X9479348Y-14463984D01*
X9574586Y-14463984D02*
X9574586Y-14330650D01*
X9574586Y-14349698D02*
X9584110Y-14340174D01*
X9584110Y-14340174D02*
X9603158Y-14330650D01*
X9603158Y-14330650D02*
X9631729Y-14330650D01*
X9631729Y-14330650D02*
X9650777Y-14340174D01*
X9650777Y-14340174D02*
X9660301Y-14359222D01*
X9660301Y-14359222D02*
X9660301Y-14463984D01*
X9660301Y-14359222D02*
X9669825Y-14340174D01*
X9669825Y-14340174D02*
X9688872Y-14330650D01*
X9688872Y-14330650D02*
X9717444Y-14330650D01*
X9717444Y-14330650D02*
X9736491Y-14340174D01*
X9736491Y-14340174D02*
X9746015Y-14359222D01*
X9746015Y-14359222D02*
X9746015Y-14463984D01*
X10136491Y-14254460D02*
X9965063Y-14511603D01*
X10393634Y-14263984D02*
X10412682Y-14263984D01*
X10412682Y-14263984D02*
X10431729Y-14273508D01*
X10431729Y-14273508D02*
X10441253Y-14283031D01*
X10441253Y-14283031D02*
X10450777Y-14302079D01*
X10450777Y-14302079D02*
X10460301Y-14340174D01*
X10460301Y-14340174D02*
X10460301Y-14387793D01*
X10460301Y-14387793D02*
X10450777Y-14425888D01*
X10450777Y-14425888D02*
X10441253Y-14444936D01*
X10441253Y-14444936D02*
X10431729Y-14454460D01*
X10431729Y-14454460D02*
X10412682Y-14463984D01*
X10412682Y-14463984D02*
X10393634Y-14463984D01*
X10393634Y-14463984D02*
X10374587Y-14454460D01*
X10374587Y-14454460D02*
X10365063Y-14444936D01*
X10365063Y-14444936D02*
X10355539Y-14425888D01*
X10355539Y-14425888D02*
X10346015Y-14387793D01*
X10346015Y-14387793D02*
X10346015Y-14340174D01*
X10346015Y-14340174D02*
X10355539Y-14302079D01*
X10355539Y-14302079D02*
X10365063Y-14283031D01*
X10365063Y-14283031D02*
X10374587Y-14273508D01*
X10374587Y-14273508D02*
X10393634Y-14263984D01*
X10546015Y-14444936D02*
X10555539Y-14454460D01*
X10555539Y-14454460D02*
X10546015Y-14463984D01*
X10546015Y-14463984D02*
X10536491Y-14454460D01*
X10536491Y-14454460D02*
X10546015Y-14444936D01*
X10546015Y-14444936D02*
X10546015Y-14463984D01*
X10679348Y-14263984D02*
X10698396Y-14263984D01*
X10698396Y-14263984D02*
X10717444Y-14273508D01*
X10717444Y-14273508D02*
X10726968Y-14283031D01*
X10726968Y-14283031D02*
X10736491Y-14302079D01*
X10736491Y-14302079D02*
X10746015Y-14340174D01*
X10746015Y-14340174D02*
X10746015Y-14387793D01*
X10746015Y-14387793D02*
X10736491Y-14425888D01*
X10736491Y-14425888D02*
X10726968Y-14444936D01*
X10726968Y-14444936D02*
X10717444Y-14454460D01*
X10717444Y-14454460D02*
X10698396Y-14463984D01*
X10698396Y-14463984D02*
X10679348Y-14463984D01*
X10679348Y-14463984D02*
X10660301Y-14454460D01*
X10660301Y-14454460D02*
X10650777Y-14444936D01*
X10650777Y-14444936D02*
X10641253Y-14425888D01*
X10641253Y-14425888D02*
X10631729Y-14387793D01*
X10631729Y-14387793D02*
X10631729Y-14340174D01*
X10631729Y-14340174D02*
X10641253Y-14302079D01*
X10641253Y-14302079D02*
X10650777Y-14283031D01*
X10650777Y-14283031D02*
X10660301Y-14273508D01*
X10660301Y-14273508D02*
X10679348Y-14263984D01*
X10926968Y-14263984D02*
X10831729Y-14263984D01*
X10831729Y-14263984D02*
X10822206Y-14359222D01*
X10822206Y-14359222D02*
X10831729Y-14349698D01*
X10831729Y-14349698D02*
X10850777Y-14340174D01*
X10850777Y-14340174D02*
X10898396Y-14340174D01*
X10898396Y-14340174D02*
X10917444Y-14349698D01*
X10917444Y-14349698D02*
X10926968Y-14359222D01*
X10926968Y-14359222D02*
X10936491Y-14378269D01*
X10936491Y-14378269D02*
X10936491Y-14425888D01*
X10936491Y-14425888D02*
X10926968Y-14444936D01*
X10926968Y-14444936D02*
X10917444Y-14454460D01*
X10917444Y-14454460D02*
X10898396Y-14463984D01*
X10898396Y-14463984D02*
X10850777Y-14463984D01*
X10850777Y-14463984D02*
X10831729Y-14454460D01*
X10831729Y-14454460D02*
X10822206Y-14444936D01*
X11031729Y-14463984D02*
X11069825Y-14463984D01*
X11069825Y-14463984D02*
X11088872Y-14454460D01*
X11088872Y-14454460D02*
X11098396Y-14444936D01*
X11098396Y-14444936D02*
X11117444Y-14416365D01*
X11117444Y-14416365D02*
X11126968Y-14378269D01*
X11126968Y-14378269D02*
X11126968Y-14302079D01*
X11126968Y-14302079D02*
X11117444Y-14283031D01*
X11117444Y-14283031D02*
X11107920Y-14273508D01*
X11107920Y-14273508D02*
X11088872Y-14263984D01*
X11088872Y-14263984D02*
X11050777Y-14263984D01*
X11050777Y-14263984D02*
X11031729Y-14273508D01*
X11031729Y-14273508D02*
X11022206Y-14283031D01*
X11022206Y-14283031D02*
X11012682Y-14302079D01*
X11012682Y-14302079D02*
X11012682Y-14349698D01*
X11012682Y-14349698D02*
X11022206Y-14368746D01*
X11022206Y-14368746D02*
X11031729Y-14378269D01*
X11031729Y-14378269D02*
X11050777Y-14387793D01*
X11050777Y-14387793D02*
X11088872Y-14387793D01*
X11088872Y-14387793D02*
X11107920Y-14378269D01*
X11107920Y-14378269D02*
X11117444Y-14368746D01*
X11117444Y-14368746D02*
X11126968Y-14349698D01*
X11317444Y-14463984D02*
X11203158Y-14463984D01*
X11260301Y-14463984D02*
X11260301Y-14263984D01*
X11260301Y-14263984D02*
X11241253Y-14292555D01*
X11241253Y-14292555D02*
X11222206Y-14311603D01*
X11222206Y-14311603D02*
X11203158Y-14321127D01*
X11393634Y-14263984D02*
X11393634Y-14302079D01*
X11469825Y-14263984D02*
X11469825Y-14302079D01*
X11765063Y-14540174D02*
X11755539Y-14530650D01*
X11755539Y-14530650D02*
X11736491Y-14502079D01*
X11736491Y-14502079D02*
X11726968Y-14483031D01*
X11726968Y-14483031D02*
X11717444Y-14454460D01*
X11717444Y-14454460D02*
X11707920Y-14406841D01*
X11707920Y-14406841D02*
X11707920Y-14368746D01*
X11707920Y-14368746D02*
X11717444Y-14321127D01*
X11717444Y-14321127D02*
X11726968Y-14292555D01*
X11726968Y-14292555D02*
X11736491Y-14273508D01*
X11736491Y-14273508D02*
X11755539Y-14244936D01*
X11755539Y-14244936D02*
X11765063Y-14235412D01*
X11831729Y-14283031D02*
X11841253Y-14273508D01*
X11841253Y-14273508D02*
X11860301Y-14263984D01*
X11860301Y-14263984D02*
X11907920Y-14263984D01*
X11907920Y-14263984D02*
X11926968Y-14273508D01*
X11926968Y-14273508D02*
X11936491Y-14283031D01*
X11936491Y-14283031D02*
X11946015Y-14302079D01*
X11946015Y-14302079D02*
X11946015Y-14321127D01*
X11946015Y-14321127D02*
X11936491Y-14349698D01*
X11936491Y-14349698D02*
X11822206Y-14463984D01*
X11822206Y-14463984D02*
X11946015Y-14463984D01*
X12184110Y-14463984D02*
X12184110Y-14263984D01*
X12269825Y-14463984D02*
X12269825Y-14359222D01*
X12269825Y-14359222D02*
X12260301Y-14340174D01*
X12260301Y-14340174D02*
X12241253Y-14330650D01*
X12241253Y-14330650D02*
X12212682Y-14330650D01*
X12212682Y-14330650D02*
X12193634Y-14340174D01*
X12193634Y-14340174D02*
X12184110Y-14349698D01*
X12393634Y-14463984D02*
X12374587Y-14454460D01*
X12374587Y-14454460D02*
X12365063Y-14444936D01*
X12365063Y-14444936D02*
X12355539Y-14425888D01*
X12355539Y-14425888D02*
X12355539Y-14368746D01*
X12355539Y-14368746D02*
X12365063Y-14349698D01*
X12365063Y-14349698D02*
X12374587Y-14340174D01*
X12374587Y-14340174D02*
X12393634Y-14330650D01*
X12393634Y-14330650D02*
X12422206Y-14330650D01*
X12422206Y-14330650D02*
X12441253Y-14340174D01*
X12441253Y-14340174D02*
X12450777Y-14349698D01*
X12450777Y-14349698D02*
X12460301Y-14368746D01*
X12460301Y-14368746D02*
X12460301Y-14425888D01*
X12460301Y-14425888D02*
X12450777Y-14444936D01*
X12450777Y-14444936D02*
X12441253Y-14454460D01*
X12441253Y-14454460D02*
X12422206Y-14463984D01*
X12422206Y-14463984D02*
X12393634Y-14463984D01*
X12574587Y-14463984D02*
X12555539Y-14454460D01*
X12555539Y-14454460D02*
X12546015Y-14435412D01*
X12546015Y-14435412D02*
X12546015Y-14263984D01*
X12726968Y-14454460D02*
X12707920Y-14463984D01*
X12707920Y-14463984D02*
X12669825Y-14463984D01*
X12669825Y-14463984D02*
X12650777Y-14454460D01*
X12650777Y-14454460D02*
X12641253Y-14435412D01*
X12641253Y-14435412D02*
X12641253Y-14359222D01*
X12641253Y-14359222D02*
X12650777Y-14340174D01*
X12650777Y-14340174D02*
X12669825Y-14330650D01*
X12669825Y-14330650D02*
X12707920Y-14330650D01*
X12707920Y-14330650D02*
X12726968Y-14340174D01*
X12726968Y-14340174D02*
X12736491Y-14359222D01*
X12736491Y-14359222D02*
X12736491Y-14378269D01*
X12736491Y-14378269D02*
X12641253Y-14397317D01*
X12812682Y-14454460D02*
X12831730Y-14463984D01*
X12831730Y-14463984D02*
X12869825Y-14463984D01*
X12869825Y-14463984D02*
X12888872Y-14454460D01*
X12888872Y-14454460D02*
X12898396Y-14435412D01*
X12898396Y-14435412D02*
X12898396Y-14425888D01*
X12898396Y-14425888D02*
X12888872Y-14406841D01*
X12888872Y-14406841D02*
X12869825Y-14397317D01*
X12869825Y-14397317D02*
X12841253Y-14397317D01*
X12841253Y-14397317D02*
X12822206Y-14387793D01*
X12822206Y-14387793D02*
X12812682Y-14368746D01*
X12812682Y-14368746D02*
X12812682Y-14359222D01*
X12812682Y-14359222D02*
X12822206Y-14340174D01*
X12822206Y-14340174D02*
X12841253Y-14330650D01*
X12841253Y-14330650D02*
X12869825Y-14330650D01*
X12869825Y-14330650D02*
X12888872Y-14340174D01*
X12965063Y-14540174D02*
X12974587Y-14530650D01*
X12974587Y-14530650D02*
X12993634Y-14502079D01*
X12993634Y-14502079D02*
X13003158Y-14483031D01*
X13003158Y-14483031D02*
X13012682Y-14454460D01*
X13012682Y-14454460D02*
X13022206Y-14406841D01*
X13022206Y-14406841D02*
X13022206Y-14368746D01*
X13022206Y-14368746D02*
X13012682Y-14321127D01*
X13012682Y-14321127D02*
X13003158Y-14292555D01*
X13003158Y-14292555D02*
X12993634Y-14273508D01*
X12993634Y-14273508D02*
X12974587Y-14244936D01*
X12974587Y-14244936D02*
X12965063Y-14235412D01*
D14*
X8000000Y-14547500D02*
X8190000Y-14737500D01*
X8190000Y-14547500D02*
X8000000Y-14737500D01*
X8095000Y-14547500D02*
X8095000Y-14737500D01*
X8000000Y-14642500D02*
X8190000Y-14642500D01*
D10*
X8555539Y-14733984D02*
X8441253Y-14733984D01*
X8498396Y-14733984D02*
X8498396Y-14533984D01*
X8498396Y-14533984D02*
X8479348Y-14562555D01*
X8479348Y-14562555D02*
X8460301Y-14581603D01*
X8460301Y-14581603D02*
X8441253Y-14591127D01*
X8641253Y-14714936D02*
X8650777Y-14724460D01*
X8650777Y-14724460D02*
X8641253Y-14733984D01*
X8641253Y-14733984D02*
X8631729Y-14724460D01*
X8631729Y-14724460D02*
X8641253Y-14714936D01*
X8641253Y-14714936D02*
X8641253Y-14733984D01*
X8746015Y-14733984D02*
X8784110Y-14733984D01*
X8784110Y-14733984D02*
X8803158Y-14724460D01*
X8803158Y-14724460D02*
X8812682Y-14714936D01*
X8812682Y-14714936D02*
X8831729Y-14686365D01*
X8831729Y-14686365D02*
X8841253Y-14648269D01*
X8841253Y-14648269D02*
X8841253Y-14572079D01*
X8841253Y-14572079D02*
X8831729Y-14553031D01*
X8831729Y-14553031D02*
X8822205Y-14543508D01*
X8822205Y-14543508D02*
X8803158Y-14533984D01*
X8803158Y-14533984D02*
X8765063Y-14533984D01*
X8765063Y-14533984D02*
X8746015Y-14543508D01*
X8746015Y-14543508D02*
X8736491Y-14553031D01*
X8736491Y-14553031D02*
X8726967Y-14572079D01*
X8726967Y-14572079D02*
X8726967Y-14619698D01*
X8726967Y-14619698D02*
X8736491Y-14638746D01*
X8736491Y-14638746D02*
X8746015Y-14648269D01*
X8746015Y-14648269D02*
X8765063Y-14657793D01*
X8765063Y-14657793D02*
X8803158Y-14657793D01*
X8803158Y-14657793D02*
X8822205Y-14648269D01*
X8822205Y-14648269D02*
X8831729Y-14638746D01*
X8831729Y-14638746D02*
X8841253Y-14619698D01*
X8965063Y-14533984D02*
X8984110Y-14533984D01*
X8984110Y-14533984D02*
X9003158Y-14543508D01*
X9003158Y-14543508D02*
X9012682Y-14553031D01*
X9012682Y-14553031D02*
X9022205Y-14572079D01*
X9022205Y-14572079D02*
X9031729Y-14610174D01*
X9031729Y-14610174D02*
X9031729Y-14657793D01*
X9031729Y-14657793D02*
X9022205Y-14695888D01*
X9022205Y-14695888D02*
X9012682Y-14714936D01*
X9012682Y-14714936D02*
X9003158Y-14724460D01*
X9003158Y-14724460D02*
X8984110Y-14733984D01*
X8984110Y-14733984D02*
X8965063Y-14733984D01*
X8965063Y-14733984D02*
X8946015Y-14724460D01*
X8946015Y-14724460D02*
X8936491Y-14714936D01*
X8936491Y-14714936D02*
X8926967Y-14695888D01*
X8926967Y-14695888D02*
X8917444Y-14657793D01*
X8917444Y-14657793D02*
X8917444Y-14610174D01*
X8917444Y-14610174D02*
X8926967Y-14572079D01*
X8926967Y-14572079D02*
X8936491Y-14553031D01*
X8936491Y-14553031D02*
X8946015Y-14543508D01*
X8946015Y-14543508D02*
X8965063Y-14533984D01*
X9155539Y-14533984D02*
X9174586Y-14533984D01*
X9174586Y-14533984D02*
X9193634Y-14543508D01*
X9193634Y-14543508D02*
X9203158Y-14553031D01*
X9203158Y-14553031D02*
X9212682Y-14572079D01*
X9212682Y-14572079D02*
X9222205Y-14610174D01*
X9222205Y-14610174D02*
X9222205Y-14657793D01*
X9222205Y-14657793D02*
X9212682Y-14695888D01*
X9212682Y-14695888D02*
X9203158Y-14714936D01*
X9203158Y-14714936D02*
X9193634Y-14724460D01*
X9193634Y-14724460D02*
X9174586Y-14733984D01*
X9174586Y-14733984D02*
X9155539Y-14733984D01*
X9155539Y-14733984D02*
X9136491Y-14724460D01*
X9136491Y-14724460D02*
X9126967Y-14714936D01*
X9126967Y-14714936D02*
X9117444Y-14695888D01*
X9117444Y-14695888D02*
X9107920Y-14657793D01*
X9107920Y-14657793D02*
X9107920Y-14610174D01*
X9107920Y-14610174D02*
X9117444Y-14572079D01*
X9117444Y-14572079D02*
X9126967Y-14553031D01*
X9126967Y-14553031D02*
X9136491Y-14543508D01*
X9136491Y-14543508D02*
X9155539Y-14533984D01*
X9307920Y-14733984D02*
X9307920Y-14600650D01*
X9307920Y-14619698D02*
X9317444Y-14610174D01*
X9317444Y-14610174D02*
X9336491Y-14600650D01*
X9336491Y-14600650D02*
X9365063Y-14600650D01*
X9365063Y-14600650D02*
X9384110Y-14610174D01*
X9384110Y-14610174D02*
X9393634Y-14629222D01*
X9393634Y-14629222D02*
X9393634Y-14733984D01*
X9393634Y-14629222D02*
X9403158Y-14610174D01*
X9403158Y-14610174D02*
X9422205Y-14600650D01*
X9422205Y-14600650D02*
X9450777Y-14600650D01*
X9450777Y-14600650D02*
X9469825Y-14610174D01*
X9469825Y-14610174D02*
X9479348Y-14629222D01*
X9479348Y-14629222D02*
X9479348Y-14733984D01*
X9574586Y-14733984D02*
X9574586Y-14600650D01*
X9574586Y-14619698D02*
X9584110Y-14610174D01*
X9584110Y-14610174D02*
X9603158Y-14600650D01*
X9603158Y-14600650D02*
X9631729Y-14600650D01*
X9631729Y-14600650D02*
X9650777Y-14610174D01*
X9650777Y-14610174D02*
X9660301Y-14629222D01*
X9660301Y-14629222D02*
X9660301Y-14733984D01*
X9660301Y-14629222D02*
X9669825Y-14610174D01*
X9669825Y-14610174D02*
X9688872Y-14600650D01*
X9688872Y-14600650D02*
X9717444Y-14600650D01*
X9717444Y-14600650D02*
X9736491Y-14610174D01*
X9736491Y-14610174D02*
X9746015Y-14629222D01*
X9746015Y-14629222D02*
X9746015Y-14733984D01*
X10136491Y-14524460D02*
X9965063Y-14781603D01*
X10393634Y-14533984D02*
X10412682Y-14533984D01*
X10412682Y-14533984D02*
X10431729Y-14543508D01*
X10431729Y-14543508D02*
X10441253Y-14553031D01*
X10441253Y-14553031D02*
X10450777Y-14572079D01*
X10450777Y-14572079D02*
X10460301Y-14610174D01*
X10460301Y-14610174D02*
X10460301Y-14657793D01*
X10460301Y-14657793D02*
X10450777Y-14695888D01*
X10450777Y-14695888D02*
X10441253Y-14714936D01*
X10441253Y-14714936D02*
X10431729Y-14724460D01*
X10431729Y-14724460D02*
X10412682Y-14733984D01*
X10412682Y-14733984D02*
X10393634Y-14733984D01*
X10393634Y-14733984D02*
X10374587Y-14724460D01*
X10374587Y-14724460D02*
X10365063Y-14714936D01*
X10365063Y-14714936D02*
X10355539Y-14695888D01*
X10355539Y-14695888D02*
X10346015Y-14657793D01*
X10346015Y-14657793D02*
X10346015Y-14610174D01*
X10346015Y-14610174D02*
X10355539Y-14572079D01*
X10355539Y-14572079D02*
X10365063Y-14553031D01*
X10365063Y-14553031D02*
X10374587Y-14543508D01*
X10374587Y-14543508D02*
X10393634Y-14533984D01*
X10546015Y-14714936D02*
X10555539Y-14724460D01*
X10555539Y-14724460D02*
X10546015Y-14733984D01*
X10546015Y-14733984D02*
X10536491Y-14724460D01*
X10536491Y-14724460D02*
X10546015Y-14714936D01*
X10546015Y-14714936D02*
X10546015Y-14733984D01*
X10679348Y-14533984D02*
X10698396Y-14533984D01*
X10698396Y-14533984D02*
X10717444Y-14543508D01*
X10717444Y-14543508D02*
X10726968Y-14553031D01*
X10726968Y-14553031D02*
X10736491Y-14572079D01*
X10736491Y-14572079D02*
X10746015Y-14610174D01*
X10746015Y-14610174D02*
X10746015Y-14657793D01*
X10746015Y-14657793D02*
X10736491Y-14695888D01*
X10736491Y-14695888D02*
X10726968Y-14714936D01*
X10726968Y-14714936D02*
X10717444Y-14724460D01*
X10717444Y-14724460D02*
X10698396Y-14733984D01*
X10698396Y-14733984D02*
X10679348Y-14733984D01*
X10679348Y-14733984D02*
X10660301Y-14724460D01*
X10660301Y-14724460D02*
X10650777Y-14714936D01*
X10650777Y-14714936D02*
X10641253Y-14695888D01*
X10641253Y-14695888D02*
X10631729Y-14657793D01*
X10631729Y-14657793D02*
X10631729Y-14610174D01*
X10631729Y-14610174D02*
X10641253Y-14572079D01*
X10641253Y-14572079D02*
X10650777Y-14553031D01*
X10650777Y-14553031D02*
X10660301Y-14543508D01*
X10660301Y-14543508D02*
X10679348Y-14533984D01*
X10812682Y-14533984D02*
X10946015Y-14533984D01*
X10946015Y-14533984D02*
X10860301Y-14733984D01*
X11107920Y-14600650D02*
X11107920Y-14733984D01*
X11060301Y-14524460D02*
X11012682Y-14667317D01*
X11012682Y-14667317D02*
X11136491Y-14667317D01*
X11241253Y-14619698D02*
X11222206Y-14610174D01*
X11222206Y-14610174D02*
X11212682Y-14600650D01*
X11212682Y-14600650D02*
X11203158Y-14581603D01*
X11203158Y-14581603D02*
X11203158Y-14572079D01*
X11203158Y-14572079D02*
X11212682Y-14553031D01*
X11212682Y-14553031D02*
X11222206Y-14543508D01*
X11222206Y-14543508D02*
X11241253Y-14533984D01*
X11241253Y-14533984D02*
X11279348Y-14533984D01*
X11279348Y-14533984D02*
X11298396Y-14543508D01*
X11298396Y-14543508D02*
X11307920Y-14553031D01*
X11307920Y-14553031D02*
X11317444Y-14572079D01*
X11317444Y-14572079D02*
X11317444Y-14581603D01*
X11317444Y-14581603D02*
X11307920Y-14600650D01*
X11307920Y-14600650D02*
X11298396Y-14610174D01*
X11298396Y-14610174D02*
X11279348Y-14619698D01*
X11279348Y-14619698D02*
X11241253Y-14619698D01*
X11241253Y-14619698D02*
X11222206Y-14629222D01*
X11222206Y-14629222D02*
X11212682Y-14638746D01*
X11212682Y-14638746D02*
X11203158Y-14657793D01*
X11203158Y-14657793D02*
X11203158Y-14695888D01*
X11203158Y-14695888D02*
X11212682Y-14714936D01*
X11212682Y-14714936D02*
X11222206Y-14724460D01*
X11222206Y-14724460D02*
X11241253Y-14733984D01*
X11241253Y-14733984D02*
X11279348Y-14733984D01*
X11279348Y-14733984D02*
X11298396Y-14724460D01*
X11298396Y-14724460D02*
X11307920Y-14714936D01*
X11307920Y-14714936D02*
X11317444Y-14695888D01*
X11317444Y-14695888D02*
X11317444Y-14657793D01*
X11317444Y-14657793D02*
X11307920Y-14638746D01*
X11307920Y-14638746D02*
X11298396Y-14629222D01*
X11298396Y-14629222D02*
X11279348Y-14619698D01*
X11393634Y-14533984D02*
X11393634Y-14572079D01*
X11469825Y-14533984D02*
X11469825Y-14572079D01*
X11765063Y-14810174D02*
X11755539Y-14800650D01*
X11755539Y-14800650D02*
X11736491Y-14772079D01*
X11736491Y-14772079D02*
X11726968Y-14753031D01*
X11726968Y-14753031D02*
X11717444Y-14724460D01*
X11717444Y-14724460D02*
X11707920Y-14676841D01*
X11707920Y-14676841D02*
X11707920Y-14638746D01*
X11707920Y-14638746D02*
X11717444Y-14591127D01*
X11717444Y-14591127D02*
X11726968Y-14562555D01*
X11726968Y-14562555D02*
X11736491Y-14543508D01*
X11736491Y-14543508D02*
X11755539Y-14514936D01*
X11755539Y-14514936D02*
X11765063Y-14505412D01*
X11831729Y-14553031D02*
X11841253Y-14543508D01*
X11841253Y-14543508D02*
X11860301Y-14533984D01*
X11860301Y-14533984D02*
X11907920Y-14533984D01*
X11907920Y-14533984D02*
X11926968Y-14543508D01*
X11926968Y-14543508D02*
X11936491Y-14553031D01*
X11936491Y-14553031D02*
X11946015Y-14572079D01*
X11946015Y-14572079D02*
X11946015Y-14591127D01*
X11946015Y-14591127D02*
X11936491Y-14619698D01*
X11936491Y-14619698D02*
X11822206Y-14733984D01*
X11822206Y-14733984D02*
X11946015Y-14733984D01*
X12184110Y-14733984D02*
X12184110Y-14533984D01*
X12269825Y-14733984D02*
X12269825Y-14629222D01*
X12269825Y-14629222D02*
X12260301Y-14610174D01*
X12260301Y-14610174D02*
X12241253Y-14600650D01*
X12241253Y-14600650D02*
X12212682Y-14600650D01*
X12212682Y-14600650D02*
X12193634Y-14610174D01*
X12193634Y-14610174D02*
X12184110Y-14619698D01*
X12393634Y-14733984D02*
X12374587Y-14724460D01*
X12374587Y-14724460D02*
X12365063Y-14714936D01*
X12365063Y-14714936D02*
X12355539Y-14695888D01*
X12355539Y-14695888D02*
X12355539Y-14638746D01*
X12355539Y-14638746D02*
X12365063Y-14619698D01*
X12365063Y-14619698D02*
X12374587Y-14610174D01*
X12374587Y-14610174D02*
X12393634Y-14600650D01*
X12393634Y-14600650D02*
X12422206Y-14600650D01*
X12422206Y-14600650D02*
X12441253Y-14610174D01*
X12441253Y-14610174D02*
X12450777Y-14619698D01*
X12450777Y-14619698D02*
X12460301Y-14638746D01*
X12460301Y-14638746D02*
X12460301Y-14695888D01*
X12460301Y-14695888D02*
X12450777Y-14714936D01*
X12450777Y-14714936D02*
X12441253Y-14724460D01*
X12441253Y-14724460D02*
X12422206Y-14733984D01*
X12422206Y-14733984D02*
X12393634Y-14733984D01*
X12574587Y-14733984D02*
X12555539Y-14724460D01*
X12555539Y-14724460D02*
X12546015Y-14705412D01*
X12546015Y-14705412D02*
X12546015Y-14533984D01*
X12726968Y-14724460D02*
X12707920Y-14733984D01*
X12707920Y-14733984D02*
X12669825Y-14733984D01*
X12669825Y-14733984D02*
X12650777Y-14724460D01*
X12650777Y-14724460D02*
X12641253Y-14705412D01*
X12641253Y-14705412D02*
X12641253Y-14629222D01*
X12641253Y-14629222D02*
X12650777Y-14610174D01*
X12650777Y-14610174D02*
X12669825Y-14600650D01*
X12669825Y-14600650D02*
X12707920Y-14600650D01*
X12707920Y-14600650D02*
X12726968Y-14610174D01*
X12726968Y-14610174D02*
X12736491Y-14629222D01*
X12736491Y-14629222D02*
X12736491Y-14648269D01*
X12736491Y-14648269D02*
X12641253Y-14667317D01*
X12812682Y-14724460D02*
X12831730Y-14733984D01*
X12831730Y-14733984D02*
X12869825Y-14733984D01*
X12869825Y-14733984D02*
X12888872Y-14724460D01*
X12888872Y-14724460D02*
X12898396Y-14705412D01*
X12898396Y-14705412D02*
X12898396Y-14695888D01*
X12898396Y-14695888D02*
X12888872Y-14676841D01*
X12888872Y-14676841D02*
X12869825Y-14667317D01*
X12869825Y-14667317D02*
X12841253Y-14667317D01*
X12841253Y-14667317D02*
X12822206Y-14657793D01*
X12822206Y-14657793D02*
X12812682Y-14638746D01*
X12812682Y-14638746D02*
X12812682Y-14629222D01*
X12812682Y-14629222D02*
X12822206Y-14610174D01*
X12822206Y-14610174D02*
X12841253Y-14600650D01*
X12841253Y-14600650D02*
X12869825Y-14600650D01*
X12869825Y-14600650D02*
X12888872Y-14610174D01*
X12965063Y-14810174D02*
X12974587Y-14800650D01*
X12974587Y-14800650D02*
X12993634Y-14772079D01*
X12993634Y-14772079D02*
X13003158Y-14753031D01*
X13003158Y-14753031D02*
X13012682Y-14724460D01*
X13012682Y-14724460D02*
X13022206Y-14676841D01*
X13022206Y-14676841D02*
X13022206Y-14638746D01*
X13022206Y-14638746D02*
X13012682Y-14591127D01*
X13012682Y-14591127D02*
X13003158Y-14562555D01*
X13003158Y-14562555D02*
X12993634Y-14543508D01*
X12993634Y-14543508D02*
X12974587Y-14514936D01*
X12974587Y-14514936D02*
X12965063Y-14505412D01*
X7990000Y-14852500D02*
X8190000Y-15052500D01*
X8190000Y-14852500D02*
X7990000Y-15052500D01*
X8160711Y-15023211D02*
X8160711Y-14881789D01*
X8019289Y-14881789D01*
X8019289Y-15023211D01*
X8160711Y-15023211D01*
X8441253Y-14863031D02*
X8450777Y-14853508D01*
X8450777Y-14853508D02*
X8469824Y-14843984D01*
X8469824Y-14843984D02*
X8517444Y-14843984D01*
X8517444Y-14843984D02*
X8536491Y-14853508D01*
X8536491Y-14853508D02*
X8546015Y-14863031D01*
X8546015Y-14863031D02*
X8555539Y-14882079D01*
X8555539Y-14882079D02*
X8555539Y-14901127D01*
X8555539Y-14901127D02*
X8546015Y-14929698D01*
X8546015Y-14929698D02*
X8431729Y-15043984D01*
X8431729Y-15043984D02*
X8555539Y-15043984D01*
X8641253Y-15024936D02*
X8650777Y-15034460D01*
X8650777Y-15034460D02*
X8641253Y-15043984D01*
X8641253Y-15043984D02*
X8631729Y-15034460D01*
X8631729Y-15034460D02*
X8641253Y-15024936D01*
X8641253Y-15024936D02*
X8641253Y-15043984D01*
X8726967Y-14863031D02*
X8736491Y-14853508D01*
X8736491Y-14853508D02*
X8755539Y-14843984D01*
X8755539Y-14843984D02*
X8803158Y-14843984D01*
X8803158Y-14843984D02*
X8822205Y-14853508D01*
X8822205Y-14853508D02*
X8831729Y-14863031D01*
X8831729Y-14863031D02*
X8841253Y-14882079D01*
X8841253Y-14882079D02*
X8841253Y-14901127D01*
X8841253Y-14901127D02*
X8831729Y-14929698D01*
X8831729Y-14929698D02*
X8717444Y-15043984D01*
X8717444Y-15043984D02*
X8841253Y-15043984D01*
X8965063Y-14843984D02*
X8984110Y-14843984D01*
X8984110Y-14843984D02*
X9003158Y-14853508D01*
X9003158Y-14853508D02*
X9012682Y-14863031D01*
X9012682Y-14863031D02*
X9022205Y-14882079D01*
X9022205Y-14882079D02*
X9031729Y-14920174D01*
X9031729Y-14920174D02*
X9031729Y-14967793D01*
X9031729Y-14967793D02*
X9022205Y-15005888D01*
X9022205Y-15005888D02*
X9012682Y-15024936D01*
X9012682Y-15024936D02*
X9003158Y-15034460D01*
X9003158Y-15034460D02*
X8984110Y-15043984D01*
X8984110Y-15043984D02*
X8965063Y-15043984D01*
X8965063Y-15043984D02*
X8946015Y-15034460D01*
X8946015Y-15034460D02*
X8936491Y-15024936D01*
X8936491Y-15024936D02*
X8926967Y-15005888D01*
X8926967Y-15005888D02*
X8917444Y-14967793D01*
X8917444Y-14967793D02*
X8917444Y-14920174D01*
X8917444Y-14920174D02*
X8926967Y-14882079D01*
X8926967Y-14882079D02*
X8936491Y-14863031D01*
X8936491Y-14863031D02*
X8946015Y-14853508D01*
X8946015Y-14853508D02*
X8965063Y-14843984D01*
X9155539Y-14843984D02*
X9174586Y-14843984D01*
X9174586Y-14843984D02*
X9193634Y-14853508D01*
X9193634Y-14853508D02*
X9203158Y-14863031D01*
X9203158Y-14863031D02*
X9212682Y-14882079D01*
X9212682Y-14882079D02*
X9222205Y-14920174D01*
X9222205Y-14920174D02*
X9222205Y-14967793D01*
X9222205Y-14967793D02*
X9212682Y-15005888D01*
X9212682Y-15005888D02*
X9203158Y-15024936D01*
X9203158Y-15024936D02*
X9193634Y-15034460D01*
X9193634Y-15034460D02*
X9174586Y-15043984D01*
X9174586Y-15043984D02*
X9155539Y-15043984D01*
X9155539Y-15043984D02*
X9136491Y-15034460D01*
X9136491Y-15034460D02*
X9126967Y-15024936D01*
X9126967Y-15024936D02*
X9117444Y-15005888D01*
X9117444Y-15005888D02*
X9107920Y-14967793D01*
X9107920Y-14967793D02*
X9107920Y-14920174D01*
X9107920Y-14920174D02*
X9117444Y-14882079D01*
X9117444Y-14882079D02*
X9126967Y-14863031D01*
X9126967Y-14863031D02*
X9136491Y-14853508D01*
X9136491Y-14853508D02*
X9155539Y-14843984D01*
X9307920Y-15043984D02*
X9307920Y-14910650D01*
X9307920Y-14929698D02*
X9317444Y-14920174D01*
X9317444Y-14920174D02*
X9336491Y-14910650D01*
X9336491Y-14910650D02*
X9365063Y-14910650D01*
X9365063Y-14910650D02*
X9384110Y-14920174D01*
X9384110Y-14920174D02*
X9393634Y-14939222D01*
X9393634Y-14939222D02*
X9393634Y-15043984D01*
X9393634Y-14939222D02*
X9403158Y-14920174D01*
X9403158Y-14920174D02*
X9422205Y-14910650D01*
X9422205Y-14910650D02*
X9450777Y-14910650D01*
X9450777Y-14910650D02*
X9469825Y-14920174D01*
X9469825Y-14920174D02*
X9479348Y-14939222D01*
X9479348Y-14939222D02*
X9479348Y-15043984D01*
X9574586Y-15043984D02*
X9574586Y-14910650D01*
X9574586Y-14929698D02*
X9584110Y-14920174D01*
X9584110Y-14920174D02*
X9603158Y-14910650D01*
X9603158Y-14910650D02*
X9631729Y-14910650D01*
X9631729Y-14910650D02*
X9650777Y-14920174D01*
X9650777Y-14920174D02*
X9660301Y-14939222D01*
X9660301Y-14939222D02*
X9660301Y-15043984D01*
X9660301Y-14939222D02*
X9669825Y-14920174D01*
X9669825Y-14920174D02*
X9688872Y-14910650D01*
X9688872Y-14910650D02*
X9717444Y-14910650D01*
X9717444Y-14910650D02*
X9736491Y-14920174D01*
X9736491Y-14920174D02*
X9746015Y-14939222D01*
X9746015Y-14939222D02*
X9746015Y-15043984D01*
X10136491Y-14834460D02*
X9965063Y-15091603D01*
X10393634Y-14843984D02*
X10412682Y-14843984D01*
X10412682Y-14843984D02*
X10431729Y-14853508D01*
X10431729Y-14853508D02*
X10441253Y-14863031D01*
X10441253Y-14863031D02*
X10450777Y-14882079D01*
X10450777Y-14882079D02*
X10460301Y-14920174D01*
X10460301Y-14920174D02*
X10460301Y-14967793D01*
X10460301Y-14967793D02*
X10450777Y-15005888D01*
X10450777Y-15005888D02*
X10441253Y-15024936D01*
X10441253Y-15024936D02*
X10431729Y-15034460D01*
X10431729Y-15034460D02*
X10412682Y-15043984D01*
X10412682Y-15043984D02*
X10393634Y-15043984D01*
X10393634Y-15043984D02*
X10374587Y-15034460D01*
X10374587Y-15034460D02*
X10365063Y-15024936D01*
X10365063Y-15024936D02*
X10355539Y-15005888D01*
X10355539Y-15005888D02*
X10346015Y-14967793D01*
X10346015Y-14967793D02*
X10346015Y-14920174D01*
X10346015Y-14920174D02*
X10355539Y-14882079D01*
X10355539Y-14882079D02*
X10365063Y-14863031D01*
X10365063Y-14863031D02*
X10374587Y-14853508D01*
X10374587Y-14853508D02*
X10393634Y-14843984D01*
X10546015Y-15024936D02*
X10555539Y-15034460D01*
X10555539Y-15034460D02*
X10546015Y-15043984D01*
X10546015Y-15043984D02*
X10536491Y-15034460D01*
X10536491Y-15034460D02*
X10546015Y-15024936D01*
X10546015Y-15024936D02*
X10546015Y-15043984D01*
X10679348Y-14843984D02*
X10698396Y-14843984D01*
X10698396Y-14843984D02*
X10717444Y-14853508D01*
X10717444Y-14853508D02*
X10726968Y-14863031D01*
X10726968Y-14863031D02*
X10736491Y-14882079D01*
X10736491Y-14882079D02*
X10746015Y-14920174D01*
X10746015Y-14920174D02*
X10746015Y-14967793D01*
X10746015Y-14967793D02*
X10736491Y-15005888D01*
X10736491Y-15005888D02*
X10726968Y-15024936D01*
X10726968Y-15024936D02*
X10717444Y-15034460D01*
X10717444Y-15034460D02*
X10698396Y-15043984D01*
X10698396Y-15043984D02*
X10679348Y-15043984D01*
X10679348Y-15043984D02*
X10660301Y-15034460D01*
X10660301Y-15034460D02*
X10650777Y-15024936D01*
X10650777Y-15024936D02*
X10641253Y-15005888D01*
X10641253Y-15005888D02*
X10631729Y-14967793D01*
X10631729Y-14967793D02*
X10631729Y-14920174D01*
X10631729Y-14920174D02*
X10641253Y-14882079D01*
X10641253Y-14882079D02*
X10650777Y-14863031D01*
X10650777Y-14863031D02*
X10660301Y-14853508D01*
X10660301Y-14853508D02*
X10679348Y-14843984D01*
X10860301Y-14929698D02*
X10841253Y-14920174D01*
X10841253Y-14920174D02*
X10831729Y-14910650D01*
X10831729Y-14910650D02*
X10822206Y-14891603D01*
X10822206Y-14891603D02*
X10822206Y-14882079D01*
X10822206Y-14882079D02*
X10831729Y-14863031D01*
X10831729Y-14863031D02*
X10841253Y-14853508D01*
X10841253Y-14853508D02*
X10860301Y-14843984D01*
X10860301Y-14843984D02*
X10898396Y-14843984D01*
X10898396Y-14843984D02*
X10917444Y-14853508D01*
X10917444Y-14853508D02*
X10926968Y-14863031D01*
X10926968Y-14863031D02*
X10936491Y-14882079D01*
X10936491Y-14882079D02*
X10936491Y-14891603D01*
X10936491Y-14891603D02*
X10926968Y-14910650D01*
X10926968Y-14910650D02*
X10917444Y-14920174D01*
X10917444Y-14920174D02*
X10898396Y-14929698D01*
X10898396Y-14929698D02*
X10860301Y-14929698D01*
X10860301Y-14929698D02*
X10841253Y-14939222D01*
X10841253Y-14939222D02*
X10831729Y-14948746D01*
X10831729Y-14948746D02*
X10822206Y-14967793D01*
X10822206Y-14967793D02*
X10822206Y-15005888D01*
X10822206Y-15005888D02*
X10831729Y-15024936D01*
X10831729Y-15024936D02*
X10841253Y-15034460D01*
X10841253Y-15034460D02*
X10860301Y-15043984D01*
X10860301Y-15043984D02*
X10898396Y-15043984D01*
X10898396Y-15043984D02*
X10917444Y-15034460D01*
X10917444Y-15034460D02*
X10926968Y-15024936D01*
X10926968Y-15024936D02*
X10936491Y-15005888D01*
X10936491Y-15005888D02*
X10936491Y-14967793D01*
X10936491Y-14967793D02*
X10926968Y-14948746D01*
X10926968Y-14948746D02*
X10917444Y-14939222D01*
X10917444Y-14939222D02*
X10898396Y-14929698D01*
X11107920Y-14843984D02*
X11069825Y-14843984D01*
X11069825Y-14843984D02*
X11050777Y-14853508D01*
X11050777Y-14853508D02*
X11041253Y-14863031D01*
X11041253Y-14863031D02*
X11022206Y-14891603D01*
X11022206Y-14891603D02*
X11012682Y-14929698D01*
X11012682Y-14929698D02*
X11012682Y-15005888D01*
X11012682Y-15005888D02*
X11022206Y-15024936D01*
X11022206Y-15024936D02*
X11031729Y-15034460D01*
X11031729Y-15034460D02*
X11050777Y-15043984D01*
X11050777Y-15043984D02*
X11088872Y-15043984D01*
X11088872Y-15043984D02*
X11107920Y-15034460D01*
X11107920Y-15034460D02*
X11117444Y-15024936D01*
X11117444Y-15024936D02*
X11126968Y-15005888D01*
X11126968Y-15005888D02*
X11126968Y-14958269D01*
X11126968Y-14958269D02*
X11117444Y-14939222D01*
X11117444Y-14939222D02*
X11107920Y-14929698D01*
X11107920Y-14929698D02*
X11088872Y-14920174D01*
X11088872Y-14920174D02*
X11050777Y-14920174D01*
X11050777Y-14920174D02*
X11031729Y-14929698D01*
X11031729Y-14929698D02*
X11022206Y-14939222D01*
X11022206Y-14939222D02*
X11012682Y-14958269D01*
X11298396Y-14843984D02*
X11260301Y-14843984D01*
X11260301Y-14843984D02*
X11241253Y-14853508D01*
X11241253Y-14853508D02*
X11231729Y-14863031D01*
X11231729Y-14863031D02*
X11212682Y-14891603D01*
X11212682Y-14891603D02*
X11203158Y-14929698D01*
X11203158Y-14929698D02*
X11203158Y-15005888D01*
X11203158Y-15005888D02*
X11212682Y-15024936D01*
X11212682Y-15024936D02*
X11222206Y-15034460D01*
X11222206Y-15034460D02*
X11241253Y-15043984D01*
X11241253Y-15043984D02*
X11279348Y-15043984D01*
X11279348Y-15043984D02*
X11298396Y-15034460D01*
X11298396Y-15034460D02*
X11307920Y-15024936D01*
X11307920Y-15024936D02*
X11317444Y-15005888D01*
X11317444Y-15005888D02*
X11317444Y-14958269D01*
X11317444Y-14958269D02*
X11307920Y-14939222D01*
X11307920Y-14939222D02*
X11298396Y-14929698D01*
X11298396Y-14929698D02*
X11279348Y-14920174D01*
X11279348Y-14920174D02*
X11241253Y-14920174D01*
X11241253Y-14920174D02*
X11222206Y-14929698D01*
X11222206Y-14929698D02*
X11212682Y-14939222D01*
X11212682Y-14939222D02*
X11203158Y-14958269D01*
X11393634Y-14843984D02*
X11393634Y-14882079D01*
X11469825Y-14843984D02*
X11469825Y-14882079D01*
X11765063Y-15120174D02*
X11755539Y-15110650D01*
X11755539Y-15110650D02*
X11736491Y-15082079D01*
X11736491Y-15082079D02*
X11726968Y-15063031D01*
X11726968Y-15063031D02*
X11717444Y-15034460D01*
X11717444Y-15034460D02*
X11707920Y-14986841D01*
X11707920Y-14986841D02*
X11707920Y-14948746D01*
X11707920Y-14948746D02*
X11717444Y-14901127D01*
X11717444Y-14901127D02*
X11726968Y-14872555D01*
X11726968Y-14872555D02*
X11736491Y-14853508D01*
X11736491Y-14853508D02*
X11755539Y-14824936D01*
X11755539Y-14824936D02*
X11765063Y-14815412D01*
X11926968Y-14910650D02*
X11926968Y-15043984D01*
X11879348Y-14834460D02*
X11831729Y-14977317D01*
X11831729Y-14977317D02*
X11955539Y-14977317D01*
X12184110Y-15043984D02*
X12184110Y-14843984D01*
X12269825Y-15043984D02*
X12269825Y-14939222D01*
X12269825Y-14939222D02*
X12260301Y-14920174D01*
X12260301Y-14920174D02*
X12241253Y-14910650D01*
X12241253Y-14910650D02*
X12212682Y-14910650D01*
X12212682Y-14910650D02*
X12193634Y-14920174D01*
X12193634Y-14920174D02*
X12184110Y-14929698D01*
X12393634Y-15043984D02*
X12374587Y-15034460D01*
X12374587Y-15034460D02*
X12365063Y-15024936D01*
X12365063Y-15024936D02*
X12355539Y-15005888D01*
X12355539Y-15005888D02*
X12355539Y-14948746D01*
X12355539Y-14948746D02*
X12365063Y-14929698D01*
X12365063Y-14929698D02*
X12374587Y-14920174D01*
X12374587Y-14920174D02*
X12393634Y-14910650D01*
X12393634Y-14910650D02*
X12422206Y-14910650D01*
X12422206Y-14910650D02*
X12441253Y-14920174D01*
X12441253Y-14920174D02*
X12450777Y-14929698D01*
X12450777Y-14929698D02*
X12460301Y-14948746D01*
X12460301Y-14948746D02*
X12460301Y-15005888D01*
X12460301Y-15005888D02*
X12450777Y-15024936D01*
X12450777Y-15024936D02*
X12441253Y-15034460D01*
X12441253Y-15034460D02*
X12422206Y-15043984D01*
X12422206Y-15043984D02*
X12393634Y-15043984D01*
X12574587Y-15043984D02*
X12555539Y-15034460D01*
X12555539Y-15034460D02*
X12546015Y-15015412D01*
X12546015Y-15015412D02*
X12546015Y-14843984D01*
X12726968Y-15034460D02*
X12707920Y-15043984D01*
X12707920Y-15043984D02*
X12669825Y-15043984D01*
X12669825Y-15043984D02*
X12650777Y-15034460D01*
X12650777Y-15034460D02*
X12641253Y-15015412D01*
X12641253Y-15015412D02*
X12641253Y-14939222D01*
X12641253Y-14939222D02*
X12650777Y-14920174D01*
X12650777Y-14920174D02*
X12669825Y-14910650D01*
X12669825Y-14910650D02*
X12707920Y-14910650D01*
X12707920Y-14910650D02*
X12726968Y-14920174D01*
X12726968Y-14920174D02*
X12736491Y-14939222D01*
X12736491Y-14939222D02*
X12736491Y-14958269D01*
X12736491Y-14958269D02*
X12641253Y-14977317D01*
X12812682Y-15034460D02*
X12831730Y-15043984D01*
X12831730Y-15043984D02*
X12869825Y-15043984D01*
X12869825Y-15043984D02*
X12888872Y-15034460D01*
X12888872Y-15034460D02*
X12898396Y-15015412D01*
X12898396Y-15015412D02*
X12898396Y-15005888D01*
X12898396Y-15005888D02*
X12888872Y-14986841D01*
X12888872Y-14986841D02*
X12869825Y-14977317D01*
X12869825Y-14977317D02*
X12841253Y-14977317D01*
X12841253Y-14977317D02*
X12822206Y-14967793D01*
X12822206Y-14967793D02*
X12812682Y-14948746D01*
X12812682Y-14948746D02*
X12812682Y-14939222D01*
X12812682Y-14939222D02*
X12822206Y-14920174D01*
X12822206Y-14920174D02*
X12841253Y-14910650D01*
X12841253Y-14910650D02*
X12869825Y-14910650D01*
X12869825Y-14910650D02*
X12888872Y-14920174D01*
X12965063Y-15120174D02*
X12974587Y-15110650D01*
X12974587Y-15110650D02*
X12993634Y-15082079D01*
X12993634Y-15082079D02*
X13003158Y-15063031D01*
X13003158Y-15063031D02*
X13012682Y-15034460D01*
X13012682Y-15034460D02*
X13022206Y-14986841D01*
X13022206Y-14986841D02*
X13022206Y-14948746D01*
X13022206Y-14948746D02*
X13012682Y-14901127D01*
X13012682Y-14901127D02*
X13003158Y-14872555D01*
X13003158Y-14872555D02*
X12993634Y-14853508D01*
X12993634Y-14853508D02*
X12974587Y-14824936D01*
X12974587Y-14824936D02*
X12965063Y-14815412D01*
X7990000Y-15172500D02*
X8190000Y-15372500D01*
X8190000Y-15172500D02*
X7990000Y-15372500D01*
X8090000Y-15372500D02*
X8190000Y-15272500D01*
X8090000Y-15172500D01*
X7990000Y-15272500D01*
X8090000Y-15372500D01*
X8441253Y-15183031D02*
X8450777Y-15173508D01*
X8450777Y-15173508D02*
X8469824Y-15163984D01*
X8469824Y-15163984D02*
X8517444Y-15163984D01*
X8517444Y-15163984D02*
X8536491Y-15173508D01*
X8536491Y-15173508D02*
X8546015Y-15183031D01*
X8546015Y-15183031D02*
X8555539Y-15202079D01*
X8555539Y-15202079D02*
X8555539Y-15221127D01*
X8555539Y-15221127D02*
X8546015Y-15249698D01*
X8546015Y-15249698D02*
X8431729Y-15363984D01*
X8431729Y-15363984D02*
X8555539Y-15363984D01*
X8641253Y-15344936D02*
X8650777Y-15354460D01*
X8650777Y-15354460D02*
X8641253Y-15363984D01*
X8641253Y-15363984D02*
X8631729Y-15354460D01*
X8631729Y-15354460D02*
X8641253Y-15344936D01*
X8641253Y-15344936D02*
X8641253Y-15363984D01*
X8717444Y-15163984D02*
X8850777Y-15163984D01*
X8850777Y-15163984D02*
X8765063Y-15363984D01*
X8965063Y-15163984D02*
X8984110Y-15163984D01*
X8984110Y-15163984D02*
X9003158Y-15173508D01*
X9003158Y-15173508D02*
X9012682Y-15183031D01*
X9012682Y-15183031D02*
X9022205Y-15202079D01*
X9022205Y-15202079D02*
X9031729Y-15240174D01*
X9031729Y-15240174D02*
X9031729Y-15287793D01*
X9031729Y-15287793D02*
X9022205Y-15325888D01*
X9022205Y-15325888D02*
X9012682Y-15344936D01*
X9012682Y-15344936D02*
X9003158Y-15354460D01*
X9003158Y-15354460D02*
X8984110Y-15363984D01*
X8984110Y-15363984D02*
X8965063Y-15363984D01*
X8965063Y-15363984D02*
X8946015Y-15354460D01*
X8946015Y-15354460D02*
X8936491Y-15344936D01*
X8936491Y-15344936D02*
X8926967Y-15325888D01*
X8926967Y-15325888D02*
X8917444Y-15287793D01*
X8917444Y-15287793D02*
X8917444Y-15240174D01*
X8917444Y-15240174D02*
X8926967Y-15202079D01*
X8926967Y-15202079D02*
X8936491Y-15183031D01*
X8936491Y-15183031D02*
X8946015Y-15173508D01*
X8946015Y-15173508D02*
X8965063Y-15163984D01*
X9155539Y-15163984D02*
X9174586Y-15163984D01*
X9174586Y-15163984D02*
X9193634Y-15173508D01*
X9193634Y-15173508D02*
X9203158Y-15183031D01*
X9203158Y-15183031D02*
X9212682Y-15202079D01*
X9212682Y-15202079D02*
X9222205Y-15240174D01*
X9222205Y-15240174D02*
X9222205Y-15287793D01*
X9222205Y-15287793D02*
X9212682Y-15325888D01*
X9212682Y-15325888D02*
X9203158Y-15344936D01*
X9203158Y-15344936D02*
X9193634Y-15354460D01*
X9193634Y-15354460D02*
X9174586Y-15363984D01*
X9174586Y-15363984D02*
X9155539Y-15363984D01*
X9155539Y-15363984D02*
X9136491Y-15354460D01*
X9136491Y-15354460D02*
X9126967Y-15344936D01*
X9126967Y-15344936D02*
X9117444Y-15325888D01*
X9117444Y-15325888D02*
X9107920Y-15287793D01*
X9107920Y-15287793D02*
X9107920Y-15240174D01*
X9107920Y-15240174D02*
X9117444Y-15202079D01*
X9117444Y-15202079D02*
X9126967Y-15183031D01*
X9126967Y-15183031D02*
X9136491Y-15173508D01*
X9136491Y-15173508D02*
X9155539Y-15163984D01*
X9307920Y-15363984D02*
X9307920Y-15230650D01*
X9307920Y-15249698D02*
X9317444Y-15240174D01*
X9317444Y-15240174D02*
X9336491Y-15230650D01*
X9336491Y-15230650D02*
X9365063Y-15230650D01*
X9365063Y-15230650D02*
X9384110Y-15240174D01*
X9384110Y-15240174D02*
X9393634Y-15259222D01*
X9393634Y-15259222D02*
X9393634Y-15363984D01*
X9393634Y-15259222D02*
X9403158Y-15240174D01*
X9403158Y-15240174D02*
X9422205Y-15230650D01*
X9422205Y-15230650D02*
X9450777Y-15230650D01*
X9450777Y-15230650D02*
X9469825Y-15240174D01*
X9469825Y-15240174D02*
X9479348Y-15259222D01*
X9479348Y-15259222D02*
X9479348Y-15363984D01*
X9574586Y-15363984D02*
X9574586Y-15230650D01*
X9574586Y-15249698D02*
X9584110Y-15240174D01*
X9584110Y-15240174D02*
X9603158Y-15230650D01*
X9603158Y-15230650D02*
X9631729Y-15230650D01*
X9631729Y-15230650D02*
X9650777Y-15240174D01*
X9650777Y-15240174D02*
X9660301Y-15259222D01*
X9660301Y-15259222D02*
X9660301Y-15363984D01*
X9660301Y-15259222D02*
X9669825Y-15240174D01*
X9669825Y-15240174D02*
X9688872Y-15230650D01*
X9688872Y-15230650D02*
X9717444Y-15230650D01*
X9717444Y-15230650D02*
X9736491Y-15240174D01*
X9736491Y-15240174D02*
X9746015Y-15259222D01*
X9746015Y-15259222D02*
X9746015Y-15363984D01*
X10136491Y-15154460D02*
X9965063Y-15411603D01*
X10393634Y-15163984D02*
X10412682Y-15163984D01*
X10412682Y-15163984D02*
X10431729Y-15173508D01*
X10431729Y-15173508D02*
X10441253Y-15183031D01*
X10441253Y-15183031D02*
X10450777Y-15202079D01*
X10450777Y-15202079D02*
X10460301Y-15240174D01*
X10460301Y-15240174D02*
X10460301Y-15287793D01*
X10460301Y-15287793D02*
X10450777Y-15325888D01*
X10450777Y-15325888D02*
X10441253Y-15344936D01*
X10441253Y-15344936D02*
X10431729Y-15354460D01*
X10431729Y-15354460D02*
X10412682Y-15363984D01*
X10412682Y-15363984D02*
X10393634Y-15363984D01*
X10393634Y-15363984D02*
X10374587Y-15354460D01*
X10374587Y-15354460D02*
X10365063Y-15344936D01*
X10365063Y-15344936D02*
X10355539Y-15325888D01*
X10355539Y-15325888D02*
X10346015Y-15287793D01*
X10346015Y-15287793D02*
X10346015Y-15240174D01*
X10346015Y-15240174D02*
X10355539Y-15202079D01*
X10355539Y-15202079D02*
X10365063Y-15183031D01*
X10365063Y-15183031D02*
X10374587Y-15173508D01*
X10374587Y-15173508D02*
X10393634Y-15163984D01*
X10546015Y-15344936D02*
X10555539Y-15354460D01*
X10555539Y-15354460D02*
X10546015Y-15363984D01*
X10546015Y-15363984D02*
X10536491Y-15354460D01*
X10536491Y-15354460D02*
X10546015Y-15344936D01*
X10546015Y-15344936D02*
X10546015Y-15363984D01*
X10746015Y-15363984D02*
X10631729Y-15363984D01*
X10688872Y-15363984D02*
X10688872Y-15163984D01*
X10688872Y-15163984D02*
X10669825Y-15192555D01*
X10669825Y-15192555D02*
X10650777Y-15211603D01*
X10650777Y-15211603D02*
X10631729Y-15221127D01*
X10869825Y-15163984D02*
X10888872Y-15163984D01*
X10888872Y-15163984D02*
X10907920Y-15173508D01*
X10907920Y-15173508D02*
X10917444Y-15183031D01*
X10917444Y-15183031D02*
X10926968Y-15202079D01*
X10926968Y-15202079D02*
X10936491Y-15240174D01*
X10936491Y-15240174D02*
X10936491Y-15287793D01*
X10936491Y-15287793D02*
X10926968Y-15325888D01*
X10926968Y-15325888D02*
X10917444Y-15344936D01*
X10917444Y-15344936D02*
X10907920Y-15354460D01*
X10907920Y-15354460D02*
X10888872Y-15363984D01*
X10888872Y-15363984D02*
X10869825Y-15363984D01*
X10869825Y-15363984D02*
X10850777Y-15354460D01*
X10850777Y-15354460D02*
X10841253Y-15344936D01*
X10841253Y-15344936D02*
X10831729Y-15325888D01*
X10831729Y-15325888D02*
X10822206Y-15287793D01*
X10822206Y-15287793D02*
X10822206Y-15240174D01*
X10822206Y-15240174D02*
X10831729Y-15202079D01*
X10831729Y-15202079D02*
X10841253Y-15183031D01*
X10841253Y-15183031D02*
X10850777Y-15173508D01*
X10850777Y-15173508D02*
X10869825Y-15163984D01*
X11107920Y-15163984D02*
X11069825Y-15163984D01*
X11069825Y-15163984D02*
X11050777Y-15173508D01*
X11050777Y-15173508D02*
X11041253Y-15183031D01*
X11041253Y-15183031D02*
X11022206Y-15211603D01*
X11022206Y-15211603D02*
X11012682Y-15249698D01*
X11012682Y-15249698D02*
X11012682Y-15325888D01*
X11012682Y-15325888D02*
X11022206Y-15344936D01*
X11022206Y-15344936D02*
X11031729Y-15354460D01*
X11031729Y-15354460D02*
X11050777Y-15363984D01*
X11050777Y-15363984D02*
X11088872Y-15363984D01*
X11088872Y-15363984D02*
X11107920Y-15354460D01*
X11107920Y-15354460D02*
X11117444Y-15344936D01*
X11117444Y-15344936D02*
X11126968Y-15325888D01*
X11126968Y-15325888D02*
X11126968Y-15278269D01*
X11126968Y-15278269D02*
X11117444Y-15259222D01*
X11117444Y-15259222D02*
X11107920Y-15249698D01*
X11107920Y-15249698D02*
X11088872Y-15240174D01*
X11088872Y-15240174D02*
X11050777Y-15240174D01*
X11050777Y-15240174D02*
X11031729Y-15249698D01*
X11031729Y-15249698D02*
X11022206Y-15259222D01*
X11022206Y-15259222D02*
X11012682Y-15278269D01*
X11193634Y-15163984D02*
X11317444Y-15163984D01*
X11317444Y-15163984D02*
X11250777Y-15240174D01*
X11250777Y-15240174D02*
X11279348Y-15240174D01*
X11279348Y-15240174D02*
X11298396Y-15249698D01*
X11298396Y-15249698D02*
X11307920Y-15259222D01*
X11307920Y-15259222D02*
X11317444Y-15278269D01*
X11317444Y-15278269D02*
X11317444Y-15325888D01*
X11317444Y-15325888D02*
X11307920Y-15344936D01*
X11307920Y-15344936D02*
X11298396Y-15354460D01*
X11298396Y-15354460D02*
X11279348Y-15363984D01*
X11279348Y-15363984D02*
X11222206Y-15363984D01*
X11222206Y-15363984D02*
X11203158Y-15354460D01*
X11203158Y-15354460D02*
X11193634Y-15344936D01*
X11393634Y-15163984D02*
X11393634Y-15202079D01*
X11469825Y-15163984D02*
X11469825Y-15202079D01*
X11765063Y-15440174D02*
X11755539Y-15430650D01*
X11755539Y-15430650D02*
X11736491Y-15402079D01*
X11736491Y-15402079D02*
X11726968Y-15383031D01*
X11726968Y-15383031D02*
X11717444Y-15354460D01*
X11717444Y-15354460D02*
X11707920Y-15306841D01*
X11707920Y-15306841D02*
X11707920Y-15268746D01*
X11707920Y-15268746D02*
X11717444Y-15221127D01*
X11717444Y-15221127D02*
X11726968Y-15192555D01*
X11726968Y-15192555D02*
X11736491Y-15173508D01*
X11736491Y-15173508D02*
X11755539Y-15144936D01*
X11755539Y-15144936D02*
X11765063Y-15135412D01*
X11831729Y-15183031D02*
X11841253Y-15173508D01*
X11841253Y-15173508D02*
X11860301Y-15163984D01*
X11860301Y-15163984D02*
X11907920Y-15163984D01*
X11907920Y-15163984D02*
X11926968Y-15173508D01*
X11926968Y-15173508D02*
X11936491Y-15183031D01*
X11936491Y-15183031D02*
X11946015Y-15202079D01*
X11946015Y-15202079D02*
X11946015Y-15221127D01*
X11946015Y-15221127D02*
X11936491Y-15249698D01*
X11936491Y-15249698D02*
X11822206Y-15363984D01*
X11822206Y-15363984D02*
X11946015Y-15363984D01*
X12184110Y-15363984D02*
X12184110Y-15163984D01*
X12269825Y-15363984D02*
X12269825Y-15259222D01*
X12269825Y-15259222D02*
X12260301Y-15240174D01*
X12260301Y-15240174D02*
X12241253Y-15230650D01*
X12241253Y-15230650D02*
X12212682Y-15230650D01*
X12212682Y-15230650D02*
X12193634Y-15240174D01*
X12193634Y-15240174D02*
X12184110Y-15249698D01*
X12393634Y-15363984D02*
X12374587Y-15354460D01*
X12374587Y-15354460D02*
X12365063Y-15344936D01*
X12365063Y-15344936D02*
X12355539Y-15325888D01*
X12355539Y-15325888D02*
X12355539Y-15268746D01*
X12355539Y-15268746D02*
X12365063Y-15249698D01*
X12365063Y-15249698D02*
X12374587Y-15240174D01*
X12374587Y-15240174D02*
X12393634Y-15230650D01*
X12393634Y-15230650D02*
X12422206Y-15230650D01*
X12422206Y-15230650D02*
X12441253Y-15240174D01*
X12441253Y-15240174D02*
X12450777Y-15249698D01*
X12450777Y-15249698D02*
X12460301Y-15268746D01*
X12460301Y-15268746D02*
X12460301Y-15325888D01*
X12460301Y-15325888D02*
X12450777Y-15344936D01*
X12450777Y-15344936D02*
X12441253Y-15354460D01*
X12441253Y-15354460D02*
X12422206Y-15363984D01*
X12422206Y-15363984D02*
X12393634Y-15363984D01*
X12574587Y-15363984D02*
X12555539Y-15354460D01*
X12555539Y-15354460D02*
X12546015Y-15335412D01*
X12546015Y-15335412D02*
X12546015Y-15163984D01*
X12726968Y-15354460D02*
X12707920Y-15363984D01*
X12707920Y-15363984D02*
X12669825Y-15363984D01*
X12669825Y-15363984D02*
X12650777Y-15354460D01*
X12650777Y-15354460D02*
X12641253Y-15335412D01*
X12641253Y-15335412D02*
X12641253Y-15259222D01*
X12641253Y-15259222D02*
X12650777Y-15240174D01*
X12650777Y-15240174D02*
X12669825Y-15230650D01*
X12669825Y-15230650D02*
X12707920Y-15230650D01*
X12707920Y-15230650D02*
X12726968Y-15240174D01*
X12726968Y-15240174D02*
X12736491Y-15259222D01*
X12736491Y-15259222D02*
X12736491Y-15278269D01*
X12736491Y-15278269D02*
X12641253Y-15297317D01*
X12812682Y-15354460D02*
X12831730Y-15363984D01*
X12831730Y-15363984D02*
X12869825Y-15363984D01*
X12869825Y-15363984D02*
X12888872Y-15354460D01*
X12888872Y-15354460D02*
X12898396Y-15335412D01*
X12898396Y-15335412D02*
X12898396Y-15325888D01*
X12898396Y-15325888D02*
X12888872Y-15306841D01*
X12888872Y-15306841D02*
X12869825Y-15297317D01*
X12869825Y-15297317D02*
X12841253Y-15297317D01*
X12841253Y-15297317D02*
X12822206Y-15287793D01*
X12822206Y-15287793D02*
X12812682Y-15268746D01*
X12812682Y-15268746D02*
X12812682Y-15259222D01*
X12812682Y-15259222D02*
X12822206Y-15240174D01*
X12822206Y-15240174D02*
X12841253Y-15230650D01*
X12841253Y-15230650D02*
X12869825Y-15230650D01*
X12869825Y-15230650D02*
X12888872Y-15240174D01*
X12965063Y-15440174D02*
X12974587Y-15430650D01*
X12974587Y-15430650D02*
X12993634Y-15402079D01*
X12993634Y-15402079D02*
X13003158Y-15383031D01*
X13003158Y-15383031D02*
X13012682Y-15354460D01*
X13012682Y-15354460D02*
X13022206Y-15306841D01*
X13022206Y-15306841D02*
X13022206Y-15268746D01*
X13022206Y-15268746D02*
X13012682Y-15221127D01*
X13012682Y-15221127D02*
X13003158Y-15192555D01*
X13003158Y-15192555D02*
X12993634Y-15173508D01*
X12993634Y-15173508D02*
X12974587Y-15144936D01*
X12974587Y-15144936D02*
X12965063Y-15135412D01*
M02*
