ISO-10303-21;
HEADER;
FILE_DESCRIPTION (( 'STEP AP214' ),
    '1' );
FILE_NAME ('MAL217056331E3.STEP',
    '2024-07-16T08:00:20',
    ( '' ),
    ( '' ),
    'SwSTEP 2.0',
    'SolidWorks 2023',
    '' );
FILE_SCHEMA (( 'AUTOMOTIVE_DESIGN' ));
ENDSEC;

DATA;
#1 = DIRECTION ( 'NONE',  ( 1.000000000000000000, -0.000000000000000000, 1.224646799147353207E-16 ) ) ;
#2 = ORIENTED_EDGE ( 'NONE', *, *, #621, .T. ) ;
#3 = ADVANCED_FACE ( 'NONE', ( #220 ), #122, .T. ) ;
#4 = CARTESIAN_POINT ( 'NONE',  ( 3.673940397442059498E-17, 0.000000000000000000, 2.200000000000000178 ) ) ;
#5 = STYLED_ITEM ( 'NONE', ( #710 ), #583 ) ;
#6 = ORIENTED_EDGE ( 'NONE', *, *, #651, .F. ) ;
#7 = PRESENTATION_LAYER_ASSIGNMENT (  '', '', ( #421 ) ) ;
#8 = UNCERTAINTY_MEASURE_WITH_UNIT (LENGTH_MEASURE( 1.000000000000000082E-05 ), #183, 'distance_accuracy_value', 'NONE');
#9 = DIRECTION ( 'NONE',  ( 0.000000000000000000, 0.000000000000000000, 1.000000000000000000 ) ) ;
#10 = FILL_AREA_STYLE ('',( #486 ) ) ;
#11 = VERTEX_POINT ( 'NONE', #428 ) ;
#12 = SURFACE_SIDE_STYLE ('',( #715 ) ) ;
#13 = ORIENTED_EDGE ( 'NONE', *, *, #79, .T. ) ;
#14 = SURFACE_SIDE_STYLE ('',( #503 ) ) ;
#15 = PRODUCT_DEFINITION_CONTEXT ( 'detailed design', #361, 'design' ) ;
#16 = MECHANICAL_DESIGN_GEOMETRIC_PRESENTATION_REPRESENTATION (  '', ( #890 ), #80 ) ;
#17 = DIRECTION ( 'NONE',  ( 0.000000000000000000, 0.000000000000000000, -1.000000000000000000 ) ) ;
#18 = CIRCLE ( 'NONE', #738, 4.750000000000064837 ) ;
#19 = ORIENTED_EDGE ( 'NONE', *, *, #363, .T. ) ;
#20 = AXIS2_PLACEMENT_3D ( 'NONE', #841, #769, #608 ) ;
#21 = AXIS2_PLACEMENT_3D ( 'NONE', #593, #438, #814 ) ;
#22 = EDGE_CURVE ( 'NONE', #791, #83, #767, .T. ) ;
#23 = FACE_OUTER_BOUND ( 'NONE', #290, .T. ) ;
#24 = ORIENTED_EDGE ( 'NONE', *, *, #575, .T. ) ;
#25 = MECHANICAL_DESIGN_GEOMETRIC_PRESENTATION_REPRESENTATION (  '', ( #464 ), #612 ) ;
#26 =( LENGTH_UNIT ( ) NAMED_UNIT ( * ) SI_UNIT ( .MILLI., .METRE. ) );
#27 = AXIS2_PLACEMENT_3D ( 'NONE', #844, #556, #266 ) ;
#28 = CIRCLE ( 'NONE', #863, 5.000000000000000000 ) ;
#29 = STYLED_ITEM ( 'NONE', ( #178 ), #413 ) ;
#30 = AXIS2_PLACEMENT_3D ( 'NONE', #597, #95, #589 ) ;
#31 = DIRECTION ( 'NONE',  ( -0.000000000000000000, -1.000000000000000000, -0.000000000000000000 ) ) ;
#32 = PRESENTATION_LAYER_ASSIGNMENT (  '', '', ( #250 ) ) ;
#33 = FILL_AREA_STYLE_COLOUR ( '', #677 ) ;
#34 = DIRECTION ( 'NONE',  ( 0.000000000000000000, -1.000000000000000000, 0.000000000000000000 ) ) ;
#35 =( LENGTH_UNIT ( ) NAMED_UNIT ( * ) SI_UNIT ( .MILLI., .METRE. ) );
#36 = FILL_AREA_STYLE ('',( #98 ) ) ;
#37 = FILL_AREA_STYLE ('',( #672 ) ) ;
#38 = PRESENTATION_LAYER_ASSIGNMENT (  '', '', ( #890 ) ) ;
#39 =( GEOMETRIC_REPRESENTATION_CONTEXT ( 3 ) GLOBAL_UNCERTAINTY_ASSIGNED_CONTEXT ( ( #172 ) ) GLOBAL_UNIT_ASSIGNED_CONTEXT ( ( #873, #859, #350 ) ) REPRESENTATION_CONTEXT ( 'NONE', 'WORKASPACE' ) );
#40 = FILL_AREA_STYLE ('',( #827 ) ) ;
#41 = ADVANCED_FACE ( 'NONE', ( #526, #747, #807 ), #584, .F. ) ;
#42 = FILL_AREA_STYLE_COLOUR ( '', #740 ) ;
#43 = AXIS2_PLACEMENT_3D ( 'NONE', #897, #45, #254 ) ;
#44 = EDGE_CURVE ( 'NONE', #620, #294, #223, .T. ) ;
#45 = DIRECTION ( 'NONE',  ( -0.000000000000000000, -1.000000000000000000, -0.000000000000000000 ) ) ;
#46 = ORIENTED_EDGE ( 'NONE', *, *, #71, .F. ) ;
#47 = CARTESIAN_POINT ( 'NONE',  ( 5.510910596163089556E-16, 0.5000000000000000000, -4.500000000000000888 ) ) ;
#48 =( NAMED_UNIT ( * ) PLANE_ANGLE_UNIT ( ) SI_UNIT ( $, .RADIAN. ) );
#49 = VERTEX_POINT ( 'NONE', #805 ) ;
#50 = DIRECTION ( 'NONE',  ( 0.000000000000000000, 0.000000000000000000, -1.000000000000000000 ) ) ;
#51 = SURFACE_STYLE_USAGE ( .BOTH. , #689 ) ;
#52 = ORIENTED_EDGE ( 'NONE', *, *, #363, .F. ) ;
#53 = CIRCLE ( 'NONE', #626, 0.2999999999999999334 ) ;
#54 = TOROIDAL_SURFACE ( 'NONE', #330, 4.999999999999999112, 0.5000000000000000000 ) ;
#55 = ADVANCED_FACE ( 'NONE', ( #653 ), #721, .T. ) ;
#56 = AXIS2_PLACEMENT_3D ( 'NONE', #379, #31, #306 ) ;
#57 = MECHANICAL_DESIGN_GEOMETRIC_PRESENTATION_REPRESENTATION (  '', ( #5 ), #407 ) ;
#58 = FACE_OUTER_BOUND ( 'NONE', #623, .T. ) ;
#59 = CIRCLE ( 'NONE', #557, 0.5000000000000004441 ) ;
#60 = ORIENTED_EDGE ( 'NONE', *, *, #575, .F. ) ;
#61 = DIRECTION ( 'NONE',  ( -0.000000000000000000, -1.000000000000000000, -0.000000000000000000 ) ) ;
#62 = VERTEX_POINT ( 'NONE', #300 ) ;
#63 = ADVANCED_FACE ( 'NONE', ( #437 ), #356, .T. ) ;
#64 = CARTESIAN_POINT ( 'NONE',  ( 0.000000000000000000, 1.633974596215338249, -4.500000000000078160 ) ) ;
#65 = CYLINDRICAL_SURFACE ( 'NONE', #663, 0.2999999999999999334 ) ;
#66 = EDGE_LOOP ( 'NONE', ( #401, #602, #695, #858 ) ) ;
#67 = CARTESIAN_POINT ( 'NONE',  ( 0.000000000000000000, 0.000000000000000000, 2.799999999999999822 ) ) ;
#68 = PRESENTATION_LAYER_ASSIGNMENT (  '', '', ( #464 ) ) ;
#69 =( GEOMETRIC_REPRESENTATION_CONTEXT ( 3 ) GLOBAL_UNCERTAINTY_ASSIGNED_CONTEXT ( ( #130 ) ) GLOBAL_UNIT_ASSIGNED_CONTEXT ( ( #78, #419, #506 ) ) REPRESENTATION_CONTEXT ( 'NONE', 'WORKASPACE' ) );
#70 = CIRCLE ( 'NONE', #331, 5.000000000000000000 ) ;
#71 = EDGE_CURVE ( 'NONE', #578, #409, #53, .T. ) ;
#72 = COLOUR_RGB ( '',0.000000000000000000, 0.000000000000000000, 1.000000000000000000 ) ;
#73 = ORIENTED_EDGE ( 'NONE', *, *, #533, .T. ) ;
#74 = MECHANICAL_DESIGN_GEOMETRIC_PRESENTATION_REPRESENTATION (  '', ( #347 ), #496 ) ;
#75 = CARTESIAN_POINT ( 'NONE',  ( 0.000000000000000000, 11.50000000000000000, 0.000000000000000000 ) ) ;
#76 = VERTEX_POINT ( 'NONE', #911 ) ;
#77 = ORIENTED_EDGE ( 'NONE', *, *, #301, .T. ) ;
#78 =( LENGTH_UNIT ( ) NAMED_UNIT ( * ) SI_UNIT ( .MILLI., .METRE. ) );
#79 = EDGE_CURVE ( 'NONE', #501, #424, #224, .T. ) ;
#80 =( GEOMETRIC_REPRESENTATION_CONTEXT ( 3 ) GLOBAL_UNCERTAINTY_ASSIGNED_CONTEXT ( ( #624 ) ) GLOBAL_UNIT_ASSIGNED_CONTEXT ( ( #150, #730, #667 ) ) REPRESENTATION_CONTEXT ( 'NONE', 'WORKASPACE' ) );
#81 = COLOUR_RGB ( '',0.000000000000000000, 0.000000000000000000, 1.000000000000000000 ) ;
#82 = DIRECTION ( 'NONE',  ( 1.224646799147351482E-16, 0.000000000000000000, -1.000000000000000000 ) ) ;
#83 = VERTEX_POINT ( 'NONE', #837 ) ;
#84 = CIRCLE ( 'NONE', #233, 4.750000000000064837 ) ;
#85 = FILL_AREA_STYLE_COLOUR ( '', #165 ) ;
#86 = DIRECTION ( 'NONE',  ( 0.000000000000000000, 1.000000000000000000, 0.000000000000000000 ) ) ;
#87 = ORIENTED_EDGE ( 'NONE', *, *, #551, .T. ) ;
#88 = DIRECTION ( 'NONE',  ( 0.000000000000000000, 1.000000000000000000, 0.000000000000000000 ) ) ;
#89 = PRESENTATION_STYLE_ASSIGNMENT (( #889 ) ) ;
#90 =( NAMED_UNIT ( * ) SI_UNIT ( $, .STERADIAN. ) SOLID_ANGLE_UNIT ( ) );
#91 = FACE_OUTER_BOUND ( 'NONE', #594, .T. ) ;
#92 = EDGE_LOOP ( 'NONE', ( #349, #198, #143, #457 ) ) ;
#93 = PRESENTATION_STYLE_ASSIGNMENT (( #244 ) ) ;
#94 = CARTESIAN_POINT ( 'NONE',  ( 0.000000000000000000, 3.366025403784661751, 0.000000000000000000 ) ) ;
#95 = DIRECTION ( 'NONE',  ( 0.000000000000000000, -1.000000000000000000, 0.000000000000000000 ) ) ;
#96 = FILL_AREA_STYLE ('',( #371 ) ) ;
#97 = ORIENTED_EDGE ( 'NONE', *, *, #431, .F. ) ;
#98 = FILL_AREA_STYLE_COLOUR ( '', #185 ) ;
#99 = COLOUR_RGB ( '',0.000000000000000000, 0.000000000000000000, 1.000000000000000000 ) ;
#100 = DIRECTION ( 'NONE',  ( 0.000000000000000000, 0.000000000000000000, -1.000000000000000000 ) ) ;
#101 = SURFACE_STYLE_USAGE ( .BOTH. , #813 ) ;
#102 = ORIENTED_EDGE ( 'NONE', *, *, #274, .F. ) ;
#103 =( LENGTH_UNIT ( ) NAMED_UNIT ( * ) SI_UNIT ( .MILLI., .METRE. ) );
#104 = CARTESIAN_POINT ( 'NONE',  ( 0.000000000000000000, -15.00000000000000000, -2.200000000000000178 ) ) ;
#105 =( NAMED_UNIT ( * ) SI_UNIT ( $, .STERADIAN. ) SOLID_ANGLE_UNIT ( ) );
#106 = SURFACE_STYLE_FILL_AREA ( #520 ) ;
#107 = EDGE_CURVE ( 'NONE', #791, #439, #753, .T. ) ;
#108 =( NAMED_UNIT ( * ) PLANE_ANGLE_UNIT ( ) SI_UNIT ( $, .RADIAN. ) );
#109 = CARTESIAN_POINT ( 'NONE',  ( 0.000000000000000000, 1.633974596215338249, 0.000000000000000000 ) ) ;
#110 = DIRECTION ( 'NONE',  ( -0.000000000000000000, 1.000000000000000000, -0.000000000000000000 ) ) ;
#111 = AXIS2_PLACEMENT_3D ( 'NONE', #109, #320, #465 ) ;
#112 = EDGE_LOOP ( 'NONE', ( #255, #847, #182, #329 ) ) ;
#113 = CIRCLE ( 'NONE', #572, 0.5000000000000004441 ) ;
#114 = DIRECTION ( 'NONE',  ( 0.000000000000000000, 0.000000000000000000, 1.000000000000000000 ) ) ;
#115 = TOROIDAL_SURFACE ( 'NONE', #267, 4.500000000000000888, 0.5000000000000000000 ) ;
#116 = CARTESIAN_POINT ( 'NONE',  ( 0.000000000000000000, 2.000000000000000000, -5.000000000000000000 ) ) ;
#117 =( LENGTH_UNIT ( ) NAMED_UNIT ( * ) SI_UNIT ( .MILLI., .METRE. ) );
#118 = ORIENTED_EDGE ( 'NONE', *, *, #754, .F. ) ;
#119 =( NAMED_UNIT ( * ) SI_UNIT ( $, .STERADIAN. ) SOLID_ANGLE_UNIT ( ) );
#120 = EDGE_LOOP ( 'NONE', ( #102, #717, #186, #913 ) ) ;
#121 = CARTESIAN_POINT ( 'NONE',  ( 0.000000000000000000, 3.366025403784661751, 0.000000000000000000 ) ) ;
#122 = TOROIDAL_SURFACE ( 'NONE', #642, 4.500000000000000888, 0.5000000000000000000 ) ;
#123 = ORIENTED_EDGE ( 'NONE', *, *, #318, .T. ) ;
#124 = STYLED_ITEM ( 'NONE', ( #531 ), #153 ) ;
#125 = AXIS2_PLACEMENT_3D ( 'NONE', #669, #529, #468 ) ;
#126 = DIRECTION ( 'NONE',  ( -0.000000000000000000, 1.000000000000000000, -0.000000000000000000 ) ) ;
#127 = AXIS2_PLACEMENT_3D ( 'NONE', #271, #686, #256 ) ;
#128 = COLOUR_RGB ( '',0.000000000000000000, 0.000000000000000000, 1.000000000000000000 ) ;
#129 = ORIENTED_EDGE ( 'NONE', *, *, #325, .F. ) ;
#130 = UNCERTAINTY_MEASURE_WITH_UNIT (LENGTH_MEASURE( 1.000000000000000082E-05 ), #78, 'distance_accuracy_value', 'NONE');
#131 = EDGE_CURVE ( 'NONE', #460, #336, #380, .T. ) ;
#132 = FACE_OUTER_BOUND ( 'NONE', #534, .T. ) ;
#133 = CYLINDRICAL_SURFACE ( 'NONE', #151, 5.000000000000000000 ) ;
#134 = VERTEX_POINT ( 'NONE', #263 ) ;
#135 = CLOSED_SHELL ( 'NONE', ( #915, #463, #3, #222, #902, #641, #299, #145, #382, #413, #811, #41, #406, #894, #153, #625, #719, #63, #202, #583, #562, #55, #723, #846 ) ) ;
#136 = SURFACE_SIDE_STYLE ('',( #558 ) ) ;
#137 = CARTESIAN_POINT ( 'NONE',  ( 0.000000000000000000, 0.000000000000000000, 0.000000000000000000 ) ) ;
#138 = AXIS2_PLACEMENT_3D ( 'NONE', #649, #569, #17 ) ;
#139 = ORIENTED_EDGE ( 'NONE', *, *, #502, .F. ) ;
#140 = PRESENTATION_LAYER_ASSIGNMENT (  '', '', ( #317 ) ) ;
#141 = FILL_AREA_STYLE_COLOUR ( '', #81 ) ;
#142 = CARTESIAN_POINT ( 'NONE',  ( 0.000000000000000000, 2.000000000000000000, 0.000000000000000000 ) ) ;
#143 = ORIENTED_EDGE ( 'NONE', *, *, #901, .T. ) ;
#144 = PRODUCT_DEFINITION_SHAPE ( 'NONE', 'NONE',  #488 ) ;
#145 = ADVANCED_FACE ( 'NONE', ( #58 ), #315, .F. ) ;
#146 = DIRECTION ( 'NONE',  ( 0.000000000000000000, 0.000000000000000000, 1.000000000000000000 ) ) ;
#147 = ORIENTED_EDGE ( 'NONE', *, *, #79, .F. ) ;
#148 =( LENGTH_UNIT ( ) NAMED_UNIT ( * ) SI_UNIT ( .MILLI., .METRE. ) );
#149 = MECHANICAL_DESIGN_GEOMETRIC_PRESENTATION_REPRESENTATION (  '', ( #550 ), #445 ) ;
#150 =( LENGTH_UNIT ( ) NAMED_UNIT ( * ) SI_UNIT ( .MILLI., .METRE. ) );
#151 = AXIS2_PLACEMENT_3D ( 'NONE', #142, #699, #643 ) ;
#152 = ORIENTED_EDGE ( 'NONE', *, *, #44, .F. ) ;
#153 = ADVANCED_FACE ( 'NONE', ( #829 ), #736, .F. ) ;
#154 = COLOUR_RGB ( '',0.000000000000000000, 0.000000000000000000, 1.000000000000000000 ) ;
#155 = SURFACE_STYLE_USAGE ( .BOTH. , #12 ) ;
#156 = PRODUCT_DEFINITION_FORMATION_WITH_SPECIFIED_SOURCE ( 'ANY', '', #860, .NOT_KNOWN. ) ;
#157 =( NAMED_UNIT ( * ) PLANE_ANGLE_UNIT ( ) SI_UNIT ( $, .RADIAN. ) );
#158 = DIRECTION ( 'NONE',  ( 0.000000000000000000, -1.000000000000000000, 0.000000000000000000 ) ) ;
#159 = CARTESIAN_POINT ( 'NONE',  ( 6.123233995736766282E-16, 12.00000000000000000, 5.000000000000000000 ) ) ;
#160 = DIRECTION ( 'NONE',  ( 0.000000000000000000, -1.000000000000000000, 0.000000000000000000 ) ) ;
#161 = SURFACE_SIDE_STYLE ('',( #106 ) ) ;
#162 = ORIENTED_EDGE ( 'NONE', *, *, #872, .F. ) ;
#163 = DIRECTION ( 'NONE',  ( -0.000000000000000000, -1.000000000000000000, -0.000000000000000000 ) ) ;
#164 = DIRECTION ( 'NONE',  ( 0.000000000000000000, 0.000000000000000000, 1.000000000000000000 ) ) ;
#165 = COLOUR_RGB ( '',0.7921568627450980005, 0.8196078431372548767, 0.9333333333333333481 ) ;
#166 = PRODUCT_RELATED_PRODUCT_CATEGORY ( 'part', '', ( #860 ) ) ;
#167 = DIRECTION ( 'NONE',  ( 0.000000000000000000, -0.000000000000000000, -1.000000000000000000 ) ) ;
#168 = SURFACE_STYLE_FILL_AREA ( #512 ) ;
#169 = MECHANICAL_DESIGN_GEOMETRIC_PRESENTATION_REPRESENTATION (  '', ( #801 ), #279 ) ;
#170 = CARTESIAN_POINT ( 'NONE',  ( 0.000000000000000000, 0.5000000000000000000, 4.500000000000000888 ) ) ;
#171 = AXIS2_PLACEMENT_3D ( 'NONE', #181, #402, #394 ) ;
#172 = UNCERTAINTY_MEASURE_WITH_UNIT (LENGTH_MEASURE( 1.000000000000000082E-05 ), #873, 'distance_accuracy_value', 'NONE');
#173 = CIRCLE ( 'NONE', #171, 0.2999999999999999334 ) ;
#174 = CYLINDRICAL_SURFACE ( 'NONE', #56, 5.000000000000000000 ) ;
#175 = AXIS2_PLACEMENT_3D ( 'NONE', #209, #782, #319 ) ;
#176 = LINE ( 'NONE', #333, #495 ) ;
#177 = CARTESIAN_POINT ( 'NONE',  ( 0.000000000000000000, 11.50000000000000000, 4.500000000000000888 ) ) ;
#178 = PRESENTATION_STYLE_ASSIGNMENT (( #191 ) ) ;
#179 = EDGE_CURVE ( 'NONE', #688, #211, #891, .T. ) ;
#180 = DIRECTION ( 'NONE',  ( 0.000000000000000000, 0.000000000000000000, 1.000000000000000000 ) ) ;
#181 = CARTESIAN_POINT ( 'NONE',  ( 0.000000000000000000, -15.00000000000000000, -2.500000000000000000 ) ) ;
#182 = ORIENTED_EDGE ( 'NONE', *, *, #825, .T. ) ;
#183 =( LENGTH_UNIT ( ) NAMED_UNIT ( * ) SI_UNIT ( .MILLI., .METRE. ) );
#184 = FILL_AREA_STYLE ('',( #687 ) ) ;
#185 = COLOUR_RGB ( '',0.000000000000000000, 0.000000000000000000, 1.000000000000000000 ) ;
#186 = ORIENTED_EDGE ( 'NONE', *, *, #131, .T. ) ;
#187 = DIRECTION ( 'NONE',  ( -0.000000000000000000, -1.000000000000000000, -0.000000000000000000 ) ) ;
#188 = COLOUR_RGB ( '',0.000000000000000000, 0.000000000000000000, 1.000000000000000000 ) ;
#189 = SURFACE_STYLE_USAGE ( .BOTH. , #268 ) ;
#190 = CARTESIAN_POINT ( 'NONE',  ( 0.000000000000000000, 0.000000000000000000, 0.000000000000000000 ) ) ;
#191 = SURFACE_STYLE_USAGE ( .BOTH. , #683 ) ;
#192 = ORIENTED_EDGE ( 'NONE', *, *, #235, .T. ) ;
#193 = FACE_OUTER_BOUND ( 'NONE', #585, .T. ) ;
#194 = DIRECTION ( 'NONE',  ( -0.000000000000000000, -1.000000000000000000, -0.000000000000000000 ) ) ;
#195 = ORIENTED_EDGE ( 'NONE', *, *, #235, .F. ) ;
#196 = DIRECTION ( 'NONE',  ( 1.224646799147351482E-16, 0.000000000000000000, -1.000000000000000000 ) ) ;
#197 = DIRECTION ( 'NONE',  ( 0.000000000000000000, 0.000000000000000000, 1.000000000000000000 ) ) ;
#198 = ORIENTED_EDGE ( 'NONE', *, *, #560, .T. ) ;
#199 = AXIS2_PLACEMENT_3D ( 'NONE', #817, #187, #309 ) ;
#200 = CIRCLE ( 'NONE', #249, 4.500000000000000888 ) ;
#201 = AXIS2_PLACEMENT_3D ( 'NONE', #517, #308, #673 ) ;
#202 = ADVANCED_FACE ( 'NONE', ( #544 ), #733, .T. ) ;
#203 = SURFACE_STYLE_USAGE ( .BOTH. , #851 ) ;
#204 = CARTESIAN_POINT ( 'NONE',  ( 0.000000000000000000, 12.00000000000000000, 0.000000000000000000 ) ) ;
#205 = EDGE_CURVE ( 'NONE', #11, #578, #840, .T. ) ;
#206 = DIRECTION ( 'NONE',  ( -1.000000000000000000, 0.000000000000000000, 0.000000000000000000 ) ) ;
#207 = EDGE_LOOP ( 'NONE', ( #475, #654, #636, #561 ) ) ;
#208 = FACE_OUTER_BOUND ( 'NONE', #112, .T. ) ;
#209 = CARTESIAN_POINT ( 'NONE',  ( 0.000000000000000000, 11.50000000000000000, 0.000000000000000000 ) ) ;
#210 = SURFACE_STYLE_USAGE ( .BOTH. , #857 ) ;
#211 = VERTEX_POINT ( 'NONE', #213 ) ;
#212 = AXIS2_PLACEMENT_3D ( 'NONE', #798, #34, #167 ) ;
#213 = CARTESIAN_POINT ( 'NONE',  ( 5.817072295949928412E-16, 0.000000000000000000, -4.500000000000000888 ) ) ;
#214 = PRESENTATION_LAYER_ASSIGNMENT (  '', '', ( #124 ) ) ;
#215 = DIRECTION ( 'NONE',  ( 1.000000000000000000, -0.000000000000000000, 1.224646799147353207E-16 ) ) ;
#216 = MECHANICAL_DESIGN_GEOMETRIC_PRESENTATION_REPRESENTATION (  '', ( #388 ), #676 ) ;
#217 = ORIENTED_EDGE ( 'NONE', *, *, #657, .T. ) ;
#218 = DIRECTION ( 'NONE',  ( 0.000000000000000000, 0.000000000000000000, 1.000000000000000000 ) ) ;
#219 = CARTESIAN_POINT ( 'NONE',  ( 0.000000000000000000, 11.50000000000000000, -5.000000000000000000 ) ) ;
#220 = FACE_OUTER_BOUND ( 'NONE', #339, .T. ) ;
#221 = DIRECTION ( 'NONE',  ( 1.000000000000000000, 0.000000000000000000, -1.224646799147353207E-16 ) ) ;
#222 = ADVANCED_FACE ( 'NONE', ( #640 ), #645, .T. ) ;
#223 = LINE ( 'NONE', #504, #505 ) ;
#224 = CIRCLE ( 'NONE', #831, 4.500000000000000888 ) ;
#225 = AXIS2_PLACEMENT_3D ( 'NONE', #547, #398, #908 ) ;
#226 = CARTESIAN_POINT ( 'NONE',  ( 0.000000000000000000, 0.5000000000000000000, -5.000000000000000000 ) ) ;
#227 = MANIFOLD_SOLID_BREP ( 'Boss-Extrude5', #135 ) ;
#228 =( GEOMETRIC_REPRESENTATION_CONTEXT ( 3 ) GLOBAL_UNCERTAINTY_ASSIGNED_CONTEXT ( ( #353 ) ) GLOBAL_UNIT_ASSIGNED_CONTEXT ( ( #702, #289, #862 ) ) REPRESENTATION_CONTEXT ( 'NONE', 'WORKASPACE' ) );
#229 = FILL_AREA_STYLE_COLOUR ( '', #403 ) ;
#230 = FACE_OUTER_BOUND ( 'NONE', #66, .T. ) ;
#231 = AXIS2_PLACEMENT_3D ( 'NONE', #283, #221, #427 ) ;
#232 = ORIENTED_EDGE ( 'NONE', *, *, #22, .T. ) ;
#233 = AXIS2_PLACEMENT_3D ( 'NONE', #694, #61, #337 ) ;
#234 = CARTESIAN_POINT ( 'NONE',  ( 0.000000000000000000, -15.00000000000000000, -2.200000000000000178 ) ) ;
#235 = EDGE_CURVE ( 'NONE', #76, #409, #581, .T. ) ;
#236 = DIRECTION ( 'NONE',  ( 0.000000000000000000, 0.000000000000000000, 1.000000000000000000 ) ) ;
#237 = PLANE ( 'NONE',  #881 ) ;
#238 =( NAMED_UNIT ( * ) SI_UNIT ( $, .STERADIAN. ) SOLID_ANGLE_UNIT ( ) );
#239 = UNCERTAINTY_MEASURE_WITH_UNIT (LENGTH_MEASURE( 1.000000000000000082E-05 ), #450, 'distance_accuracy_value', 'NONE');
#240 =( LENGTH_UNIT ( ) NAMED_UNIT ( * ) SI_UNIT ( .MILLI., .METRE. ) );
#241 = CARTESIAN_POINT ( 'NONE',  ( 0.000000000000000000, 3.366025403784661751, -4.500000000000078160 ) ) ;
#242 = SURFACE_STYLE_USAGE ( .BOTH. , #668 ) ;
#243 = ORIENTED_EDGE ( 'NONE', *, *, #628, .T. ) ;
#244 = SURFACE_STYLE_USAGE ( .BOTH. , #806 ) ;
#245 = CARTESIAN_POINT ( 'NONE',  ( 0.000000000000000000, 0.5000000000000000000, 0.000000000000000000 ) ) ;
#246 = AXIS2_PLACEMENT_3D ( 'NONE', #493, #712, #867 ) ;
#247 = EDGE_CURVE ( 'NONE', #688, #796, #587, .T. ) ;
#248 = COLOUR_RGB ( '',0.000000000000000000, 0.000000000000000000, 1.000000000000000000 ) ;
#249 = AXIS2_PLACEMENT_3D ( 'NONE', #137, #286, #497 ) ;
#250 = STYLED_ITEM ( 'NONE', ( #601 ), #902 ) ;
#251 = CARTESIAN_POINT ( 'NONE',  ( 0.000000000000000000, 2.500000000000000000, 4.999999999999999112 ) ) ;
#252 =( LENGTH_UNIT ( ) NAMED_UNIT ( * ) SI_UNIT ( .MILLI., .METRE. ) );
#253 = SURFACE_STYLE_USAGE ( .BOTH. , #600 ) ;
#254 = DIRECTION ( 'NONE',  ( 0.000000000000000000, 0.000000000000000000, -1.000000000000000000 ) ) ;
#255 = ORIENTED_EDGE ( 'NONE', *, *, #461, .T. ) ;
#256 = DIRECTION ( 'NONE',  ( 0.000000000000000000, 0.000000000000000000, 1.000000000000000000 ) ) ;
#257 = SURFACE_STYLE_FILL_AREA ( #758 ) ;
#258 = DIRECTION ( 'NONE',  ( 0.000000000000000000, 0.000000000000000000, 1.000000000000000000 ) ) ;
#259 = EDGE_LOOP ( 'NONE', ( #378, #711 ) ) ;
#260 = FILL_AREA_STYLE_COLOUR ( '', #248 ) ;
#261 = DIRECTION ( 'NONE',  ( -0.000000000000000000, -1.000000000000000000, -0.000000000000000000 ) ) ;
#262 = COLOUR_RGB ( '',0.000000000000000000, 0.000000000000000000, 1.000000000000000000 ) ;
#263 = CARTESIAN_POINT ( 'NONE',  ( 0.000000000000000000, 1.633974596215338249, -5.000000000000000000 ) ) ;
#264 = AXIS2_PLACEMENT_3D ( 'NONE', #536, #548, #197 ) ;
#265 = ORIENTED_EDGE ( 'NONE', *, *, #474, .T. ) ;
#266 = DIRECTION ( 'NONE',  ( 0.000000000000000000, 0.000000000000000000, 1.000000000000000000 ) ) ;
#267 = AXIS2_PLACEMENT_3D ( 'NONE', #746, #530, #441 ) ;
#268 = SURFACE_SIDE_STYLE ('',( #904 ) ) ;
#269 = VERTEX_POINT ( 'NONE', #234 ) ;
#270 = FILL_AREA_STYLE ('',( #618 ) ) ;
#271 = CARTESIAN_POINT ( 'NONE',  ( 0.000000000000000000, 2.066987298107715088, 0.000000000000000000 ) ) ;
#272 = VERTEX_POINT ( 'NONE', #744 ) ;
#273 = DIRECTION ( 'NONE',  ( 1.224646799147351482E-16, 0.000000000000000000, -1.000000000000000000 ) ) ;
#274 = EDGE_CURVE ( 'NONE', #272, #752, #660, .T. ) ;
#275 = FILL_AREA_STYLE ('',( #487 ) ) ;
#276 =( GEOMETRIC_REPRESENTATION_CONTEXT ( 3 ) GLOBAL_UNCERTAINTY_ASSIGNED_CONTEXT ( ( #803 ) ) GLOBAL_UNIT_ASSIGNED_CONTEXT ( ( #386, #761, #277 ) ) REPRESENTATION_CONTEXT ( 'NONE', 'WORKASPACE' ) );
#277 =( NAMED_UNIT ( * ) SI_UNIT ( $, .STERADIAN. ) SOLID_ANGLE_UNIT ( ) );
#278 = UNCERTAINTY_MEASURE_WITH_UNIT (LENGTH_MEASURE( 1.000000000000000082E-05 ), #117, 'distance_accuracy_value', 'NONE');
#279 =( GEOMETRIC_REPRESENTATION_CONTEXT ( 3 ) GLOBAL_UNCERTAINTY_ASSIGNED_CONTEXT ( ( #426 ) ) GLOBAL_UNIT_ASSIGNED_CONTEXT ( ( #240, #696, #553 ) ) REPRESENTATION_CONTEXT ( 'NONE', 'WORKASPACE' ) );
#280 = DIRECTION ( 'NONE',  ( 0.000000000000000000, 0.000000000000000000, 1.000000000000000000 ) ) ;
#281 = AXIS2_PLACEMENT_3D ( 'NONE', #241, #432, #164 ) ;
#282 = CIRCLE ( 'NONE', #175, 5.000000000000000000 ) ;
#283 = CARTESIAN_POINT ( 'NONE',  ( 5.510910596163185205E-16, 3.366025403784661751, 4.500000000000078160 ) ) ;
#284 = ORIENTED_EDGE ( 'NONE', *, *, #775, .F. ) ;
#285 = DIRECTION ( 'NONE',  ( 0.000000000000000000, 0.000000000000000000, 1.000000000000000000 ) ) ;
#286 = DIRECTION ( 'NONE',  ( -0.000000000000000000, -1.000000000000000000, -0.000000000000000000 ) ) ;
#287 = ORIENTED_EDGE ( 'NONE', *, *, #832, .F. ) ;
#288 = FILL_AREA_STYLE ('',( #141 ) ) ;
#289 =( NAMED_UNIT ( * ) PLANE_ANGLE_UNIT ( ) SI_UNIT ( $, .RADIAN. ) );
#290 = EDGE_LOOP ( 'NONE', ( #734, #397, #87, #405 ) ) ;
#291 =( GEOMETRIC_REPRESENTATION_CONTEXT ( 3 ) GLOBAL_UNCERTAINTY_ASSIGNED_CONTEXT ( ( #637 ) ) GLOBAL_UNIT_ASSIGNED_CONTEXT ( ( #103, #369, #238 ) ) REPRESENTATION_CONTEXT ( 'NONE', 'WORKASPACE' ) );
#292 = CARTESIAN_POINT ( 'NONE',  ( 0.000000000000000000, 0.000000000000000000, -2.200000000000000178 ) ) ;
#293 =( GEOMETRIC_REPRESENTATION_CONTEXT ( 3 ) GLOBAL_UNCERTAINTY_ASSIGNED_CONTEXT ( ( #879 ) ) GLOBAL_UNIT_ASSIGNED_CONTEXT ( ( #252, #895, #729 ) ) REPRESENTATION_CONTEXT ( 'NONE', 'WORKASPACE' ) );
#294 = VERTEX_POINT ( 'NONE', #887 ) ;
#295 = CIRCLE ( 'NONE', #576, 5.000000000000000000 ) ;
#296 =( GEOMETRIC_REPRESENTATION_CONTEXT ( 3 ) GLOBAL_UNCERTAINTY_ASSIGNED_CONTEXT ( ( #647 ) ) GLOBAL_UNIT_ASSIGNED_CONTEXT ( ( #613, #609, #119 ) ) REPRESENTATION_CONTEXT ( 'NONE', 'WORKASPACE' ) );
#297 = EDGE_CURVE ( 'NONE', #439, #62, #447, .T. ) ;
#298 = DIRECTION ( 'NONE',  ( -0.000000000000000000, 1.000000000000000000, -0.000000000000000000 ) ) ;
#299 = ADVANCED_FACE ( 'NONE', ( #440 ), #54, .F. ) ;
#300 = CARTESIAN_POINT ( 'NONE',  ( 6.123233995736766282E-16, 1.633974596215338249, 5.000000000000000000 ) ) ;
#301 = EDGE_CURVE ( 'NONE', #49, #567, #630, .T. ) ;
#302 = MECHANICAL_DESIGN_GEOMETRIC_PRESENTATION_REPRESENTATION (  '', ( #124 ), #276 ) ;
#303 =( NAMED_UNIT ( * ) SI_UNIT ( $, .STERADIAN. ) SOLID_ANGLE_UNIT ( ) );
#304 = AXIS2_PLACEMENT_3D ( 'NONE', #704, #635, #579 ) ;
#305 = AXIS2_PLACEMENT_3D ( 'NONE', #47, #682, #196 ) ;
#306 = DIRECTION ( 'NONE',  ( 0.000000000000000000, 0.000000000000000000, -1.000000000000000000 ) ) ;
#307 = DIRECTION ( 'NONE',  ( 0.000000000000000000, 1.000000000000000000, 0.000000000000000000 ) ) ;
#308 = DIRECTION ( 'NONE',  ( 0.000000000000000000, 1.000000000000000000, 0.000000000000000000 ) ) ;
#309 = DIRECTION ( 'NONE',  ( 0.000000000000000000, 0.000000000000000000, 1.000000000000000000 ) ) ;
#310 = EDGE_CURVE ( 'NONE', #752, #336, #28, .T. ) ;
#311 = SURFACE_SIDE_STYLE ('',( #366 ) ) ;
#312 =( LENGTH_UNIT ( ) NAMED_UNIT ( * ) SI_UNIT ( .MILLI., .METRE. ) );
#313 = AXIS2_PLACEMENT_3D ( 'NONE', #580, #307, #871 ) ;
#314 =( NAMED_UNIT ( * ) SI_UNIT ( $, .STERADIAN. ) SOLID_ANGLE_UNIT ( ) );
#315 = TOROIDAL_SURFACE ( 'NONE', #264, 4.999999999999999112, 0.5000000000000000000 ) ;
#316 = SURFACE_STYLE_FILL_AREA ( #37 ) ;
#317 = STYLED_ITEM ( 'NONE', ( #327 ), #719 ) ;
#318 = EDGE_CURVE ( 'NONE', #691, #439, #18, .T. ) ;
#319 = DIRECTION ( 'NONE',  ( 0.000000000000000000, 0.000000000000000000, 1.000000000000000000 ) ) ;
#320 = DIRECTION ( 'NONE',  ( -0.000000000000000000, -1.000000000000000000, -0.000000000000000000 ) ) ;
#321 = DIRECTION ( 'NONE',  ( -1.000000000000000000, 0.000000000000000000, 0.000000000000000000 ) ) ;
#322 = ORIENTED_EDGE ( 'NONE', *, *, #551, .F. ) ;
#323 = SURFACE_SIDE_STYLE ('',( #681 ) ) ;
#324 = CARTESIAN_POINT ( 'NONE',  ( 0.000000000000000000, 0.000000000000000000, 4.500000000000000888 ) ) ;
#325 = EDGE_CURVE ( 'NONE', #76, #11, #554, .T. ) ;
#326 = ORIENTED_EDGE ( 'NONE', *, *, #310, .T. ) ;
#327 = PRESENTATION_STYLE_ASSIGNMENT (( #189 ) ) ;
#328 = AXIS2_PLACEMENT_3D ( 'NONE', #75, #88, #218 ) ;
#329 = ORIENTED_EDGE ( 'NONE', *, *, #743, .F. ) ;
#330 = AXIS2_PLACEMENT_3D ( 'NONE', #383, #596, #674 ) ;
#331 = AXIS2_PLACEMENT_3D ( 'NONE', #245, #535, #114 ) ;
#332 = PRESENTATION_LAYER_ASSIGNMENT (  '', '', ( #616 ) ) ;
#333 = CARTESIAN_POINT ( 'NONE',  ( 6.123233995736766282E-16, 2.000000000000000000, 5.000000000000000000 ) ) ;
#334 = MECHANICAL_DESIGN_GEOMETRIC_PRESENTATION_REPRESENTATION (  '', ( #317 ), #708 ) ;
#335 = PRESENTATION_STYLE_ASSIGNMENT (( #51 ) ) ;
#336 = VERTEX_POINT ( 'NONE', #454 ) ;
#337 = DIRECTION ( 'NONE',  ( 0.000000000000000000, 0.000000000000000000, -1.000000000000000000 ) ) ;
#338 = EDGE_CURVE ( 'NONE', #269, #471, #662, .T. ) ;
#339 = EDGE_LOOP ( 'NONE', ( #60, #482, #680, #631 ) ) ;
#340 = DIRECTION ( 'NONE',  ( 0.000000000000000000, 1.000000000000000000, 0.000000000000000000 ) ) ;
#341 = CARTESIAN_POINT ( 'NONE',  ( 0.000000000000000000, -15.00000000000000000, -2.500000000000000000 ) ) ;
#342 = ORIENTED_EDGE ( 'NONE', *, *, #628, .F. ) ;
#343 = PRESENTATION_LAYER_ASSIGNMENT (  '', '', ( #756 ) ) ;
#344 = UNCERTAINTY_MEASURE_WITH_UNIT (LENGTH_MEASURE( 1.000000000000000082E-05 ), #455, 'distance_accuracy_value', 'NONE');
#345 =( NAMED_UNIT ( * ) PLANE_ANGLE_UNIT ( ) SI_UNIT ( $, .RADIAN. ) );
#346 = MECHANICAL_DESIGN_GEOMETRIC_PRESENTATION_REPRESENTATION (  '', ( #616 ), #420 ) ;
#347 = STYLED_ITEM ( 'NONE', ( #703 ), #811 ) ;
#348 = CARTESIAN_POINT ( 'NONE',  ( 0.000000000000000000, 12.00000000000000000, 4.500000000000000888 ) ) ;
#349 = ORIENTED_EDGE ( 'NONE', *, *, #775, .T. ) ;
#350 =( NAMED_UNIT ( * ) SI_UNIT ( $, .STERADIAN. ) SOLID_ANGLE_UNIT ( ) );
#351 = DIRECTION ( 'NONE',  ( 0.000000000000000000, 1.000000000000000000, 0.000000000000000000 ) ) ;
#352 = EDGE_LOOP ( 'NONE', ( #898, #764, #147, #162 ) ) ;
#353 = UNCERTAINTY_MEASURE_WITH_UNIT (LENGTH_MEASURE( 1.000000000000000082E-05 ), #702, 'distance_accuracy_value', 'NONE');
#354 = CYLINDRICAL_SURFACE ( 'NONE', #480, 0.2999999999999999334 ) ;
#355 = ORIENTED_EDGE ( 'NONE', *, *, #274, .T. ) ;
#356 = TOROIDAL_SURFACE ( 'NONE', #111, 4.500000000000078160, 0.5000000000000000000 ) ;
#357 = VECTOR ( 'NONE', #163, 1000.000000000000000 ) ;
#358 = CARTESIAN_POINT ( 'NONE',  ( 5.817072295949928412E-16, 12.00000000000000000, -4.500000000000000888 ) ) ;
#359 = CIRCLE ( 'NONE', #452, 5.000000000000000000 ) ;
#360 = EDGE_LOOP ( 'NONE', ( #52, #322 ) ) ;
#361 = APPLICATION_CONTEXT ( 'automotive_design' ) ;
#362 = DIRECTION ( 'NONE',  ( -0.000000000000000000, 1.000000000000000000, -0.000000000000000000 ) ) ;
#363 = EDGE_CURVE ( 'NONE', #471, #294, #614, .T. ) ;
#364 = FACE_OUTER_BOUND ( 'NONE', #714, .T. ) ;
#365 = SURFACE_STYLE_USAGE ( .BOTH. , #14 ) ;
#366 = SURFACE_STYLE_FILL_AREA ( #582 ) ;
#367 = CARTESIAN_POINT ( 'NONE',  ( 0.000000000000000000, 0.000000000000000000, 2.500000000000000000 ) ) ;
#368 = PRESENTATION_STYLE_ASSIGNMENT (( #242 ) ) ;
#369 =( NAMED_UNIT ( * ) PLANE_ANGLE_UNIT ( ) SI_UNIT ( $, .RADIAN. ) );
#370 = MECHANICAL_DESIGN_GEOMETRIC_PRESENTATION_REPRESENTATION (  '', ( #812 ), #521 ) ;
#371 = FILL_AREA_STYLE_COLOUR ( '', #99 ) ;
#372 = ORIENTED_EDGE ( 'NONE', *, *, #670, .F. ) ;
#373 = AXIS2_PLACEMENT_3D ( 'NONE', #481, #854, #776 ) ;
#374 = DIRECTION ( 'NONE',  ( -1.224646799147353454E-16, 0.000000000000000000, -1.000000000000000000 ) ) ;
#375 = DIRECTION ( 'NONE',  ( -0.000000000000000000, -1.000000000000000000, -0.000000000000000000 ) ) ;
#376 = PRESENTATION_STYLE_ASSIGNMENT (( #101 ) ) ;
#377 = DIRECTION ( 'NONE',  ( 0.000000000000000000, -0.000000000000000000, -1.000000000000000000 ) ) ;
#378 = ORIENTED_EDGE ( 'NONE', *, *, #325, .T. ) ;
#379 = CARTESIAN_POINT ( 'NONE',  ( 0.000000000000000000, 12.00000000000000000, 0.000000000000000000 ) ) ;
#380 = LINE ( 'NONE', #916, #417 ) ;
#381 = CYLINDRICAL_SURFACE ( 'NONE', #634, 0.2999999999999999334 ) ;
#382 = ADVANCED_FACE ( 'NONE', ( #446 ), #174, .T. ) ;
#383 = CARTESIAN_POINT ( 'NONE',  ( 0.000000000000000000, 2.500000000000000000, 0.000000000000000000 ) ) ;
#384 = CYLINDRICAL_SURFACE ( 'NONE', #852, 0.2999999999999999334 ) ;
#385 = MECHANICAL_DESIGN_GEOMETRIC_PRESENTATION_REPRESENTATION (  '', ( #799 ), #861 ) ;
#386 =( LENGTH_UNIT ( ) NAMED_UNIT ( * ) SI_UNIT ( .MILLI., .METRE. ) );
#387 =( NAMED_UNIT ( * ) PLANE_ANGLE_UNIT ( ) SI_UNIT ( $, .RADIAN. ) );
#388 = STYLED_ITEM ( 'NONE', ( #603 ), #382 ) ;
#389 = ORIENTED_EDGE ( 'NONE', *, *, #697, .T. ) ;
#390 = CIRCLE ( 'NONE', #231, 0.4999999999999995559 ) ;
#391 = CIRCLE ( 'NONE', #21, 4.500000000000000000 ) ;
#392 = DIRECTION ( 'NONE',  ( -1.000000000000000000, 0.000000000000000000, 0.000000000000000000 ) ) ;
#393 = EDGE_CURVE ( 'NONE', #615, #796, #70, .T. ) ;
#394 = DIRECTION ( 'NONE',  ( 0.000000000000000000, 0.000000000000000000, -1.000000000000000000 ) ) ;
#395 = EDGE_CURVE ( 'NONE', #567, #791, #113, .T. ) ;
#396 = DIRECTION ( 'NONE',  ( 0.000000000000000000, 1.000000000000000000, 0.000000000000000000 ) ) ;
#397 = ORIENTED_EDGE ( 'NONE', *, *, #44, .T. ) ;
#398 = DIRECTION ( 'NONE',  ( 0.000000000000000000, 1.000000000000000000, 0.000000000000000000 ) ) ;
#399 =( NAMED_UNIT ( * ) SI_UNIT ( $, .STERADIAN. ) SOLID_ANGLE_UNIT ( ) );
#400 =( NAMED_UNIT ( * ) SI_UNIT ( $, .STERADIAN. ) SOLID_ANGLE_UNIT ( ) );
#401 = ORIENTED_EDGE ( 'NONE', *, *, #697, .F. ) ;
#402 = DIRECTION ( 'NONE',  ( 0.000000000000000000, -1.000000000000000000, 0.000000000000000000 ) ) ;
#403 = COLOUR_RGB ( '',0.000000000000000000, 0.000000000000000000, 1.000000000000000000 ) ;
#404 = DIRECTION ( 'NONE',  ( 0.000000000000000000, 0.000000000000000000, 1.000000000000000000 ) ) ;
#405 = ORIENTED_EDGE ( 'NONE', *, *, #338, .F. ) ;
#406 = ADVANCED_FACE ( 'NONE', ( #458 ), #792, .T. ) ;
#407 =( GEOMETRIC_REPRESENTATION_CONTEXT ( 3 ) GLOBAL_UNCERTAINTY_ASSIGNED_CONTEXT ( ( #494 ) ) GLOBAL_UNIT_ASSIGNED_CONTEXT ( ( #638, #818, #105 ) ) REPRESENTATION_CONTEXT ( 'NONE', 'WORKASPACE' ) );
#408 = MECHANICAL_DESIGN_GEOMETRIC_PRESENTATION_REPRESENTATION (  '', ( #421 ), #774 ) ;
#409 = VERTEX_POINT ( 'NONE', #67 ) ;
#410 = DIRECTION ( 'NONE',  ( -0.000000000000000000, -1.000000000000000000, -0.000000000000000000 ) ) ;
#411 = FACE_OUTER_BOUND ( 'NONE', #903, .T. ) ;
#412 = ORIENTED_EDGE ( 'NONE', *, *, #670, .T. ) ;
#413 = ADVANCED_FACE ( 'NONE', ( #208 ), #133, .T. ) ;
#414 = FILL_AREA_STYLE_COLOUR ( '', #154 ) ;
#415 = CARTESIAN_POINT ( 'NONE',  ( 0.000000000000000000, 3.366025403784661751, 0.000000000000000000 ) ) ;
#416 = ORIENTED_EDGE ( 'NONE', *, *, #598, .F. ) ;
#417 = VECTOR ( 'NONE', #194, 1000.000000000000000 ) ;
#418 = VECTOR ( 'NONE', #522, 1000.000000000000000 ) ;
#419 =( NAMED_UNIT ( * ) PLANE_ANGLE_UNIT ( ) SI_UNIT ( $, .RADIAN. ) );
#420 =( GEOMETRIC_REPRESENTATION_CONTEXT ( 3 ) GLOBAL_UNCERTAINTY_ASSIGNED_CONTEXT ( ( #344 ) ) GLOBAL_UNIT_ASSIGNED_CONTEXT ( ( #455, #671, #314 ) ) REPRESENTATION_CONTEXT ( 'NONE', 'WORKASPACE' ) );
#421 = STYLED_ITEM ( 'NONE', ( #368 ), #894 ) ;
#422 = FACE_OUTER_BOUND ( 'NONE', #207, .T. ) ;
#423 = ORIENTED_EDGE ( 'NONE', *, *, #71, .T. ) ;
#424 = VERTEX_POINT ( 'NONE', #358 ) ;
#425 =( NAMED_UNIT ( * ) SI_UNIT ( $, .STERADIAN. ) SOLID_ANGLE_UNIT ( ) );
#426 = UNCERTAINTY_MEASURE_WITH_UNIT (LENGTH_MEASURE( 1.000000000000000082E-05 ), #240, 'distance_accuracy_value', 'NONE');
#427 = DIRECTION ( 'NONE',  ( -1.224646799147353454E-16, 0.000000000000000000, -1.000000000000000000 ) ) ;
#428 = CARTESIAN_POINT ( 'NONE',  ( 3.673940397442059498E-17, -20.00000000000000000, 2.200000000000000178 ) ) ;
#429 = AXIS2_PLACEMENT_3D ( 'NONE', #516, #86, #449 ) ;
#430 = AXIS2_PLACEMENT_3D ( 'NONE', #170, #728, #514 ) ;
#431 = EDGE_CURVE ( 'NONE', #336, #752, #880, .T. ) ;
#432 = DIRECTION ( 'NONE',  ( -1.000000000000000000, 0.000000000000000000, 0.000000000000000000 ) ) ;
#433 = CIRCLE ( 'NONE', #451, 0.2999999999999999334 ) ;
#434 =( GEOMETRIC_REPRESENTATION_CONTEXT ( 3 ) GLOBAL_UNCERTAINTY_ASSIGNED_CONTEXT ( ( #239 ) ) GLOBAL_UNIT_ASSIGNED_CONTEXT ( ( #450, #731, #678 ) ) REPRESENTATION_CONTEXT ( 'NONE', 'WORKASPACE' ) );
#435 = PRESENTATION_STYLE_ASSIGNMENT (( #155 ) ) ;
#436 = APPLICATION_CONTEXT ( 'automotive_design' ) ;
#437 = FACE_OUTER_BOUND ( 'NONE', #513, .T. ) ;
#438 = DIRECTION ( 'NONE',  ( 0.000000000000000000, 1.000000000000000000, 0.000000000000000000 ) ) ;
#439 = VERTEX_POINT ( 'NONE', #790 ) ;
#440 = FACE_OUTER_BOUND ( 'NONE', #92, .T. ) ;
#441 = DIRECTION ( 'NONE',  ( 0.000000000000000000, 0.000000000000000000, 1.000000000000000000 ) ) ;
#442 = SURFACE_STYLE_USAGE ( .BOTH. , #161 ) ;
#443 = CARTESIAN_POINT ( 'NONE',  ( 5.510910596163185205E-16, 1.633974596215338249, 4.500000000000078160 ) ) ;
#444 = UNCERTAINTY_MEASURE_WITH_UNIT (LENGTH_MEASURE( 1.000000000000000082E-05 ), #489, 'distance_accuracy_value', 'NONE');
#445 =( GEOMETRIC_REPRESENTATION_CONTEXT ( 3 ) GLOBAL_UNCERTAINTY_ASSIGNED_CONTEXT ( ( #278 ) ) GLOBAL_UNIT_ASSIGNED_CONTEXT ( ( #117, #896, #400 ) ) REPRESENTATION_CONTEXT ( 'NONE', 'WORKASPACE' ) );
#446 = FACE_OUTER_BOUND ( 'NONE', #478, .T. ) ;
#447 = CIRCLE ( 'NONE', #661, 0.4999999999999995559 ) ;
#448 = SURFACE_STYLE_USAGE ( .BOTH. , #311 ) ;
#449 = DIRECTION ( 'NONE',  ( 0.000000000000000000, 0.000000000000000000, 1.000000000000000000 ) ) ;
#450 =( LENGTH_UNIT ( ) NAMED_UNIT ( * ) SI_UNIT ( .MILLI., .METRE. ) );
#451 = AXIS2_PLACEMENT_3D ( 'NONE', #566, #870, #146 ) ;
#452 = AXIS2_PLACEMENT_3D ( 'NONE', #750, #472, #476 ) ;
#453 = CARTESIAN_POINT ( 'NONE',  ( 0.000000000000000000, -20.00000000000000000, 2.799999999999999822 ) ) ;
#454 = CARTESIAN_POINT ( 'NONE',  ( 0.000000000000000000, 3.366025403784661751, -5.000000000000000000 ) ) ;
#455 =( LENGTH_UNIT ( ) NAMED_UNIT ( * ) SI_UNIT ( .MILLI., .METRE. ) );
#456 = FILL_AREA_STYLE_COLOUR ( '', #128 ) ;
#457 = ORIENTED_EDGE ( 'NONE', *, *, #395, .F. ) ;
#458 = FACE_OUTER_BOUND ( 'NONE', #120, .T. ) ;
#459 = CARTESIAN_POINT ( 'NONE',  ( 6.123233995736766282E-16, 0.5000000000000000000, 5.000000000000000000 ) ) ;
#460 = VERTEX_POINT ( 'NONE', #219 ) ;
#461 = EDGE_CURVE ( 'NONE', #134, #62, #850, .T. ) ;
#462 = CARTESIAN_POINT ( 'NONE',  ( 0.000000000000000000, 2.066987298107715088, 0.000000000000000000 ) ) ;
#463 = ADVANCED_FACE ( 'NONE', ( #23 ), #354, .T. ) ;
#464 = STYLED_ITEM ( 'NONE', ( #335 ), #145 ) ;
#465 = DIRECTION ( 'NONE',  ( 0.000000000000000000, 0.000000000000000000, -1.000000000000000000 ) ) ;
#466 = EDGE_LOOP ( 'NONE', ( #826, #24 ) ) ;
#467 = AXIS2_PLACEMENT_3D ( 'NONE', #716, #215, #82 ) ;
#468 = DIRECTION ( 'NONE',  ( 0.000000000000000000, 0.000000000000000000, -1.000000000000000000 ) ) ;
#469 = AXIS2_PLACEMENT_3D ( 'NONE', #190, #906, #470 ) ;
#470 = DIRECTION ( 'NONE',  ( 1.000000000000000000, 0.000000000000000000, 0.000000000000000000 ) ) ;
#471 = VERTEX_POINT ( 'NONE', #292 ) ;
#472 = DIRECTION ( 'NONE',  ( -0.000000000000000000, -1.000000000000000000, -0.000000000000000000 ) ) ;
#473 = DIRECTION ( 'NONE',  ( -0.000000000000000000, -1.000000000000000000, -0.000000000000000000 ) ) ;
#474 = EDGE_CURVE ( 'NONE', #83, #691, #573, .T. ) ;
#475 = ORIENTED_EDGE ( 'NONE', *, *, #724, .F. ) ;
#476 = DIRECTION ( 'NONE',  ( 0.000000000000000000, 0.000000000000000000, -1.000000000000000000 ) ) ;
#477 = DIRECTION ( 'NONE',  ( -1.000000000000000000, 0.000000000000000000, 0.000000000000000000 ) ) ;
#478 = EDGE_LOOP ( 'NONE', ( #766, #355, #326, #727 ) ) ;
#479 = AXIS2_PLACEMENT_3D ( 'NONE', #204, #483, #778 ) ;
#480 = AXIS2_PLACEMENT_3D ( 'NONE', #797, #298, #500 ) ;
#481 = CARTESIAN_POINT ( 'NONE',  ( 0.000000000000000000, 2.000000000000000000, 0.000000000000000000 ) ) ;
#482 = ORIENTED_EDGE ( 'NONE', *, *, #724, .T. ) ;
#483 = DIRECTION ( 'NONE',  ( -0.000000000000000000, -1.000000000000000000, -0.000000000000000000 ) ) ;
#484 = UNCERTAINTY_MEASURE_WITH_UNIT (LENGTH_MEASURE( 1.000000000000000082E-05 ), #148, 'distance_accuracy_value', 'NONE');
#485 = CARTESIAN_POINT ( 'NONE',  ( 0.000000000000000000, 0.5000000000000000000, 0.000000000000000000 ) ) ;
#486 = FILL_AREA_STYLE_COLOUR ( '', #72 ) ;
#487 = FILL_AREA_STYLE_COLOUR ( '', #262 ) ;
#488 = PRODUCT_DEFINITION ( 'UNKNOWN', '', #156, #15 ) ;
#489 =( LENGTH_UNIT ( ) NAMED_UNIT ( * ) SI_UNIT ( .MILLI., .METRE. ) );
#490 = DIRECTION ( 'NONE',  ( 0.000000000000000000, 0.000000000000000000, -1.000000000000000000 ) ) ;
#491 = EDGE_LOOP ( 'NONE', ( #722, #129, #192, #73 ) ) ;
#492 = MECHANICAL_DESIGN_GEOMETRIC_PRESENTATION_REPRESENTATION (  '', ( #629 ), #39 ) ;
#493 = CARTESIAN_POINT ( 'NONE',  ( 0.000000000000000000, 11.50000000000000000, 0.000000000000000000 ) ) ;
#494 = UNCERTAINTY_MEASURE_WITH_UNIT (LENGTH_MEASURE( 1.000000000000000082E-05 ), #638, 'distance_accuracy_value', 'NONE');
#495 = VECTOR ( 'NONE', #899, 1000.000000000000000 ) ;
#496 =( GEOMETRIC_REPRESENTATION_CONTEXT ( 3 ) GLOBAL_UNCERTAINTY_ASSIGNED_CONTEXT ( ( #444 ) ) GLOBAL_UNIT_ASSIGNED_CONTEXT ( ( #489, #345, #709 ) ) REPRESENTATION_CONTEXT ( 'NONE', 'WORKASPACE' ) );
#497 = DIRECTION ( 'NONE',  ( 0.000000000000000000, 0.000000000000000000, 1.000000000000000000 ) ) ;
#498 = ORIENTED_EDGE ( 'NONE', *, *, #872, .T. ) ;
#499 = SURFACE_STYLE_USAGE ( .BOTH. , #586 ) ;
#500 = DIRECTION ( 'NONE',  ( 0.000000000000000000, 0.000000000000000000, 1.000000000000000000 ) ) ;
#501 = VERTEX_POINT ( 'NONE', #348 ) ;
#502 = EDGE_CURVE ( 'NONE', #752, #567, #390, .T. ) ;
#503 = SURFACE_STYLE_FILL_AREA ( #288 ) ;
#504 = CARTESIAN_POINT ( 'NONE',  ( 3.673940397442058882E-17, -15.00000000000000000, -2.799999999999999822 ) ) ;
#505 = VECTOR ( 'NONE', #511, 1000.000000000000000 ) ;
#506 =( NAMED_UNIT ( * ) SI_UNIT ( $, .STERADIAN. ) SOLID_ANGLE_UNIT ( ) );
#507 = MECHANICAL_DESIGN_GEOMETRIC_PRESENTATION_REPRESENTATION (  '', ( #29 ), #228 ) ;
#508 = SURFACE_STYLE_FILL_AREA ( #725 ) ;
#509 = PRESENTATION_LAYER_ASSIGNMENT (  '', '', ( #5 ) ) ;
#510 = TOROIDAL_SURFACE ( 'NONE', #43, 4.500000000000078160, 0.5000000000000000000 ) ;
#511 = DIRECTION ( 'NONE',  ( -0.000000000000000000, 1.000000000000000000, -0.000000000000000000 ) ) ;
#512 = FILL_AREA_STYLE ('',( #456 ) ) ;
#513 = EDGE_LOOP ( 'NONE', ( #843, #742, #869, #118 ) ) ;
#514 = DIRECTION ( 'NONE',  ( 0.000000000000000000, 0.000000000000000000, 1.000000000000000000 ) ) ;
#515 = FACE_OUTER_BOUND ( 'NONE', #528, .T. ) ;
#516 = CARTESIAN_POINT ( 'NONE',  ( 0.000000000000000000, 2.500000000000000000, 0.000000000000000000 ) ) ;
#517 = CARTESIAN_POINT ( 'NONE',  ( 0.000000000000000000, 12.00000000000000000, 0.000000000000000000 ) ) ;
#518 = SURFACE_SIDE_STYLE ('',( #537 ) ) ;
#519 = CARTESIAN_POINT ( 'NONE',  ( 0.000000000000000000, 2.500000000000000000, 0.000000000000000000 ) ) ;
#520 = FILL_AREA_STYLE ('',( #229 ) ) ;
#521 =( GEOMETRIC_REPRESENTATION_CONTEXT ( 3 ) GLOBAL_UNCERTAINTY_ASSIGNED_CONTEXT ( ( #853 ) ) GLOBAL_UNIT_ASSIGNED_CONTEXT ( ( #26, #157, #90 ) ) REPRESENTATION_CONTEXT ( 'NONE', 'WORKASPACE' ) );
#522 = DIRECTION ( 'NONE',  ( -0.000000000000000000, 1.000000000000000000, -0.000000000000000000 ) ) ;
#523 = COLOUR_RGB ( '',0.000000000000000000, 0.000000000000000000, 1.000000000000000000 ) ;
#524 = DIRECTION ( 'NONE',  ( 0.000000000000000000, 1.000000000000000000, 0.000000000000000000 ) ) ;
#525 = CIRCLE ( 'NONE', #127, 4.750000000000064837 ) ;
#526 = FACE_BOUND ( 'NONE', #549, .T. ) ;
#527 = CIRCLE ( 'NONE', #305, 0.5000000000000004441 ) ;
#528 = EDGE_LOOP ( 'NONE', ( #665, #77, #830, #232 ) ) ;
#529 = DIRECTION ( 'NONE',  ( 0.000000000000000000, -1.000000000000000000, 0.000000000000000000 ) ) ;
#530 = DIRECTION ( 'NONE',  ( 0.000000000000000000, 1.000000000000000000, 0.000000000000000000 ) ) ;
#531 = PRESENTATION_STYLE_ASSIGNMENT (( #253 ) ) ;
#532 = FACE_OUTER_BOUND ( 'NONE', #639, .T. ) ;
#533 = EDGE_CURVE ( 'NONE', #409, #578, #542, .T. ) ;
#534 = EDGE_LOOP ( 'NONE', ( #6, #570, #839, #706 ) ) ;
#535 = DIRECTION ( 'NONE',  ( 0.000000000000000000, 1.000000000000000000, 0.000000000000000000 ) ) ;
#536 = CARTESIAN_POINT ( 'NONE',  ( 0.000000000000000000, 2.500000000000000000, 0.000000000000000000 ) ) ;
#537 = SURFACE_STYLE_FILL_AREA ( #40 ) ;
#538 = DIRECTION ( 'NONE',  ( -0.000000000000000000, -1.000000000000000000, -0.000000000000000000 ) ) ;
#539 = MECHANICAL_DESIGN_GEOMETRIC_PRESENTATION_REPRESENTATION (  '', ( #705 ), #291 ) ;
#540 = COLOUR_RGB ( '',0.000000000000000000, 0.000000000000000000, 1.000000000000000000 ) ;
#541 = ORIENTED_EDGE ( 'NONE', *, *, #795, .F. ) ;
#542 = CIRCLE ( 'NONE', #304, 0.2999999999999999334 ) ;
#543 = TOROIDAL_SURFACE ( 'NONE', #693, 4.500000000000078160, 0.5000000000000000000 ) ;
#544 = FACE_OUTER_BOUND ( 'NONE', #781, .T. ) ;
#545 = PRODUCT_CONTEXT ( 'NONE', #436, 'mechanical' ) ;
#546 = ORIENTED_EDGE ( 'NONE', *, *, #107, .T. ) ;
#547 = CARTESIAN_POINT ( 'NONE',  ( 0.000000000000000000, 2.500000000000000000, 0.000000000000000000 ) ) ;
#548 = DIRECTION ( 'NONE',  ( 0.000000000000000000, 1.000000000000000000, 0.000000000000000000 ) ) ;
#549 = EDGE_LOOP ( 'NONE', ( #877, #46 ) ) ;
#550 = STYLED_ITEM ( 'NONE', ( #376 ), #63 ) ;
#551 = EDGE_CURVE ( 'NONE', #294, #471, #433, .T. ) ;
#552 = SURFACE_STYLE_FILL_AREA ( #275 ) ;
#553 =( NAMED_UNIT ( * ) SI_UNIT ( $, .STERADIAN. ) SOLID_ANGLE_UNIT ( ) );
#554 = CIRCLE ( 'NONE', #125, 0.2999999999999999334 ) ;
#555 = PRESENTATION_LAYER_ASSIGNMENT (  '', '', ( #772 ) ) ;
#556 = DIRECTION ( 'NONE',  ( -0.000000000000000000, -1.000000000000000000, -0.000000000000000000 ) ) ;
#557 = AXIS2_PLACEMENT_3D ( 'NONE', #622, #1, #273 ) ;
#558 = SURFACE_STYLE_FILL_AREA ( #848 ) ;
#559 = DIRECTION ( 'NONE',  ( 0.000000000000000000, 0.000000000000000000, 1.000000000000000000 ) ) ;
#560 = EDGE_CURVE ( 'NONE', #49, #83, #893, .T. ) ;
#561 = ORIENTED_EDGE ( 'NONE', *, *, #393, .F. ) ;
#562 = ADVANCED_FACE ( 'NONE', ( #411 ), #65, .T. ) ;
#563 = ADVANCED_BREP_SHAPE_REPRESENTATION ( 'MAL217056331E3', ( #227, #469 ), #296 ) ;
#564 = UNCERTAINTY_MEASURE_WITH_UNIT (LENGTH_MEASURE( 1.000000000000000082E-05 ), #35, 'distance_accuracy_value', 'NONE');
#565 = SURFACE_STYLE_USAGE ( .BOTH. , #136 ) ;
#566 = CARTESIAN_POINT ( 'NONE',  ( 0.000000000000000000, 0.000000000000000000, -2.500000000000000000 ) ) ;
#567 = VERTEX_POINT ( 'NONE', #627 ) ;
#568 = PRESENTATION_STYLE_ASSIGNMENT (( #365 ) ) ;
#569 = DIRECTION ( 'NONE',  ( -0.000000000000000000, -1.000000000000000000, -0.000000000000000000 ) ) ;
#570 = ORIENTED_EDGE ( 'NONE', *, *, #754, .T. ) ;
#571 = COLOUR_RGB ( '',0.000000000000000000, 0.000000000000000000, 1.000000000000000000 ) ;
#572 = AXIS2_PLACEMENT_3D ( 'NONE', #251, #392, #180 ) ;
#573 = CIRCLE ( 'NONE', #599, 0.5000000000000004441 ) ;
#574 = AXIS2_PLACEMENT_3D ( 'NONE', #121, #538, #765 ) ;
#575 = EDGE_CURVE ( 'NONE', #211, #688, #200, .T. ) ;
#576 = AXIS2_PLACEMENT_3D ( 'NONE', #485, #340, #9 ) ;
#577 = CARTESIAN_POINT ( 'NONE',  ( 6.123233995736765296E-16, 2.500000000000000000, -4.999999999999999112 ) ) ;
#578 = VERTEX_POINT ( 'NONE', #4 ) ;
#579 = DIRECTION ( 'NONE',  ( 0.000000000000000000, 0.000000000000000000, 1.000000000000000000 ) ) ;
#580 = CARTESIAN_POINT ( 'NONE',  ( 0.000000000000000000, 0.000000000000000000, 0.000000000000000000 ) ) ;
#581 = LINE ( 'NONE', #453, #418 ) ;
#582 = FILL_AREA_STYLE ('',( #652 ) ) ;
#583 = ADVANCED_FACE ( 'NONE', ( #422 ), #115, .T. ) ;
#584 = PLANE ( 'NONE',  #313 ) ;
#585 = EDGE_LOOP ( 'NONE', ( #139, #97, #243, #284 ) ) ;
#586 = SURFACE_SIDE_STYLE ('',( #650 ) ) ;
#587 = CIRCLE ( 'NONE', #430, 0.5000000000000004441 ) ;
#588 = PRESENTATION_LAYER_ASSIGNMENT (  '', '', ( #801 ) ) ;
#589 = DIRECTION ( 'NONE',  ( 0.000000000000000000, 0.000000000000000000, -1.000000000000000000 ) ) ;
#590 = CIRCLE ( 'NONE', #819, 0.5000000000000004441 ) ;
#591 = PRESENTATION_STYLE_ASSIGNMENT (( #607 ) ) ;
#592 = FILL_AREA_STYLE_COLOUR ( '', #523 ) ;
#593 = CARTESIAN_POINT ( 'NONE',  ( 0.000000000000000000, 2.500000000000000000, 0.000000000000000000 ) ) ;
#594 = EDGE_LOOP ( 'NONE', ( #13, #412 ) ) ;
#595 = SURFACE_STYLE_USAGE ( .BOTH. , #518 ) ;
#596 = DIRECTION ( 'NONE',  ( 0.000000000000000000, 1.000000000000000000, 0.000000000000000000 ) ) ;
#597 = CARTESIAN_POINT ( 'NONE',  ( 0.000000000000000000, -15.00000000000000000, -2.500000000000000000 ) ) ;
#598 = EDGE_CURVE ( 'NONE', #11, #76, #836, .T. ) ;
#599 = AXIS2_PLACEMENT_3D ( 'NONE', #577, #868, #784 ) ;
#600 = SURFACE_SIDE_STYLE ('',( #316 ) ) ;
#601 = PRESENTATION_STYLE_ASSIGNMENT (( #748 ) ) ;
#602 = ORIENTED_EDGE ( 'NONE', *, *, #297, .T. ) ;
#603 = PRESENTATION_STYLE_ASSIGNMENT (( #595 ) ) ;
#604 = FILL_AREA_STYLE ('',( #42 ) ) ;
#605 =( NAMED_UNIT ( * ) SI_UNIT ( $, .STERADIAN. ) SOLID_ANGLE_UNIT ( ) );
#606 = ORIENTED_EDGE ( 'NONE', *, *, #657, .F. ) ;
#607 = SURFACE_STYLE_USAGE ( .BOTH. , #323 ) ;
#608 = DIRECTION ( 'NONE',  ( 0.000000000000000000, 0.000000000000000000, 1.000000000000000000 ) ) ;
#609 =( NAMED_UNIT ( * ) PLANE_ANGLE_UNIT ( ) SI_UNIT ( $, .RADIAN. ) );
#610 = ORIENTED_EDGE ( 'NONE', *, *, #301, .F. ) ;
#611 = FACE_OUTER_BOUND ( 'NONE', #491, .T. ) ;
#612 =( GEOMETRIC_REPRESENTATION_CONTEXT ( 3 ) GLOBAL_UNCERTAINTY_ASSIGNED_CONTEXT ( ( #794 ) ) GLOBAL_UNIT_ASSIGNED_CONTEXT ( ( #762, #48, #605 ) ) REPRESENTATION_CONTEXT ( 'NONE', 'WORKASPACE' ) );
#613 =( LENGTH_UNIT ( ) NAMED_UNIT ( * ) SI_UNIT ( .MILLI., .METRE. ) );
#614 = CIRCLE ( 'NONE', #199, 0.2999999999999999334 ) ;
#615 = VERTEX_POINT ( 'NONE', #226 ) ;
#616 = STYLED_ITEM ( 'NONE', ( #874 ), #641 ) ;
#617 = MECHANICAL_DESIGN_GEOMETRIC_PRESENTATION_REPRESENTATION (  '', ( #250 ), #434 ) ;
#618 = FILL_AREA_STYLE_COLOUR ( '', #571 ) ;
#619 = CARTESIAN_POINT ( 'NONE',  ( 5.817072295950035894E-16, 2.066987298107715088, -4.750000000000088818 ) ) ;
#620 = VERTEX_POINT ( 'NONE', #882 ) ;
#621 = EDGE_CURVE ( 'NONE', #620, #269, #720, .T. ) ;
#622 = CARTESIAN_POINT ( 'NONE',  ( 5.510910596163089556E-16, 11.50000000000000000, -4.500000000000000888 ) ) ;
#623 = EDGE_LOOP ( 'NONE', ( #864, #265, #123, #907 ) ) ;
#624 = UNCERTAINTY_MEASURE_WITH_UNIT (LENGTH_MEASURE( 1.000000000000000082E-05 ), #150, 'distance_accuracy_value', 'NONE');
#625 = ADVANCED_FACE ( 'NONE', ( #515 ), #632, .F. ) ;
#626 = AXIS2_PLACEMENT_3D ( 'NONE', #367, #473, #404 ) ;
#627 = CARTESIAN_POINT ( 'NONE',  ( 0.000000000000000000, 2.933012701892285357, 4.750000000000088818 ) ) ;
#628 = EDGE_CURVE ( 'NONE', #336, #49, #648, .T. ) ;
#629 = STYLED_ITEM ( 'NONE', ( #435 ), #202 ) ;
#630 = CIRCLE ( 'NONE', #834, 4.750000000000064837 ) ;
#631 = ORIENTED_EDGE ( 'NONE', *, *, #247, .F. ) ;
#632 = TOROIDAL_SURFACE ( 'NONE', #739, 4.999999999999999112, 0.5000000000000000000 ) ;
#633 = VECTOR ( 'NONE', #261, 1000.000000000000000 ) ;
#634 = AXIS2_PLACEMENT_3D ( 'NONE', #824, #110, #808 ) ;
#635 = DIRECTION ( 'NONE',  ( -0.000000000000000000, -1.000000000000000000, -0.000000000000000000 ) ) ;
#636 = ORIENTED_EDGE ( 'NONE', *, *, #247, .T. ) ;
#637 = UNCERTAINTY_MEASURE_WITH_UNIT (LENGTH_MEASURE( 1.000000000000000082E-05 ), #103, 'distance_accuracy_value', 'NONE');
#638 =( LENGTH_UNIT ( ) NAMED_UNIT ( * ) SI_UNIT ( .MILLI., .METRE. ) );
#639 = EDGE_LOOP ( 'NONE', ( #416, #659, #423, #195 ) ) ;
#640 = FACE_OUTER_BOUND ( 'NONE', #352, .T. ) ;
#641 = ADVANCED_FACE ( 'NONE', ( #364 ), #910, .T. ) ;
#642 = AXIS2_PLACEMENT_3D ( 'NONE', #883, #876, #236 ) ;
#643 = DIRECTION ( 'NONE',  ( 0.000000000000000000, 0.000000000000000000, -1.000000000000000000 ) ) ;
#644 = EDGE_LOOP ( 'NONE', ( #217, #2 ) ) ;
#645 = TOROIDAL_SURFACE ( 'NONE', #246, 4.500000000000000888, 0.5000000000000000000 ) ;
#646 = PRESENTATION_LAYER_ASSIGNMENT (  '', '', ( #388 ) ) ;
#647 = UNCERTAINTY_MEASURE_WITH_UNIT (LENGTH_MEASURE( 1.000000000000000082E-05 ), #613, 'distance_accuracy_value', 'NONE');
#648 = CIRCLE ( 'NONE', #281, 0.4999999999999995559 ) ;
#649 = CARTESIAN_POINT ( 'NONE',  ( 0.000000000000000000, 1.633974596215338249, 0.000000000000000000 ) ) ;
#650 = SURFACE_STYLE_FILL_AREA ( #655 ) ;
#651 = EDGE_CURVE ( 'NONE', #62, #796, #176, .T. ) ;
#652 = FILL_AREA_STYLE_COLOUR ( '', #188 ) ;
#653 = FACE_OUTER_BOUND ( 'NONE', #644, .T. ) ;
#654 = ORIENTED_EDGE ( 'NONE', *, *, #179, .F. ) ;
#655 = FILL_AREA_STYLE ('',( #85 ) ) ;
#656 = FILL_AREA_STYLE ('',( #592 ) ) ;
#657 = EDGE_CURVE ( 'NONE', #269, #620, #173, .T. ) ;
#658 = COLOUR_RGB ( '',0.000000000000000000, 0.000000000000000000, 1.000000000000000000 ) ;
#659 = ORIENTED_EDGE ( 'NONE', *, *, #205, .T. ) ;
#660 = LINE ( 'NONE', #159, #357 ) ;
#661 = AXIS2_PLACEMENT_3D ( 'NONE', #443, #735, #374 ) ;
#662 = LINE ( 'NONE', #104, #787 ) ;
#663 = AXIS2_PLACEMENT_3D ( 'NONE', #341, #713, #559 ) ;
#664 = SURFACE_SIDE_STYLE ('',( #168 ) ) ;
#665 = ORIENTED_EDGE ( 'NONE', *, *, #560, .F. ) ;
#666 = DIRECTION ( 'NONE',  ( 0.000000000000000000, 1.000000000000000000, 0.000000000000000000 ) ) ;
#667 =( NAMED_UNIT ( * ) SI_UNIT ( $, .STERADIAN. ) SOLID_ANGLE_UNIT ( ) );
#668 = SURFACE_SIDE_STYLE ('',( #726 ) ) ;
#669 = CARTESIAN_POINT ( 'NONE',  ( 0.000000000000000000, -20.00000000000000000, 2.500000000000000000 ) ) ;
#670 = EDGE_CURVE ( 'NONE', #424, #501, #690, .T. ) ;
#671 =( NAMED_UNIT ( * ) PLANE_ANGLE_UNIT ( ) SI_UNIT ( $, .RADIAN. ) );
#672 = FILL_AREA_STYLE_COLOUR ( '', #833 ) ;
#673 = DIRECTION ( 'NONE',  ( 0.000000000000000000, -0.000000000000000000, 1.000000000000000000 ) ) ;
#674 = DIRECTION ( 'NONE',  ( 0.000000000000000000, 0.000000000000000000, 1.000000000000000000 ) ) ;
#675 = PRESENTATION_LAYER_ASSIGNMENT (  '', '', ( #799 ) ) ;
#676 =( GEOMETRIC_REPRESENTATION_CONTEXT ( 3 ) GLOBAL_UNCERTAINTY_ASSIGNED_CONTEXT ( ( #701 ) ) GLOBAL_UNIT_ASSIGNED_CONTEXT ( ( #312, #809, #755 ) ) REPRESENTATION_CONTEXT ( 'NONE', 'WORKASPACE' ) );
#677 = COLOUR_RGB ( '',0.000000000000000000, 0.000000000000000000, 1.000000000000000000 ) ;
#678 =( NAMED_UNIT ( * ) SI_UNIT ( $, .STERADIAN. ) SOLID_ANGLE_UNIT ( ) );
#679 = PRESENTATION_LAYER_ASSIGNMENT (  '', '', ( #347 ) ) ;
#680 = ORIENTED_EDGE ( 'NONE', *, *, #825, .F. ) ;
#681 = SURFACE_STYLE_FILL_AREA ( #749 ) ;
#682 = DIRECTION ( 'NONE',  ( 1.000000000000000000, -0.000000000000000000, 1.224646799147353207E-16 ) ) ;
#683 = SURFACE_SIDE_STYLE ('',( #257 ) ) ;
#684 = DIRECTION ( 'NONE',  ( 0.000000000000000000, 0.000000000000000000, 1.000000000000000000 ) ) ;
#685 = ORIENTED_EDGE ( 'NONE', *, *, #310, .F. ) ;
#686 = DIRECTION ( 'NONE',  ( 0.000000000000000000, 1.000000000000000000, 0.000000000000000000 ) ) ;
#687 = FILL_AREA_STYLE_COLOUR ( '', #658 ) ;
#688 = VERTEX_POINT ( 'NONE', #324 ) ;
#689 = SURFACE_SIDE_STYLE ('',( #905 ) ) ;
#690 = CIRCLE ( 'NONE', #20, 4.500000000000000888 ) ;
#691 = VERTEX_POINT ( 'NONE', #619 ) ;
#692 = AXIS2_PLACEMENT_3D ( 'NONE', #779, #410, #285 ) ;
#693 = AXIS2_PLACEMENT_3D ( 'NONE', #828, #845, #50 ) ;
#694 = CARTESIAN_POINT ( 'NONE',  ( 0.000000000000000000, 2.933012701892285357, 0.000000000000000000 ) ) ;
#695 = ORIENTED_EDGE ( 'NONE', *, *, #461, .F. ) ;
#696 =( NAMED_UNIT ( * ) PLANE_ANGLE_UNIT ( ) SI_UNIT ( $, .RADIAN. ) );
#697 = EDGE_CURVE ( 'NONE', #439, #691, #525, .T. ) ;
#698 = CYLINDRICAL_SURFACE ( 'NONE', #373, 5.000000000000000000 ) ;
#699 = DIRECTION ( 'NONE',  ( -0.000000000000000000, -1.000000000000000000, -0.000000000000000000 ) ) ;
#700 = ORIENTED_EDGE ( 'NONE', *, *, #338, .T. ) ;
#701 = UNCERTAINTY_MEASURE_WITH_UNIT (LENGTH_MEASURE( 1.000000000000000082E-05 ), #312, 'distance_accuracy_value', 'NONE');
#702 =( LENGTH_UNIT ( ) NAMED_UNIT ( * ) SI_UNIT ( .MILLI., .METRE. ) );
#703 = PRESENTATION_STYLE_ASSIGNMENT (( #565 ) ) ;
#704 = CARTESIAN_POINT ( 'NONE',  ( 0.000000000000000000, 0.000000000000000000, 2.500000000000000000 ) ) ;
#705 = STYLED_ITEM ( 'NONE', ( #93 ), #299 ) ;
#706 = ORIENTED_EDGE ( 'NONE', *, *, #393, .T. ) ;
#707 = AXIS2_PLACEMENT_3D ( 'NONE', #415, #351, #490 ) ;
#708 =( GEOMETRIC_REPRESENTATION_CONTEXT ( 3 ) GLOBAL_UNCERTAINTY_ASSIGNED_CONTEXT ( ( #8 ) ) GLOBAL_UNIT_ASSIGNED_CONTEXT ( ( #183, #108, #399 ) ) REPRESENTATION_CONTEXT ( 'NONE', 'WORKASPACE' ) );
#709 =( NAMED_UNIT ( * ) SI_UNIT ( $, .STERADIAN. ) SOLID_ANGLE_UNIT ( ) );
#710 = PRESENTATION_STYLE_ASSIGNMENT (( #210 ) ) ;
#711 = ORIENTED_EDGE ( 'NONE', *, *, #598, .T. ) ;
#712 = DIRECTION ( 'NONE',  ( 0.000000000000000000, 1.000000000000000000, 0.000000000000000000 ) ) ;
#713 = DIRECTION ( 'NONE',  ( -0.000000000000000000, 1.000000000000000000, -0.000000000000000000 ) ) ;
#714 = EDGE_LOOP ( 'NONE', ( #685, #773, #610, #342 ) ) ;
#715 = SURFACE_STYLE_FILL_AREA ( #270 ) ;
#716 = CARTESIAN_POINT ( 'NONE',  ( 6.123233995736765296E-16, 2.500000000000000000, -4.999999999999999112 ) ) ;
#717 = ORIENTED_EDGE ( 'NONE', *, *, #832, .T. ) ;
#718 = PRESENTATION_LAYER_ASSIGNMENT (  '', '', ( #705 ) ) ;
#719 = ADVANCED_FACE ( 'NONE', ( #193 ), #543, .T. ) ;
#720 = CIRCLE ( 'NONE', #30, 0.2999999999999999334 ) ;
#721 = PLANE ( 'NONE',  #212 ) ;
#722 = ORIENTED_EDGE ( 'NONE', *, *, #205, .F. ) ;
#723 = ADVANCED_FACE ( 'NONE', ( #611 ), #384, .T. ) ;
#724 = EDGE_CURVE ( 'NONE', #211, #615, #527, .T. ) ;
#725 = FILL_AREA_STYLE ('',( #33 ) ) ;
#726 = SURFACE_STYLE_FILL_AREA ( #96 ) ;
#727 = ORIENTED_EDGE ( 'NONE', *, *, #131, .F. ) ;
#728 = DIRECTION ( 'NONE',  ( -1.000000000000000000, 0.000000000000000000, 0.000000000000000000 ) ) ;
#729 =( NAMED_UNIT ( * ) SI_UNIT ( $, .STERADIAN. ) SOLID_ANGLE_UNIT ( ) );
#730 =( NAMED_UNIT ( * ) PLANE_ANGLE_UNIT ( ) SI_UNIT ( $, .RADIAN. ) );
#731 =( NAMED_UNIT ( * ) PLANE_ANGLE_UNIT ( ) SI_UNIT ( $, .RADIAN. ) );
#732 = PRESENTATION_LAYER_ASSIGNMENT (  '', '', ( #550 ) ) ;
#733 = TOROIDAL_SURFACE ( 'NONE', #328, 4.500000000000000888, 0.5000000000000000000 ) ;
#734 = ORIENTED_EDGE ( 'NONE', *, *, #621, .F. ) ;
#735 = DIRECTION ( 'NONE',  ( 1.000000000000000000, 0.000000000000000000, -1.224646799147353207E-16 ) ) ;
#736 = TOROIDAL_SURFACE ( 'NONE', #225, 4.999999999999999112, 0.5000000000000000000 ) ;
#737 = DIRECTION ( 'NONE',  ( 0.000000000000000000, 0.000000000000000000, -1.000000000000000000 ) ) ;
#738 = AXIS2_PLACEMENT_3D ( 'NONE', #462, #892, #745 ) ;
#739 = AXIS2_PLACEMENT_3D ( 'NONE', #519, #524, #810 ) ;
#740 = COLOUR_RGB ( '',0.000000000000000000, 0.000000000000000000, 1.000000000000000000 ) ;
#741 = FACE_OUTER_BOUND ( 'NONE', #259, .T. ) ;
#742 = ORIENTED_EDGE ( 'NONE', *, *, #318, .F. ) ;
#743 = EDGE_CURVE ( 'NONE', #134, #615, #757, .T. ) ;
#744 = CARTESIAN_POINT ( 'NONE',  ( 6.123233995736766282E-16, 11.50000000000000000, 5.000000000000000000 ) ) ;
#745 = DIRECTION ( 'NONE',  ( 0.000000000000000000, 0.000000000000000000, 1.000000000000000000 ) ) ;
#746 = CARTESIAN_POINT ( 'NONE',  ( 0.000000000000000000, 0.5000000000000000000, 0.000000000000000000 ) ) ;
#747 = FACE_BOUND ( 'NONE', #360, .T. ) ;
#748 = SURFACE_STYLE_USAGE ( .BOTH. , #664 ) ;
#749 = FILL_AREA_STYLE ('',( #260 ) ) ;
#750 = CARTESIAN_POINT ( 'NONE',  ( 0.000000000000000000, 1.633974596215338249, 0.000000000000000000 ) ) ;
#751 = DIRECTION ( 'NONE',  ( 0.000000000000000000, 0.000000000000000000, 1.000000000000000000 ) ) ;
#752 = VERTEX_POINT ( 'NONE', #835 ) ;
#753 = CIRCLE ( 'NONE', #875, 0.5000000000000004441 ) ;
#754 = EDGE_CURVE ( 'NONE', #62, #134, #359, .T. ) ;
#755 =( NAMED_UNIT ( * ) SI_UNIT ( $, .STERADIAN. ) SOLID_ANGLE_UNIT ( ) );
#756 = STYLED_ITEM ( 'NONE', ( #878 ), #227 ) ;
#757 = LINE ( 'NONE', #116, #633 ) ;
#758 = FILL_AREA_STYLE ('',( #900 ) ) ;
#759 = CARTESIAN_POINT ( 'NONE',  ( 0.000000000000000000, 2.500000000000000000, 4.999999999999999112 ) ) ;
#760 = CIRCLE ( 'NONE', #838, 0.4999999999999995559 ) ;
#761 =( NAMED_UNIT ( * ) PLANE_ANGLE_UNIT ( ) SI_UNIT ( $, .RADIAN. ) );
#762 =( LENGTH_UNIT ( ) NAMED_UNIT ( * ) SI_UNIT ( .MILLI., .METRE. ) );
#763 = APPLICATION_PROTOCOL_DEFINITION ( 'draft international standard', 'automotive_design', 1998, #361 ) ;
#764 = ORIENTED_EDGE ( 'NONE', *, *, #795, .T. ) ;
#765 = DIRECTION ( 'NONE',  ( 0.000000000000000000, 0.000000000000000000, -1.000000000000000000 ) ) ;
#766 = ORIENTED_EDGE ( 'NONE', *, *, #802, .T. ) ;
#767 = CIRCLE ( 'NONE', #429, 4.500000000000000000 ) ;
#768 = VECTOR ( 'NONE', #362, 1000.000000000000000 ) ;
#769 = DIRECTION ( 'NONE',  ( 0.000000000000000000, 1.000000000000000000, 0.000000000000000000 ) ) ;
#770 = CARTESIAN_POINT ( 'NONE',  ( 0.000000000000000000, 12.00000000000000000, 0.000000000000000000 ) ) ;
#771 = PRESENTATION_LAYER_ASSIGNMENT (  '', '', ( #29 ) ) ;
#772 = STYLED_ITEM ( 'NONE', ( #89 ), #625 ) ;
#773 = ORIENTED_EDGE ( 'NONE', *, *, #502, .T. ) ;
#774 =( GEOMETRIC_REPRESENTATION_CONTEXT ( 3 ) GLOBAL_UNCERTAINTY_ASSIGNED_CONTEXT ( ( #564 ) ) GLOBAL_UNIT_ASSIGNED_CONTEXT ( ( #35, #387, #303 ) ) REPRESENTATION_CONTEXT ( 'NONE', 'WORKASPACE' ) );
#775 = EDGE_CURVE ( 'NONE', #567, #49, #84, .T. ) ;
#776 = DIRECTION ( 'NONE',  ( 0.000000000000000000, 0.000000000000000000, -1.000000000000000000 ) ) ;
#777 = PRESENTATION_STYLE_ASSIGNMENT (( #203 ) ) ;
#778 = DIRECTION ( 'NONE',  ( 0.000000000000000000, 0.000000000000000000, -1.000000000000000000 ) ) ;
#779 = CARTESIAN_POINT ( 'NONE',  ( 0.000000000000000000, 11.50000000000000000, 0.000000000000000000 ) ) ;
#780 = SURFACE_STYLE_FILL_AREA ( #10 ) ;
#781 = EDGE_LOOP ( 'NONE', ( #541, #287, #498, #372 ) ) ;
#782 = DIRECTION ( 'NONE',  ( -0.000000000000000000, -1.000000000000000000, -0.000000000000000000 ) ) ;
#783 = PRESENTATION_LAYER_ASSIGNMENT (  '', '', ( #812 ) ) ;
#784 = DIRECTION ( 'NONE',  ( 1.224646799147351482E-16, 0.000000000000000000, -1.000000000000000000 ) ) ;
#785 = PRESENTATION_LAYER_ASSIGNMENT (  '', '', ( #629 ) ) ;
#786 = ORIENTED_EDGE ( 'NONE', *, *, #22, .F. ) ;
#787 = VECTOR ( 'NONE', #822, 1000.000000000000000 ) ;
#788 = MECHANICAL_DESIGN_GEOMETRIC_PRESENTATION_REPRESENTATION (  '', ( #772 ), #293 ) ;
#789 =( NAMED_UNIT ( * ) PLANE_ANGLE_UNIT ( ) SI_UNIT ( $, .RADIAN. ) );
#790 = CARTESIAN_POINT ( 'NONE',  ( 0.000000000000000000, 2.066987298107715088, 4.750000000000088818 ) ) ;
#791 = VERTEX_POINT ( 'NONE', #823 ) ;
#792 = CYLINDRICAL_SURFACE ( 'NONE', #479, 5.000000000000000000 ) ;
#793 = CARTESIAN_POINT ( 'NONE',  ( 3.673940397442058882E-17, -20.00000000000000000, 2.200000000000000178 ) ) ;
#794 = UNCERTAINTY_MEASURE_WITH_UNIT (LENGTH_MEASURE( 1.000000000000000082E-05 ), #762, 'distance_accuracy_value', 'NONE');
#795 = EDGE_CURVE ( 'NONE', #460, #424, #59, .T. ) ;
#796 = VERTEX_POINT ( 'NONE', #459 ) ;
#797 = CARTESIAN_POINT ( 'NONE',  ( 0.000000000000000000, -15.00000000000000000, -2.500000000000000000 ) ) ;
#798 = CARTESIAN_POINT ( 'NONE',  ( 0.000000000000000000, -15.00000000000000000, -2.500000000000000000 ) ) ;
#799 = STYLED_ITEM ( 'NONE', ( #568 ), #222 ) ;
#800 = EDGE_CURVE ( 'NONE', #691, #134, #760, .T. ) ;
#801 = STYLED_ITEM ( 'NONE', ( #591 ), #406 ) ;
#802 = EDGE_CURVE ( 'NONE', #460, #272, #912, .T. ) ;
#803 = UNCERTAINTY_MEASURE_WITH_UNIT (LENGTH_MEASURE( 1.000000000000000082E-05 ), #386, 'distance_accuracy_value', 'NONE');
#804 = SURFACE_SIDE_STYLE ('',( #508 ) ) ;
#805 = CARTESIAN_POINT ( 'NONE',  ( 5.817072295950035894E-16, 2.933012701892285357, -4.750000000000088818 ) ) ;
#806 = SURFACE_SIDE_STYLE ('',( #885 ) ) ;
#807 = FACE_OUTER_BOUND ( 'NONE', #466, .T. ) ;
#808 = DIRECTION ( 'NONE',  ( 0.000000000000000000, 0.000000000000000000, 1.000000000000000000 ) ) ;
#809 =( NAMED_UNIT ( * ) PLANE_ANGLE_UNIT ( ) SI_UNIT ( $, .RADIAN. ) );
#810 = DIRECTION ( 'NONE',  ( 0.000000000000000000, 0.000000000000000000, 1.000000000000000000 ) ) ;
#811 = ADVANCED_FACE ( 'NONE', ( #132 ), #698, .T. ) ;
#812 = STYLED_ITEM ( 'NONE', ( #777 ), #3 ) ;
#813 = SURFACE_SIDE_STYLE ('',( #886 ) ) ;
#814 = DIRECTION ( 'NONE',  ( 0.000000000000000000, 0.000000000000000000, 1.000000000000000000 ) ) ;
#815 = MECHANICAL_DESIGN_GEOMETRIC_PRESENTATION_REPRESENTATION (  '', ( #756 ), #69 ) ;
#816 = CARTESIAN_POINT ( 'NONE',  ( 0.000000000000000000, 2.933012701892285357, 0.000000000000000000 ) ) ;
#817 = CARTESIAN_POINT ( 'NONE',  ( 0.000000000000000000, 0.000000000000000000, -2.500000000000000000 ) ) ;
#818 =( NAMED_UNIT ( * ) PLANE_ANGLE_UNIT ( ) SI_UNIT ( $, .RADIAN. ) );
#819 = AXIS2_PLACEMENT_3D ( 'NONE', #177, #321, #751 ) ;
#820 = PRESENTATION_STYLE_ASSIGNMENT (( #442 ) ) ;
#821 = PLANE ( 'NONE',  #201 ) ;
#822 = DIRECTION ( 'NONE',  ( -0.000000000000000000, 1.000000000000000000, -0.000000000000000000 ) ) ;
#823 = CARTESIAN_POINT ( 'NONE',  ( 0.000000000000000000, 2.500000000000000000, 4.500000000000000000 ) ) ;
#824 = CARTESIAN_POINT ( 'NONE',  ( 0.000000000000000000, -20.00000000000000000, 2.500000000000000000 ) ) ;
#825 = EDGE_CURVE ( 'NONE', #796, #615, #295, .T. ) ;
#826 = ORIENTED_EDGE ( 'NONE', *, *, #179, .T. ) ;
#827 = FILL_AREA_STYLE_COLOUR ( '', #540 ) ;
#828 = CARTESIAN_POINT ( 'NONE',  ( 0.000000000000000000, 3.366025403784661751, 0.000000000000000000 ) ) ;
#829 = FACE_OUTER_BOUND ( 'NONE', #917, .T. ) ;
#830 = ORIENTED_EDGE ( 'NONE', *, *, #395, .T. ) ;
#831 = AXIS2_PLACEMENT_3D ( 'NONE', #770, #396, #258 ) ;
#832 = EDGE_CURVE ( 'NONE', #272, #460, #282, .T. ) ;
#833 = COLOUR_RGB ( '',0.000000000000000000, 0.000000000000000000, 1.000000000000000000 ) ;
#834 = AXIS2_PLACEMENT_3D ( 'NONE', #816, #375, #888 ) ;
#835 = CARTESIAN_POINT ( 'NONE',  ( 6.123233995736766282E-16, 3.366025403784661751, 5.000000000000000000 ) ) ;
#836 = CIRCLE ( 'NONE', #866, 0.2999999999999999334 ) ;
#837 = CARTESIAN_POINT ( 'NONE',  ( 5.663991446056555822E-16, 2.500000000000000000, -4.500000000000000000 ) ) ;
#838 = AXIS2_PLACEMENT_3D ( 'NONE', #64, #206, #280 ) ;
#839 = ORIENTED_EDGE ( 'NONE', *, *, #743, .T. ) ;
#840 = LINE ( 'NONE', #793, #768 ) ;
#841 = CARTESIAN_POINT ( 'NONE',  ( 0.000000000000000000, 12.00000000000000000, 0.000000000000000000 ) ) ;
#842 = APPLICATION_PROTOCOL_DEFINITION ( 'draft international standard', 'automotive_design', 1998, #436 ) ;
#843 = ORIENTED_EDGE ( 'NONE', *, *, #297, .F. ) ;
#844 = CARTESIAN_POINT ( 'NONE',  ( 0.000000000000000000, 0.000000000000000000, 0.000000000000000000 ) ) ;
#845 = DIRECTION ( 'NONE',  ( -0.000000000000000000, -1.000000000000000000, -0.000000000000000000 ) ) ;
#846 = ADVANCED_FACE ( 'NONE', ( #741 ), #237, .T. ) ;
#847 = ORIENTED_EDGE ( 'NONE', *, *, #651, .T. ) ;
#848 = FILL_AREA_STYLE ('',( #414 ) ) ;
#849 = SHAPE_DEFINITION_REPRESENTATION ( #144, #563 ) ;
#850 = CIRCLE ( 'NONE', #138, 5.000000000000000000 ) ;
#851 = SURFACE_SIDE_STYLE ('',( #552 ) ) ;
#852 = AXIS2_PLACEMENT_3D ( 'NONE', #914, #126, #909 ) ;
#853 = UNCERTAINTY_MEASURE_WITH_UNIT (LENGTH_MEASURE( 1.000000000000000082E-05 ), #26, 'distance_accuracy_value', 'NONE');
#854 = DIRECTION ( 'NONE',  ( -0.000000000000000000, -1.000000000000000000, -0.000000000000000000 ) ) ;
#855 = CARTESIAN_POINT ( 'NONE',  ( 0.000000000000000000, -20.00000000000000000, 2.500000000000000000 ) ) ;
#856 = ORIENTED_EDGE ( 'NONE', *, *, #474, .F. ) ;
#857 = SURFACE_SIDE_STYLE ('',( #780 ) ) ;
#858 = ORIENTED_EDGE ( 'NONE', *, *, #800, .F. ) ;
#859 =( NAMED_UNIT ( * ) PLANE_ANGLE_UNIT ( ) SI_UNIT ( $, .RADIAN. ) );
#860 = PRODUCT ( 'MAL217056331E3', 'MAL217056331E3', '', ( #545 ) ) ;
#861 =( GEOMETRIC_REPRESENTATION_CONTEXT ( 3 ) GLOBAL_UNCERTAINTY_ASSIGNED_CONTEXT ( ( #484 ) ) GLOBAL_UNIT_ASSIGNED_CONTEXT ( ( #148, #789, #425 ) ) REPRESENTATION_CONTEXT ( 'NONE', 'WORKASPACE' ) );
#862 =( NAMED_UNIT ( * ) SI_UNIT ( $, .STERADIAN. ) SOLID_ANGLE_UNIT ( ) );
#863 = AXIS2_PLACEMENT_3D ( 'NONE', #94, #666, #737 ) ;
#864 = ORIENTED_EDGE ( 'NONE', *, *, #901, .F. ) ;
#865 = COLOUR_RGB ( '',0.000000000000000000, 0.000000000000000000, 1.000000000000000000 ) ;
#866 = AXIS2_PLACEMENT_3D ( 'NONE', #855, #160, #100 ) ;
#867 = DIRECTION ( 'NONE',  ( 0.000000000000000000, 0.000000000000000000, 1.000000000000000000 ) ) ;
#868 = DIRECTION ( 'NONE',  ( 1.000000000000000000, -0.000000000000000000, 1.224646799147353207E-16 ) ) ;
#869 = ORIENTED_EDGE ( 'NONE', *, *, #800, .T. ) ;
#870 = DIRECTION ( 'NONE',  ( -0.000000000000000000, -1.000000000000000000, -0.000000000000000000 ) ) ;
#871 = DIRECTION ( 'NONE',  ( 0.000000000000000000, -0.000000000000000000, 1.000000000000000000 ) ) ;
#872 = EDGE_CURVE ( 'NONE', #272, #501, #590, .T. ) ;
#873 =( LENGTH_UNIT ( ) NAMED_UNIT ( * ) SI_UNIT ( .MILLI., .METRE. ) );
#874 = PRESENTATION_STYLE_ASSIGNMENT (( #448 ) ) ;
#875 = AXIS2_PLACEMENT_3D ( 'NONE', #759, #477, #684 ) ;
#876 = DIRECTION ( 'NONE',  ( 0.000000000000000000, 1.000000000000000000, 0.000000000000000000 ) ) ;
#877 = ORIENTED_EDGE ( 'NONE', *, *, #533, .F. ) ;
#878 = PRESENTATION_STYLE_ASSIGNMENT (( #499 ) ) ;
#879 = UNCERTAINTY_MEASURE_WITH_UNIT (LENGTH_MEASURE( 1.000000000000000082E-05 ), #252, 'distance_accuracy_value', 'NONE');
#880 = CIRCLE ( 'NONE', #707, 5.000000000000000000 ) ;
#881 = AXIS2_PLACEMENT_3D ( 'NONE', #884, #158, #377 ) ;
#882 = CARTESIAN_POINT ( 'NONE',  ( 3.673940397442059498E-17, -15.00000000000000000, -2.799999999999999822 ) ) ;
#883 = CARTESIAN_POINT ( 'NONE',  ( 0.000000000000000000, 0.5000000000000000000, 0.000000000000000000 ) ) ;
#884 = CARTESIAN_POINT ( 'NONE',  ( 0.000000000000000000, -20.00000000000000000, 2.500000000000000000 ) ) ;
#885 = SURFACE_STYLE_FILL_AREA ( #36 ) ;
#886 = SURFACE_STYLE_FILL_AREA ( #656 ) ;
#887 = CARTESIAN_POINT ( 'NONE',  ( 3.673940397442059498E-17, 0.000000000000000000, -2.799999999999999822 ) ) ;
#888 = DIRECTION ( 'NONE',  ( 0.000000000000000000, 0.000000000000000000, -1.000000000000000000 ) ) ;
#889 = SURFACE_STYLE_USAGE ( .BOTH. , #804 ) ;
#890 = STYLED_ITEM ( 'NONE', ( #820 ), #41 ) ;
#891 = CIRCLE ( 'NONE', #27, 4.500000000000000888 ) ;
#892 = DIRECTION ( 'NONE',  ( 0.000000000000000000, 1.000000000000000000, 0.000000000000000000 ) ) ;
#893 = CIRCLE ( 'NONE', #467, 0.5000000000000004441 ) ;
#894 = ADVANCED_FACE ( 'NONE', ( #91 ), #821, .T. ) ;
#895 =( NAMED_UNIT ( * ) PLANE_ANGLE_UNIT ( ) SI_UNIT ( $, .RADIAN. ) );
#896 =( NAMED_UNIT ( * ) PLANE_ANGLE_UNIT ( ) SI_UNIT ( $, .RADIAN. ) );
#897 = CARTESIAN_POINT ( 'NONE',  ( 0.000000000000000000, 1.633974596215338249, 0.000000000000000000 ) ) ;
#898 = ORIENTED_EDGE ( 'NONE', *, *, #802, .F. ) ;
#899 = DIRECTION ( 'NONE',  ( -0.000000000000000000, -1.000000000000000000, -0.000000000000000000 ) ) ;
#900 = FILL_AREA_STYLE_COLOUR ( '', #865 ) ;
#901 = EDGE_CURVE ( 'NONE', #83, #791, #391, .T. ) ;
#902 = ADVANCED_FACE ( 'NONE', ( #230 ), #510, .T. ) ;
#903 = EDGE_LOOP ( 'NONE', ( #152, #606, #700, #19 ) ) ;
#904 = SURFACE_STYLE_FILL_AREA ( #604 ) ;
#905 = SURFACE_STYLE_FILL_AREA ( #184 ) ;
#906 = DIRECTION ( 'NONE',  ( 0.000000000000000000, 0.000000000000000000, 1.000000000000000000 ) ) ;
#907 = ORIENTED_EDGE ( 'NONE', *, *, #107, .F. ) ;
#908 = DIRECTION ( 'NONE',  ( 0.000000000000000000, 0.000000000000000000, 1.000000000000000000 ) ) ;
#909 = DIRECTION ( 'NONE',  ( 0.000000000000000000, 0.000000000000000000, 1.000000000000000000 ) ) ;
#910 = TOROIDAL_SURFACE ( 'NONE', #574, 4.500000000000078160, 0.5000000000000000000 ) ;
#911 = CARTESIAN_POINT ( 'NONE',  ( 0.000000000000000000, -20.00000000000000000, 2.799999999999999822 ) ) ;
#912 = CIRCLE ( 'NONE', #692, 5.000000000000000000 ) ;
#913 = ORIENTED_EDGE ( 'NONE', *, *, #431, .T. ) ;
#914 = CARTESIAN_POINT ( 'NONE',  ( 0.000000000000000000, -20.00000000000000000, 2.500000000000000000 ) ) ;
#915 = ADVANCED_FACE ( 'NONE', ( #532 ), #381, .T. ) ;
#916 = CARTESIAN_POINT ( 'NONE',  ( 0.000000000000000000, 12.00000000000000000, -5.000000000000000000 ) ) ;
#917 = EDGE_LOOP ( 'NONE', ( #856, #786, #546, #389 ) ) ;
ENDSEC;
END-ISO-10303-21;
