ISO-10303-21;
HEADER;
FILE_DESCRIPTION (( 'STEP AP214' ),
    '1' );
FILE_NAME ('SMBJ15CA.STEP',
    '2024-06-15T11:13:28',
    ( '' ),
    ( '' ),
    'SwSTEP 2.0',
    'SolidWorks 2016',
    '' );
FILE_SCHEMA (( 'AUTOMOTIVE_DESIGN' ));
ENDSEC;

DATA;
#1 = VECTOR ( 'NONE', #204, 1000.000000000000000 ) ;
#2 = LINE ( 'NONE', #535, #743 ) ;
#3 = EDGE_CURVE ( 'NONE', #1068, #652, #165, .T. ) ;
#4 = ORIENTED_EDGE ( 'NONE', *, *, #583, .T. ) ;
#5 = ORIENTED_EDGE ( 'NONE', *, *, #8, .T. ) ;
#6 = PRESENTATION_STYLE_ASSIGNMENT (( #991 ) ) ;
#7 = DIRECTION ( 'NONE',  ( 0.0000000000000000000, 0.0000000000000000000, 1.000000000000000000 ) ) ;
#8 = EDGE_CURVE ( 'NONE', #130, #916, #1269, .T. ) ;
#9 = EDGE_LOOP ( 'NONE', ( #415, #1195, #227, #855 ) ) ;
#10 = DIRECTION ( 'NONE',  ( 0.0000000000000000000, 0.0000000000000000000, -1.000000000000000000 ) ) ;
#11 = CARTESIAN_POINT ( 'NONE',  ( 2.114444545587124100, 0.5030000000000000000, -1.747922589170176200 ) ) ;
#12 = ADVANCED_FACE ( 'NONE', ( #202 ), #593, .F. ) ;
#13 = DIRECTION ( 'NONE',  ( -0.0000000000000000000, 1.000000000000000000, 0.0000000000000000000 ) ) ;
#14 = DIRECTION ( 'NONE',  ( -1.000000000000000000, -0.0000000000000000000, -0.0000000000000000000 ) ) ;
#15 = EDGE_CURVE ( 'NONE', #992, #871, #441, .T. ) ;
#16 = DIRECTION ( 'NONE',  ( 1.024644699336566000E-015, 1.000000000000000000, 0.0000000000000000000 ) ) ;
#17 = LINE ( 'NONE', #872, #1174 ) ;
#18 = DIRECTION ( 'NONE',  ( -1.000000000000000000, 0.0000000000000000000, 0.0000000000000000000 ) ) ;
#19 = ADVANCED_FACE ( 'NONE', ( #974 ), #680, .T. ) ;
#20 = ORIENTED_EDGE ( 'NONE', *, *, #798, .F. ) ;
#21 = ORIENTED_EDGE ( 'NONE', *, *, #578, .F. ) ;
#22 = DIRECTION ( 'NONE',  ( 5.123223496682829800E-016, -1.000000000000000000, -0.0000000000000000000 ) ) ;
#23 = ORIENTED_EDGE ( 'NONE', *, *, #153, .F. ) ;
#24 = ADVANCED_FACE ( 'NONE', ( #174 ), #141, .F. ) ;
#25 = AXIS2_PLACEMENT_3D ( 'NONE', #657, #357, #1053 ) ;
#26 = CARTESIAN_POINT ( 'NONE',  ( 2.114444545587125000, 2.649999999999999900, -1.726944545587125100 ) ) ;
#27 = PLANE ( 'NONE',  #1261 ) ;
#28 = EDGE_CURVE ( 'NONE', #195, #371, #941, .T. ) ;
#29 = CARTESIAN_POINT ( 'NONE',  ( -2.114444545587125000, 2.650000000000000400, 1.726944545587124400 ) ) ;
#30 = FACE_OUTER_BOUND ( 'NONE', #9, .T. ) ;
#31 = CARTESIAN_POINT ( 'NONE',  ( 2.389999999999999700, 1.276500000000000000, 1.027500000000000300 ) ) ;
#32 = FACE_OUTER_BOUND ( 'NONE', #990, .T. ) ;
#33 = UNCERTAINTY_MEASURE_WITH_UNIT (LENGTH_MEASURE( 1.000000000000000100E-005 ), #290, 'distance_accuracy_value', 'NONE');
#34 = ORIENTED_EDGE ( 'NONE', *, *, #437, .T. ) ;
#35 = VECTOR ( 'NONE', #1257, 1000.000000000000000 ) ;
#36 = ORIENTED_EDGE ( 'NONE', *, *, #1021, .T. ) ;
#37 = CARTESIAN_POINT ( 'NONE',  ( -0.9499999999999999600, 0.2030000000000000400, -1.726944545587124800 ) ) ;
#38 = PLANE ( 'NONE',  #659 ) ;
#39 = EDGE_LOOP ( 'NONE', ( #719, #867, #1267, #178 ) ) ;
#40 = DIRECTION ( 'NONE',  ( -1.000000000000000000, 5.123223496682829800E-016, 0.0000000000000000000 ) ) ;
#41 = PRESENTATION_STYLE_ASSIGNMENT (( #1272 ) ) ;
#42 = CARTESIAN_POINT ( 'NONE',  ( 2.200000000000000600, 1.426499999999999900, 1.812500000000001100 ) ) ;
#43 = CARTESIAN_POINT ( 'NONE',  ( -2.239999999999999800, 1.706499999999999900, -1.027500000000000300 ) ) ;
#44 = CARTESIAN_POINT ( 'NONE',  ( 2.239999999999999800, 1.706499999999999900, 1.027500000000000300 ) ) ;
#45 = LINE ( 'NONE', #104, #131 ) ;
#46 = AXIS2_PLACEMENT_3D ( 'NONE', #518, #120, #834 ) ;
#47 = CIRCLE ( 'NONE', #88, 0.4299999999999998300 ) ;
#48 = DIRECTION ( 'NONE',  ( -1.000000000000000000, 0.0000000000000000000, 0.0000000000000000000 ) ) ;
#49 = ORIENTED_EDGE ( 'NONE', *, *, #1231, .F. ) ;
#50 = PLANE ( 'NONE',  #1191 ) ;
#51 = VERTEX_POINT ( 'NONE', #186 ) ;
#52 = LINE ( 'NONE', #309, #1198 ) ;
#53 = EDGE_LOOP ( 'NONE', ( #1024, #1181, #36, #832 ) ) ;
#54 = ORIENTED_EDGE ( 'NONE', *, *, #1201, .T. ) ;
#55 = DIRECTION ( 'NONE',  ( 5.123223496682829800E-016, 1.000000000000000000, -0.0000000000000000000 ) ) ;
#56 = VECTOR ( 'NONE', #1051, 1000.000000000000000 ) ;
#57 = EDGE_CURVE ( 'NONE', #491, #1150, #1211, .T. ) ;
#58 = PRODUCT_DEFINITION ( 'UNKNOWN', '', #124, #922 ) ;
#59 = VECTOR ( 'NONE', #1225, 1000.000000000000000 ) ;
#60 = DIRECTION ( 'NONE',  ( 1.000000000000000000, 0.0000000000000000000, 0.0000000000000000000 ) ) ;
#61 = CARTESIAN_POINT ( 'NONE',  ( -2.239999999999999800, 0.4299999999999999900, -1.027500000000000300 ) ) ;
#62 = FILL_AREA_STYLE ('',( #671 ) ) ;
#63 = CARTESIAN_POINT ( 'NONE',  ( -2.239999999999999800, 1.426500000000000100, 1.027500000000000300 ) ) ;
#64 = VECTOR ( 'NONE', #376, 1000.000000000000100 ) ;
#65 = LINE ( 'NONE', #26, #932 ) ;
#66 = AXIS2_PLACEMENT_3D ( 'NONE', #998, #800, #94 ) ;
#67 = EDGE_LOOP ( 'NONE', ( #384, #915, #903, #1274 ) ) ;
#68 = ORIENTED_EDGE ( 'NONE', *, *, #1173, .T. ) ;
#69 = ORIENTED_EDGE ( 'NONE', *, *, #598, .T. ) ;
#70 = DIRECTION ( 'NONE',  ( 0.0000000000000000000, -0.0000000000000000000, -1.000000000000000000 ) ) ;
#71 = EDGE_CURVE ( 'NONE', #527, #561, #407, .T. ) ;
#72 = DIRECTION ( 'NONE',  ( 1.000000000000000000, -1.024644699336566000E-015, 0.0000000000000000000 ) ) ;
#73 = CARTESIAN_POINT ( 'NONE',  ( 2.239999999999999800, 1.426500000000000100, -1.027500000000000300 ) ) ;
#74 = EDGE_CURVE ( 'NONE', #1068, #167, #1178, .T. ) ;
#75 = VECTOR ( 'NONE', #98, 1000.000000000000000 ) ;
#76 = CARTESIAN_POINT ( 'NONE',  ( 2.200000000000000200, 1.426500000000000100, -1.812500000000001800 ) ) ;
#77 = VECTOR ( 'NONE', #752, 1000.000000000000000 ) ;
#78 = EDGE_CURVE ( 'NONE', #946, #83, #911, .T. ) ;
#79 = DIRECTION ( 'NONE',  ( -1.000000000000000000, 1.452667096869481800E-016, 0.0000000000000000000 ) ) ;
#80 = ORIENTED_EDGE ( 'NONE', *, *, #257, .T. ) ;
#81 = ORIENTED_EDGE ( 'NONE', *, *, #731, .F. ) ;
#82 = AXIS2_PLACEMENT_3D ( 'NONE', #330, #837, #123 ) ;
#83 = VERTEX_POINT ( 'NONE', #1203 ) ;
#84 = CARTESIAN_POINT ( 'NONE',  ( -2.669999999999999900, 0.4299999999999999900, 1.027500000000000300 ) ) ;
#85 = ORIENTED_EDGE ( 'NONE', *, *, #1101, .F. ) ;
#86 = COLOUR_RGB ( '',0.7960784313725489700, 0.8235294117647058400, 0.9372549019607843100 ) ;
#87 = DIRECTION ( 'NONE',  ( 0.0000000000000000000, 1.000000000000000000, -0.0000000000000000000 ) ) ;
#88 = AXIS2_PLACEMENT_3D ( 'NONE', #61, #767, #163 ) ;
#89 = DIRECTION ( 'NONE',  ( -1.000000000000000000, 0.0000000000000000000, 0.0000000000000000000 ) ) ;
#90 = DIRECTION ( 'NONE',  ( 0.0000000000000000000, 0.0000000000000000000, -1.000000000000000000 ) ) ;
#91 = LINE ( 'NONE', #173, #899 ) ;
#92 = ORIENTED_EDGE ( 'NONE', *, *, #1185, .F. ) ;
#93 = ORIENTED_EDGE ( 'NONE', *, *, #1277, .T. ) ;
#94 = DIRECTION ( 'NONE',  ( -0.09224759558442799400, -0.9957361001334097400, 0.0000000000000000000 ) ) ;
#95 = VERTEX_POINT ( 'NONE', #603 ) ;
#96 = EDGE_CURVE ( 'NONE', #1071, #166, #346, .T. ) ;
#97 = ORIENTED_EDGE ( 'NONE', *, *, #955, .T. ) ;
#98 = DIRECTION ( 'NONE',  ( 0.0000000000000000000, -0.0000000000000000000, -1.000000000000000000 ) ) ;
#99 = ORIENTED_EDGE ( 'NONE', *, *, #71, .F. ) ;
#100 = DIRECTION ( 'NONE',  ( -1.000000000000000000, 0.0000000000000000000, -0.0000000000000000000 ) ) ;
#101 = CARTESIAN_POINT ( 'NONE',  ( -2.669999999999999000, 1.276500000000000000, 1.027500000000000300 ) ) ;
#102 = CARTESIAN_POINT ( 'NONE',  ( 2.669999999999999900, 0.4300000000000002200, 1.027500000000000300 ) ) ;
#103 = CARTESIAN_POINT ( 'NONE',  ( 1.495000000000000300, 0.0000000000000000000, -1.027500000000000300 ) ) ;
#104 = CARTESIAN_POINT ( 'NONE',  ( -2.239999999999999800, 1.426500000000000100, 1.027500000000000300 ) ) ;
#105 = ADVANCED_FACE ( 'NONE', ( #1110 ), #587, .T. ) ;
#106 = CARTESIAN_POINT ( 'NONE',  ( 2.669999999999999900, 0.4299999999999999900, 1.027500000000000300 ) ) ;
#107 = VECTOR ( 'NONE', #997, 1000.000000000000000 ) ;
#108 = LINE ( 'NONE', #642, #203 ) ;
#109 = CARTESIAN_POINT ( 'NONE',  ( 2.114444545587124100, 0.5030000000000000000, 1.747922589170175500 ) ) ;
#110 = VERTEX_POINT ( 'NONE', #297 ) ;
#111 = ORIENTED_EDGE ( 'NONE', *, *, #830, .T. ) ;
#112 = FACE_OUTER_BOUND ( 'NONE', #1052, .T. ) ;
#113 = VECTOR ( 'NONE', #1182, 1000.000000000000000 ) ;
#114 = CARTESIAN_POINT ( 'NONE',  ( -2.114444545587124600, 0.5030000000000000000, 1.747922589170175500 ) ) ;
#115 = ORIENTED_EDGE ( 'NONE', *, *, #477, .T. ) ;
#116 = ADVANCED_FACE ( 'NONE', ( #852 ), #496, .F. ) ;
#117 = AXIS2_PLACEMENT_3D ( 'NONE', #1035, #436, #1137 ) ;
#118 = PLANE ( 'NONE',  #1224 ) ;
#119 = CARTESIAN_POINT ( 'NONE',  ( 2.239999999999999800, 0.2799999999999998600, 1.027500000000000300 ) ) ;
#120 = DIRECTION ( 'NONE',  ( 0.0000000000000000000, -0.06975647374411839100, -0.9975640502598247500 ) ) ;
#121 = ADVANCED_FACE ( 'NONE', ( #618 ), #1078, .F. ) ;
#122 = EDGE_CURVE ( 'NONE', #434, #1117, #313, .T. ) ;
#123 = DIRECTION ( 'NONE',  ( -0.09224759558442799400, 0.9957361001334097400, 0.0000000000000000000 ) ) ;
#124 = PRODUCT_DEFINITION_FORMATION_WITH_SPECIFIED_SOURCE ( 'ANY', '', #585, .NOT_KNOWN. ) ;
#125 = DIRECTION ( 'NONE',  ( 0.0000000000000000000, 0.0000000000000000000, -1.000000000000000000 ) ) ;
#126 = VECTOR ( 'NONE', #1042, 1000.000000000000100 ) ;
#127 = FACE_OUTER_BOUND ( 'NONE', #144, .T. ) ;
#128 = EDGE_CURVE ( 'NONE', #386, #271, #1146, .T. ) ;
#129 = ORIENTED_EDGE ( 'NONE', *, *, #1021, .F. ) ;
#130 = VERTEX_POINT ( 'NONE', #1210 ) ;
#131 = VECTOR ( 'NONE', #410, 1000.000000000000000 ) ;
#132 = DIRECTION ( 'NONE',  ( 0.0000000000000000000, 0.0000000000000000000, -1.000000000000000000 ) ) ;
#133 = VERTEX_POINT ( 'NONE', #508 ) ;
#134 = ORIENTED_EDGE ( 'NONE', *, *, #1087, .F. ) ;
#135 = CARTESIAN_POINT ( 'NONE',  ( 2.200000000000001500, 1.426499999999999900, 1.027500000000000300 ) ) ;
#136 = CARTESIAN_POINT ( 'NONE',  ( 2.180420492655819900, 1.706499999999999900, 1.027500000000000300 ) ) ;
#137 = DIRECTION ( 'NONE',  ( -1.000000000000000000, 0.0000000000000000000, -0.0000000000000000000 ) ) ;
#138 = DIRECTION ( 'NONE',  ( 0.0000000000000000000, -0.0000000000000000000, 1.000000000000000000 ) ) ;
#139 = EDGE_CURVE ( 'NONE', #992, #749, #823, .T. ) ;
#140 = PLANE ( 'NONE',  #851 ) ;
#141 = CYLINDRICAL_SURFACE ( 'NONE', #615, 0.1499999999999999700 ) ;
#142 = DIRECTION ( 'NONE',  ( 0.0000000000000000000, 0.0000000000000000000, -1.000000000000000000 ) ) ;
#143 = SURFACE_STYLE_FILL_AREA ( #663 ) ;
#144 = EDGE_LOOP ( 'NONE', ( #93, #150, #859, #1057 ) ) ;
#145 = VERTEX_POINT ( 'NONE', #1103 ) ;
#146 = CIRCLE ( 'NONE', #810, 0.4299999999999998300 ) ;
#147 = VERTEX_POINT ( 'NONE', #11 ) ;
#148 = DIRECTION ( 'NONE',  ( 1.000000000000000000, -1.455304929510743900E-016, 0.0000000000000000000 ) ) ;
#149 = DIRECTION ( 'NONE',  ( 0.06958737431665777700, -0.9951458157835095800, -0.06958737431665670800 ) ) ;
#150 = ORIENTED_EDGE ( 'NONE', *, *, #644, .F. ) ;
#151 = EDGE_CURVE ( 'NONE', #430, #337, #45, .T. ) ;
#152 = AXIS2_PLACEMENT_3D ( 'NONE', #522, #422, #923 ) ;
#153 = EDGE_CURVE ( 'NONE', #608, #989, #52, .T. ) ;
#154 = CARTESIAN_POINT ( 'NONE',  ( -2.239999999999999800, 1.276500000000000000, -1.027500000000000300 ) ) ;
#155 = DIRECTION ( 'NONE',  ( 0.0000000000000000000, -0.0000000000000000000, 1.000000000000000000 ) ) ;
#156 = LINE ( 'NONE', #516, #1292 ) ;
#157 = DIRECTION ( 'NONE',  ( -5.123223496682829800E-016, -1.000000000000000000, 0.0000000000000000000 ) ) ;
#158 = CARTESIAN_POINT ( 'NONE',  ( 2.239999999999999800, 1.706499999999999900, 1.027500000000000300 ) ) ;
#159 = APPLICATION_PROTOCOL_DEFINITION ( 'draft international standard', 'automotive_design', 1998, #862 ) ;
#160 = AXIS2_PLACEMENT_3D ( 'NONE', #761, #359, #1060 ) ;
#161 = CARTESIAN_POINT ( 'NONE',  ( -2.200000000000001100, 1.426499999999999900, -1.027500000000000700 ) ) ;
#162 = VERTEX_POINT ( 'NONE', #1219 ) ;
#163 = DIRECTION ( 'NONE',  ( -1.000000000000000000, 0.0000000000000000000, 0.0000000000000000000 ) ) ;
#164 = ORIENTED_EDGE ( 'NONE', *, *, #128, .T. ) ;
#165 = LINE ( 'NONE', #879, #470 ) ;
#166 = VERTEX_POINT ( 'NONE', #617 ) ;
#167 = VERTEX_POINT ( 'NONE', #722 ) ;
#168 = DIRECTION ( 'NONE',  ( -0.0000000000000000000, -0.0000000000000000000, -1.000000000000000000 ) ) ;
#169 = EDGE_CURVE ( 'NONE', #672, #1220, #320, .T. ) ;
#170 = CARTESIAN_POINT ( 'NONE',  ( -2.239999999999999800, 0.2799999999999998600, -1.027500000000000300 ) ) ;
#171 = PLANE ( 'NONE',  #770 ) ;
#172 = VECTOR ( 'NONE', #16, 1000.000000000000000 ) ;
#173 = CARTESIAN_POINT ( 'NONE',  ( -2.200000000000001500, 1.426500000000000100, 1.812500000000000000 ) ) ;
#174 = FACE_OUTER_BOUND ( 'NONE', #243, .T. ) ;
#175 = FACE_OUTER_BOUND ( 'NONE', #1009, .T. ) ;
#176 = AXIS2_PLACEMENT_3D ( 'NONE', #613, #809, #1061 ) ;
#177 = ORIENTED_EDGE ( 'NONE', *, *, #830, .F. ) ;
#178 = ORIENTED_EDGE ( 'NONE', *, *, #764, .F. ) ;
#179 = DIRECTION ( 'NONE',  ( -1.000000000000000000, 0.0000000000000000000, 0.0000000000000000000 ) ) ;
#180 = CARTESIAN_POINT ( 'NONE',  ( 2.669999999999999900, 0.4299999999999999900, -1.027500000000000300 ) ) ;
#181 = ORIENTED_EDGE ( 'NONE', *, *, #731, .T. ) ;
#182 = CARTESIAN_POINT ( 'NONE',  ( -2.200000000000000200, 0.5029999999999998900, 1.747922589170176200 ) ) ;
#183 = PRODUCT_DEFINITION_SHAPE ( 'NONE', 'NONE',  #58 ) ;
#184 = AXIS2_PLACEMENT_3D ( 'NONE', #326, #426, #1124 ) ;
#185 = CARTESIAN_POINT ( 'NONE',  ( -2.200000000000000600, 1.426499999999999900, 1.812500000000001100 ) ) ;
#186 = CARTESIAN_POINT ( 'NONE',  ( 1.495000000000000600, 0.2799999999999999700, -1.027500000000000300 ) ) ;
#187 =( NAMED_UNIT ( * ) SI_UNIT ( $, .STERADIAN. ) SOLID_ANGLE_UNIT ( ) );
#188 = VECTOR ( 'NONE', #100, 1000.000000000000000 ) ;
#189 = EDGE_CURVE ( 'NONE', #652, #299, #194, .T. ) ;
#190 = ORIENTED_EDGE ( 'NONE', *, *, #233, .F. ) ;
#191 = VERTEX_POINT ( 'NONE', #821 ) ;
#192 = LINE ( 'NONE', #1244, #1025 ) ;
#193 = PRODUCT_RELATED_PRODUCT_CATEGORY ( 'part', '', ( #585 ) ) ;
#194 = CIRCLE ( 'NONE', #1014, 0.1499999999999999700 ) ;
#195 = VERTEX_POINT ( 'NONE', #109 ) ;
#196 = CARTESIAN_POINT ( 'NONE',  ( -1.495000000000000300, 0.2799999999999999700, 1.027500000000000300 ) ) ;
#197 = ORIENTED_EDGE ( 'NONE', *, *, #437, .F. ) ;
#198 = PLANE ( 'NONE',  #199 ) ;
#199 = AXIS2_PLACEMENT_3D ( 'NONE', #1001, #1200, #494 ) ;
#200 = CARTESIAN_POINT ( 'NONE',  ( 2.239999999999999800, 0.4299999999999999900, 1.027500000000000300 ) ) ;
#201 = CARTESIAN_POINT ( 'NONE',  ( -2.200000000000000200, 1.426500000000000100, 1.812500000000000000 ) ) ;
#202 = FACE_OUTER_BOUND ( 'NONE', #397, .T. ) ;
#203 = VECTOR ( 'NONE', #737, 1000.000000000000000 ) ;
#204 = DIRECTION ( 'NONE',  ( -1.000000000000000000, 1.455304929510743900E-016, -0.0000000000000000000 ) ) ;
#205 = VERTEX_POINT ( 'NONE', #917 ) ;
#206 = EDGE_CURVE ( 'NONE', #251, #918, #282, .T. ) ;
#207 = ORIENTED_EDGE ( 'NONE', *, *, #601, .F. ) ;
#208 = DIRECTION ( 'NONE',  ( 0.0000000000000000000, 0.0000000000000000000, -1.000000000000000000 ) ) ;
#209 = ORIENTED_EDGE ( 'NONE', *, *, #15, .T. ) ;
#210 = ORIENTED_EDGE ( 'NONE', *, *, #689, .T. ) ;
#211 = DIRECTION ( 'NONE',  ( 0.0000000000000000000, 0.0000000000000000000, -1.000000000000000000 ) ) ;
#212 = PLANE ( 'NONE',  #423 ) ;
#213 = ADVANCED_FACE ( 'NONE', ( #32 ), #118, .F. ) ;
#214 = DIRECTION ( 'NONE',  ( 3.605203701617137900E-016, -0.9975640502598249700, 0.06975647374411493600 ) ) ;
#215 = EDGE_CURVE ( 'NONE', #299, #491, #1037, .T. ) ;
#216 = AXIS2_PLACEMENT_3D ( 'NONE', #1029, #1232, #530 ) ;
#217 = DIRECTION ( 'NONE',  ( 0.0000000000000000000, -0.0000000000000000000, -1.000000000000000000 ) ) ;
#218 = ADVANCED_FACE ( 'NONE', ( #238 ), #1230, .F. ) ;
#219 = LINE ( 'NONE', #1213, #1036 ) ;
#220 = PLANE ( 'NONE',  #184 ) ;
#221 = VERTEX_POINT ( 'NONE', #1121 ) ;
#222 = EDGE_LOOP ( 'NONE', ( #224, #1180, #275, #459 ) ) ;
#223 = CIRCLE ( 'NONE', #263, 0.1499999999999999700 ) ;
#224 = ORIENTED_EDGE ( 'NONE', *, *, #390, .T. ) ;
#225 = VECTOR ( 'NONE', #435, 1000.000000000000000 ) ;
#226 = STYLED_ITEM ( 'NONE', ( #556 ), #497 ) ;
#227 = ORIENTED_EDGE ( 'NONE', *, *, #695, .F. ) ;
#228 = CARTESIAN_POINT ( 'NONE',  ( 2.180420492655819900, 1.706499999999999900, 1.027500000000000300 ) ) ;
#229 = ORIENTED_EDGE ( 'NONE', *, *, #1259, .T. ) ;
#230 = ADVANCED_FACE ( 'NONE', ( #1282 ), #220, .F. ) ;
#231 = LINE ( 'NONE', #182, #495 ) ;
#232 = DIRECTION ( 'NONE',  ( -3.605203701617137900E-016, -0.9975640502598249700, -0.06975647374411493600 ) ) ;
#233 = EDGE_CURVE ( 'NONE', #166, #1253, #65, .T. ) ;
#234 = ADVANCED_FACE ( 'NONE', ( #1004 ), #777, .T. ) ;
#235 = CARTESIAN_POINT ( 'NONE',  ( 2.200000000000000600, 1.426499999999999900, -1.812500000000001300 ) ) ;
#236 = LINE ( 'NONE', #400, #698 ) ;
#237 = CIRCLE ( 'NONE', #484, 0.1499999999999999700 ) ;
#238 = FACE_OUTER_BOUND ( 'NONE', #53, .T. ) ;
#239 = VERTEX_POINT ( 'NONE', #228 ) ;
#240 = DIRECTION ( 'NONE',  ( -0.06975647374412008400, -0.9975640502598246400, 0.0000000000000000000 ) ) ;
#241 = CLOSED_SHELL ( 'NONE', ( #635, #921, #633, #329, #105, #836, #724, #311, #335, #421, #519, #121, #912, #460 ) ) ;
#242 = CARTESIAN_POINT ( 'NONE',  ( 2.239999999999999800, 0.4299999999999999900, 1.027500000000000300 ) ) ;
#243 = EDGE_LOOP ( 'NONE', ( #831, #428, #209, #81 ) ) ;
#244 = AXIS2_PLACEMENT_3D ( 'NONE', #565, #1157, #454 ) ;
#245 = LINE ( 'NONE', #103, #1139 ) ;
#246 = CARTESIAN_POINT ( 'NONE',  ( -2.239999999999999800, 1.706499999999999900, 1.027500000000000300 ) ) ;
#247 = AXIS2_PLACEMENT_3D ( 'NONE', #734, #132, #839 ) ;
#248 = CARTESIAN_POINT ( 'NONE',  ( 1.495000000000000300, 0.2799999999999999700, -1.027500000000000300 ) ) ;
#249 = LINE ( 'NONE', #180, #294 ) ;
#250 = EDGE_LOOP ( 'NONE', ( #639, #1297, #762, #413 ) ) ;
#251 = VERTEX_POINT ( 'NONE', #929 ) ;
#252 = LINE ( 'NONE', #345, #1251 ) ;
#253 = ORIENTED_EDGE ( 'NONE', *, *, #370, .T. ) ;
#254 = DIRECTION ( 'NONE',  ( 0.0000000000000000000, 0.0000000000000000000, -1.000000000000000000 ) ) ;
#255 = PLANE ( 'NONE',  #160 ) ;
#256 = PRODUCT_CONTEXT ( 'NONE', #768, 'mechanical' ) ;
#257 = EDGE_CURVE ( 'NONE', #916, #594, #336, .T. ) ;
#258 = PLANE ( 'NONE',  #378 ) ;
#259 = CIRCLE ( 'NONE', #308, 0.4299999999999998300 ) ;
#260 = CARTESIAN_POINT ( 'NONE',  ( 2.389999999999999700, 0.4300000000000000500, 1.027500000000000300 ) ) ;
#261 = CARTESIAN_POINT ( 'NONE',  ( -2.180420492655819900, 1.706499999999999900, 1.027500000000000300 ) ) ;
#262 = DIRECTION ( 'NONE',  ( -0.0000000000000000000, 0.0000000000000000000, -1.000000000000000000 ) ) ;
#263 = AXIS2_PLACEMENT_3D ( 'NONE', #597, #1193, #492 ) ;
#264 = UNCERTAINTY_MEASURE_WITH_UNIT (LENGTH_MEASURE( 1.000000000000000100E-005 ), #1163, 'distance_accuracy_value', 'NONE');
#265 = CYLINDRICAL_SURFACE ( 'NONE', #1167, 0.4299999999999998300 ) ;
#266 = VECTOR ( 'NONE', #1129, 1000.000000000000000 ) ;
#267 = DIRECTION ( 'NONE',  ( 1.000000000000000000, -1.455304929510743900E-016, 0.0000000000000000000 ) ) ;
#268 = ORIENTED_EDGE ( 'NONE', *, *, #933, .F. ) ;
#269 = EDGE_CURVE ( 'NONE', #641, #890, #574, .T. ) ;
#270 = CARTESIAN_POINT ( 'NONE',  ( 1.495000000000000300, 0.2799999999999999700, 1.027500000000000300 ) ) ;
#271 = VERTEX_POINT ( 'NONE', #331 ) ;
#272 = VECTOR ( 'NONE', #833, 1000.000000000000000 ) ;
#273 = SURFACE_STYLE_FILL_AREA ( #1089 ) ;
#274 = CARTESIAN_POINT ( 'NONE',  ( 1.495000000000000600, 0.2799999999999999700, 1.027500000000000300 ) ) ;
#275 = ORIENTED_EDGE ( 'NONE', *, *, #1046, .F. ) ;
#276 = DIRECTION ( 'NONE',  ( -0.06958737431665777700, 0.9951458157835096900, -0.06958737431665654200 ) ) ;
#277 = DIRECTION ( 'NONE',  ( -1.000000000000000000, 0.0000000000000000000, 0.0000000000000000000 ) ) ;
#278 = VECTOR ( 'NONE', #452, 1000.000000000000000 ) ;
#279 = FACE_OUTER_BOUND ( 'NONE', #592, .T. ) ;
#280 = CARTESIAN_POINT ( 'NONE',  ( 2.239999999999999800, 1.426500000000000100, -1.027500000000000300 ) ) ;
#281 = EDGE_CURVE ( 'NONE', #271, #1117, #1067, .T. ) ;
#282 = LINE ( 'NONE', #826, #537 ) ;
#283 = ORIENTED_EDGE ( 'NONE', *, *, #689, .F. ) ;
#284 = ORIENTED_EDGE ( 'NONE', *, *, #953, .T. ) ;
#285 = DIRECTION ( 'NONE',  ( 0.0000000000000000000, 0.0000000000000000000, -1.000000000000000000 ) ) ;
#286 = EDGE_CURVE ( 'NONE', #162, #491, #1092, .T. ) ;
#287 = ORIENTED_EDGE ( 'NONE', *, *, #28, .F. ) ;
#288 = DIRECTION ( 'NONE',  ( 1.000000000000000000, 1.455304929510743900E-016, 0.0000000000000000000 ) ) ;
#289 = ORIENTED_EDGE ( 'NONE', *, *, #776, .F. ) ;
#290 =( LENGTH_UNIT ( ) NAMED_UNIT ( * ) SI_UNIT ( .MILLI., .METRE. ) );
#291 = PRESENTATION_LAYER_ASSIGNMENT (  '', '', ( #226 ) ) ;
#292 = PLANE ( 'NONE',  #339 ) ;
#293 = DIRECTION ( 'NONE',  ( 1.000000000000000000, -1.452667096869481800E-016, -0.0000000000000000000 ) ) ;
#294 = VECTOR ( 'NONE', #479, 1000.000000000000000 ) ;
#295 = EDGE_CURVE ( 'NONE', #221, #1273, #2, .T. ) ;
#296 = FACE_OUTER_BOUND ( 'NONE', #39, .T. ) ;
#297 = CARTESIAN_POINT ( 'NONE',  ( -2.200000000000000600, 1.426499999999999900, -1.812500000000001600 ) ) ;
#298 = VERTEX_POINT ( 'NONE', #1245 ) ;
#299 = VERTEX_POINT ( 'NONE', #31 ) ;
#300 = CARTESIAN_POINT ( 'NONE',  ( 2.180420492655819900, 1.706499999999999900, -1.027500000000001000 ) ) ;
#301 = EDGE_CURVE ( 'NONE', #1253, #145, #108, .T. ) ;
#302 = ORIENTED_EDGE ( 'NONE', *, *, #865, .F. ) ;
#303 = DIRECTION ( 'NONE',  ( 3.614007241618350200E-016, -1.000000000000000000, 0.0000000000000000000 ) ) ;
#304 = CARTESIAN_POINT ( 'NONE',  ( -2.239999999999999800, 1.706499999999999900, 1.027500000000000300 ) ) ;
#305 = FACE_OUTER_BOUND ( 'NONE', #891, .T. ) ;
#306 = CARTESIAN_POINT ( 'NONE',  ( 2.669999999999999900, 0.4300000000000002200, -1.027500000000000300 ) ) ;
#307 = DIRECTION ( 'NONE',  ( 1.000000000000000000, 1.455304929510743900E-016, 0.0000000000000000000 ) ) ;
#308 = AXIS2_PLACEMENT_3D ( 'NONE', #154, #754, #48 ) ;
#309 = CARTESIAN_POINT ( 'NONE',  ( -2.114444545587123700, 0.5029999999999998900, 1.812500000000000000 ) ) ;
#310 = CARTESIAN_POINT ( 'NONE',  ( 0.9499999999999998400, 0.5030000000000000000, -1.747922589170175100 ) ) ;
#311 = ADVANCED_FACE ( 'NONE', ( #381 ), #938, .F. ) ;
#312 = CARTESIAN_POINT ( 'NONE',  ( 2.239999999999999800, 0.4299999999999999900, 1.027500000000000300 ) ) ;
#313 = LINE ( 'NONE', #304, #379 ) ;
#314 = LINE ( 'NONE', #158, #975 ) ;
#315 = ORIENTED_EDGE ( 'NONE', *, *, #499, .F. ) ;
#316 = AXIS2_PLACEMENT_3D ( 'NONE', #1234, #125, #531 ) ;
#317 = VERTEX_POINT ( 'NONE', #235 ) ;
#318 = FACE_OUTER_BOUND ( 'NONE', #790, .T. ) ;
#319 = DIRECTION ( 'NONE',  ( -1.000000000000000000, 0.0000000000000000000, 0.0000000000000000000 ) ) ;
#320 = CIRCLE ( 'NONE', #475, 0.4299999999999998300 ) ;
#321 = CARTESIAN_POINT ( 'NONE',  ( -1.495000000000000300, 0.0000000000000000000, 1.027500000000000300 ) ) ;
#322 = EDGE_LOOP ( 'NONE', ( #967, #1149, #503, #399 ) ) ;
#323 = ADVANCED_FACE ( 'NONE', ( #296 ), #38, .F. ) ;
#324 = ORIENTED_EDGE ( 'NONE', *, *, #482, .F. ) ;
#325 = CARTESIAN_POINT ( 'NONE',  ( -2.200000000000000200, 0.2030000000000000400, 1.726944545587125300 ) ) ;
#326 = CARTESIAN_POINT ( 'NONE',  ( 2.114444545587125000, 2.649999999999999900, 1.812500000000000000 ) ) ;
#327 = CARTESIAN_POINT ( 'NONE',  ( 2.239999999999999800, 1.706499999999999900, -1.027500000000000300 ) ) ;
#328 = EDGE_CURVE ( 'NONE', #652, #784, #502, .T. ) ;
#329 = ADVANCED_FACE ( 'NONE', ( #1148 ), #442, .F. ) ;
#330 = CARTESIAN_POINT ( 'NONE',  ( -2.200000000000000200, 1.426500000000000100, 1.812500000000000000 ) ) ;
#331 = CARTESIAN_POINT ( 'NONE',  ( -2.669999999999999000, 1.276500000000000200, 1.027500000000000300 ) ) ;
#332 = CARTESIAN_POINT ( 'NONE',  ( 2.180420492655819900, 1.706499999999999900, 1.027500000000000300 ) ) ;
#333 = LINE ( 'NONE', #782, #64 ) ;
#334 = DIRECTION ( 'NONE',  ( -0.0000000000000000000, -0.0000000000000000000, 1.000000000000000000 ) ) ;
#335 = ADVANCED_FACE ( 'NONE', ( #884 ), #1248, .F. ) ;
#336 = LINE ( 'NONE', #838, #266 ) ;
#337 = VERTEX_POINT ( 'NONE', #1254 ) ;
#338 = CLOSED_SHELL ( 'NONE', ( #621, #230, #511, #1111, #218, #723, #116, #1122, #427, #323, #1221, #1125, #1235, #1227 ) ) ;
#339 = AXIS2_PLACEMENT_3D ( 'NONE', #396, #599, #898 ) ;
#340 = CARTESIAN_POINT ( 'NONE',  ( -2.114444545587125000, 2.649999999999999900, -1.726944545587123700 ) ) ;
#341 = DIRECTION ( 'NONE',  ( -0.0000000000000000000, 0.0000000000000000000, -1.000000000000000000 ) ) ;
#342 = ORIENTED_EDGE ( 'NONE', *, *, #1156, .F. ) ;
#343 = AXIS2_PLACEMENT_3D ( 'NONE', #705, #90, #799 ) ;
#344 = DIRECTION ( 'NONE',  ( 0.0000000000000000000, -1.000000000000000000, -0.0000000000000000000 ) ) ;
#345 = CARTESIAN_POINT ( 'NONE',  ( -2.180420492655819900, 1.706499999999999900, 1.027500000000000300 ) ) ;
#346 = LINE ( 'NONE', #1196, #75 ) ;
#347 = LINE ( 'NONE', #651, #1114 ) ;
#348 =( NAMED_UNIT ( * ) PLANE_ANGLE_UNIT ( ) SI_UNIT ( $, .RADIAN. ) );
#349 = ORIENTED_EDGE ( 'NONE', *, *, #1298, .F. ) ;
#350 = DIRECTION ( 'NONE',  ( 0.0000000000000000000, -1.000000000000000000, 0.0000000000000000000 ) ) ;
#351 = ORIENTED_EDGE ( 'NONE', *, *, #78, .F. ) ;
#352 = LINE ( 'NONE', #332, #914 ) ;
#353 = ORIENTED_EDGE ( 'NONE', *, *, #999, .T. ) ;
#354 = EDGE_CURVE ( 'NONE', #594, #434, #252, .T. ) ;
#355 = ORIENTED_EDGE ( 'NONE', *, *, #546, .F. ) ;
#356 = ORIENTED_EDGE ( 'NONE', *, *, #1109, .T. ) ;
#357 = DIRECTION ( 'NONE',  ( 0.0000000000000000000, 0.06975647374411866900, -0.9975640502598247500 ) ) ;
#358 = VECTOR ( 'NONE', #688, 1000.000000000000000 ) ;
#359 = DIRECTION ( 'NONE',  ( 1.000000000000000000, 5.123223496682829800E-016, -0.0000000000000000000 ) ) ;
#360 = DIRECTION ( 'NONE',  ( 0.0000000000000000000, 0.0000000000000000000, 1.000000000000000000 ) ) ;
#361 = MECHANICAL_DESIGN_GEOMETRIC_PRESENTATION_REPRESENTATION (  '', ( #226 ), #429 ) ;
#362 = PLANE ( 'NONE',  #244 ) ;
#363 = CARTESIAN_POINT ( 'NONE',  ( -1.495000000000000300, 0.0000000000000000000, 1.027500000000000300 ) ) ;
#364 =( NAMED_UNIT ( * ) SI_UNIT ( $, .STERADIAN. ) SOLID_ANGLE_UNIT ( ) );
#365 = LINE ( 'NONE', #976, #789 ) ;
#366 = EDGE_LOOP ( 'NONE', ( #181, #1041, #1166, #1202, #115, #760, #97, #717, #5, #1237, #873, #577 ) ) ;
#367 = ORIENTED_EDGE ( 'NONE', *, *, #601, .T. ) ;
#368 = ORIENTED_EDGE ( 'NONE', *, *, #328, .T. ) ;
#369 = DIRECTION ( 'NONE',  ( 0.0000000000000000000, -0.9975640502598247500, -0.06975647374411839100 ) ) ;
#370 = EDGE_CURVE ( 'NONE', #672, #251, #619, .T. ) ;
#371 = VERTEX_POINT ( 'NONE', #42 ) ;
#372 = CARTESIAN_POINT ( 'NONE',  ( -1.495000000000000300, 0.0000000000000000000, -1.027500000000000300 ) ) ;
#373 = UNCERTAINTY_MEASURE_WITH_UNIT (LENGTH_MEASURE( 1.000000000000000100E-005 ), #568, 'distance_accuracy_value', 'NONE');
#374 = LINE ( 'NONE', #417, #59 ) ;
#375 = CARTESIAN_POINT ( 'NONE',  ( 2.239999999999999800, 1.706499999999999900, 1.027500000000000300 ) ) ;
#376 = DIRECTION ( 'NONE',  ( 3.605203701617137900E-016, 0.9975640502598249700, -0.06975647374411493600 ) ) ;
#377 = CIRCLE ( 'NONE', #939, 0.1499999999999999700 ) ;
#378 = AXIS2_PLACEMENT_3D ( 'NONE', #965, #254, #860 ) ;
#379 = VECTOR ( 'NONE', #1007, 1000.000000000000000 ) ;
#380 = CARTESIAN_POINT ( 'NONE',  ( 2.239999999999999800, 1.276500000000000000, 1.027500000000000300 ) ) ;
#381 = FACE_OUTER_BOUND ( 'NONE', #1083, .T. ) ;
#382 = CARTESIAN_POINT ( 'NONE',  ( -2.239999999999999800, 1.426500000000000100, -1.027500000000000300 ) ) ;
#383 = ORIENTED_EDGE ( 'NONE', *, *, #753, .T. ) ;
#384 = ORIENTED_EDGE ( 'NONE', *, *, #679, .F. ) ;
#385 = FACE_OUTER_BOUND ( 'NONE', #602, .T. ) ;
#386 = VERTEX_POINT ( 'NONE', #1258 ) ;
#387 = DIRECTION ( 'NONE',  ( -0.0000000000000000000, -0.0000000000000000000, 1.000000000000000000 ) ) ;
#388 = CARTESIAN_POINT ( 'NONE',  ( -2.239999999999999800, 1.276500000000000000, 1.027500000000000300 ) ) ;
#389 = SURFACE_SIDE_STYLE ('',( #273 ) ) ;
#390 = EDGE_CURVE ( 'NONE', #1253, #317, #347, .T. ) ;
#391 = LINE ( 'NONE', #440, #126 ) ;
#392 = CARTESIAN_POINT ( 'NONE',  ( 2.114444545587123700, 0.5029999999999998900, 1.747922589170175100 ) ) ;
#393 = FACE_OUTER_BOUND ( 'NONE', #222, .T. ) ;
#394 = VERTEX_POINT ( 'NONE', #44 ) ;
#395 = ORIENTED_EDGE ( 'NONE', *, *, #893, .T. ) ;
#396 = CARTESIAN_POINT ( 'NONE',  ( -2.239999999999999800, 1.426500000000000100, 1.027500000000000300 ) ) ;
#397 = EDGE_LOOP ( 'NONE', ( #539, #720, #703, #49 ) ) ;
#398 = DIRECTION ( 'NONE',  ( -0.0000000000000000000, -0.0000000000000000000, -1.000000000000000000 ) ) ;
#399 = ORIENTED_EDGE ( 'NONE', *, *, #1201, .F. ) ;
#400 = CARTESIAN_POINT ( 'NONE',  ( 1.495000000000000300, 0.0000000000000000000, 1.027500000000000300 ) ) ;
#401 = PRESENTATION_STYLE_ASSIGNMENT (( #450 ) ) ;
#402 = STYLED_ITEM ( 'NONE', ( #6 ), #735 ) ;
#403 = DIRECTION ( 'NONE',  ( 0.0000000000000000000, 0.0000000000000000000, -1.000000000000000000 ) ) ;
#404 = PLANE ( 'NONE',  #66 ) ;
#405 = CARTESIAN_POINT ( 'NONE',  ( 2.389999999999999700, 1.276500000000000000, -1.027500000000000300 ) ) ;
#406 = CARTESIAN_POINT ( 'NONE',  ( 2.239999999999999800, 1.426500000000000100, 1.027500000000000300 ) ) ;
#407 = LINE ( 'NONE', #993, #647 ) ;
#408 = AXIS2_PLACEMENT_3D ( 'NONE', #467, #894, #288 ) ;
#409 = COLOUR_RGB ( '',0.7960784313725489700, 0.8235294117647058400, 0.9372549019607843100 ) ;
#410 = DIRECTION ( 'NONE',  ( 0.0000000000000000000, -0.0000000000000000000, 1.000000000000000000 ) ) ;
#411 = ADVANCED_FACE ( 'NONE', ( #175 ), #550, .F. ) ;
#412 = ORIENTED_EDGE ( 'NONE', *, *, #973, .T. ) ;
#413 = ORIENTED_EDGE ( 'NONE', *, *, #583, .F. ) ;
#414 = CIRCLE ( 'NONE', #677, 0.4299999999999998300 ) ;
#415 = ORIENTED_EDGE ( 'NONE', *, *, #206, .F. ) ;
#416 = ORIENTED_EDGE ( 'NONE', *, *, #517, .F. ) ;
#417 = CARTESIAN_POINT ( 'NONE',  ( 2.239999999999999800, 1.706499999999999900, 1.027500000000000300 ) ) ;
#418 = DIRECTION ( 'NONE',  ( -1.000000000000000000, 0.0000000000000000000, 0.0000000000000000000 ) ) ;
#419 = VECTOR ( 'NONE', #137, 1000.000000000000000 ) ;
#420 = EDGE_CURVE ( 'NONE', #1027, #543, #443, .T. ) ;
#421 = ADVANCED_FACE ( 'NONE', ( #853 ), #50, .F. ) ;
#422 = DIRECTION ( 'NONE',  ( 0.0000000000000000000, 0.0000000000000000000, -1.000000000000000000 ) ) ;
#423 = AXIS2_PLACEMENT_3D ( 'NONE', #820, #13, #616 ) ;
#424 = DIRECTION ( 'NONE',  ( -1.000000000000000000, -1.452667096869481800E-016, 0.0000000000000000000 ) ) ;
#425 = DIRECTION ( 'NONE',  ( 0.09202479035650919200, -0.9933311029372045000, -0.06946047723272220900 ) ) ;
#426 = DIRECTION ( 'NONE',  ( -0.9975640502598247500, -0.06975647374411839100, 0.0000000000000000000 ) ) ;
#427 = ADVANCED_FACE ( 'NONE', ( #1212 ), #451, .F. ) ;
#428 = ORIENTED_EDGE ( 'NONE', *, *, #139, .F. ) ;
#429 =( GEOMETRIC_REPRESENTATION_CONTEXT ( 3 ) GLOBAL_UNCERTAINTY_ASSIGNED_CONTEXT ( ( #264 ) ) GLOBAL_UNIT_ASSIGNED_CONTEXT ( ( #1163, #569, #1276 ) ) REPRESENTATION_CONTEXT ( 'NONE', 'WORKASPACE' ) );
#430 = VERTEX_POINT ( 'NONE', #858 ) ;
#431 = DIRECTION ( 'NONE',  ( 0.06975647374411839100, 0.9975640502598247500, 0.0000000000000000000 ) ) ;
#432 = VECTOR ( 'NONE', #1192, 1000.000000000000000 ) ;
#433 = ORIENTED_EDGE ( 'NONE', *, *, #1228, .F. ) ;
#434 = VERTEX_POINT ( 'NONE', #1264 ) ;
#435 = DIRECTION ( 'NONE',  ( -1.024644699336566000E-015, -1.000000000000000000, -0.0000000000000000000 ) ) ;
#436 = DIRECTION ( 'NONE',  ( 0.0000000000000000000, 0.0000000000000000000, -1.000000000000000000 ) ) ;
#437 = EDGE_CURVE ( 'NONE', #749, #205, #942, .T. ) ;
#438 = DIRECTION ( 'NONE',  ( -0.06958737431665670800, -0.9951458157835095800, -0.06958737431665777700 ) ) ;
#439 = DIRECTION ( 'NONE',  ( 0.9975640502598246400, 0.06975647374412008400, 0.0000000000000000000 ) ) ;
#440 = CARTESIAN_POINT ( 'NONE',  ( -2.114444545587125000, 2.649999999999999900, 1.726944545587125300 ) ) ;
#441 = LINE ( 'NONE', #488, #432 ) ;
#442 = PLANE ( 'NONE',  #791 ) ;
#443 = LINE ( 'NONE', #555, #77 ) ;
#444 = EDGE_LOOP ( 'NONE', ( #700, #966, #683, #576 ) ) ;
#445 = ORIENTED_EDGE ( 'NONE', *, *, #798, .T. ) ;
#446 = STYLED_ITEM ( 'NONE', ( #401 ), #969 ) ;
#447 = LINE ( 'NONE', #694, #747 ) ;
#448 = CARTESIAN_POINT ( 'NONE',  ( -2.390000000000000100, 0.4299999999999999900, 1.027500000000000300 ) ) ;
#449 = ORIENTED_EDGE ( 'NONE', *, *, #1303, .F. ) ;
#450 = SURFACE_STYLE_USAGE ( .BOTH. , #1152 ) ;
#451 = PLANE ( 'NONE',  #25 ) ;
#452 = DIRECTION ( 'NONE',  ( -0.0000000000000000000, -0.0000000000000000000, 1.000000000000000000 ) ) ;
#453 = VECTOR ( 'NONE', #813, 1000.000000000000000 ) ;
#454 = DIRECTION ( 'NONE',  ( -1.000000000000000000, 0.0000000000000000000, -0.0000000000000000000 ) ) ;
#455 = ORIENTED_EDGE ( 'NONE', *, *, #1077, .T. ) ;
#456 = ORIENTED_EDGE ( 'NONE', *, *, #764, .T. ) ;
#457 =( NAMED_UNIT ( * ) SI_UNIT ( $, .STERADIAN. ) SOLID_ANGLE_UNIT ( ) );
#458 = EDGE_CURVE ( 'NONE', #239, #394, #314, .T. ) ;
#459 = ORIENTED_EDGE ( 'NONE', *, *, #233, .T. ) ;
#460 = ADVANCED_FACE ( 'NONE', ( #588 ), #255, .F. ) ;
#461 = DIRECTION ( 'NONE',  ( 1.000000000000000000, 0.0000000000000000000, 0.0000000000000000000 ) ) ;
#462 = ORIENTED_EDGE ( 'NONE', *, *, #960, .T. ) ;
#463 = SURFACE_STYLE_USAGE ( .BOTH. , #1062 ) ;
#464 =( LENGTH_UNIT ( ) NAMED_UNIT ( * ) SI_UNIT ( .MILLI., .METRE. ) );
#465 = CARTESIAN_POINT ( 'NONE',  ( 2.239999999999999800, 2.710505431213761100E-017, -1.027500000000000300 ) ) ;
#466 = CARTESIAN_POINT ( 'NONE',  ( 1.495000000000000300, 0.2799999999999999700, 1.027500000000000300 ) ) ;
#467 = CARTESIAN_POINT ( 'NONE',  ( -1.495000000000000300, 0.2799999999999999700, 1.027500000000000300 ) ) ;
#468 = PRESENTATION_LAYER_ASSIGNMENT (  '', '', ( #402 ) ) ;
#469 = DIRECTION ( 'NONE',  ( 1.000000000000000000, 0.0000000000000000000, 0.0000000000000000000 ) ) ;
#470 = VECTOR ( 'NONE', #1171, 1000.000000000000000 ) ;
#471 = VECTOR ( 'NONE', #341, 1000.000000000000000 ) ;
#472 = ORIENTED_EDGE ( 'NONE', *, *, #286, .F. ) ;
#473 = CARTESIAN_POINT ( 'NONE',  ( -2.239999999999999800, 1.706499999999999900, 1.027500000000000300 ) ) ;
#474 = LINE ( 'NONE', #887, #811 ) ;
#475 = AXIS2_PLACEMENT_3D ( 'NONE', #312, #1016, #418 ) ;
#476 = EDGE_LOOP ( 'NONE', ( #562, #525, #129, #623 ) ) ;
#477 = EDGE_CURVE ( 'NONE', #1187, #543, #47, .T. ) ;
#478 = CARTESIAN_POINT ( 'NONE',  ( -2.389999999999999700, 0.4299999999999999900, 1.027500000000000300 ) ) ;
#479 = DIRECTION ( 'NONE',  ( 1.024644699336566000E-015, -1.000000000000000000, 0.0000000000000000000 ) ) ;
#480 = VECTOR ( 'NONE', #631, 1000.000000000000000 ) ;
#481 = DIRECTION ( 'NONE',  ( 0.0000000000000000000, 0.0000000000000000000, -1.000000000000000000 ) ) ;
#482 = EDGE_CURVE ( 'NONE', #145, #1071, #1080, .T. ) ;
#483 = VECTOR ( 'NONE', #461, 1000.000000000000000 ) ;
#484 = AXIS2_PLACEMENT_3D ( 'NONE', #714, #10, #1208 ) ;
#485 = DIRECTION ( 'NONE',  ( 0.0000000000000000000, -0.0000000000000000000, 1.000000000000000000 ) ) ;
#486 = VECTOR ( 'NONE', #211, 1000.000000000000000 ) ;
#487 = ORIENTED_EDGE ( 'NONE', *, *, #206, .T. ) ;
#488 = CARTESIAN_POINT ( 'NONE',  ( -2.239999999999999800, 0.2799999999999998600, 1.027500000000000300 ) ) ;
#489 = ORIENTED_EDGE ( 'NONE', *, *, #533, .T. ) ;
#490 = FACE_OUTER_BOUND ( 'NONE', #919, .T. ) ;
#491 = VERTEX_POINT ( 'NONE', #260 ) ;
#492 = DIRECTION ( 'NONE',  ( -1.000000000000000000, 0.0000000000000000000, 0.0000000000000000000 ) ) ;
#493 = ORIENTED_EDGE ( 'NONE', *, *, #983, .F. ) ;
#494 = DIRECTION ( 'NONE',  ( -1.000000000000000000, 1.452667096869481800E-016, 0.0000000000000000000 ) ) ;
#495 = VECTOR ( 'NONE', #970, 1000.000000000000000 ) ;
#496 = PLANE ( 'NONE',  #819 ) ;
#497 = MANIFOLD_SOLID_BREP ( 'Imported2', #808 ) ;
#498 = DIRECTION ( 'NONE',  ( 1.000000000000000000, 0.0000000000000000000, 0.0000000000000000000 ) ) ;
#499 = EDGE_CURVE ( 'NONE', #745, #298, #928, .T. ) ;
#500 = DIRECTION ( 'NONE',  ( -0.0000000000000000000, 0.06975647374411866900, 0.9975640502598247500 ) ) ;
#501 = LINE ( 'NONE', #1204, #959 ) ;
#502 = LINE ( 'NONE', #849, #471 ) ;
#503 = ORIENTED_EDGE ( 'NONE', *, *, #557, .F. ) ;
#504 = LINE ( 'NONE', #634, #272 ) ;
#505 = ORIENTED_EDGE ( 'NONE', *, *, #753, .F. ) ;
#506 = ORIENTED_EDGE ( 'NONE', *, *, #893, .F. ) ;
#507 = PLANE ( 'NONE',  #758 ) ;
#508 = CARTESIAN_POINT ( 'NONE',  ( 0.9499999999999999600, 0.2030000000000000700, -1.726944545587125300 ) ) ;
#509 = ORIENTED_EDGE ( 'NONE', *, *, #691, .T. ) ;
#510 = DIRECTION ( 'NONE',  ( -1.000000000000000000, -1.024644699336566000E-015, 0.0000000000000000000 ) ) ;
#511 = ADVANCED_FACE ( 'NONE', ( #393 ), #771, .F. ) ;
#512 = PRESENTATION_LAYER_ASSIGNMENT (  '', '', ( #446 ) ) ;
#513 = LINE ( 'NONE', #270, #278 ) ;
#514 = EDGE_CURVE ( 'NONE', #1038, #133, #1160, .T. ) ;
#515 = DIRECTION ( 'NONE',  ( 0.0000000000000000000, -1.000000000000000000, 0.0000000000000000000 ) ) ;
#516 = CARTESIAN_POINT ( 'NONE',  ( 2.200000000000001500, 1.426500000000000100, 1.812500000000000000 ) ) ;
#517 = EDGE_CURVE ( 'NONE', #221, #524, #1179, .T. ) ;
#518 = CARTESIAN_POINT ( 'NONE',  ( -2.200000000000000200, 1.426500000000000100, 1.812500000000000000 ) ) ;
#519 = ADVANCED_FACE ( 'NONE', ( #127 ), #171, .F. ) ;
#520 = FACE_OUTER_BOUND ( 'NONE', #1236, .T. ) ;
#521 = AXIS2_PLACEMENT_3D ( 'NONE', #136, #439, #1140 ) ;
#522 = CARTESIAN_POINT ( 'NONE',  ( 2.239999999999999800, 1.276500000000000000, -1.027500000000000300 ) ) ;
#523 = VECTOR ( 'NONE', #1176, 1000.000000000000000 ) ;
#524 = VERTEX_POINT ( 'NONE', #1170 ) ;
#525 = ORIENTED_EDGE ( 'NONE', *, *, #533, .F. ) ;
#526 = LINE ( 'NONE', #736, #225 ) ;
#527 = VERTEX_POINT ( 'NONE', #1072 ) ;
#528 = EDGE_LOOP ( 'NONE', ( #950, #622, #1151, #1044 ) ) ;
#529 = ADVANCED_FACE ( 'NONE', ( #866 ), #1172, .F. ) ;
#530 = DIRECTION ( 'NONE',  ( 0.0000000000000000000, -0.0000000000000000000, 1.000000000000000000 ) ) ;
#531 = DIRECTION ( 'NONE',  ( -1.000000000000000000, 0.0000000000000000000, 0.0000000000000000000 ) ) ;
#532 = COLOUR_RGB ( '',0.2509803921568627400, 0.2509803921568627400, 0.2509803921568627400 ) ;
#533 = EDGE_CURVE ( 'NONE', #780, #110, #91, .T. ) ;
#534 = PLANE ( 'NONE',  #82 ) ;
#535 = CARTESIAN_POINT ( 'NONE',  ( -0.9499999999999999600, 0.5030000000000000000, 1.747922589170175100 ) ) ;
#536 = LINE ( 'NONE', #718, #1 ) ;
#537 = VECTOR ( 'NONE', #217, 1000.000000000000000 ) ;
#538 = MECHANICAL_DESIGN_GEOMETRIC_PRESENTATION_REPRESENTATION (  '', ( #402 ), #609 ) ;
#539 = ORIENTED_EDGE ( 'NONE', *, *, #15, .F. ) ;
#540 = CARTESIAN_POINT ( 'NONE',  ( -2.239999999999999800, 0.0000000000000000000, 1.027500000000000300 ) ) ;
#541 = ORIENTED_EDGE ( 'NONE', *, *, #546, .T. ) ;
#542 = CARTESIAN_POINT ( 'NONE',  ( 2.114444545587125000, 0.5030000000000000000, 1.812500000000000000 ) ) ;
#543 = VERTEX_POINT ( 'NONE', #971 ) ;
#544 = COLOUR_RGB ( '',0.7960784313725489700, 0.8235294117647058400, 0.9372549019607843100 ) ;
#545 = EDGE_LOOP ( 'NONE', ( #190, #1296, #324, #1084 ) ) ;
#546 = EDGE_CURVE ( 'NONE', #1038, #524, #333, .T. ) ;
#547 = DIRECTION ( 'NONE',  ( -1.000000000000000000, 0.0000000000000000000, -0.0000000000000000000 ) ) ;
#548 = AXIS2_PLACEMENT_3D ( 'NONE', #388, #595, #987 ) ;
#549 = CARTESIAN_POINT ( 'NONE',  ( 1.495000000000000300, 0.2799999999999999700, 1.027500000000000300 ) ) ;
#550 = PLANE ( 'NONE',  #1058 ) ;
#551 = LINE ( 'NONE', #372, #571 ) ;
#552 = LINE ( 'NONE', #1281, #1049 ) ;
#553 = FILL_AREA_STYLE ('',( #656 ) ) ;
#554 = VECTOR ( 'NONE', #712, 1000.000000000000000 ) ;
#555 = CARTESIAN_POINT ( 'NONE',  ( -2.669999999999999900, 0.4299999999999999900, 1.027500000000000300 ) ) ;
#556 = PRESENTATION_STYLE_ASSIGNMENT (( #463 ) ) ;
#557 = EDGE_CURVE ( 'NONE', #371, #145, #1130, .T. ) ;
#558 = ORIENTED_EDGE ( 'NONE', *, *, #711, .T. ) ;
#559 = ORIENTED_EDGE ( 'NONE', *, *, #458, .F. ) ;
#560 = AXIS2_PLACEMENT_3D ( 'NONE', #1216, #721, #1012 ) ;
#561 = VERTEX_POINT ( 'NONE', #1290 ) ;
#562 = ORIENTED_EDGE ( 'NONE', *, *, #1046, .T. ) ;
#563 = DIRECTION ( 'NONE',  ( -5.123223496682829800E-016, 1.000000000000000000, 0.0000000000000000000 ) ) ;
#564 = ORIENTED_EDGE ( 'NONE', *, *, #169, .F. ) ;
#565 = CARTESIAN_POINT ( 'NONE',  ( 2.239999999999999800, 0.4299999999999999900, -1.027500000000000300 ) ) ;
#566 = SURFACE_STYLE_FILL_AREA ( #553 ) ;
#567 = CARTESIAN_POINT ( 'NONE',  ( 2.114444545587125000, 2.649999999999999900, 1.726944545587125300 ) ) ;
#568 =( LENGTH_UNIT ( ) NAMED_UNIT ( * ) SI_UNIT ( .MILLI., .METRE. ) );
#569 =( NAMED_UNIT ( * ) PLANE_ANGLE_UNIT ( ) SI_UNIT ( $, .RADIAN. ) );
#570 = CARTESIAN_POINT ( 'NONE',  ( 0.0000000000000000000, 0.0000000000000000000, 0.0000000000000000000 ) ) ;
#571 = VECTOR ( 'NONE', #1075, 1000.000000000000000 ) ;
#572 = FACE_OUTER_BOUND ( 'NONE', #727, .T. ) ;
#573 = DIRECTION ( 'NONE',  ( -1.000000000000000000, 0.0000000000000000000, 0.0000000000000000000 ) ) ;
#574 = CIRCLE ( 'NONE', #247, 0.4299999999999998300 ) ;
#575 = CARTESIAN_POINT ( 'NONE',  ( -2.200000000000000200, 0.2030000000000000400, -1.726944545587125300 ) ) ;
#576 = ORIENTED_EDGE ( 'NONE', *, *, #773, .T. ) ;
#577 = ORIENTED_EDGE ( 'NONE', *, *, #933, .T. ) ;
#578 = EDGE_CURVE ( 'NONE', #195, #561, #365, .T. ) ;
#579 = ORIENTED_EDGE ( 'NONE', *, *, #1250, .F. ) ;
#580 = CARTESIAN_POINT ( 'NONE',  ( -2.669999999999999900, 0.4299999999999999900, -1.027500000000000300 ) ) ;
#581 = ORIENTED_EDGE ( 'NONE', *, *, #122, .T. ) ;
#582 = DIRECTION ( 'NONE',  ( 0.0000000000000000000, 0.0000000000000000000, -1.000000000000000000 ) ) ;
#583 = EDGE_CURVE ( 'NONE', #784, #167, #1050, .T. ) ;
#584 = DIRECTION ( 'NONE',  ( -1.000000000000000000, 0.0000000000000000000, -0.0000000000000000000 ) ) ;
#585 = PRODUCT ( 'SMBJ15CA', 'SMBJ15CA', '', ( #256 ) ) ;
#586 = MECHANICAL_DESIGN_GEOMETRIC_PRESENTATION_REPRESENTATION (  '', ( #446 ), #648 ) ;
#587 = CYLINDRICAL_SURFACE ( 'NONE', #750, 0.4299999999999998300 ) ;
#588 = FACE_OUTER_BOUND ( 'NONE', #528, .T. ) ;
#589 = VERTEX_POINT ( 'NONE', #786 ) ;
#590 = ORIENTED_EDGE ( 'NONE', *, *, #1298, .T. ) ;
#591 = LINE ( 'NONE', #478, #113 ) ;
#592 = EDGE_LOOP ( 'NONE', ( #351, #505, #1197, #493 ) ) ;
#593 = PLANE ( 'NONE',  #408 ) ;
#594 = VERTEX_POINT ( 'NONE', #881 ) ;
#595 = DIRECTION ( 'NONE',  ( 0.0000000000000000000, 0.0000000000000000000, -1.000000000000000000 ) ) ;
#596 = SHAPE_DEFINITION_REPRESENTATION ( #183, #783 ) ;
#597 = CARTESIAN_POINT ( 'NONE',  ( -2.239999999999999800, 0.4299999999999999900, -1.027500000000000300 ) ) ;
#598 = EDGE_CURVE ( 'NONE', #918, #641, #249, .T. ) ;
#599 = DIRECTION ( 'NONE',  ( -0.0000000000000000000, 1.000000000000000000, 0.0000000000000000000 ) ) ;
#600 = VECTOR ( 'NONE', #276, 1000.000000000000100 ) ;
#601 = EDGE_CURVE ( 'NONE', #628, #133, #1091, .T. ) ;
#602 = EDGE_LOOP ( 'NONE', ( #1222, #433, #1081, #289 ) ) ;
#603 = CARTESIAN_POINT ( 'NONE',  ( -2.239999999999999800, 8.131516293641283300E-017, 1.027500000000000300 ) ) ;
#604 = ORIENTED_EDGE ( 'NONE', *, *, #999, .F. ) ;
#605 = LINE ( 'NONE', #843, #1183 ) ;
#606 = ORIENTED_EDGE ( 'NONE', *, *, #281, .T. ) ;
#607 = DIRECTION ( 'NONE',  ( -0.0000000000000000000, 0.0000000000000000000, 1.000000000000000000 ) ) ;
#608 = VERTEX_POINT ( 'NONE', #114 ) ;
#609 =( GEOMETRIC_REPRESENTATION_CONTEXT ( 3 ) GLOBAL_UNCERTAINTY_ASSIGNED_CONTEXT ( ( #33 ) ) GLOBAL_UNIT_ASSIGNED_CONTEXT ( ( #290, #897, #187 ) ) REPRESENTATION_CONTEXT ( 'NONE', 'WORKASPACE' ) );
#610 = CARTESIAN_POINT ( 'NONE',  ( 2.239999999999999800, 1.276500000000000000, 1.027500000000000300 ) ) ;
#611 = EDGE_CURVE ( 'NONE', #916, #430, #1020, .T. ) ;
#612 = CARTESIAN_POINT ( 'NONE',  ( 2.239999999999999800, 0.2799999999999998600, -1.027500000000000300 ) ) ;
#613 = CARTESIAN_POINT ( 'NONE',  ( 2.239999999999999800, 0.4299999999999999900, 1.027500000000000300 ) ) ;
#614 = PLANE ( 'NONE',  #1243 ) ;
#615 = AXIS2_PLACEMENT_3D ( 'NONE', #796, #1300, #89 ) ;
#616 = DIRECTION ( 'NONE',  ( 0.0000000000000000000, -0.0000000000000000000, 1.000000000000000000 ) ) ;
#617 = CARTESIAN_POINT ( 'NONE',  ( -2.114444545587125000, 2.650000000000000400, -1.726944545587124800 ) ) ;
#618 = FACE_OUTER_BOUND ( 'NONE', #1132, .T. ) ;
#619 = LINE ( 'NONE', #1147, #715 ) ;
#620 = DIRECTION ( 'NONE',  ( -1.000000000000000000, 0.0000000000000000000, 0.0000000000000000000 ) ) ;
#621 = ADVANCED_FACE ( 'NONE', ( #1294 ), #822, .F. ) ;
#622 = ORIENTED_EDGE ( 'NONE', *, *, #215, .F. ) ;
#623 = ORIENTED_EDGE ( 'NONE', *, *, #96, .T. ) ;
#624 = CARTESIAN_POINT ( 'NONE',  ( -2.239999999999999800, 2.710505431213761100E-017, -1.027500000000000300 ) ) ;
#625 = LINE ( 'NONE', #473, #1255 ) ;
#626 = DIRECTION ( 'NONE',  ( 0.0000000000000000000, 0.0000000000000000000, -1.000000000000000000 ) ) ;
#627 = EDGE_LOOP ( 'NONE', ( #930, #1054, #590, #412, #395, #462, #1095, #4, #210, #1239, #828, #69 ) ) ;
#628 = VERTEX_POINT ( 'NONE', #310 ) ;
#629 = EDGE_CURVE ( 'NONE', #1220, #890, #757, .T. ) ;
#630 = VECTOR ( 'NONE', #1141, 1000.000000000000000 ) ;
#631 = DIRECTION ( 'NONE',  ( -0.0000000000000000000, 0.0000000000000000000, -1.000000000000000000 ) ) ;
#632 = CARTESIAN_POINT ( 'NONE',  ( 2.390000000000000100, 0.4299999999999999900, 1.027500000000000300 ) ) ;
#633 = ADVANCED_FACE ( 'NONE', ( #572 ), #265, .T. ) ;
#634 = CARTESIAN_POINT ( 'NONE',  ( -2.200000000000000200, 1.426500000000000100, -1.812500000000000000 ) ) ;
#635 = ADVANCED_FACE ( 'NONE', ( #30 ), #614, .F. ) ;
#636 = AXIS2_PLACEMENT_3D ( 'NONE', #868, #968, #369 ) ;
#637 = DIRECTION ( 'NONE',  ( 0.09202479035650783200, -0.9933311029372045000, 0.06946047723272315300 ) ) ;
#638 = VECTOR ( 'NONE', #262, 1000.000000000000000 ) ;
#639 = ORIENTED_EDGE ( 'NONE', *, *, #328, .F. ) ;
#640 = ORIENTED_EDGE ( 'NONE', *, *, #996, .F. ) ;
#641 = VERTEX_POINT ( 'NONE', #306 ) ;
#642 = CARTESIAN_POINT ( 'NONE',  ( 2.114444545587125000, 2.649999999999999900, 1.812500000000000000 ) ) ;
#643 = ORIENTED_EDGE ( 'NONE', *, *, #269, .F. ) ;
#644 = EDGE_CURVE ( 'NONE', #1150, #844, #536, .T. ) ;
#645 = DIRECTION ( 'NONE',  ( -1.000000000000000000, 0.0000000000000000000, 0.0000000000000000000 ) ) ;
#646 = DIRECTION ( 'NONE',  ( -5.123223496682829800E-016, -1.000000000000000000, 0.0000000000000000000 ) ) ;
#647 = VECTOR ( 'NONE', #1304, 1000.000000000000100 ) ;
#648 =( GEOMETRIC_REPRESENTATION_CONTEXT ( 3 ) GLOBAL_UNCERTAINTY_ASSIGNED_CONTEXT ( ( #1098 ) ) GLOBAL_UNIT_ASSIGNED_CONTEXT ( ( #1047, #348, #951 ) ) REPRESENTATION_CONTEXT ( 'NONE', 'WORKASPACE' ) );
#649 = CARTESIAN_POINT ( 'NONE',  ( -2.114444545587124600, 0.5030000000000000000, -1.747922589170175500 ) ) ;
#650 = ORIENTED_EDGE ( 'NONE', *, *, #877, .T. ) ;
#651 = CARTESIAN_POINT ( 'NONE',  ( 2.114444545587125000, 2.649999999999999900, -1.726944545587125100 ) ) ;
#652 = VERTEX_POINT ( 'NONE', #406 ) ;
#653 = VECTOR ( 'NONE', #1291, 999.9999999999998900 ) ;
#654 = ORIENTED_EDGE ( 'NONE', *, *, #281, .F. ) ;
#655 = EDGE_LOOP ( 'NONE', ( #284, #1023, #472, #506 ) ) ;
#656 = FILL_AREA_STYLE_COLOUR ( '', #532 ) ;
#657 = CARTESIAN_POINT ( 'NONE',  ( -2.200000000000000200, 0.2030000000000000400, 1.726944545587125300 ) ) ;
#658 = FACE_OUTER_BOUND ( 'NONE', #655, .T. ) ;
#659 = AXIS2_PLACEMENT_3D ( 'NONE', #542, #742, #138 ) ;
#660 = CARTESIAN_POINT ( 'NONE',  ( -1.495000000000000600, 0.2799999999999999700, 1.027500000000000300 ) ) ;
#661 = CARTESIAN_POINT ( 'NONE',  ( 2.669999999999999000, 1.276500000000000200, -1.027500000000000300 ) ) ;
#662 = FACE_OUTER_BOUND ( 'NONE', #934, .T. ) ;
#663 = FILL_AREA_STYLE ('',( #1271 ) ) ;
#664 = SURFACE_SIDE_STYLE ('',( #1032 ) ) ;
#665 = VECTOR ( 'NONE', #168, 1000.000000000000000 ) ;
#666 = EDGE_CURVE ( 'NONE', #147, #195, #219, .T. ) ;
#667 = ORIENTED_EDGE ( 'NONE', *, *, #801, .F. ) ;
#668 = ORIENTED_EDGE ( 'NONE', *, *, #1064, .T. ) ;
#669 = ORIENTED_EDGE ( 'NONE', *, *, #354, .T. ) ;
#670 = VERTEX_POINT ( 'NONE', #612 ) ;
#671 = FILL_AREA_STYLE_COLOUR ( '', #86 ) ;
#672 = VERTEX_POINT ( 'NONE', #102 ) ;
#673 = CARTESIAN_POINT ( 'NONE',  ( 2.239999999999999800, 1.276500000000000000, -1.027500000000000300 ) ) ;
#674 = FACE_OUTER_BOUND ( 'NONE', #856, .T. ) ;
#675 = LINE ( 'NONE', #1229, #1246 ) ;
#676 = DIRECTION ( 'NONE',  ( -0.06975647374412008400, -0.9975640502598246400, 0.0000000000000000000 ) ) ;
#677 = AXIS2_PLACEMENT_3D ( 'NONE', #986, #285, #892 ) ;
#678 = LINE ( 'NONE', #766, #1128 ) ;
#679 = EDGE_CURVE ( 'NONE', #239, #779, #775, .T. ) ;
#680 = CYLINDRICAL_SURFACE ( 'NONE', #548, 0.4299999999999998300 ) ;
#681 = DIRECTION ( 'NONE',  ( 1.024644699336566000E-015, 1.000000000000000000, 0.0000000000000000000 ) ) ;
#682 = VECTOR ( 'NONE', #55, 1000.000000000000000 ) ;
#683 = ORIENTED_EDGE ( 'NONE', *, *, #477, .F. ) ;
#684 = ORIENTED_EDGE ( 'NONE', *, *, #1040, .F. ) ;
#685 = VECTOR ( 'NONE', #87, 1000.000000000000000 ) ;
#686 = EDGE_LOOP ( 'NONE', ( #606, #111, #885, #164 ) ) ;
#687 = ORIENTED_EDGE ( 'NONE', *, *, #1077, .F. ) ;
#688 = DIRECTION ( 'NONE',  ( -1.000000000000000000, -1.455304929510743900E-016, -0.0000000000000000000 ) ) ;
#689 = EDGE_CURVE ( 'NONE', #167, #779, #988, .T. ) ;
#690 = VECTOR ( 'NONE', #772, 1000.000000000000000 ) ;
#691 = EDGE_CURVE ( 'NONE', #371, #780, #1265, .T. ) ;
#692 = CARTESIAN_POINT ( 'NONE',  ( -2.180420492655819900, 1.706499999999999900, -1.027500000000001000 ) ) ;
#693 =( GEOMETRIC_REPRESENTATION_CONTEXT ( 3 ) GLOBAL_UNCERTAINTY_ASSIGNED_CONTEXT ( ( #1006 ) ) GLOBAL_UNIT_ASSIGNED_CONTEXT ( ( #464, #1063, #364 ) ) REPRESENTATION_CONTEXT ( 'NONE', 'WORKASPACE' ) );
#694 = CARTESIAN_POINT ( 'NONE',  ( -2.239999999999999800, 1.626303258728256700E-016, 1.027500000000000300 ) ) ;
#695 = EDGE_CURVE ( 'NONE', #641, #672, #725, .T. ) ;
#696 = VECTOR ( 'NONE', #850, 1000.000000000000000 ) ;
#697 = CARTESIAN_POINT ( 'NONE',  ( -1.495000000000000300, 0.2799999999999999700, 1.027500000000000300 ) ) ;
#698 = VECTOR ( 'NONE', #293, 1000.000000000000000 ) ;
#699 = ORIENTED_EDGE ( 'NONE', *, *, #257, .F. ) ;
#700 = ORIENTED_EDGE ( 'NONE', *, *, #756, .T. ) ;
#701 = FILL_AREA_STYLE_COLOUR ( '', #544 ) ;
#702 = ORIENTED_EDGE ( 'NONE', *, *, #153, .T. ) ;
#703 = ORIENTED_EDGE ( 'NONE', *, *, #78, .T. ) ;
#704 = LINE ( 'NONE', #325, #1094 ) ;
#705 = CARTESIAN_POINT ( 'NONE',  ( 2.239999999999999800, 0.4299999999999999900, 1.027500000000000300 ) ) ;
#706 = ORIENTED_EDGE ( 'NONE', *, *, #215, .T. ) ;
#707 = VECTOR ( 'NONE', #563, 1000.000000000000000 ) ;
#708 = EDGE_CURVE ( 'NONE', #628, #147, #501, .T. ) ;
#709 = DIRECTION ( 'NONE',  ( -1.000000000000000000, 0.0000000000000000000, 0.0000000000000000000 ) ) ;
#710 = CARTESIAN_POINT ( 'NONE',  ( 2.669999999999999900, 0.4299999999999999900, 1.027500000000000300 ) ) ;
#711 = EDGE_CURVE ( 'NONE', #1199, #1220, #236, .T. ) ;
#712 = DIRECTION ( 'NONE',  ( -0.0000000000000000000, 0.0000000000000000000, 1.000000000000000000 ) ) ;
#713 = VECTOR ( 'NONE', #1090, 999.9999999999998900 ) ;
#714 = CARTESIAN_POINT ( 'NONE',  ( -2.239999999999999800, 1.276500000000000000, 1.027500000000000300 ) ) ;
#715 = VECTOR ( 'NONE', #1045, 1000.000000000000000 ) ;
#716 = EDGE_LOOP ( 'NONE', ( #650, #640, #1011, #349 ) ) ;
#717 = ORIENTED_EDGE ( 'NONE', *, *, #846, .T. ) ;
#718 = CARTESIAN_POINT ( 'NONE',  ( 1.495000000000000300, 0.2799999999999999700, 1.027500000000000300 ) ) ;
#719 = ORIENTED_EDGE ( 'NONE', *, *, #708, .T. ) ;
#720 = ORIENTED_EDGE ( 'NONE', *, *, #1259, .F. ) ;
#721 = DIRECTION ( 'NONE',  ( 1.000000000000000000, -3.614007241618350200E-016, 0.0000000000000000000 ) ) ;
#722 = CARTESIAN_POINT ( 'NONE',  ( 2.200000000000001100, 1.426499999999999900, -1.027500000000000700 ) ) ;
#723 = ADVANCED_FACE ( 'NONE', ( #741 ), #404, .F. ) ;
#724 = ADVANCED_FACE ( 'NONE', ( #1002 ), #198, .F. ) ;
#725 = LINE ( 'NONE', #710, #1233 ) ;
#726 = ORIENTED_EDGE ( 'NONE', *, *, #1126, .T. ) ;
#727 = EDGE_LOOP ( 'NONE', ( #729, #487, #342, #765 ) ) ;
#728 = DIRECTION ( 'NONE',  ( 1.000000000000000000, 0.0000000000000000000, 0.0000000000000000000 ) ) ;
#729 = ORIENTED_EDGE ( 'NONE', *, *, #801, .T. ) ;
#730 = ADVANCED_FACE ( 'NONE', ( #490 ), #292, .F. ) ;
#731 = EDGE_CURVE ( 'NONE', #905, #871, #223, .T. ) ;
#732 = ORIENTED_EDGE ( 'NONE', *, *, #795, .F. ) ;
#733 = CARTESIAN_POINT ( 'NONE',  ( -2.200000000000000200, 1.426499999999999900, -1.812500000000002000 ) ) ;
#734 = CARTESIAN_POINT ( 'NONE',  ( 2.239999999999999800, 0.4299999999999999900, -1.027500000000000300 ) ) ;
#735 = MANIFOLD_SOLID_BREP ( 'NONE', #241 ) ;
#736 = CARTESIAN_POINT ( 'NONE',  ( -2.669999999999999900, 0.4299999999999999900, 1.027500000000000300 ) ) ;
#737 = DIRECTION ( 'NONE',  ( -0.0000000000000000000, 0.0000000000000000000, 1.000000000000000000 ) ) ;
#738 = AXIS2_PLACEMENT_3D ( 'NONE', #1079, #387, #985 ) ;
#739 = CIRCLE ( 'NONE', #1287, 0.1499999999999999700 ) ;
#740 = CARTESIAN_POINT ( 'NONE',  ( -2.669999999999999900, 0.4300000000000002200, 1.027500000000000300 ) ) ;
#741 = FACE_OUTER_BOUND ( 'NONE', #854, .T. ) ;
#742 = DIRECTION ( 'NONE',  ( -0.0000000000000000000, 1.000000000000000000, 0.0000000000000000000 ) ) ;
#743 = VECTOR ( 'NONE', #232, 1000.000000000000100 ) ;
#744 = ORIENTED_EDGE ( 'NONE', *, *, #815, .T. ) ;
#745 = VERTEX_POINT ( 'NONE', #1302 ) ;
#746 = VECTOR ( 'NONE', #637, 1000.000000000000100 ) ;
#747 = VECTOR ( 'NONE', #1190, 1000.000000000000000 ) ;
#748 = DIRECTION ( 'NONE',  ( 1.000000000000000000, 0.0000000000000000000, 0.0000000000000000000 ) ) ;
#749 = VERTEX_POINT ( 'NONE', #797 ) ;
#750 = AXIS2_PLACEMENT_3D ( 'NONE', #200, #802, #709 ) ;
#751 = CARTESIAN_POINT ( 'NONE',  ( -2.239999999999999800, 0.2799999999999998600, 1.027500000000000300 ) ) ;
#752 = DIRECTION ( 'NONE',  ( 0.0000000000000000000, -0.0000000000000000000, -1.000000000000000000 ) ) ;
#753 = EDGE_CURVE ( 'NONE', #745, #946, #947, .T. ) ;
#754 = DIRECTION ( 'NONE',  ( 0.0000000000000000000, 0.0000000000000000000, -1.000000000000000000 ) ) ;
#755 = DIRECTION ( 'NONE',  ( -0.0000000000000000000, 1.000000000000000000, 0.0000000000000000000 ) ) ;
#756 = EDGE_CURVE ( 'NONE', #95, #1027, #414, .T. ) ;
#757 = LINE ( 'NONE', #1013, #486 ) ;
#758 = AXIS2_PLACEMENT_3D ( 'NONE', #1102, #1003, #303 ) ;
#759 = CARTESIAN_POINT ( 'NONE',  ( -2.390000000000000100, 0.4299999999999999900, -1.027500000000000300 ) ) ;
#760 = ORIENTED_EDGE ( 'NONE', *, *, #907, .T. ) ;
#761 = CARTESIAN_POINT ( 'NONE',  ( 2.390000000000000100, 0.4299999999999999900, 1.027500000000000300 ) ) ;
#762 = ORIENTED_EDGE ( 'NONE', *, *, #74, .T. ) ;
#763 = ORIENTED_EDGE ( 'NONE', *, *, #128, .F. ) ;
#764 = EDGE_CURVE ( 'NONE', #628, #561, #1218, .T. ) ;
#765 = ORIENTED_EDGE ( 'NONE', *, *, #1217, .T. ) ;
#766 = CARTESIAN_POINT ( 'NONE',  ( 2.239999999999999800, 1.706499999999999900, -1.027500000000000300 ) ) ;
#767 = DIRECTION ( 'NONE',  ( 0.0000000000000000000, 0.0000000000000000000, -1.000000000000000000 ) ) ;
#768 = APPLICATION_CONTEXT ( 'automotive_design' ) ;
#769 = LINE ( 'NONE', #1059, #707 ) ;
#770 = AXIS2_PLACEMENT_3D ( 'NONE', #466, #874, #267 ) ;
#771 = PLANE ( 'NONE',  #636 ) ;
#772 = DIRECTION ( 'NONE',  ( -0.0000000000000000000, 0.0000000000000000000, 1.000000000000000000 ) ) ;
#773 = EDGE_CURVE ( 'NONE', #1187, #95, #447, .T. ) ;
#774 = CARTESIAN_POINT ( 'NONE',  ( -2.239999999999999800, 0.4299999999999999900, 1.027500000000000300 ) ) ;
#775 = LINE ( 'NONE', #1207, #453 ) ;
#776 = EDGE_CURVE ( 'NONE', #430, #589, #889, .T. ) ;
#777 = CYLINDRICAL_SURFACE ( 'NONE', #316, 0.4299999999999998300 ) ;
#778 = ORIENTED_EDGE ( 'NONE', *, *, #644, .T. ) ;
#779 = VERTEX_POINT ( 'NONE', #1188 ) ;
#780 = VERTEX_POINT ( 'NONE', #185 ) ;
#781 = DIRECTION ( 'NONE',  ( 0.0000000000000000000, -1.000000000000000000, 0.0000000000000000000 ) ) ;
#782 = CARTESIAN_POINT ( 'NONE',  ( -0.9500000000000000700, 0.2030000000000000700, -1.726944545587125100 ) ) ;
#783 = ADVANCED_BREP_SHAPE_REPRESENTATION ( 'SMBJ15CA', ( #735, #497, #969, #1301 ), #693 ) ;
#784 = VERTEX_POINT ( 'NONE', #280 ) ;
#785 = PLANE ( 'NONE',  #1005 ) ;
#786 = CARTESIAN_POINT ( 'NONE',  ( -2.389999999999999700, 1.276500000000000000, -1.027500000000000300 ) ) ;
#787 = DIRECTION ( 'NONE',  ( 0.0000000000000000000, 0.0000000000000000000, -1.000000000000000000 ) ) ;
#788 = LINE ( 'NONE', #540, #419 ) ;
#789 = VECTOR ( 'NONE', #584, 1000.000000000000000 ) ;
#790 = EDGE_LOOP ( 'NONE', ( #604, #416, #1056, #702 ) ) ;
#791 = AXIS2_PLACEMENT_3D ( 'NONE', #242, #1144, #547 ) ;
#792 = ORIENTED_EDGE ( 'NONE', *, *, #8, .F. ) ;
#793 = EDGE_LOOP ( 'NONE', ( #842, #687, #763, #963 ) ) ;
#794 = ORIENTED_EDGE ( 'NONE', *, *, #1185, .T. ) ;
#795 = EDGE_CURVE ( 'NONE', #299, #1242, #474, .T. ) ;
#796 = CARTESIAN_POINT ( 'NONE',  ( -2.239999999999999800, 0.4299999999999999900, 1.027500000000000300 ) ) ;
#797 = CARTESIAN_POINT ( 'NONE',  ( -2.389999999999999700, 0.4300000000000000500, 1.027500000000000300 ) ) ;
#798 = EDGE_CURVE ( 'NONE', #317, #147, #1073, .T. ) ;
#799 = DIRECTION ( 'NONE',  ( -1.000000000000000000, 0.0000000000000000000, 0.0000000000000000000 ) ) ;
#800 = DIRECTION ( 'NONE',  ( -0.9957361001334098500, 0.09224759558442800800, 0.0000000000000000000 ) ) ;
#801 = EDGE_CURVE ( 'NONE', #394, #251, #146, .T. ) ;
#802 = DIRECTION ( 'NONE',  ( 0.0000000000000000000, 0.0000000000000000000, -1.000000000000000000 ) ) ;
#803 = VECTOR ( 'NONE', #1100, 1000.000000000000100 ) ;
#804 = VECTOR ( 'NONE', #334, 1000.000000000000000 ) ;
#805 = ORIENTED_EDGE ( 'NONE', *, *, #122, .F. ) ;
#806 = VECTOR ( 'NONE', #344, 1000.000000000000000 ) ;
#807 = ORIENTED_EDGE ( 'NONE', *, *, #3, .T. ) ;
#808 = CLOSED_SHELL ( 'NONE', ( #818, #926, #234, #529, #19, #213, #411, #1030, #1022, #12, #730, #24, #827, #1017 ) ) ;
#809 = DIRECTION ( 'NONE',  ( 0.0000000000000000000, 0.0000000000000000000, -1.000000000000000000 ) ) ;
#810 = AXIS2_PLACEMENT_3D ( 'NONE', #380, #980, #277 ) ;
#811 = VECTOR ( 'NONE', #787, 1000.000000000000000 ) ;
#812 = ORIENTED_EDGE ( 'NONE', *, *, #71, .T. ) ;
#813 = DIRECTION ( 'NONE',  ( 0.0000000000000000000, -0.0000000000000000000, -1.000000000000000000 ) ) ;
#814 = LINE ( 'NONE', #759, #835 ) ;
#815 = EDGE_CURVE ( 'NONE', #749, #905, #591, .T. ) ;
#816 = CARTESIAN_POINT ( 'NONE',  ( -2.239999999999999800, 0.4299999999999999900, 1.027500000000000300 ) ) ;
#817 = CARTESIAN_POINT ( 'NONE',  ( 2.239999999999999800, 1.276500000000000000, 1.027500000000000300 ) ) ;
#818 = ADVANCED_FACE ( 'NONE', ( #1184 ), #785, .F. ) ;
#819 = AXIS2_PLACEMENT_3D ( 'NONE', #1000, #500, #1206 ) ;
#820 = CARTESIAN_POINT ( 'NONE',  ( -0.9499999999999999600, 0.2030000000000000400, 1.812500000000000000 ) ) ;
#821 = CARTESIAN_POINT ( 'NONE',  ( 1.495000000000000600, 0.0000000000000000000, -1.027500000000000300 ) ) ;
#822 = PLANE ( 'NONE',  #1033 ) ;
#823 = CIRCLE ( 'NONE', #883, 0.1499999999999999700 ) ;
#824 = CARTESIAN_POINT ( 'NONE',  ( 1.495000000000000600, 0.0000000000000000000, 1.027500000000000300 ) ) ;
#825 = VECTOR ( 'NONE', #861, 1000.000000000000000 ) ;
#826 = CARTESIAN_POINT ( 'NONE',  ( 2.669999999999999000, 1.276500000000000000, 1.027500000000000300 ) ) ;
#827 = ADVANCED_FACE ( 'NONE', ( #385 ), #956, .F. ) ;
#828 = ORIENTED_EDGE ( 'NONE', *, *, #1156, .T. ) ;
#829 = EDGE_LOOP ( 'NONE', ( #558, #564, #253, #667, #559, #886, #807, #1164, #706, #1214, #778, #1169 ) ) ;
#830 = EDGE_CURVE ( 'NONE', #1117, #981, #625, .T. ) ;
#831 = ORIENTED_EDGE ( 'NONE', *, *, #815, .F. ) ;
#832 = ORIENTED_EDGE ( 'NONE', *, *, #691, .F. ) ;
#833 = DIRECTION ( 'NONE',  ( 1.000000000000000000, 0.0000000000000000000, 0.0000000000000000000 ) ) ;
#834 = DIRECTION ( 'NONE',  ( 0.0000000000000000000, 0.9975640502598247500, -0.06975647374411839100 ) ) ;
#835 = VECTOR ( 'NONE', #157, 1000.000000000000000 ) ;
#836 = ADVANCED_FACE ( 'NONE', ( #1010 ), #875, .F. ) ;
#837 = DIRECTION ( 'NONE',  ( 0.9957361001334098500, 0.09224759558442800800, 0.0000000000000000000 ) ) ;
#838 = CARTESIAN_POINT ( 'NONE',  ( -2.200000000000001500, 1.426499999999999900, 1.027500000000000300 ) ) ;
#839 = DIRECTION ( 'NONE',  ( -1.000000000000000000, 0.0000000000000000000, 0.0000000000000000000 ) ) ;
#840 = VECTOR ( 'NONE', #214, 1000.000000000000100 ) ;
#841 = VECTOR ( 'NONE', #22, 1000.000000000000000 ) ;
#842 = ORIENTED_EDGE ( 'NONE', *, *, #420, .F. ) ;
#843 = CARTESIAN_POINT ( 'NONE',  ( -2.389999999999999700, 1.276500000000000000, 1.027500000000000300 ) ) ;
#844 = VERTEX_POINT ( 'NONE', #274 ) ;
#845 = ORIENTED_EDGE ( 'NONE', *, *, #756, .F. ) ;
#846 = EDGE_CURVE ( 'NONE', #981, #130, #552, .T. ) ;
#847 = ORIENTED_EDGE ( 'NONE', *, *, #1303, .T. ) ;
#848 = PLANE ( 'NONE',  #1115 ) ;
#849 = CARTESIAN_POINT ( 'NONE',  ( 2.239999999999999800, 1.426500000000000100, 1.027500000000000300 ) ) ;
#850 = DIRECTION ( 'NONE',  ( -1.000000000000000000, -0.0000000000000000000, -0.0000000000000000000 ) ) ;
#851 = AXIS2_PLACEMENT_3D ( 'NONE', #448, #40, #646 ) ;
#852 = FACE_OUTER_BOUND ( 'NONE', #1093, .T. ) ;
#853 = FACE_OUTER_BOUND ( 'NONE', #250, .T. ) ;
#854 = EDGE_LOOP ( 'NONE', ( #20, #54, #287, #900 ) ) ;
#855 = ORIENTED_EDGE ( 'NONE', *, *, #598, .F. ) ;
#856 = EDGE_LOOP ( 'NONE', ( #1289, #857, #726, #85 ) ) ;
#857 = ORIENTED_EDGE ( 'NONE', *, *, #1173, .F. ) ;
#858 = CARTESIAN_POINT ( 'NONE',  ( -2.239999999999999800, 1.426500000000000100, -1.027500000000000300 ) ) ;
#859 = ORIENTED_EDGE ( 'NONE', *, *, #953, .F. ) ;
#860 = DIRECTION ( 'NONE',  ( -1.000000000000000000, 0.0000000000000000000, -0.0000000000000000000 ) ) ;
#861 = DIRECTION ( 'NONE',  ( -1.000000000000000000, -0.0000000000000000000, -0.0000000000000000000 ) ) ;
#862 = APPLICATION_CONTEXT ( 'automotive_design' ) ;
#863 = EDGE_CURVE ( 'NONE', #298, #1187, #551, .T. ) ;
#864 = APPLICATION_PROTOCOL_DEFINITION ( 'draft international standard', 'automotive_design', 1998, #768 ) ;
#865 = EDGE_CURVE ( 'NONE', #1242, #784, #377, .T. ) ;
#866 = FACE_OUTER_BOUND ( 'NONE', #869, .T. ) ;
#867 = ORIENTED_EDGE ( 'NONE', *, *, #666, .T. ) ;
#868 = CARTESIAN_POINT ( 'NONE',  ( -2.200000000000000200, 1.426500000000000100, -1.812500000000000000 ) ) ;
#869 = EDGE_LOOP ( 'NONE', ( #229, #1116, #34, #1256, #979, #669, #581, #654, #455, #845, #684, #383 ) ) ;
#870 = CARTESIAN_POINT ( 'NONE',  ( 1.495000000000000300, 0.2799999999999999700, -1.027500000000000300 ) ) ;
#871 = VERTEX_POINT ( 'NONE', #170 ) ;
#872 = CARTESIAN_POINT ( 'NONE',  ( 1.495000000000000300, 0.0000000000000000000, 1.027500000000000300 ) ) ;
#873 = ORIENTED_EDGE ( 'NONE', *, *, #776, .T. ) ;
#874 = DIRECTION ( 'NONE',  ( -1.455304929510743900E-016, -1.000000000000000000, 0.0000000000000000000 ) ) ;
#875 = PLANE ( 'NONE',  #1209 ) ;
#876 = DIRECTION ( 'NONE',  ( 0.0000000000000000000, -0.0000000000000000000, -1.000000000000000000 ) ) ;
#877 = EDGE_CURVE ( 'NONE', #191, #1199, #17, .T. ) ;
#878 = CARTESIAN_POINT ( 'NONE',  ( -1.495000000000000300, 0.2799999999999999700, 1.027500000000000300 ) ) ;
#879 = CARTESIAN_POINT ( 'NONE',  ( 2.239999999999999800, 1.426500000000000100, 1.027500000000000300 ) ) ;
#880 = LINE ( 'NONE', #63, #483 ) ;
#881 = CARTESIAN_POINT ( 'NONE',  ( -2.200000000000001100, 1.426499999999999900, 1.027500000000000300 ) ) ;
#882 = VECTOR ( 'NONE', #398, 1000.000000000000000 ) ;
#883 = AXIS2_PLACEMENT_3D ( 'NONE', #816, #208, #910 ) ;
#884 = FACE_OUTER_BOUND ( 'NONE', #716, .T. ) ;
#885 = ORIENTED_EDGE ( 'NONE', *, *, #955, .F. ) ;
#886 = ORIENTED_EDGE ( 'NONE', *, *, #1087, .T. ) ;
#887 = CARTESIAN_POINT ( 'NONE',  ( 2.389999999999999700, 1.276500000000000000, 1.027500000000000300 ) ) ;
#888 = FACE_OUTER_BOUND ( 'NONE', #476, .T. ) ;
#889 = CIRCLE ( 'NONE', #738, 0.1499999999999999700 ) ;
#890 = VERTEX_POINT ( 'NONE', #465 ) ;
#891 = EDGE_LOOP ( 'NONE', ( #207, #456, #99, #68 ) ) ;
#892 = DIRECTION ( 'NONE',  ( -1.000000000000000000, 0.0000000000000000000, 0.0000000000000000000 ) ) ;
#893 = EDGE_CURVE ( 'NONE', #670, #162, #739, .T. ) ;
#894 = DIRECTION ( 'NONE',  ( 1.455304929510743900E-016, -1.000000000000000000, 0.0000000000000000000 ) ) ;
#895 = LINE ( 'NONE', #870, #630 ) ;
#896 = STYLED_ITEM ( 'NONE', ( #41 ), #783 ) ;
#897 =( NAMED_UNIT ( * ) PLANE_ANGLE_UNIT ( ) SI_UNIT ( $, .RADIAN. ) );
#898 = DIRECTION ( 'NONE',  ( 0.0000000000000000000, -0.0000000000000000000, 1.000000000000000000 ) ) ;
#899 = VECTOR ( 'NONE', #876, 1000.000000000000000 ) ;
#900 = ORIENTED_EDGE ( 'NONE', *, *, #666, .F. ) ;
#901 = AXIS2_PLACEMENT_3D ( 'NONE', #774, #582, #1283 ) ;
#902 = CARTESIAN_POINT ( 'NONE',  ( 2.200000000000001500, 1.426499999999999900, 1.027500000000000300 ) ) ;
#903 = ORIENTED_EDGE ( 'NONE', *, *, #1217, .F. ) ;
#904 = ORIENTED_EDGE ( 'NONE', *, *, #295, .T. ) ;
#905 = VERTEX_POINT ( 'NONE', #1161 ) ;
#906 = DIRECTION ( 'NONE',  ( -1.000000000000000000, 0.0000000000000000000, 0.0000000000000000000 ) ) ;
#907 = EDGE_CURVE ( 'NONE', #543, #386, #972, .T. ) ;
#908 = EDGE_CURVE ( 'NONE', #337, #594, #880, .T. ) ;
#909 = CARTESIAN_POINT ( 'NONE',  ( -1.495000000000000300, 0.2799999999999999700, -1.027500000000000300 ) ) ;
#910 = DIRECTION ( 'NONE',  ( -1.000000000000000000, 0.0000000000000000000, 0.0000000000000000000 ) ) ;
#911 = LINE ( 'NONE', #697, #882 ) ;
#912 = ADVANCED_FACE ( 'NONE', ( #658 ), #995, .F. ) ;
#913 = EDGE_CURVE ( 'NONE', #779, #1285, #678, .T. ) ;
#914 = VECTOR ( 'NONE', #1135, 1000.000000000000100 ) ;
#915 = ORIENTED_EDGE ( 'NONE', *, *, #458, .T. ) ;
#916 = VERTEX_POINT ( 'NONE', #161 ) ;
#917 = CARTESIAN_POINT ( 'NONE',  ( -2.389999999999999700, 1.276500000000000000, 1.027500000000000300 ) ) ;
#918 = VERTEX_POINT ( 'NONE', #661 ) ;
#919 = EDGE_LOOP ( 'NONE', ( #80, #931, #994, #1136 ) ) ;
#920 = CARTESIAN_POINT ( 'NONE',  ( 2.114444545587125000, 2.649999999999999900, 1.812500000000000000 ) ) ;
#921 = ADVANCED_FACE ( 'NONE', ( #1031 ), #362, .T. ) ;
#922 = PRODUCT_DEFINITION_CONTEXT ( 'detailed design', #862, 'design' ) ;
#923 = DIRECTION ( 'NONE',  ( -1.000000000000000000, 0.0000000000000000000, 0.0000000000000000000 ) ) ;
#924 = AXIS2_PLACEMENT_3D ( 'NONE', #1043, #748, #142 ) ;
#925 = DIRECTION ( 'NONE',  ( -1.000000000000000000, 0.0000000000000000000, -0.0000000000000000000 ) ) ;
#926 = ADVANCED_FACE ( 'NONE', ( #1275 ), #258, .T. ) ;
#927 = PLANE ( 'NONE',  #216 ) ;
#928 = LINE ( 'NONE', #363, #665 ) ;
#929 = CARTESIAN_POINT ( 'NONE',  ( 2.669999999999999000, 1.276500000000000200, 1.027500000000000300 ) ) ;
#930 = ORIENTED_EDGE ( 'NONE', *, *, #269, .T. ) ;
#931 = ORIENTED_EDGE ( 'NONE', *, *, #908, .F. ) ;
#932 = VECTOR ( 'NONE', #728, 1000.000000000000000 ) ;
#933 = EDGE_CURVE ( 'NONE', #589, #905, #814, .T. ) ;
#934 = EDGE_LOOP ( 'NONE', ( #668, #197, #744, #268 ) ) ;
#935 = CARTESIAN_POINT ( 'NONE',  ( -2.239999999999999800, 1.706499999999999900, 1.027500000000000300 ) ) ;
#936 = ORIENTED_EDGE ( 'NONE', *, *, #1109, .F. ) ;
#937 = DIRECTION ( 'NONE',  ( -0.0000000000000000000, -0.0000000000000000000, 1.000000000000000000 ) ) ;
#938 = PLANE ( 'NONE',  #521 ) ;
#939 = AXIS2_PLACEMENT_3D ( 'NONE', #673, #1278, #573 ) ;
#940 = DIRECTION ( 'NONE',  ( -0.9975640502598246400, 0.06975647374412008400, 0.0000000000000000000 ) ) ;
#941 = LINE ( 'NONE', #392, #713 ) ;
#942 = LINE ( 'NONE', #1155, #682 ) ;
#943 = CARTESIAN_POINT ( 'NONE',  ( -2.114444545587125000, 0.5030000000000000000, -1.747922589170174800 ) ) ;
#944 = EDGE_LOOP ( 'NONE', ( #1086, #1118, #1162, #579 ) ) ;
#945 = DIRECTION ( 'NONE',  ( 0.06975647374412008400, 0.9975640502598246400, -0.0000000000000000000 ) ) ;
#946 = VERTEX_POINT ( 'NONE', #660 ) ;
#947 = LINE ( 'NONE', #196, #685 ) ;
#948 = ORIENTED_EDGE ( 'NONE', *, *, #773, .F. ) ;
#949 = AXIS2_PLACEMENT_3D ( 'NONE', #610, #403, #906 ) ;
#950 = ORIENTED_EDGE ( 'NONE', *, *, #286, .T. ) ;
#951 =( NAMED_UNIT ( * ) SI_UNIT ( $, .STERADIAN. ) SOLID_ANGLE_UNIT ( ) );
#952 = LINE ( 'NONE', #1154, #56 ) ;
#953 = EDGE_CURVE ( 'NONE', #670, #1150, #952, .T. ) ;
#954 = DIRECTION ( 'NONE',  ( 1.000000000000000000, -0.0000000000000000000, 0.0000000000000000000 ) ) ;
#955 = EDGE_CURVE ( 'NONE', #386, #981, #259, .T. ) ;
#956 = CYLINDRICAL_SURFACE ( 'NONE', #1142, 0.1499999999999999700 ) ;
#957 = PRESENTATION_LAYER_ASSIGNMENT (  '', '', ( #896 ) ) ;
#958 = DIRECTION ( 'NONE',  ( 1.000000000000000000, 0.0000000000000000000, 0.0000000000000000000 ) ) ;
#959 = VECTOR ( 'NONE', #498, 1000.000000000000000 ) ;
#960 = EDGE_CURVE ( 'NONE', #162, #1242, #769, .T. ) ;
#961 = ORIENTED_EDGE ( 'NONE', *, *, #863, .F. ) ;
#962 = ORIENTED_EDGE ( 'NONE', *, *, #189, .F. ) ;
#963 = ORIENTED_EDGE ( 'NONE', *, *, #907, .F. ) ;
#964 = ORIENTED_EDGE ( 'NONE', *, *, #846, .F. ) ;
#965 = CARTESIAN_POINT ( 'NONE',  ( -2.239999999999999800, 0.4299999999999999900, -1.027500000000000300 ) ) ;
#966 = ORIENTED_EDGE ( 'NONE', *, *, #420, .T. ) ;
#967 = ORIENTED_EDGE ( 'NONE', *, *, #390, .F. ) ;
#968 = DIRECTION ( 'NONE',  ( 0.0000000000000000000, -0.06975647374411839100, 0.9975640502598247500 ) ) ;
#969 = MANIFOLD_SOLID_BREP ( 'Imported3', #338 ) ;
#970 = DIRECTION ( 'NONE',  ( -1.000000000000000000, 0.0000000000000000000, -0.0000000000000000000 ) ) ;
#971 = CARTESIAN_POINT ( 'NONE',  ( -2.669999999999999900, 0.4300000000000002200, -1.027500000000000300 ) ) ;
#972 = LINE ( 'NONE', #580, #172 ) ;
#973 = EDGE_CURVE ( 'NONE', #51, #670, #1097, .T. ) ;
#974 = FACE_OUTER_BOUND ( 'NONE', #686, .T. ) ;
#975 = VECTOR ( 'NONE', #954, 1000.000000000000000 ) ;
#976 = CARTESIAN_POINT ( 'NONE',  ( -2.200000000000000200, 0.5029999999999998900, 1.747922589170176200 ) ) ;
#977 = CARTESIAN_POINT ( 'NONE',  ( -0.9499999999999999600, 0.2030000000000000700, 1.726944545587125300 ) ) ;
#978 = ORIENTED_EDGE ( 'NONE', *, *, #708, .F. ) ;
#979 = ORIENTED_EDGE ( 'NONE', *, *, #908, .T. ) ;
#980 = DIRECTION ( 'NONE',  ( 0.0000000000000000000, 0.0000000000000000000, -1.000000000000000000 ) ) ;
#981 = VERTEX_POINT ( 'NONE', #43 ) ;
#982 = CARTESIAN_POINT ( 'NONE',  ( 0.9499999999999999600, 0.5030000000000000000, -1.747922589170174800 ) ) ;
#983 = EDGE_CURVE ( 'NONE', #83, #298, #1165, .T. ) ;
#984 = AXIS2_PLACEMENT_3D ( 'NONE', #1145, #940, #240 ) ;
#985 = DIRECTION ( 'NONE',  ( -1.000000000000000000, 0.0000000000000000000, 0.0000000000000000000 ) ) ;
#986 = CARTESIAN_POINT ( 'NONE',  ( -2.239999999999999800, 0.4299999999999999900, 1.027500000000000300 ) ) ;
#987 = DIRECTION ( 'NONE',  ( -1.000000000000000000, 0.0000000000000000000, 0.0000000000000000000 ) ) ;
#988 = LINE ( 'NONE', #300, #803 ) ;
#989 = VERTEX_POINT ( 'NONE', #649 ) ;
#990 = EDGE_LOOP ( 'NONE', ( #315, #1099, #948, #961 ) ) ;
#991 = SURFACE_STYLE_USAGE ( .BOTH. , #389 ) ;
#992 = VERTEX_POINT ( 'NONE', #751 ) ;
#993 = CARTESIAN_POINT ( 'NONE',  ( 0.9500000000000000700, 0.2030000000000000700, 1.726944545587125300 ) ) ;
#994 = ORIENTED_EDGE ( 'NONE', *, *, #151, .F. ) ;
#995 = CYLINDRICAL_SURFACE ( 'NONE', #176, 0.1499999999999999700 ) ;
#996 = EDGE_CURVE ( 'NONE', #844, #1199, #1134, .T. ) ;
#997 = DIRECTION ( 'NONE',  ( -0.0000000000000000000, 0.0000000000000000000, -1.000000000000000000 ) ) ;
#998 = CARTESIAN_POINT ( 'NONE',  ( 2.200000000000000200, 1.426500000000000100, 1.812500000000000000 ) ) ;
#999 = EDGE_CURVE ( 'NONE', #524, #989, #1159, .T. ) ;
#1000 = CARTESIAN_POINT ( 'NONE',  ( -2.200000000000000200, 0.2030000000000000400, -1.726944545587125300 ) ) ;
#1001 = CARTESIAN_POINT ( 'NONE',  ( 1.495000000000000300, 0.0000000000000000000, 1.027500000000000300 ) ) ;
#1002 = FACE_OUTER_BOUND ( 'NONE', #944, .T. ) ;
#1003 = DIRECTION ( 'NONE',  ( -1.000000000000000000, -3.614007241618350200E-016, 0.0000000000000000000 ) ) ;
#1004 = FACE_OUTER_BOUND ( 'NONE', #444, .T. ) ;
#1005 = AXIS2_PLACEMENT_3D ( 'NONE', #84, #72, #681 ) ;
#1006 = UNCERTAINTY_MEASURE_WITH_UNIT (LENGTH_MEASURE( 1.000000000000000100E-005 ), #464, 'distance_accuracy_value', 'NONE');
#1007 = DIRECTION ( 'NONE',  ( -1.000000000000000000, -0.0000000000000000000, -0.0000000000000000000 ) ) ;
#1008 = ORIENTED_EDGE ( 'NONE', *, *, #74, .F. ) ;
#1009 = EDGE_LOOP ( 'NONE', ( #177, #805, #449, #964 ) ) ;
#1010 = FACE_OUTER_BOUND ( 'NONE', #67, .T. ) ;
#1011 = ORIENTED_EDGE ( 'NONE', *, *, #1277, .F. ) ;
#1012 = DIRECTION ( 'NONE',  ( 3.614007241618350200E-016, 1.000000000000000000, 0.0000000000000000000 ) ) ;
#1013 = CARTESIAN_POINT ( 'NONE',  ( 2.239999999999999800, 1.626303258728256700E-016, 1.027500000000000300 ) ) ;
#1014 = AXIS2_PLACEMENT_3D ( 'NONE', #1226, #626, #18 ) ;
#1015 = DIRECTION ( 'NONE',  ( -0.0000000000000000000, 0.0000000000000000000, 1.000000000000000000 ) ) ;
#1016 = DIRECTION ( 'NONE',  ( 0.0000000000000000000, 0.0000000000000000000, -1.000000000000000000 ) ) ;
#1017 = ADVANCED_FACE ( 'NONE', ( #662 ), #140, .F. ) ;
#1018 = DIRECTION ( 'NONE',  ( -0.0000000000000000000, -0.0000000000000000000, 1.000000000000000000 ) ) ;
#1019 = DIRECTION ( 'NONE',  ( -1.452667096869481800E-016, 1.000000000000000000, 0.0000000000000000000 ) ) ;
#1020 = LINE ( 'NONE', #382, #1066 ) ;
#1021 = EDGE_CURVE ( 'NONE', #1071, #780, #391, .T. ) ;
#1022 = ADVANCED_FACE ( 'NONE', ( #520 ), #1143, .F. ) ;
#1023 = ORIENTED_EDGE ( 'NONE', *, *, #57, .F. ) ;
#1024 = ORIENTED_EDGE ( 'NONE', *, *, #557, .T. ) ;
#1025 = VECTOR ( 'NONE', #1034, 1000.000000000000000 ) ;
#1026 = MECHANICAL_DESIGN_GEOMETRIC_PRESENTATION_REPRESENTATION (  '', ( #896 ), #1088 ) ;
#1027 = VERTEX_POINT ( 'NONE', #740 ) ;
#1028 = ORIENTED_EDGE ( 'NONE', *, *, #679, .T. ) ;
#1029 = CARTESIAN_POINT ( 'NONE',  ( -2.114444545587125000, 0.5030000000000000000, 1.812500000000000000 ) ) ;
#1030 = ADVANCED_FACE ( 'NONE', ( #279 ), #848, .F. ) ;
#1031 = FACE_OUTER_BOUND ( 'NONE', #627, .T. ) ;
#1032 = SURFACE_STYLE_FILL_AREA ( #62 ) ;
#1033 = AXIS2_PLACEMENT_3D ( 'NONE', #920, #515, #1108 ) ;
#1034 = DIRECTION ( 'NONE',  ( 0.0000000000000000000, -0.0000000000000000000, 1.000000000000000000 ) ) ;
#1035 = CARTESIAN_POINT ( 'NONE',  ( -2.239999999999999800, 1.276500000000000000, 1.027500000000000300 ) ) ;
#1036 = VECTOR ( 'NONE', #7, 1000.000000000000000 ) ;
#1037 = LINE ( 'NONE', #632, #841 ) ;
#1038 = VERTEX_POINT ( 'NONE', #37 ) ;
#1039 = ORIENTED_EDGE ( 'NONE', *, *, #169, .T. ) ;
#1040 = EDGE_CURVE ( 'NONE', #745, #95, #788, .T. ) ;
#1041 = ORIENTED_EDGE ( 'NONE', *, *, #1231, .T. ) ;
#1042 = DIRECTION ( 'NONE',  ( -0.06958737431665777700, -0.9951458157835096900, 0.06958737431665654200 ) ) ;
#1043 = CARTESIAN_POINT ( 'NONE',  ( 1.495000000000000300, 0.2799999999999999700, 1.027500000000000300 ) ) ;
#1044 = ORIENTED_EDGE ( 'NONE', *, *, #960, .F. ) ;
#1045 = DIRECTION ( 'NONE',  ( -1.024644699336566000E-015, 1.000000000000000000, -0.0000000000000000000 ) ) ;
#1046 = EDGE_CURVE ( 'NONE', #166, #110, #1055, .T. ) ;
#1047 =( LENGTH_UNIT ( ) NAMED_UNIT ( * ) SI_UNIT ( .MILLI., .METRE. ) );
#1048 = DIRECTION ( 'NONE',  ( 0.0000000000000000000, -0.0000000000000000000, -1.000000000000000000 ) ) ;
#1049 = VECTOR ( 'NONE', #469, 1000.000000000000000 ) ;
#1050 = LINE ( 'NONE', #73, #523 ) ;
#1051 = DIRECTION ( 'NONE',  ( -0.0000000000000000000, 0.0000000000000000000, 1.000000000000000000 ) ) ;
#1052 = EDGE_LOOP ( 'NONE', ( #356, #23, #92, #489 ) ) ;
#1053 = DIRECTION ( 'NONE',  ( 0.0000000000000000000, 0.9975640502598246400, 0.06975647374411865500 ) ) ;
#1054 = ORIENTED_EDGE ( 'NONE', *, *, #1250, .T. ) ;
#1055 = LINE ( 'NONE', #340, #1096 ) ;
#1056 = ORIENTED_EDGE ( 'NONE', *, *, #1286, .T. ) ;
#1057 = ORIENTED_EDGE ( 'NONE', *, *, #973, .F. ) ;
#1058 = AXIS2_PLACEMENT_3D ( 'NONE', #246, #350, #1048 ) ;
#1059 = CARTESIAN_POINT ( 'NONE',  ( 2.390000000000000100, 0.4299999999999999900, -1.027500000000000300 ) ) ;
#1060 = DIRECTION ( 'NONE',  ( -5.123223496682829800E-016, 1.000000000000000000, 0.0000000000000000000 ) ) ;
#1061 = DIRECTION ( 'NONE',  ( -1.000000000000000000, 0.0000000000000000000, 0.0000000000000000000 ) ) ;
#1062 = SURFACE_SIDE_STYLE ('',( #143 ) ) ;
#1063 =( NAMED_UNIT ( * ) PLANE_ANGLE_UNIT ( ) SI_UNIT ( $, .RADIAN. ) );
#1064 = EDGE_CURVE ( 'NONE', #589, #205, #605, .T. ) ;
#1065 = CARTESIAN_POINT ( 'NONE',  ( -0.9499999999999998400, 0.5030000000000000000, 1.812500000000000000 ) ) ;
#1066 = VECTOR ( 'NONE', #14, 1000.000000000000000 ) ;
#1067 = CIRCLE ( 'NONE', #117, 0.4299999999999998300 ) ;
#1068 = VERTEX_POINT ( 'NONE', #135 ) ;
#1069 = LINE ( 'NONE', #909, #1112 ) ;
#1070 = VECTOR ( 'NONE', #148, 1000.000000000000000 ) ;
#1071 = VERTEX_POINT ( 'NONE', #29 ) ;
#1072 = CARTESIAN_POINT ( 'NONE',  ( 0.9499999999999999600, 0.2030000000000000700, 1.726944545587125300 ) ) ;
#1073 = LINE ( 'NONE', #76, #653 ) ;
#1074 = ORIENTED_EDGE ( 'NONE', *, *, #514, .F. ) ;
#1075 = DIRECTION ( 'NONE',  ( -1.000000000000000000, -1.452667096869481800E-016, 0.0000000000000000000 ) ) ;
#1076 = CARTESIAN_POINT ( 'NONE',  ( 2.200000000000001500, 1.426500000000000100, 1.812500000000000000 ) ) ;
#1077 = EDGE_CURVE ( 'NONE', #271, #1027, #526, .T. ) ;
#1078 = CYLINDRICAL_SURFACE ( 'NONE', #949, 0.1499999999999999700 ) ;
#1079 = CARTESIAN_POINT ( 'NONE',  ( -2.239999999999999800, 1.276500000000000000, -1.027500000000000300 ) ) ;
#1080 = LINE ( 'NONE', #567, #825 ) ;
#1081 = ORIENTED_EDGE ( 'NONE', *, *, #1064, .F. ) ;
#1082 = ORIENTED_EDGE ( 'NONE', *, *, #517, .T. ) ;
#1083 = EDGE_LOOP ( 'NONE', ( #1008, #134, #1028, #283 ) ) ;
#1084 = ORIENTED_EDGE ( 'NONE', *, *, #301, .F. ) ;
#1085 = CARTESIAN_POINT ( 'NONE',  ( 0.9499999999999998400, 0.5030000000000000000, 1.812500000000000000 ) ) ;
#1086 = ORIENTED_EDGE ( 'NONE', *, *, #629, .F. ) ;
#1087 = EDGE_CURVE ( 'NONE', #239, #1068, #352, .T. ) ;
#1088 =( GEOMETRIC_REPRESENTATION_CONTEXT ( 3 ) GLOBAL_UNCERTAINTY_ASSIGNED_CONTEXT ( ( #373 ) ) GLOBAL_UNIT_ASSIGNED_CONTEXT ( ( #568, #1158, #457 ) ) REPRESENTATION_CONTEXT ( 'NONE', 'WORKASPACE' ) );
#1089 = FILL_AREA_STYLE ('',( #701 ) ) ;
#1090 = DIRECTION ( 'NONE',  ( 0.09202479035650919200, 0.9933311029372045000, 0.06946047723272220900 ) ) ;
#1091 = LINE ( 'NONE', #982, #840 ) ;
#1092 = LINE ( 'NONE', #1241, #804 ) ;
#1093 = EDGE_LOOP ( 'NONE', ( #445, #978, #367, #1074, #541, #353, #936, #1299 ) ) ;
#1094 = VECTOR ( 'NONE', #925, 1000.000000000000000 ) ;
#1095 = ORIENTED_EDGE ( 'NONE', *, *, #865, .T. ) ;
#1096 = VECTOR ( 'NONE', #438, 1000.000000000000200 ) ;
#1097 = LINE ( 'NONE', #248, #1070 ) ;
#1098 = UNCERTAINTY_MEASURE_WITH_UNIT (LENGTH_MEASURE( 1.000000000000000100E-005 ), #1047, 'distance_accuracy_value', 'NONE');
#1099 = ORIENTED_EDGE ( 'NONE', *, *, #1040, .T. ) ;
#1100 = DIRECTION ( 'NONE',  ( -0.06975647374412008400, 0.9975640502598246400, 0.0000000000000000000 ) ) ;
#1101 = EDGE_CURVE ( 'NONE', #1038, #1273, #192, .T. ) ;
#1102 = CARTESIAN_POINT ( 'NONE',  ( 0.9499999999999999600, 0.5030000000000000000, 1.812500000000000000 ) ) ;
#1103 = CARTESIAN_POINT ( 'NONE',  ( 2.114444545587125000, 2.650000000000000400, 1.726944545587124400 ) ) ;
#1104 = DIRECTION ( 'NONE',  ( 1.024644699336566000E-015, -1.000000000000000000, 0.0000000000000000000 ) ) ;
#1105 = PLANE ( 'NONE',  #560 ) ;
#1106 = DIRECTION ( 'NONE',  ( -0.0000000000000000000, 0.0000000000000000000, -1.000000000000000000 ) ) ;
#1107 = CIRCLE ( 'NONE', #152, 0.4299999999999998300 ) ;
#1108 = DIRECTION ( 'NONE',  ( 0.0000000000000000000, -0.0000000000000000000, -1.000000000000000000 ) ) ;
#1109 = EDGE_CURVE ( 'NONE', #110, #989, #1268, .T. ) ;
#1110 = FACE_OUTER_BOUND ( 'NONE', #1138, .T. ) ;
#1111 = ADVANCED_FACE ( 'NONE', ( #888 ), #27, .F. ) ;
#1112 = VECTOR ( 'NONE', #307, 1000.000000000000000 ) ;
#1113 = CARTESIAN_POINT ( 'NONE',  ( 2.239999999999999800, 2.710505431213761100E-017, 1.027500000000000300 ) ) ;
#1114 = VECTOR ( 'NONE', #149, 1000.000000000000200 ) ;
#1115 = AXIS2_PLACEMENT_3D ( 'NONE', #1252, #645, #1247 ) ;
#1116 = ORIENTED_EDGE ( 'NONE', *, *, #139, .T. ) ;
#1117 = VERTEX_POINT ( 'NONE', #935 ) ;
#1118 = ORIENTED_EDGE ( 'NONE', *, *, #711, .F. ) ;
#1119 = EDGE_LOOP ( 'NONE', ( #904, #1133, #812, #21, #1238, #509, #794, #1266 ) ) ;
#1120 = CARTESIAN_POINT ( 'NONE',  ( 2.239999999999999800, 0.4299999999999999900, -1.027500000000000300 ) ) ;
#1121 = CARTESIAN_POINT ( 'NONE',  ( -0.9499999999999998400, 0.5030000000000000000, 1.747922589170175300 ) ) ;
#1122 = ADVANCED_FACE ( 'NONE', ( #112 ), #534, .F. ) ;
#1123 = CARTESIAN_POINT ( 'NONE',  ( 0.9499999999999999600, 0.2030000000000000400, 1.812500000000000000 ) ) ;
#1124 = DIRECTION ( 'NONE',  ( 0.06975647374411839100, -0.9975640502598247500, 0.0000000000000000000 ) ) ;
#1125 = ADVANCED_FACE ( 'NONE', ( #318 ), #927, .F. ) ;
#1126 = EDGE_CURVE ( 'NONE', #527, #1273, #704, .T. ) ;
#1127 = DIRECTION ( 'NONE',  ( 0.9975640502598247500, -0.06975647374411839100, 0.0000000000000000000 ) ) ;
#1128 = VECTOR ( 'NONE', #60, 1000.000000000000000 ) ;
#1129 = DIRECTION ( 'NONE',  ( 0.0000000000000000000, 0.0000000000000000000, 1.000000000000000000 ) ) ;
#1130 = LINE ( 'NONE', #1076, #600 ) ;
#1131 = EDGE_CURVE ( 'NONE', #110, #317, #504, .T. ) ;
#1132 = EDGE_LOOP ( 'NONE', ( #732, #962, #368, #302 ) ) ;
#1133 = ORIENTED_EDGE ( 'NONE', *, *, #1126, .F. ) ;
#1134 = LINE ( 'NONE', #549, #806 ) ;
#1135 = DIRECTION ( 'NONE',  ( 0.06975647374412008400, -0.9975640502598246400, -0.0000000000000000000 ) ) ;
#1136 = ORIENTED_EDGE ( 'NONE', *, *, #611, .F. ) ;
#1137 = DIRECTION ( 'NONE',  ( -1.000000000000000000, 0.0000000000000000000, 0.0000000000000000000 ) ) ;
#1138 = EDGE_LOOP ( 'NONE', ( #1039, #1284, #643, #1270 ) ) ;
#1139 = VECTOR ( 'NONE', #79, 1000.000000000000000 ) ;
#1140 = DIRECTION ( 'NONE',  ( -0.06975647374412008400, 0.9975640502598246400, 0.0000000000000000000 ) ) ;
#1141 = DIRECTION ( 'NONE',  ( -0.0000000000000000000, 1.000000000000000000, 0.0000000000000000000 ) ) ;
#1142 = AXIS2_PLACEMENT_3D ( 'NONE', #1288, #481, #179 ) ;
#1143 = PLANE ( 'NONE',  #984 ) ;
#1144 = DIRECTION ( 'NONE',  ( 0.0000000000000000000, 0.0000000000000000000, -1.000000000000000000 ) ) ;
#1145 = CARTESIAN_POINT ( 'NONE',  ( -2.180420492655819900, 1.706499999999999900, 1.027500000000000300 ) ) ;
#1146 = LINE ( 'NONE', #101, #554 ) ;
#1147 = CARTESIAN_POINT ( 'NONE',  ( 2.669999999999999900, 0.4299999999999999900, 1.027500000000000300 ) ) ;
#1148 = FACE_OUTER_BOUND ( 'NONE', #829, .T. ) ;
#1149 = ORIENTED_EDGE ( 'NONE', *, *, #301, .T. ) ;
#1150 = VERTEX_POINT ( 'NONE', #119 ) ;
#1151 = ORIENTED_EDGE ( 'NONE', *, *, #795, .T. ) ;
#1152 = SURFACE_SIDE_STYLE ('',( #566 ) ) ;
#1153 = ORIENTED_EDGE ( 'NONE', *, *, #295, .F. ) ;
#1154 = CARTESIAN_POINT ( 'NONE',  ( 2.239999999999999800, 0.2799999999999998600, 1.027500000000000300 ) ) ;
#1155 = CARTESIAN_POINT ( 'NONE',  ( -2.390000000000000100, 0.4299999999999999900, 1.027500000000000300 ) ) ;
#1156 = EDGE_CURVE ( 'NONE', #1285, #918, #1107, .T. ) ;
#1157 = DIRECTION ( 'NONE',  ( 0.0000000000000000000, 0.0000000000000000000, -1.000000000000000000 ) ) ;
#1158 =( NAMED_UNIT ( * ) PLANE_ANGLE_UNIT ( ) SI_UNIT ( $, .RADIAN. ) );
#1159 = LINE ( 'NONE', #943, #696 ) ;
#1160 = LINE ( 'NONE', #575, #1194 ) ;
#1161 = CARTESIAN_POINT ( 'NONE',  ( -2.389999999999999700, 0.4300000000000000500, -1.027500000000000300 ) ) ;
#1162 = ORIENTED_EDGE ( 'NONE', *, *, #877, .F. ) ;
#1163 =( LENGTH_UNIT ( ) NAMED_UNIT ( * ) SI_UNIT ( .MILLI., .METRE. ) );
#1164 = ORIENTED_EDGE ( 'NONE', *, *, #189, .T. ) ;
#1165 = LINE ( 'NONE', #1262, #35 ) ;
#1166 = ORIENTED_EDGE ( 'NONE', *, *, #983, .T. ) ;
#1167 = AXIS2_PLACEMENT_3D ( 'NONE', #817, #1223, #620 ) ;
#1168 = DIRECTION ( 'NONE',  ( 0.0000000000000000000, -0.0000000000000000000, 1.000000000000000000 ) ) ;
#1169 = ORIENTED_EDGE ( 'NONE', *, *, #996, .T. ) ;
#1170 = CARTESIAN_POINT ( 'NONE',  ( -0.9499999999999998400, 0.5030000000000000000, -1.747922589170175100 ) ) ;
#1171 = DIRECTION ( 'NONE',  ( 1.000000000000000000, 0.0000000000000000000, 0.0000000000000000000 ) ) ;
#1172 = PLANE ( 'NONE',  #901 ) ;
#1173 = EDGE_CURVE ( 'NONE', #527, #133, #1189, .T. ) ;
#1174 = VECTOR ( 'NONE', #1168, 1000.000000000000000 ) ;
#1175 = DIRECTION ( 'NONE',  ( 0.0000000000000000000, 0.0000000000000000000, -1.000000000000000000 ) ) ;
#1176 = DIRECTION ( 'NONE',  ( -1.000000000000000000, -0.0000000000000000000, -0.0000000000000000000 ) ) ;
#1177 = CARTESIAN_POINT ( 'NONE',  ( 2.114444545587125000, 2.650000000000000400, -1.726944545587124400 ) ) ;
#1178 = LINE ( 'NONE', #902, #107 ) ;
#1179 = LINE ( 'NONE', #1065, #638 ) ;
#1180 = ORIENTED_EDGE ( 'NONE', *, *, #1131, .F. ) ;
#1181 = ORIENTED_EDGE ( 'NONE', *, *, #482, .T. ) ;
#1182 = DIRECTION ( 'NONE',  ( 0.0000000000000000000, 0.0000000000000000000, -1.000000000000000000 ) ) ;
#1183 = VECTOR ( 'NONE', #937, 1000.000000000000000 ) ;
#1184 = FACE_OUTER_BOUND ( 'NONE', #793, .T. ) ;
#1185 = EDGE_CURVE ( 'NONE', #780, #608, #675, .T. ) ;
#1186 = ORIENTED_EDGE ( 'NONE', *, *, #354, .F. ) ;
#1187 = VERTEX_POINT ( 'NONE', #624 ) ;
#1188 = CARTESIAN_POINT ( 'NONE',  ( 2.180420492655819900, 1.706499999999999900, -1.027500000000000500 ) ) ;
#1189 = LINE ( 'NONE', #1123, #480 ) ;
#1190 = DIRECTION ( 'NONE',  ( -0.0000000000000000000, -0.0000000000000000000, 1.000000000000000000 ) ) ;
#1191 = AXIS2_PLACEMENT_3D ( 'NONE', #1263, #755, #155 ) ;
#1192 = DIRECTION ( 'NONE',  ( 0.0000000000000000000, -0.0000000000000000000, -1.000000000000000000 ) ) ;
#1193 = DIRECTION ( 'NONE',  ( -0.0000000000000000000, -0.0000000000000000000, 1.000000000000000000 ) ) ;
#1194 = VECTOR ( 'NONE', #1279, 1000.000000000000000 ) ;
#1195 = ORIENTED_EDGE ( 'NONE', *, *, #370, .F. ) ;
#1196 = CARTESIAN_POINT ( 'NONE',  ( -2.114444545587125000, 2.649999999999999900, 1.812500000000000000 ) ) ;
#1197 = ORIENTED_EDGE ( 'NONE', *, *, #499, .T. ) ;
#1198 = VECTOR ( 'NONE', #1106, 1000.000000000000000 ) ;
#1199 = VERTEX_POINT ( 'NONE', #824 ) ;
#1200 = DIRECTION ( 'NONE',  ( 1.452667096869481800E-016, 1.000000000000000000, 0.0000000000000000000 ) ) ;
#1201 = EDGE_CURVE ( 'NONE', #317, #371, #156, .T. ) ;
#1202 = ORIENTED_EDGE ( 'NONE', *, *, #863, .T. ) ;
#1203 = CARTESIAN_POINT ( 'NONE',  ( -1.495000000000000600, 0.2799999999999999700, -1.027500000000000300 ) ) ;
#1204 = CARTESIAN_POINT ( 'NONE',  ( -2.200000000000000200, 0.5029999999999998900, -1.747922589170176200 ) ) ;
#1205 = LINE ( 'NONE', #261, #690 ) ;
#1206 = DIRECTION ( 'NONE',  ( 0.0000000000000000000, -0.9975640502598246400, 0.06975647374411865500 ) ) ;
#1207 = CARTESIAN_POINT ( 'NONE',  ( 2.180420492655819900, 1.706499999999999900, 1.027500000000000300 ) ) ;
#1208 = DIRECTION ( 'NONE',  ( -1.000000000000000000, 0.0000000000000000000, 0.0000000000000000000 ) ) ;
#1209 = AXIS2_PLACEMENT_3D ( 'NONE', #375, #781, #70 ) ;
#1210 = CARTESIAN_POINT ( 'NONE',  ( -2.180420492655819900, 1.706499999999999900, -1.027500000000000500 ) ) ;
#1211 = CIRCLE ( 'NONE', #343, 0.1499999999999999700 ) ;
#1212 = FACE_OUTER_BOUND ( 'NONE', #1119, .T. ) ;
#1213 = CARTESIAN_POINT ( 'NONE',  ( 2.114444545587123700, 0.5029999999999998900, 1.812500000000000000 ) ) ;
#1214 = ORIENTED_EDGE ( 'NONE', *, *, #57, .T. ) ;
#1215 = EDGE_LOOP ( 'NONE', ( #355, #1295, #1153, #1082 ) ) ;
#1216 = CARTESIAN_POINT ( 'NONE',  ( -0.9499999999999999600, 0.5030000000000000000, 1.812500000000000000 ) ) ;
#1217 = EDGE_CURVE ( 'NONE', #1285, #394, #374, .T. ) ;
#1218 = LINE ( 'NONE', #1085, #1280 ) ;
#1219 = CARTESIAN_POINT ( 'NONE',  ( 2.389999999999999700, 0.4300000000000000500, -1.027500000000000300 ) ) ;
#1220 = VERTEX_POINT ( 'NONE', #1113 ) ;
#1221 = ADVANCED_FACE ( 'NONE', ( #674 ), #212, .F. ) ;
#1222 = ORIENTED_EDGE ( 'NONE', *, *, #151, .T. ) ;
#1223 = DIRECTION ( 'NONE',  ( 0.0000000000000000000, 0.0000000000000000000, -1.000000000000000000 ) ) ;
#1224 = AXIS2_PLACEMENT_3D ( 'NONE', #321, #1019, #424 ) ;
#1225 = DIRECTION ( 'NONE',  ( -0.0000000000000000000, -0.0000000000000000000, 1.000000000000000000 ) ) ;
#1226 = CARTESIAN_POINT ( 'NONE',  ( 2.239999999999999800, 1.276500000000000000, 1.027500000000000300 ) ) ;
#1227 = ADVANCED_FACE ( 'NONE', ( #1293 ), #1105, .F. ) ;
#1228 = EDGE_CURVE ( 'NONE', #205, #337, #237, .T. ) ;
#1229 = CARTESIAN_POINT ( 'NONE',  ( -2.200000000000000200, 1.426500000000000100, 1.812500000000000000 ) ) ;
#1230 = PLANE ( 'NONE',  #46 ) ;
#1231 = EDGE_CURVE ( 'NONE', #871, #83, #1069, .T. ) ;
#1232 = DIRECTION ( 'NONE',  ( -0.0000000000000000000, 1.000000000000000000, 0.0000000000000000000 ) ) ;
#1233 = VECTOR ( 'NONE', #607, 1000.000000000000000 ) ;
#1234 = CARTESIAN_POINT ( 'NONE',  ( -2.239999999999999800, 0.4299999999999999900, 1.027500000000000300 ) ) ;
#1235 = ADVANCED_FACE ( 'NONE', ( #305 ), #507, .F. ) ;
#1236 = EDGE_LOOP ( 'NONE', ( #847, #1186, #699, #792 ) ) ;
#1237 = ORIENTED_EDGE ( 'NONE', *, *, #611, .T. ) ;
#1238 = ORIENTED_EDGE ( 'NONE', *, *, #28, .T. ) ;
#1239 = ORIENTED_EDGE ( 'NONE', *, *, #913, .T. ) ;
#1240 = CARTESIAN_POINT ( 'NONE',  ( -2.114444545587125000, 2.649999999999999900, 1.812500000000000000 ) ) ;
#1241 = CARTESIAN_POINT ( 'NONE',  ( 2.389999999999999700, 0.4299999999999999900, 1.027500000000000300 ) ) ;
#1242 = VERTEX_POINT ( 'NONE', #405 ) ;
#1243 = AXIS2_PLACEMENT_3D ( 'NONE', #106, #510, #1104 ) ;
#1244 = CARTESIAN_POINT ( 'NONE',  ( -0.9499999999999999600, 0.2030000000000000400, 1.812500000000000000 ) ) ;
#1245 = CARTESIAN_POINT ( 'NONE',  ( -1.495000000000000600, 0.0000000000000000000, -1.027500000000000300 ) ) ;
#1246 = VECTOR ( 'NONE', #425, 999.9999999999998900 ) ;
#1247 = DIRECTION ( 'NONE',  ( 0.0000000000000000000, 0.0000000000000000000, 1.000000000000000000 ) ) ;
#1248 = PLANE ( 'NONE',  #924 ) ;
#1249 = VECTOR ( 'NONE', #676, 1000.000000000000100 ) ;
#1250 = EDGE_CURVE ( 'NONE', #890, #191, #245, .T. ) ;
#1251 = VECTOR ( 'NONE', #945, 1000.000000000000100 ) ;
#1252 = CARTESIAN_POINT ( 'NONE',  ( -1.495000000000000300, 0.2799999999999999700, 1.027500000000000300 ) ) ;
#1253 = VERTEX_POINT ( 'NONE', #1177 ) ;
#1254 = CARTESIAN_POINT ( 'NONE',  ( -2.239999999999999800, 1.426500000000000100, 1.027500000000000300 ) ) ;
#1255 = VECTOR ( 'NONE', #1175, 1000.000000000000000 ) ;
#1256 = ORIENTED_EDGE ( 'NONE', *, *, #1228, .T. ) ;
#1257 = DIRECTION ( 'NONE',  ( -0.0000000000000000000, -1.000000000000000000, 0.0000000000000000000 ) ) ;
#1258 = CARTESIAN_POINT ( 'NONE',  ( -2.669999999999999000, 1.276500000000000200, -1.027500000000000300 ) ) ;
#1259 = EDGE_CURVE ( 'NONE', #946, #992, #1260, .T. ) ;
#1260 = LINE ( 'NONE', #878, #358 ) ;
#1261 = AXIS2_PLACEMENT_3D ( 'NONE', #1240, #1127, #431 ) ;
#1262 = CARTESIAN_POINT ( 'NONE',  ( -1.495000000000000300, 0.2799999999999999700, -1.027500000000000300 ) ) ;
#1263 = CARTESIAN_POINT ( 'NONE',  ( 2.239999999999999800, 1.426500000000000100, 1.027500000000000300 ) ) ;
#1264 = CARTESIAN_POINT ( 'NONE',  ( -2.180420492655819900, 1.706499999999999900, 1.027500000000000300 ) ) ;
#1265 = LINE ( 'NONE', #201, #188 ) ;
#1266 = ORIENTED_EDGE ( 'NONE', *, *, #1286, .F. ) ;
#1267 = ORIENTED_EDGE ( 'NONE', *, *, #578, .T. ) ;
#1268 = LINE ( 'NONE', #733, #746 ) ;
#1269 = LINE ( 'NONE', #692, #1249 ) ;
#1270 = ORIENTED_EDGE ( 'NONE', *, *, #695, .T. ) ;
#1271 = FILL_AREA_STYLE_COLOUR ( '', #409 ) ;
#1272 = SURFACE_STYLE_USAGE ( .BOTH. , #664 ) ;
#1273 = VERTEX_POINT ( 'NONE', #977 ) ;
#1274 = ORIENTED_EDGE ( 'NONE', *, *, #913, .F. ) ;
#1275 = FACE_OUTER_BOUND ( 'NONE', #366, .T. ) ;
#1276 =( NAMED_UNIT ( * ) SI_UNIT ( $, .STERADIAN. ) SOLID_ANGLE_UNIT ( ) );
#1277 = EDGE_CURVE ( 'NONE', #51, #844, #513, .T. ) ;
#1278 = DIRECTION ( 'NONE',  ( -0.0000000000000000000, -0.0000000000000000000, 1.000000000000000000 ) ) ;
#1279 = DIRECTION ( 'NONE',  ( 1.000000000000000000, 0.0000000000000000000, 0.0000000000000000000 ) ) ;
#1280 = VECTOR ( 'NONE', #485, 1000.000000000000000 ) ;
#1281 = CARTESIAN_POINT ( 'NONE',  ( -2.239999999999999800, 1.706499999999999900, -1.027500000000000300 ) ) ;
#1282 = FACE_OUTER_BOUND ( 'NONE', #322, .T. ) ;
#1283 = DIRECTION ( 'NONE',  ( -1.000000000000000000, 0.0000000000000000000, -0.0000000000000000000 ) ) ;
#1284 = ORIENTED_EDGE ( 'NONE', *, *, #629, .T. ) ;
#1285 = VERTEX_POINT ( 'NONE', #327 ) ;
#1286 = EDGE_CURVE ( 'NONE', #221, #608, #231, .T. ) ;
#1287 = AXIS2_PLACEMENT_3D ( 'NONE', #1120, #1018, #319 ) ;
#1288 = CARTESIAN_POINT ( 'NONE',  ( -2.239999999999999800, 1.276500000000000000, 1.027500000000000300 ) ) ;
#1289 = ORIENTED_EDGE ( 'NONE', *, *, #514, .T. ) ;
#1290 = CARTESIAN_POINT ( 'NONE',  ( 0.9499999999999998400, 0.5030000000000000000, 1.747922589170175300 ) ) ;
#1291 = DIRECTION ( 'NONE',  ( -0.09202479035650919200, -0.9933311029372045000, 0.06946047723272243100 ) ) ;
#1292 = VECTOR ( 'NONE', #1015, 1000.000000000000000 ) ;
#1293 = FACE_OUTER_BOUND ( 'NONE', #1215, .T. ) ;
#1294 = FACE_OUTER_BOUND ( 'NONE', #545, .T. ) ;
#1295 = ORIENTED_EDGE ( 'NONE', *, *, #1101, .T. ) ;
#1296 = ORIENTED_EDGE ( 'NONE', *, *, #96, .F. ) ;
#1297 = ORIENTED_EDGE ( 'NONE', *, *, #3, .F. ) ;
#1298 = EDGE_CURVE ( 'NONE', #191, #51, #895, .T. ) ;
#1299 = ORIENTED_EDGE ( 'NONE', *, *, #1131, .T. ) ;
#1300 = DIRECTION ( 'NONE',  ( 0.0000000000000000000, 0.0000000000000000000, -1.000000000000000000 ) ) ;
#1301 = AXIS2_PLACEMENT_3D ( 'NONE', #570, #360, #958 ) ;
#1302 = CARTESIAN_POINT ( 'NONE',  ( -1.495000000000000600, 0.0000000000000000000, 1.027500000000000300 ) ) ;
#1303 = EDGE_CURVE ( 'NONE', #130, #434, #1205, .T. ) ;
#1304 = DIRECTION ( 'NONE',  ( -3.605203701617137900E-016, 0.9975640502598249700, 0.06975647374411493600 ) ) ;
ENDSEC;
END-ISO-10303-21;
