ISO-10303-21;
HEADER;
/* Generated by software containing ST-Developer
 * from STEP Tools, Inc. (www.steptools.com) 
 */
/* OPTION: strings as raw bytes, not using required /X/ escapes */

FILE_DESCRIPTION(
/* description */ ('Unknown'),
/* implementation_level */ '2;1');

FILE_NAME(
/* name */ 'SP3205-01ETG',
/* time_stamp */ '2023-08-29T08:51:46+02:00',
/* author */ ('Unknown'),
/* organization */ ('Unknown'),
/* preprocessor_version */ 'ST-DEVELOPER v18.102',
/* originating_system */ 'Solid Edge',
/* authorisation */ 'Unknown');

FILE_SCHEMA (('TECHNICAL_DATA_PACKAGING','AUTOMOTIVE_DESIGN {1 0 10303 214 3 1 1}'));
ENDSEC;

DATA;
#10=PROPERTY_DEFINITION_REPRESENTATION(#14,#12);
#11=PROPERTY_DEFINITION_REPRESENTATION(#15,#13);
#12=REPRESENTATION('',(#16),#1711);
#13=REPRESENTATION('',(#17),#1711);
#14=PROPERTY_DEFINITION('pmi validation property','',#1716);
#15=PROPERTY_DEFINITION('pmi validation property','',#1716);
#16=VALUE_REPRESENTATION_ITEM('number of annotations',COUNT_MEASURE(0.));
#17=VALUE_REPRESENTATION_ITEM('number of views',COUNT_MEASURE(0.));
#18=SHAPE_REPRESENTATION_RELATIONSHIP('','',#1185,#19);
#19=ADVANCED_BREP_SHAPE_REPRESENTATION('',(#1183),#1711);
#20=SPHERICAL_SURFACE('',#1239,0.015);
#21=SPHERICAL_SURFACE('',#1241,0.015);
#22=SPHERICAL_SURFACE('',#1247,0.015);
#23=SPHERICAL_SURFACE('',#1249,0.015);
#24=CYLINDRICAL_SURFACE('',#1228,0.015);
#25=CYLINDRICAL_SURFACE('',#1230,0.015);
#26=CYLINDRICAL_SURFACE('',#1232,0.015);
#27=CYLINDRICAL_SURFACE('',#1234,0.015);
#28=CYLINDRICAL_SURFACE('',#1236,0.015);
#29=CYLINDRICAL_SURFACE('',#1243,0.015);
#30=CYLINDRICAL_SURFACE('',#1245,0.015);
#31=CYLINDRICAL_SURFACE('',#1251,0.015);
#32=CIRCLE('',#1190,0.015);
#33=CIRCLE('',#1191,0.015);
#34=CIRCLE('',#1192,0.015);
#35=CIRCLE('',#1193,0.015);
#36=CIRCLE('',#1229,0.015);
#37=CIRCLE('',#1231,0.015);
#38=CIRCLE('',#1233,0.015);
#39=CIRCLE('',#1235,0.015);
#40=CIRCLE('',#1237,0.015);
#41=CIRCLE('',#1238,0.015);
#42=CIRCLE('',#1240,0.015);
#43=CIRCLE('',#1242,0.015);
#44=CIRCLE('',#1244,0.015);
#45=CIRCLE('',#1246,0.015);
#46=CIRCLE('',#1248,0.015);
#47=CIRCLE('',#1250,0.015);
#48=ORIENTED_EDGE('',*,*,#270,.T.);
#49=ORIENTED_EDGE('',*,*,#271,.T.);
#50=ORIENTED_EDGE('',*,*,#272,.T.);
#51=ORIENTED_EDGE('',*,*,#273,.T.);
#52=ORIENTED_EDGE('',*,*,#274,.T.);
#53=ORIENTED_EDGE('',*,*,#275,.T.);
#54=ORIENTED_EDGE('',*,*,#276,.T.);
#55=ORIENTED_EDGE('',*,*,#277,.T.);
#56=ORIENTED_EDGE('',*,*,#278,.F.);
#57=ORIENTED_EDGE('',*,*,#279,.F.);
#58=ORIENTED_EDGE('',*,*,#280,.F.);
#59=ORIENTED_EDGE('',*,*,#281,.F.);
#60=ORIENTED_EDGE('',*,*,#282,.T.);
#61=ORIENTED_EDGE('',*,*,#283,.T.);
#62=ORIENTED_EDGE('',*,*,#284,.T.);
#63=ORIENTED_EDGE('',*,*,#285,.T.);
#64=ORIENTED_EDGE('',*,*,#286,.T.);
#65=ORIENTED_EDGE('',*,*,#287,.T.);
#66=ORIENTED_EDGE('',*,*,#288,.T.);
#67=ORIENTED_EDGE('',*,*,#289,.T.);
#68=ORIENTED_EDGE('',*,*,#290,.F.);
#69=ORIENTED_EDGE('',*,*,#291,.F.);
#70=ORIENTED_EDGE('',*,*,#292,.F.);
#71=ORIENTED_EDGE('',*,*,#293,.F.);
#72=ORIENTED_EDGE('',*,*,#294,.T.);
#73=ORIENTED_EDGE('',*,*,#295,.T.);
#74=ORIENTED_EDGE('',*,*,#296,.T.);
#75=ORIENTED_EDGE('',*,*,#297,.T.);
#76=ORIENTED_EDGE('',*,*,#298,.T.);
#77=ORIENTED_EDGE('',*,*,#299,.F.);
#78=ORIENTED_EDGE('',*,*,#300,.T.);
#79=ORIENTED_EDGE('',*,*,#277,.F.);
#80=ORIENTED_EDGE('',*,*,#301,.T.);
#81=ORIENTED_EDGE('',*,*,#302,.F.);
#82=ORIENTED_EDGE('',*,*,#303,.T.);
#83=ORIENTED_EDGE('',*,*,#289,.F.);
#84=ORIENTED_EDGE('',*,*,#304,.T.);
#85=ORIENTED_EDGE('',*,*,#305,.F.);
#86=ORIENTED_EDGE('',*,*,#306,.F.);
#87=ORIENTED_EDGE('',*,*,#307,.F.);
#88=ORIENTED_EDGE('',*,*,#308,.F.);
#89=ORIENTED_EDGE('',*,*,#309,.T.);
#90=ORIENTED_EDGE('',*,*,#310,.T.);
#91=ORIENTED_EDGE('',*,*,#311,.T.);
#92=ORIENTED_EDGE('',*,*,#299,.T.);
#93=ORIENTED_EDGE('',*,*,#312,.T.);
#94=ORIENTED_EDGE('',*,*,#313,.T.);
#95=ORIENTED_EDGE('',*,*,#314,.T.);
#96=ORIENTED_EDGE('',*,*,#302,.T.);
#97=ORIENTED_EDGE('',*,*,#315,.T.);
#98=ORIENTED_EDGE('',*,*,#316,.T.);
#99=ORIENTED_EDGE('',*,*,#317,.T.);
#100=ORIENTED_EDGE('',*,*,#318,.T.);
#101=ORIENTED_EDGE('',*,*,#305,.T.);
#102=ORIENTED_EDGE('',*,*,#319,.F.);
#103=ORIENTED_EDGE('',*,*,#320,.F.);
#104=ORIENTED_EDGE('',*,*,#321,.T.);
#105=ORIENTED_EDGE('',*,*,#308,.T.);
#106=ORIENTED_EDGE('',*,*,#322,.F.);
#107=ORIENTED_EDGE('',*,*,#323,.F.);
#108=ORIENTED_EDGE('',*,*,#319,.T.);
#109=ORIENTED_EDGE('',*,*,#307,.T.);
#110=ORIENTED_EDGE('',*,*,#324,.F.);
#111=ORIENTED_EDGE('',*,*,#325,.F.);
#112=ORIENTED_EDGE('',*,*,#322,.T.);
#113=ORIENTED_EDGE('',*,*,#306,.T.);
#114=ORIENTED_EDGE('',*,*,#321,.F.);
#115=ORIENTED_EDGE('',*,*,#326,.F.);
#116=ORIENTED_EDGE('',*,*,#324,.T.);
#117=ORIENTED_EDGE('',*,*,#320,.T.);
#118=ORIENTED_EDGE('',*,*,#323,.T.);
#119=ORIENTED_EDGE('',*,*,#325,.T.);
#120=ORIENTED_EDGE('',*,*,#326,.T.);
#121=ORIENTED_EDGE('',*,*,#295,.F.);
#122=ORIENTED_EDGE('',*,*,#327,.F.);
#123=ORIENTED_EDGE('',*,*,#328,.T.);
#124=ORIENTED_EDGE('',*,*,#329,.T.);
#125=ORIENTED_EDGE('',*,*,#330,.T.);
#126=ORIENTED_EDGE('',*,*,#331,.T.);
#127=ORIENTED_EDGE('',*,*,#296,.F.);
#128=ORIENTED_EDGE('',*,*,#329,.F.);
#129=ORIENTED_EDGE('',*,*,#298,.F.);
#130=ORIENTED_EDGE('',*,*,#332,.T.);
#131=ORIENTED_EDGE('',*,*,#333,.T.);
#132=ORIENTED_EDGE('',*,*,#334,.T.);
#133=ORIENTED_EDGE('',*,*,#294,.F.);
#134=ORIENTED_EDGE('',*,*,#334,.F.);
#135=ORIENTED_EDGE('',*,*,#335,.T.);
#136=ORIENTED_EDGE('',*,*,#327,.T.);
#137=ORIENTED_EDGE('',*,*,#333,.F.);
#138=ORIENTED_EDGE('',*,*,#336,.T.);
#139=ORIENTED_EDGE('',*,*,#330,.F.);
#140=ORIENTED_EDGE('',*,*,#328,.F.);
#141=ORIENTED_EDGE('',*,*,#335,.F.);
#142=ORIENTED_EDGE('',*,*,#336,.F.);
#143=ORIENTED_EDGE('',*,*,#332,.F.);
#144=ORIENTED_EDGE('',*,*,#297,.F.);
#145=ORIENTED_EDGE('',*,*,#331,.F.);
#146=ORIENTED_EDGE('',*,*,#337,.F.);
#147=ORIENTED_EDGE('',*,*,#338,.F.);
#148=ORIENTED_EDGE('',*,*,#339,.F.);
#149=ORIENTED_EDGE('',*,*,#340,.F.);
#150=ORIENTED_EDGE('',*,*,#341,.F.);
#151=ORIENTED_EDGE('',*,*,#293,.T.);
#152=ORIENTED_EDGE('',*,*,#342,.T.);
#153=ORIENTED_EDGE('',*,*,#338,.T.);
#154=ORIENTED_EDGE('',*,*,#342,.F.);
#155=ORIENTED_EDGE('',*,*,#292,.T.);
#156=ORIENTED_EDGE('',*,*,#343,.T.);
#157=ORIENTED_EDGE('',*,*,#339,.T.);
#158=ORIENTED_EDGE('',*,*,#343,.F.);
#159=ORIENTED_EDGE('',*,*,#291,.T.);
#160=ORIENTED_EDGE('',*,*,#344,.T.);
#161=ORIENTED_EDGE('',*,*,#340,.T.);
#162=ORIENTED_EDGE('',*,*,#344,.F.);
#163=ORIENTED_EDGE('',*,*,#290,.T.);
#164=ORIENTED_EDGE('',*,*,#341,.T.);
#165=ORIENTED_EDGE('',*,*,#337,.T.);
#166=ORIENTED_EDGE('',*,*,#345,.T.);
#167=ORIENTED_EDGE('',*,*,#278,.T.);
#168=ORIENTED_EDGE('',*,*,#346,.F.);
#169=ORIENTED_EDGE('',*,*,#347,.F.);
#170=ORIENTED_EDGE('',*,*,#346,.T.);
#171=ORIENTED_EDGE('',*,*,#281,.T.);
#172=ORIENTED_EDGE('',*,*,#348,.F.);
#173=ORIENTED_EDGE('',*,*,#349,.F.);
#174=ORIENTED_EDGE('',*,*,#348,.T.);
#175=ORIENTED_EDGE('',*,*,#280,.T.);
#176=ORIENTED_EDGE('',*,*,#350,.F.);
#177=ORIENTED_EDGE('',*,*,#351,.F.);
#178=ORIENTED_EDGE('',*,*,#350,.T.);
#179=ORIENTED_EDGE('',*,*,#279,.T.);
#180=ORIENTED_EDGE('',*,*,#345,.F.);
#181=ORIENTED_EDGE('',*,*,#352,.F.);
#182=ORIENTED_EDGE('',*,*,#347,.T.);
#183=ORIENTED_EDGE('',*,*,#349,.T.);
#184=ORIENTED_EDGE('',*,*,#351,.T.);
#185=ORIENTED_EDGE('',*,*,#352,.T.);
#186=ORIENTED_EDGE('',*,*,#353,.T.);
#187=ORIENTED_EDGE('',*,*,#354,.T.);
#188=ORIENTED_EDGE('',*,*,#355,.T.);
#189=ORIENTED_EDGE('',*,*,#356,.T.);
#190=ORIENTED_EDGE('',*,*,#284,.F.);
#191=ORIENTED_EDGE('',*,*,#357,.T.);
#192=ORIENTED_EDGE('',*,*,#356,.F.);
#193=ORIENTED_EDGE('',*,*,#358,.F.);
#194=ORIENTED_EDGE('',*,*,#285,.F.);
#195=ORIENTED_EDGE('',*,*,#358,.T.);
#196=ORIENTED_EDGE('',*,*,#355,.F.);
#197=ORIENTED_EDGE('',*,*,#359,.F.);
#198=ORIENTED_EDGE('',*,*,#282,.F.);
#199=ORIENTED_EDGE('',*,*,#359,.T.);
#200=ORIENTED_EDGE('',*,*,#354,.F.);
#201=ORIENTED_EDGE('',*,*,#360,.F.);
#202=ORIENTED_EDGE('',*,*,#283,.F.);
#203=ORIENTED_EDGE('',*,*,#360,.T.);
#204=ORIENTED_EDGE('',*,*,#353,.F.);
#205=ORIENTED_EDGE('',*,*,#357,.F.);
#206=ORIENTED_EDGE('',*,*,#271,.F.);
#207=ORIENTED_EDGE('',*,*,#361,.F.);
#208=ORIENTED_EDGE('',*,*,#362,.T.);
#209=ORIENTED_EDGE('',*,*,#363,.T.);
#210=ORIENTED_EDGE('',*,*,#272,.F.);
#211=ORIENTED_EDGE('',*,*,#363,.F.);
#212=ORIENTED_EDGE('',*,*,#364,.T.);
#213=ORIENTED_EDGE('',*,*,#365,.T.);
#214=ORIENTED_EDGE('',*,*,#273,.F.);
#215=ORIENTED_EDGE('',*,*,#365,.F.);
#216=ORIENTED_EDGE('',*,*,#366,.T.);
#217=ORIENTED_EDGE('',*,*,#367,.T.);
#218=ORIENTED_EDGE('',*,*,#270,.F.);
#219=ORIENTED_EDGE('',*,*,#367,.F.);
#220=ORIENTED_EDGE('',*,*,#368,.T.);
#221=ORIENTED_EDGE('',*,*,#361,.T.);
#222=ORIENTED_EDGE('',*,*,#362,.F.);
#223=ORIENTED_EDGE('',*,*,#368,.F.);
#224=ORIENTED_EDGE('',*,*,#366,.F.);
#225=ORIENTED_EDGE('',*,*,#364,.F.);
#226=ORIENTED_EDGE('',*,*,#276,.F.);
#227=ORIENTED_EDGE('',*,*,#369,.T.);
#228=ORIENTED_EDGE('',*,*,#312,.F.);
#229=ORIENTED_EDGE('',*,*,#301,.F.);
#230=ORIENTED_EDGE('',*,*,#288,.F.);
#231=ORIENTED_EDGE('',*,*,#370,.T.);
#232=ORIENTED_EDGE('',*,*,#309,.F.);
#233=ORIENTED_EDGE('',*,*,#304,.F.);
#234=ORIENTED_EDGE('',*,*,#314,.F.);
#235=ORIENTED_EDGE('',*,*,#371,.T.);
#236=ORIENTED_EDGE('',*,*,#286,.F.);
#237=ORIENTED_EDGE('',*,*,#303,.F.);
#238=ORIENTED_EDGE('',*,*,#311,.F.);
#239=ORIENTED_EDGE('',*,*,#372,.T.);
#240=ORIENTED_EDGE('',*,*,#274,.F.);
#241=ORIENTED_EDGE('',*,*,#300,.F.);
#242=ORIENTED_EDGE('',*,*,#373,.F.);
#243=ORIENTED_EDGE('',*,*,#287,.F.);
#244=ORIENTED_EDGE('',*,*,#374,.F.);
#245=ORIENTED_EDGE('',*,*,#318,.F.);
#246=ORIENTED_EDGE('',*,*,#374,.T.);
#247=ORIENTED_EDGE('',*,*,#371,.F.);
#248=ORIENTED_EDGE('',*,*,#375,.F.);
#249=ORIENTED_EDGE('',*,*,#370,.F.);
#250=ORIENTED_EDGE('',*,*,#373,.T.);
#251=ORIENTED_EDGE('',*,*,#376,.F.);
#252=ORIENTED_EDGE('',*,*,#375,.T.);
#253=ORIENTED_EDGE('',*,*,#313,.F.);
#254=ORIENTED_EDGE('',*,*,#377,.F.);
#255=ORIENTED_EDGE('',*,*,#315,.F.);
#256=ORIENTED_EDGE('',*,*,#376,.T.);
#257=ORIENTED_EDGE('',*,*,#317,.F.);
#258=ORIENTED_EDGE('',*,*,#378,.F.);
#259=ORIENTED_EDGE('',*,*,#310,.F.);
#260=ORIENTED_EDGE('',*,*,#377,.T.);
#261=ORIENTED_EDGE('',*,*,#369,.F.);
#262=ORIENTED_EDGE('',*,*,#379,.F.);
#263=ORIENTED_EDGE('',*,*,#372,.F.);
#264=ORIENTED_EDGE('',*,*,#378,.T.);
#265=ORIENTED_EDGE('',*,*,#380,.F.);
#266=ORIENTED_EDGE('',*,*,#379,.T.);
#267=ORIENTED_EDGE('',*,*,#275,.F.);
#268=ORIENTED_EDGE('',*,*,#380,.T.);
#269=ORIENTED_EDGE('',*,*,#316,.F.);
#270=EDGE_CURVE('',#381,#382,#451,.T.);
#271=EDGE_CURVE('',#382,#383,#452,.T.);
#272=EDGE_CURVE('',#383,#384,#453,.T.);
#273=EDGE_CURVE('',#384,#381,#454,.T.);
#274=EDGE_CURVE('',#385,#386,#455,.F.);
#275=EDGE_CURVE('',#386,#387,#456,.F.);
#276=EDGE_CURVE('',#387,#388,#457,.T.);
#277=EDGE_CURVE('',#388,#385,#458,.T.);
#278=EDGE_CURVE('',#389,#390,#459,.T.);
#279=EDGE_CURVE('',#391,#389,#460,.T.);
#280=EDGE_CURVE('',#392,#391,#461,.T.);
#281=EDGE_CURVE('',#390,#392,#462,.T.);
#282=EDGE_CURVE('',#393,#394,#463,.T.);
#283=EDGE_CURVE('',#394,#395,#464,.T.);
#284=EDGE_CURVE('',#395,#396,#465,.T.);
#285=EDGE_CURVE('',#396,#393,#466,.T.);
#286=EDGE_CURVE('',#397,#398,#467,.F.);
#287=EDGE_CURVE('',#398,#399,#468,.F.);
#288=EDGE_CURVE('',#399,#400,#469,.T.);
#289=EDGE_CURVE('',#400,#397,#470,.T.);
#290=EDGE_CURVE('',#401,#402,#471,.T.);
#291=EDGE_CURVE('',#403,#401,#472,.T.);
#292=EDGE_CURVE('',#404,#403,#473,.T.);
#293=EDGE_CURVE('',#402,#404,#474,.T.);
#294=EDGE_CURVE('',#405,#406,#475,.T.);
#295=EDGE_CURVE('',#406,#407,#476,.T.);
#296=EDGE_CURVE('',#407,#408,#477,.T.);
#297=EDGE_CURVE('',#408,#409,#478,.F.);
#298=EDGE_CURVE('',#409,#405,#479,.T.);
#299=EDGE_CURVE('',#410,#411,#480,.T.);
#300=EDGE_CURVE('',#410,#385,#32,.F.);
#301=EDGE_CURVE('',#388,#412,#33,.F.);
#302=EDGE_CURVE('',#413,#412,#481,.T.);
#303=EDGE_CURVE('',#413,#397,#34,.F.);
#304=EDGE_CURVE('',#400,#411,#35,.F.);
#305=EDGE_CURVE('',#414,#415,#482,.T.);
#306=EDGE_CURVE('',#416,#414,#483,.T.);
#307=EDGE_CURVE('',#417,#416,#484,.T.);
#308=EDGE_CURVE('',#415,#417,#485,.T.);
#309=EDGE_CURVE('',#411,#418,#486,.F.);
#310=EDGE_CURVE('',#418,#419,#487,.F.);
#311=EDGE_CURVE('',#419,#410,#488,.T.);
#312=EDGE_CURVE('',#412,#420,#489,.F.);
#313=EDGE_CURVE('',#420,#421,#490,.F.);
#314=EDGE_CURVE('',#421,#413,#491,.T.);
#315=EDGE_CURVE('',#422,#423,#492,.T.);
#316=EDGE_CURVE('',#423,#424,#493,.T.);
#317=EDGE_CURVE('',#424,#425,#494,.T.);
#318=EDGE_CURVE('',#425,#422,#495,.T.);
#319=EDGE_CURVE('',#426,#415,#496,.T.);
#320=EDGE_CURVE('',#427,#426,#497,.T.);
#321=EDGE_CURVE('',#427,#414,#498,.T.);
#322=EDGE_CURVE('',#428,#417,#499,.T.);
#323=EDGE_CURVE('',#426,#428,#500,.T.);
#324=EDGE_CURVE('',#429,#416,#501,.T.);
#325=EDGE_CURVE('',#428,#429,#502,.T.);
#326=EDGE_CURVE('',#429,#427,#503,.T.);
#327=EDGE_CURVE('',#430,#406,#504,.T.);
#328=EDGE_CURVE('',#430,#431,#505,.T.);
#329=EDGE_CURVE('',#431,#407,#506,.T.);
#330=EDGE_CURVE('',#431,#432,#507,.T.);
#331=EDGE_CURVE('',#432,#408,#508,.T.);
#332=EDGE_CURVE('',#409,#433,#509,.T.);
#333=EDGE_CURVE('',#433,#434,#510,.T.);
#334=EDGE_CURVE('',#434,#405,#511,.T.);
#335=EDGE_CURVE('',#434,#430,#512,.T.);
#336=EDGE_CURVE('',#433,#432,#513,.F.);
#337=EDGE_CURVE('',#435,#436,#514,.T.);
#338=EDGE_CURVE('',#437,#435,#515,.T.);
#339=EDGE_CURVE('',#438,#437,#516,.T.);
#340=EDGE_CURVE('',#436,#438,#517,.T.);
#341=EDGE_CURVE('',#402,#435,#518,.T.);
#342=EDGE_CURVE('',#404,#437,#519,.T.);
#343=EDGE_CURVE('',#403,#438,#520,.T.);
#344=EDGE_CURVE('',#401,#436,#521,.T.);
#345=EDGE_CURVE('',#439,#389,#522,.T.);
#346=EDGE_CURVE('',#440,#390,#523,.T.);
#347=EDGE_CURVE('',#439,#440,#524,.T.);
#348=EDGE_CURVE('',#441,#392,#525,.T.);
#349=EDGE_CURVE('',#440,#441,#526,.T.);
#350=EDGE_CURVE('',#442,#391,#527,.T.);
#351=EDGE_CURVE('',#441,#442,#528,.T.);
#352=EDGE_CURVE('',#442,#439,#529,.T.);
#353=EDGE_CURVE('',#443,#444,#530,.T.);
#354=EDGE_CURVE('',#444,#445,#531,.T.);
#355=EDGE_CURVE('',#445,#446,#532,.T.);
#356=EDGE_CURVE('',#446,#443,#533,.T.);
#357=EDGE_CURVE('',#395,#443,#534,.T.);
#358=EDGE_CURVE('',#396,#446,#535,.T.);
#359=EDGE_CURVE('',#393,#445,#536,.T.);
#360=EDGE_CURVE('',#394,#444,#537,.T.);
#361=EDGE_CURVE('',#447,#382,#538,.T.);
#362=EDGE_CURVE('',#447,#448,#539,.T.);
#363=EDGE_CURVE('',#448,#383,#540,.T.);
#364=EDGE_CURVE('',#448,#449,#541,.T.);
#365=EDGE_CURVE('',#449,#384,#542,.T.);
#366=EDGE_CURVE('',#449,#450,#543,.T.);
#367=EDGE_CURVE('',#450,#381,#544,.T.);
#368=EDGE_CURVE('',#450,#447,#545,.T.);
#369=EDGE_CURVE('',#387,#420,#36,.T.);
#370=EDGE_CURVE('',#399,#418,#37,.T.);
#371=EDGE_CURVE('',#421,#398,#38,.T.);
#372=EDGE_CURVE('',#419,#386,#39,.T.);
#373=EDGE_CURVE('',#399,#425,#40,.T.);
#374=EDGE_CURVE('',#422,#398,#41,.T.);
#375=EDGE_CURVE('',#422,#421,#42,.T.);
#376=EDGE_CURVE('',#418,#425,#43,.T.);
#377=EDGE_CURVE('',#423,#420,#44,.T.);
#378=EDGE_CURVE('',#419,#424,#45,.T.);
#379=EDGE_CURVE('',#423,#387,#46,.T.);
#380=EDGE_CURVE('',#386,#424,#47,.T.);
#381=VERTEX_POINT('',#1482);
#382=VERTEX_POINT('',#1483);
#383=VERTEX_POINT('',#1485);
#384=VERTEX_POINT('',#1487);
#385=VERTEX_POINT('',#1490);
#386=VERTEX_POINT('',#1491);
#387=VERTEX_POINT('',#1493);
#388=VERTEX_POINT('',#1495);
#389=VERTEX_POINT('',#1498);
#390=VERTEX_POINT('',#1499);
#391=VERTEX_POINT('',#1501);
#392=VERTEX_POINT('',#1503);
#393=VERTEX_POINT('',#1507);
#394=VERTEX_POINT('',#1508);
#395=VERTEX_POINT('',#1510);
#396=VERTEX_POINT('',#1512);
#397=VERTEX_POINT('',#1515);
#398=VERTEX_POINT('',#1516);
#399=VERTEX_POINT('',#1518);
#400=VERTEX_POINT('',#1520);
#401=VERTEX_POINT('',#1523);
#402=VERTEX_POINT('',#1524);
#403=VERTEX_POINT('',#1526);
#404=VERTEX_POINT('',#1528);
#405=VERTEX_POINT('',#1532);
#406=VERTEX_POINT('',#1533);
#407=VERTEX_POINT('',#1535);
#408=VERTEX_POINT('',#1537);
#409=VERTEX_POINT('',#1539);
#410=VERTEX_POINT('',#1542);
#411=VERTEX_POINT('',#1543);
#412=VERTEX_POINT('',#1546);
#413=VERTEX_POINT('',#1548);
#414=VERTEX_POINT('',#1552);
#415=VERTEX_POINT('',#1553);
#416=VERTEX_POINT('',#1555);
#417=VERTEX_POINT('',#1557);
#418=VERTEX_POINT('',#1561);
#419=VERTEX_POINT('',#1563);
#420=VERTEX_POINT('',#1567);
#421=VERTEX_POINT('',#1569);
#422=VERTEX_POINT('',#1573);
#423=VERTEX_POINT('',#1574);
#424=VERTEX_POINT('',#1576);
#425=VERTEX_POINT('',#1578);
#426=VERTEX_POINT('',#1582);
#427=VERTEX_POINT('',#1584);
#428=VERTEX_POINT('',#1588);
#429=VERTEX_POINT('',#1592);
#430=VERTEX_POINT('',#1599);
#431=VERTEX_POINT('',#1601);
#432=VERTEX_POINT('',#1605);
#433=VERTEX_POINT('',#1609);
#434=VERTEX_POINT('',#1611);
#435=VERTEX_POINT('',#1620);
#436=VERTEX_POINT('',#1621);
#437=VERTEX_POINT('',#1623);
#438=VERTEX_POINT('',#1625);
#439=VERTEX_POINT('',#1637);
#440=VERTEX_POINT('',#1639);
#441=VERTEX_POINT('',#1643);
#442=VERTEX_POINT('',#1647);
#443=VERTEX_POINT('',#1654);
#444=VERTEX_POINT('',#1655);
#445=VERTEX_POINT('',#1657);
#446=VERTEX_POINT('',#1659);
#447=VERTEX_POINT('',#1671);
#448=VERTEX_POINT('',#1673);
#449=VERTEX_POINT('',#1677);
#450=VERTEX_POINT('',#1681);
#451=LINE('',#1481,#546);
#452=LINE('',#1484,#547);
#453=LINE('',#1486,#548);
#454=LINE('',#1488,#549);
#455=LINE('',#1489,#550);
#456=LINE('',#1492,#551);
#457=LINE('',#1494,#552);
#458=LINE('',#1496,#553);
#459=LINE('',#1497,#554);
#460=LINE('',#1500,#555);
#461=LINE('',#1502,#556);
#462=LINE('',#1504,#557);
#463=LINE('',#1506,#558);
#464=LINE('',#1509,#559);
#465=LINE('',#1511,#560);
#466=LINE('',#1513,#561);
#467=LINE('',#1514,#562);
#468=LINE('',#1517,#563);
#469=LINE('',#1519,#564);
#470=LINE('',#1521,#565);
#471=LINE('',#1522,#566);
#472=LINE('',#1525,#567);
#473=LINE('',#1527,#568);
#474=LINE('',#1529,#569);
#475=LINE('',#1531,#570);
#476=LINE('',#1534,#571);
#477=LINE('',#1536,#572);
#478=LINE('',#1538,#573);
#479=LINE('',#1540,#574);
#480=LINE('',#1541,#575);
#481=LINE('',#1547,#576);
#482=LINE('',#1551,#577);
#483=LINE('',#1554,#578);
#484=LINE('',#1556,#579);
#485=LINE('',#1558,#580);
#486=LINE('',#1560,#581);
#487=LINE('',#1562,#582);
#488=LINE('',#1564,#583);
#489=LINE('',#1566,#584);
#490=LINE('',#1568,#585);
#491=LINE('',#1570,#586);
#492=LINE('',#1572,#587);
#493=LINE('',#1575,#588);
#494=LINE('',#1577,#589);
#495=LINE('',#1579,#590);
#496=LINE('',#1581,#591);
#497=LINE('',#1583,#592);
#498=LINE('',#1585,#593);
#499=LINE('',#1587,#594);
#500=LINE('',#1589,#595);
#501=LINE('',#1591,#596);
#502=LINE('',#1593,#597);
#503=LINE('',#1595,#598);
#504=LINE('',#1598,#599);
#505=LINE('',#1600,#600);
#506=LINE('',#1602,#601);
#507=LINE('',#1604,#602);
#508=LINE('',#1606,#603);
#509=LINE('',#1608,#604);
#510=LINE('',#1610,#605);
#511=LINE('',#1612,#606);
#512=LINE('',#1614,#607);
#513=LINE('',#1616,#608);
#514=LINE('',#1619,#609);
#515=LINE('',#1622,#610);
#516=LINE('',#1624,#611);
#517=LINE('',#1626,#612);
#518=LINE('',#1628,#613);
#519=LINE('',#1629,#614);
#520=LINE('',#1631,#615);
#521=LINE('',#1633,#616);
#522=LINE('',#1636,#617);
#523=LINE('',#1638,#618);
#524=LINE('',#1640,#619);
#525=LINE('',#1642,#620);
#526=LINE('',#1644,#621);
#527=LINE('',#1646,#622);
#528=LINE('',#1648,#623);
#529=LINE('',#1650,#624);
#530=LINE('',#1653,#625);
#531=LINE('',#1656,#626);
#532=LINE('',#1658,#627);
#533=LINE('',#1660,#628);
#534=LINE('',#1662,#629);
#535=LINE('',#1663,#630);
#536=LINE('',#1665,#631);
#537=LINE('',#1667,#632);
#538=LINE('',#1670,#633);
#539=LINE('',#1672,#634);
#540=LINE('',#1674,#635);
#541=LINE('',#1676,#636);
#542=LINE('',#1678,#637);
#543=LINE('',#1680,#638);
#544=LINE('',#1682,#639);
#545=LINE('',#1684,#640);
#546=VECTOR('',#1256,1000.);
#547=VECTOR('',#1257,1000.);
#548=VECTOR('',#1258,1000.);
#549=VECTOR('',#1259,1000.);
#550=VECTOR('',#1260,1000.);
#551=VECTOR('',#1261,1000.);
#552=VECTOR('',#1262,1000.);
#553=VECTOR('',#1263,1000.);
#554=VECTOR('',#1264,1000.);
#555=VECTOR('',#1265,1000.);
#556=VECTOR('',#1266,1000.);
#557=VECTOR('',#1267,1000.);
#558=VECTOR('',#1270,1000.);
#559=VECTOR('',#1271,1000.);
#560=VECTOR('',#1272,1000.);
#561=VECTOR('',#1273,1000.);
#562=VECTOR('',#1274,1000.);
#563=VECTOR('',#1275,1000.);
#564=VECTOR('',#1276,1000.);
#565=VECTOR('',#1277,1000.);
#566=VECTOR('',#1278,1000.);
#567=VECTOR('',#1279,1000.);
#568=VECTOR('',#1280,1000.);
#569=VECTOR('',#1281,1000.);
#570=VECTOR('',#1284,1000.);
#571=VECTOR('',#1285,1000.);
#572=VECTOR('',#1286,1000.);
#573=VECTOR('',#1287,1000.);
#574=VECTOR('',#1288,1000.);
#575=VECTOR('',#1289,1000.);
#576=VECTOR('',#1294,1000.);
#577=VECTOR('',#1299,1000.);
#578=VECTOR('',#1300,1000.);
#579=VECTOR('',#1301,1000.);
#580=VECTOR('',#1302,1000.);
#581=VECTOR('',#1305,1000.);
#582=VECTOR('',#1306,1000.);
#583=VECTOR('',#1307,1000.);
#584=VECTOR('',#1310,1000.);
#585=VECTOR('',#1311,1000.);
#586=VECTOR('',#1312,1000.);
#587=VECTOR('',#1315,1000.);
#588=VECTOR('',#1316,1000.);
#589=VECTOR('',#1317,1000.);
#590=VECTOR('',#1318,1000.);
#591=VECTOR('',#1321,1000.);
#592=VECTOR('',#1322,1000.);
#593=VECTOR('',#1323,1000.);
#594=VECTOR('',#1326,1000.);
#595=VECTOR('',#1327,1000.);
#596=VECTOR('',#1330,1000.);
#597=VECTOR('',#1331,1000.);
#598=VECTOR('',#1334,1000.);
#599=VECTOR('',#1339,1000.);
#600=VECTOR('',#1340,1000.);
#601=VECTOR('',#1341,1000.);
#602=VECTOR('',#1344,1000.);
#603=VECTOR('',#1345,1000.);
#604=VECTOR('',#1348,1000.);
#605=VECTOR('',#1349,1000.);
#606=VECTOR('',#1350,1000.);
#607=VECTOR('',#1353,1000.);
#608=VECTOR('',#1356,1000.);
#609=VECTOR('',#1361,1000.);
#610=VECTOR('',#1362,1000.);
#611=VECTOR('',#1363,1000.);
#612=VECTOR('',#1364,1000.);
#613=VECTOR('',#1367,1000.);
#614=VECTOR('',#1368,1000.);
#615=VECTOR('',#1371,1000.);
#616=VECTOR('',#1374,1000.);
#617=VECTOR('',#1379,1000.);
#618=VECTOR('',#1380,1000.);
#619=VECTOR('',#1381,1000.);
#620=VECTOR('',#1384,1000.);
#621=VECTOR('',#1385,1000.);
#622=VECTOR('',#1388,1000.);
#623=VECTOR('',#1389,1000.);
#624=VECTOR('',#1392,1000.);
#625=VECTOR('',#1397,1000.);
#626=VECTOR('',#1398,1000.);
#627=VECTOR('',#1399,1000.);
#628=VECTOR('',#1400,1000.);
#629=VECTOR('',#1403,1000.);
#630=VECTOR('',#1404,1000.);
#631=VECTOR('',#1407,1000.);
#632=VECTOR('',#1410,1000.);
#633=VECTOR('',#1415,1000.);
#634=VECTOR('',#1416,1000.);
#635=VECTOR('',#1417,1000.);
#636=VECTOR('',#1420,1000.);
#637=VECTOR('',#1421,1000.);
#638=VECTOR('',#1424,1000.);
#639=VECTOR('',#1425,1000.);
#640=VECTOR('',#1428,1000.);
#641=EDGE_LOOP('',(#48,#49,#50,#51));
#642=EDGE_LOOP('',(#52,#53,#54,#55));
#643=EDGE_LOOP('',(#56,#57,#58,#59));
#644=EDGE_LOOP('',(#60,#61,#62,#63));
#645=EDGE_LOOP('',(#64,#65,#66,#67));
#646=EDGE_LOOP('',(#68,#69,#70,#71));
#647=EDGE_LOOP('',(#72,#73,#74,#75,#76));
#648=EDGE_LOOP('',(#77,#78,#79,#80,#81,#82,#83,#84));
#649=EDGE_LOOP('',(#85,#86,#87,#88));
#650=EDGE_LOOP('',(#89,#90,#91,#92));
#651=EDGE_LOOP('',(#93,#94,#95,#96));
#652=EDGE_LOOP('',(#97,#98,#99,#100));
#653=EDGE_LOOP('',(#101,#102,#103,#104));
#654=EDGE_LOOP('',(#105,#106,#107,#108));
#655=EDGE_LOOP('',(#109,#110,#111,#112));
#656=EDGE_LOOP('',(#113,#114,#115,#116));
#657=EDGE_LOOP('',(#117,#118,#119,#120));
#658=EDGE_LOOP('',(#121,#122,#123,#124));
#659=EDGE_LOOP('',(#125,#126,#127,#128));
#660=EDGE_LOOP('',(#129,#130,#131,#132));
#661=EDGE_LOOP('',(#133,#134,#135,#136));
#662=EDGE_LOOP('',(#137,#138,#139,#140,#141));
#663=EDGE_LOOP('',(#142,#143,#144,#145));
#664=EDGE_LOOP('',(#146,#147,#148,#149));
#665=EDGE_LOOP('',(#150,#151,#152,#153));
#666=EDGE_LOOP('',(#154,#155,#156,#157));
#667=EDGE_LOOP('',(#158,#159,#160,#161));
#668=EDGE_LOOP('',(#162,#163,#164,#165));
#669=EDGE_LOOP('',(#166,#167,#168,#169));
#670=EDGE_LOOP('',(#170,#171,#172,#173));
#671=EDGE_LOOP('',(#174,#175,#176,#177));
#672=EDGE_LOOP('',(#178,#179,#180,#181));
#673=EDGE_LOOP('',(#182,#183,#184,#185));
#674=EDGE_LOOP('',(#186,#187,#188,#189));
#675=EDGE_LOOP('',(#190,#191,#192,#193));
#676=EDGE_LOOP('',(#194,#195,#196,#197));
#677=EDGE_LOOP('',(#198,#199,#200,#201));
#678=EDGE_LOOP('',(#202,#203,#204,#205));
#679=EDGE_LOOP('',(#206,#207,#208,#209));
#680=EDGE_LOOP('',(#210,#211,#212,#213));
#681=EDGE_LOOP('',(#214,#215,#216,#217));
#682=EDGE_LOOP('',(#218,#219,#220,#221));
#683=EDGE_LOOP('',(#222,#223,#224,#225));
#684=EDGE_LOOP('',(#226,#227,#228,#229));
#685=EDGE_LOOP('',(#230,#231,#232,#233));
#686=EDGE_LOOP('',(#234,#235,#236,#237));
#687=EDGE_LOOP('',(#238,#239,#240,#241));
#688=EDGE_LOOP('',(#242,#243,#244,#245));
#689=EDGE_LOOP('',(#246,#247,#248));
#690=EDGE_LOOP('',(#249,#250,#251));
#691=EDGE_LOOP('',(#252,#253,#254,#255));
#692=EDGE_LOOP('',(#256,#257,#258,#259));
#693=EDGE_LOOP('',(#260,#261,#262));
#694=EDGE_LOOP('',(#263,#264,#265));
#695=EDGE_LOOP('',(#266,#267,#268,#269));
#696=FACE_BOUND('',#641,.T.);
#697=FACE_BOUND('',#642,.T.);
#698=FACE_BOUND('',#643,.T.);
#699=FACE_BOUND('',#644,.T.);
#700=FACE_BOUND('',#645,.T.);
#701=FACE_BOUND('',#646,.T.);
#702=FACE_BOUND('',#647,.T.);
#703=FACE_BOUND('',#648,.T.);
#704=FACE_BOUND('',#649,.T.);
#705=FACE_BOUND('',#650,.T.);
#706=FACE_BOUND('',#651,.T.);
#707=FACE_BOUND('',#652,.T.);
#708=FACE_BOUND('',#653,.T.);
#709=FACE_BOUND('',#654,.T.);
#710=FACE_BOUND('',#655,.T.);
#711=FACE_BOUND('',#656,.T.);
#712=FACE_BOUND('',#657,.T.);
#713=FACE_BOUND('',#658,.T.);
#714=FACE_BOUND('',#659,.T.);
#715=FACE_BOUND('',#660,.T.);
#716=FACE_BOUND('',#661,.T.);
#717=FACE_BOUND('',#662,.T.);
#718=FACE_BOUND('',#663,.T.);
#719=FACE_BOUND('',#664,.T.);
#720=FACE_BOUND('',#665,.T.);
#721=FACE_BOUND('',#666,.T.);
#722=FACE_BOUND('',#667,.T.);
#723=FACE_BOUND('',#668,.T.);
#724=FACE_BOUND('',#669,.T.);
#725=FACE_BOUND('',#670,.T.);
#726=FACE_BOUND('',#671,.T.);
#727=FACE_BOUND('',#672,.T.);
#728=FACE_BOUND('',#673,.T.);
#729=FACE_BOUND('',#674,.T.);
#730=FACE_BOUND('',#675,.T.);
#731=FACE_BOUND('',#676,.T.);
#732=FACE_BOUND('',#677,.T.);
#733=FACE_BOUND('',#678,.T.);
#734=FACE_BOUND('',#679,.T.);
#735=FACE_BOUND('',#680,.T.);
#736=FACE_BOUND('',#681,.T.);
#737=FACE_BOUND('',#682,.T.);
#738=FACE_BOUND('',#683,.T.);
#739=FACE_BOUND('',#684,.T.);
#740=FACE_BOUND('',#685,.T.);
#741=FACE_BOUND('',#686,.T.);
#742=FACE_BOUND('',#687,.T.);
#743=FACE_BOUND('',#688,.T.);
#744=FACE_BOUND('',#689,.T.);
#745=FACE_BOUND('',#690,.T.);
#746=FACE_BOUND('',#691,.T.);
#747=FACE_BOUND('',#692,.T.);
#748=FACE_BOUND('',#693,.T.);
#749=FACE_BOUND('',#694,.T.);
#750=FACE_BOUND('',#695,.T.);
#751=PLANE('',#1187);
#752=PLANE('',#1188);
#753=PLANE('',#1189);
#754=PLANE('',#1194);
#755=PLANE('',#1195);
#756=PLANE('',#1196);
#757=PLANE('',#1197);
#758=PLANE('',#1198);
#759=PLANE('',#1199);
#760=PLANE('',#1200);
#761=PLANE('',#1201);
#762=PLANE('',#1202);
#763=PLANE('',#1203);
#764=PLANE('',#1204);
#765=PLANE('',#1205);
#766=PLANE('',#1206);
#767=PLANE('',#1207);
#768=PLANE('',#1208);
#769=PLANE('',#1209);
#770=PLANE('',#1210);
#771=PLANE('',#1211);
#772=PLANE('',#1212);
#773=PLANE('',#1213);
#774=PLANE('',#1214);
#775=PLANE('',#1215);
#776=PLANE('',#1216);
#777=PLANE('',#1217);
#778=PLANE('',#1218);
#779=PLANE('',#1219);
#780=PLANE('',#1220);
#781=PLANE('',#1221);
#782=PLANE('',#1222);
#783=PLANE('',#1223);
#784=PLANE('',#1224);
#785=PLANE('',#1225);
#786=PLANE('',#1226);
#787=PLANE('',#1227);
#788=STYLED_ITEM('',(#837),#1133);
#789=STYLED_ITEM('',(#838),#1134);
#790=STYLED_ITEM('',(#839),#1135);
#791=STYLED_ITEM('',(#840),#1136);
#792=STYLED_ITEM('',(#841),#1137);
#793=STYLED_ITEM('',(#842),#1138);
#794=STYLED_ITEM('',(#843),#1139);
#795=STYLED_ITEM('',(#844),#1140);
#796=STYLED_ITEM('',(#845),#1141);
#797=STYLED_ITEM('',(#846),#1142);
#798=STYLED_ITEM('',(#847),#1143);
#799=STYLED_ITEM('',(#848),#1144);
#800=STYLED_ITEM('',(#849),#1145);
#801=STYLED_ITEM('',(#850),#1146);
#802=STYLED_ITEM('',(#851),#1147);
#803=STYLED_ITEM('',(#852),#1148);
#804=STYLED_ITEM('',(#853),#1149);
#805=STYLED_ITEM('',(#854),#1150);
#806=STYLED_ITEM('',(#855),#1151);
#807=STYLED_ITEM('',(#856),#1152);
#808=STYLED_ITEM('',(#857),#1153);
#809=STYLED_ITEM('',(#858),#1154);
#810=STYLED_ITEM('',(#859),#1155);
#811=STYLED_ITEM('',(#860),#1156);
#812=STYLED_ITEM('',(#861),#1157);
#813=STYLED_ITEM('',(#862),#1158);
#814=STYLED_ITEM('',(#863),#1159);
#815=STYLED_ITEM('',(#864),#1160);
#816=STYLED_ITEM('',(#865),#1161);
#817=STYLED_ITEM('',(#866),#1162);
#818=STYLED_ITEM('',(#867),#1163);
#819=STYLED_ITEM('',(#868),#1164);
#820=STYLED_ITEM('',(#869),#1165);
#821=STYLED_ITEM('',(#870),#1166);
#822=STYLED_ITEM('',(#871),#1167);
#823=STYLED_ITEM('',(#872),#1168);
#824=STYLED_ITEM('',(#873),#1169);
#825=STYLED_ITEM('',(#874),#1170);
#826=STYLED_ITEM('',(#875),#1171);
#827=STYLED_ITEM('',(#876),#1172);
#828=STYLED_ITEM('',(#877),#1173);
#829=STYLED_ITEM('',(#878),#1174);
#830=STYLED_ITEM('',(#879),#1175);
#831=STYLED_ITEM('',(#880),#1176);
#832=STYLED_ITEM('',(#881),#1177);
#833=STYLED_ITEM('',(#882),#1178);
#834=STYLED_ITEM('',(#883),#1179);
#835=STYLED_ITEM('',(#884),#1180);
#836=STYLED_ITEM('',(#885),#1181);
#837=PRESENTATION_STYLE_ASSIGNMENT((#886));
#838=PRESENTATION_STYLE_ASSIGNMENT((#887));
#839=PRESENTATION_STYLE_ASSIGNMENT((#888));
#840=PRESENTATION_STYLE_ASSIGNMENT((#889));
#841=PRESENTATION_STYLE_ASSIGNMENT((#890));
#842=PRESENTATION_STYLE_ASSIGNMENT((#891));
#843=PRESENTATION_STYLE_ASSIGNMENT((#892));
#844=PRESENTATION_STYLE_ASSIGNMENT((#893));
#845=PRESENTATION_STYLE_ASSIGNMENT((#894));
#846=PRESENTATION_STYLE_ASSIGNMENT((#895));
#847=PRESENTATION_STYLE_ASSIGNMENT((#896));
#848=PRESENTATION_STYLE_ASSIGNMENT((#897));
#849=PRESENTATION_STYLE_ASSIGNMENT((#898));
#850=PRESENTATION_STYLE_ASSIGNMENT((#899));
#851=PRESENTATION_STYLE_ASSIGNMENT((#900));
#852=PRESENTATION_STYLE_ASSIGNMENT((#901));
#853=PRESENTATION_STYLE_ASSIGNMENT((#902));
#854=PRESENTATION_STYLE_ASSIGNMENT((#903));
#855=PRESENTATION_STYLE_ASSIGNMENT((#904));
#856=PRESENTATION_STYLE_ASSIGNMENT((#905));
#857=PRESENTATION_STYLE_ASSIGNMENT((#906));
#858=PRESENTATION_STYLE_ASSIGNMENT((#907));
#859=PRESENTATION_STYLE_ASSIGNMENT((#908));
#860=PRESENTATION_STYLE_ASSIGNMENT((#909));
#861=PRESENTATION_STYLE_ASSIGNMENT((#910));
#862=PRESENTATION_STYLE_ASSIGNMENT((#911));
#863=PRESENTATION_STYLE_ASSIGNMENT((#912));
#864=PRESENTATION_STYLE_ASSIGNMENT((#913));
#865=PRESENTATION_STYLE_ASSIGNMENT((#914));
#866=PRESENTATION_STYLE_ASSIGNMENT((#915));
#867=PRESENTATION_STYLE_ASSIGNMENT((#916));
#868=PRESENTATION_STYLE_ASSIGNMENT((#917));
#869=PRESENTATION_STYLE_ASSIGNMENT((#918));
#870=PRESENTATION_STYLE_ASSIGNMENT((#919));
#871=PRESENTATION_STYLE_ASSIGNMENT((#920));
#872=PRESENTATION_STYLE_ASSIGNMENT((#921));
#873=PRESENTATION_STYLE_ASSIGNMENT((#922));
#874=PRESENTATION_STYLE_ASSIGNMENT((#923));
#875=PRESENTATION_STYLE_ASSIGNMENT((#924));
#876=PRESENTATION_STYLE_ASSIGNMENT((#925));
#877=PRESENTATION_STYLE_ASSIGNMENT((#926));
#878=PRESENTATION_STYLE_ASSIGNMENT((#927));
#879=PRESENTATION_STYLE_ASSIGNMENT((#928));
#880=PRESENTATION_STYLE_ASSIGNMENT((#929));
#881=PRESENTATION_STYLE_ASSIGNMENT((#930));
#882=PRESENTATION_STYLE_ASSIGNMENT((#931));
#883=PRESENTATION_STYLE_ASSIGNMENT((#932));
#884=PRESENTATION_STYLE_ASSIGNMENT((#933));
#885=PRESENTATION_STYLE_ASSIGNMENT((#934));
#886=SURFACE_STYLE_USAGE(.BOTH.,#935);
#887=SURFACE_STYLE_USAGE(.BOTH.,#936);
#888=SURFACE_STYLE_USAGE(.BOTH.,#937);
#889=SURFACE_STYLE_USAGE(.BOTH.,#938);
#890=SURFACE_STYLE_USAGE(.BOTH.,#939);
#891=SURFACE_STYLE_USAGE(.BOTH.,#940);
#892=SURFACE_STYLE_USAGE(.BOTH.,#941);
#893=SURFACE_STYLE_USAGE(.BOTH.,#942);
#894=SURFACE_STYLE_USAGE(.BOTH.,#943);
#895=SURFACE_STYLE_USAGE(.BOTH.,#944);
#896=SURFACE_STYLE_USAGE(.BOTH.,#945);
#897=SURFACE_STYLE_USAGE(.BOTH.,#946);
#898=SURFACE_STYLE_USAGE(.BOTH.,#947);
#899=SURFACE_STYLE_USAGE(.BOTH.,#948);
#900=SURFACE_STYLE_USAGE(.BOTH.,#949);
#901=SURFACE_STYLE_USAGE(.BOTH.,#950);
#902=SURFACE_STYLE_USAGE(.BOTH.,#951);
#903=SURFACE_STYLE_USAGE(.BOTH.,#952);
#904=SURFACE_STYLE_USAGE(.BOTH.,#953);
#905=SURFACE_STYLE_USAGE(.BOTH.,#954);
#906=SURFACE_STYLE_USAGE(.BOTH.,#955);
#907=SURFACE_STYLE_USAGE(.BOTH.,#956);
#908=SURFACE_STYLE_USAGE(.BOTH.,#957);
#909=SURFACE_STYLE_USAGE(.BOTH.,#958);
#910=SURFACE_STYLE_USAGE(.BOTH.,#959);
#911=SURFACE_STYLE_USAGE(.BOTH.,#960);
#912=SURFACE_STYLE_USAGE(.BOTH.,#961);
#913=SURFACE_STYLE_USAGE(.BOTH.,#962);
#914=SURFACE_STYLE_USAGE(.BOTH.,#963);
#915=SURFACE_STYLE_USAGE(.BOTH.,#964);
#916=SURFACE_STYLE_USAGE(.BOTH.,#965);
#917=SURFACE_STYLE_USAGE(.BOTH.,#966);
#918=SURFACE_STYLE_USAGE(.BOTH.,#967);
#919=SURFACE_STYLE_USAGE(.BOTH.,#968);
#920=SURFACE_STYLE_USAGE(.BOTH.,#969);
#921=SURFACE_STYLE_USAGE(.BOTH.,#970);
#922=SURFACE_STYLE_USAGE(.BOTH.,#971);
#923=SURFACE_STYLE_USAGE(.BOTH.,#972);
#924=SURFACE_STYLE_USAGE(.BOTH.,#973);
#925=SURFACE_STYLE_USAGE(.BOTH.,#974);
#926=SURFACE_STYLE_USAGE(.BOTH.,#975);
#927=SURFACE_STYLE_USAGE(.BOTH.,#976);
#928=SURFACE_STYLE_USAGE(.BOTH.,#977);
#929=SURFACE_STYLE_USAGE(.BOTH.,#978);
#930=SURFACE_STYLE_USAGE(.BOTH.,#979);
#931=SURFACE_STYLE_USAGE(.BOTH.,#980);
#932=SURFACE_STYLE_USAGE(.BOTH.,#981);
#933=SURFACE_STYLE_USAGE(.BOTH.,#982);
#934=SURFACE_STYLE_USAGE(.BOTH.,#983);
#935=SURFACE_SIDE_STYLE('',(#984));
#936=SURFACE_SIDE_STYLE('',(#985));
#937=SURFACE_SIDE_STYLE('',(#986));
#938=SURFACE_SIDE_STYLE('',(#987));
#939=SURFACE_SIDE_STYLE('',(#988));
#940=SURFACE_SIDE_STYLE('',(#989));
#941=SURFACE_SIDE_STYLE('',(#990));
#942=SURFACE_SIDE_STYLE('',(#991));
#943=SURFACE_SIDE_STYLE('',(#992));
#944=SURFACE_SIDE_STYLE('',(#993));
#945=SURFACE_SIDE_STYLE('',(#994));
#946=SURFACE_SIDE_STYLE('',(#995));
#947=SURFACE_SIDE_STYLE('',(#996));
#948=SURFACE_SIDE_STYLE('',(#997));
#949=SURFACE_SIDE_STYLE('',(#998));
#950=SURFACE_SIDE_STYLE('',(#999));
#951=SURFACE_SIDE_STYLE('',(#1000));
#952=SURFACE_SIDE_STYLE('',(#1001));
#953=SURFACE_SIDE_STYLE('',(#1002));
#954=SURFACE_SIDE_STYLE('',(#1003));
#955=SURFACE_SIDE_STYLE('',(#1004));
#956=SURFACE_SIDE_STYLE('',(#1005));
#957=SURFACE_SIDE_STYLE('',(#1006));
#958=SURFACE_SIDE_STYLE('',(#1007));
#959=SURFACE_SIDE_STYLE('',(#1008));
#960=SURFACE_SIDE_STYLE('',(#1009));
#961=SURFACE_SIDE_STYLE('',(#1010));
#962=SURFACE_SIDE_STYLE('',(#1011));
#963=SURFACE_SIDE_STYLE('',(#1012));
#964=SURFACE_SIDE_STYLE('',(#1013));
#965=SURFACE_SIDE_STYLE('',(#1014));
#966=SURFACE_SIDE_STYLE('',(#1015));
#967=SURFACE_SIDE_STYLE('',(#1016));
#968=SURFACE_SIDE_STYLE('',(#1017));
#969=SURFACE_SIDE_STYLE('',(#1018));
#970=SURFACE_SIDE_STYLE('',(#1019));
#971=SURFACE_SIDE_STYLE('',(#1020));
#972=SURFACE_SIDE_STYLE('',(#1021));
#973=SURFACE_SIDE_STYLE('',(#1022));
#974=SURFACE_SIDE_STYLE('',(#1023));
#975=SURFACE_SIDE_STYLE('',(#1024));
#976=SURFACE_SIDE_STYLE('',(#1025));
#977=SURFACE_SIDE_STYLE('',(#1026));
#978=SURFACE_SIDE_STYLE('',(#1027));
#979=SURFACE_SIDE_STYLE('',(#1028));
#980=SURFACE_SIDE_STYLE('',(#1029));
#981=SURFACE_SIDE_STYLE('',(#1030));
#982=SURFACE_SIDE_STYLE('',(#1031));
#983=SURFACE_SIDE_STYLE('',(#1032));
#984=SURFACE_STYLE_FILL_AREA(#1033);
#985=SURFACE_STYLE_FILL_AREA(#1034);
#986=SURFACE_STYLE_FILL_AREA(#1035);
#987=SURFACE_STYLE_FILL_AREA(#1036);
#988=SURFACE_STYLE_FILL_AREA(#1037);
#989=SURFACE_STYLE_FILL_AREA(#1038);
#990=SURFACE_STYLE_FILL_AREA(#1039);
#991=SURFACE_STYLE_FILL_AREA(#1040);
#992=SURFACE_STYLE_FILL_AREA(#1041);
#993=SURFACE_STYLE_FILL_AREA(#1042);
#994=SURFACE_STYLE_FILL_AREA(#1043);
#995=SURFACE_STYLE_FILL_AREA(#1044);
#996=SURFACE_STYLE_FILL_AREA(#1045);
#997=SURFACE_STYLE_FILL_AREA(#1046);
#998=SURFACE_STYLE_FILL_AREA(#1047);
#999=SURFACE_STYLE_FILL_AREA(#1048);
#1000=SURFACE_STYLE_FILL_AREA(#1049);
#1001=SURFACE_STYLE_FILL_AREA(#1050);
#1002=SURFACE_STYLE_FILL_AREA(#1051);
#1003=SURFACE_STYLE_FILL_AREA(#1052);
#1004=SURFACE_STYLE_FILL_AREA(#1053);
#1005=SURFACE_STYLE_FILL_AREA(#1054);
#1006=SURFACE_STYLE_FILL_AREA(#1055);
#1007=SURFACE_STYLE_FILL_AREA(#1056);
#1008=SURFACE_STYLE_FILL_AREA(#1057);
#1009=SURFACE_STYLE_FILL_AREA(#1058);
#1010=SURFACE_STYLE_FILL_AREA(#1059);
#1011=SURFACE_STYLE_FILL_AREA(#1060);
#1012=SURFACE_STYLE_FILL_AREA(#1061);
#1013=SURFACE_STYLE_FILL_AREA(#1062);
#1014=SURFACE_STYLE_FILL_AREA(#1063);
#1015=SURFACE_STYLE_FILL_AREA(#1064);
#1016=SURFACE_STYLE_FILL_AREA(#1065);
#1017=SURFACE_STYLE_FILL_AREA(#1066);
#1018=SURFACE_STYLE_FILL_AREA(#1067);
#1019=SURFACE_STYLE_FILL_AREA(#1068);
#1020=SURFACE_STYLE_FILL_AREA(#1069);
#1021=SURFACE_STYLE_FILL_AREA(#1070);
#1022=SURFACE_STYLE_FILL_AREA(#1071);
#1023=SURFACE_STYLE_FILL_AREA(#1072);
#1024=SURFACE_STYLE_FILL_AREA(#1073);
#1025=SURFACE_STYLE_FILL_AREA(#1074);
#1026=SURFACE_STYLE_FILL_AREA(#1075);
#1027=SURFACE_STYLE_FILL_AREA(#1076);
#1028=SURFACE_STYLE_FILL_AREA(#1077);
#1029=SURFACE_STYLE_FILL_AREA(#1078);
#1030=SURFACE_STYLE_FILL_AREA(#1079);
#1031=SURFACE_STYLE_FILL_AREA(#1080);
#1032=SURFACE_STYLE_FILL_AREA(#1081);
#1033=FILL_AREA_STYLE('',(#1082));
#1034=FILL_AREA_STYLE('',(#1083));
#1035=FILL_AREA_STYLE('',(#1084));
#1036=FILL_AREA_STYLE('',(#1085));
#1037=FILL_AREA_STYLE('',(#1086));
#1038=FILL_AREA_STYLE('',(#1087));
#1039=FILL_AREA_STYLE('',(#1088));
#1040=FILL_AREA_STYLE('',(#1089));
#1041=FILL_AREA_STYLE('',(#1090));
#1042=FILL_AREA_STYLE('',(#1091));
#1043=FILL_AREA_STYLE('',(#1092));
#1044=FILL_AREA_STYLE('',(#1093));
#1045=FILL_AREA_STYLE('',(#1094));
#1046=FILL_AREA_STYLE('',(#1095));
#1047=FILL_AREA_STYLE('',(#1096));
#1048=FILL_AREA_STYLE('',(#1097));
#1049=FILL_AREA_STYLE('',(#1098));
#1050=FILL_AREA_STYLE('',(#1099));
#1051=FILL_AREA_STYLE('',(#1100));
#1052=FILL_AREA_STYLE('',(#1101));
#1053=FILL_AREA_STYLE('',(#1102));
#1054=FILL_AREA_STYLE('',(#1103));
#1055=FILL_AREA_STYLE('',(#1104));
#1056=FILL_AREA_STYLE('',(#1105));
#1057=FILL_AREA_STYLE('',(#1106));
#1058=FILL_AREA_STYLE('',(#1107));
#1059=FILL_AREA_STYLE('',(#1108));
#1060=FILL_AREA_STYLE('',(#1109));
#1061=FILL_AREA_STYLE('',(#1110));
#1062=FILL_AREA_STYLE('',(#1111));
#1063=FILL_AREA_STYLE('',(#1112));
#1064=FILL_AREA_STYLE('',(#1113));
#1065=FILL_AREA_STYLE('',(#1114));
#1066=FILL_AREA_STYLE('',(#1115));
#1067=FILL_AREA_STYLE('',(#1116));
#1068=FILL_AREA_STYLE('',(#1117));
#1069=FILL_AREA_STYLE('',(#1118));
#1070=FILL_AREA_STYLE('',(#1119));
#1071=FILL_AREA_STYLE('',(#1120));
#1072=FILL_AREA_STYLE('',(#1121));
#1073=FILL_AREA_STYLE('',(#1122));
#1074=FILL_AREA_STYLE('',(#1123));
#1075=FILL_AREA_STYLE('',(#1124));
#1076=FILL_AREA_STYLE('',(#1125));
#1077=FILL_AREA_STYLE('',(#1126));
#1078=FILL_AREA_STYLE('',(#1127));
#1079=FILL_AREA_STYLE('',(#1128));
#1080=FILL_AREA_STYLE('',(#1129));
#1081=FILL_AREA_STYLE('',(#1130));
#1082=FILL_AREA_STYLE_COLOUR('',#1131);
#1083=FILL_AREA_STYLE_COLOUR('',#1131);
#1084=FILL_AREA_STYLE_COLOUR('',#1131);
#1085=FILL_AREA_STYLE_COLOUR('',#1131);
#1086=FILL_AREA_STYLE_COLOUR('',#1131);
#1087=FILL_AREA_STYLE_COLOUR('',#1131);
#1088=FILL_AREA_STYLE_COLOUR('',#1132);
#1089=FILL_AREA_STYLE_COLOUR('',#1132);
#1090=FILL_AREA_STYLE_COLOUR('',#1132);
#1091=FILL_AREA_STYLE_COLOUR('',#1132);
#1092=FILL_AREA_STYLE_COLOUR('',#1132);
#1093=FILL_AREA_STYLE_COLOUR('',#1132);
#1094=FILL_AREA_STYLE_COLOUR('',#1132);
#1095=FILL_AREA_STYLE_COLOUR('',#1132);
#1096=FILL_AREA_STYLE_COLOUR('',#1132);
#1097=FILL_AREA_STYLE_COLOUR('',#1132);
#1098=FILL_AREA_STYLE_COLOUR('',#1132);
#1099=FILL_AREA_STYLE_COLOUR('',#1132);
#1100=FILL_AREA_STYLE_COLOUR('',#1132);
#1101=FILL_AREA_STYLE_COLOUR('',#1132);
#1102=FILL_AREA_STYLE_COLOUR('',#1132);
#1103=FILL_AREA_STYLE_COLOUR('',#1132);
#1104=FILL_AREA_STYLE_COLOUR('',#1132);
#1105=FILL_AREA_STYLE_COLOUR('',#1132);
#1106=FILL_AREA_STYLE_COLOUR('',#1132);
#1107=FILL_AREA_STYLE_COLOUR('',#1132);
#1108=FILL_AREA_STYLE_COLOUR('',#1132);
#1109=FILL_AREA_STYLE_COLOUR('',#1132);
#1110=FILL_AREA_STYLE_COLOUR('',#1132);
#1111=FILL_AREA_STYLE_COLOUR('',#1132);
#1112=FILL_AREA_STYLE_COLOUR('',#1132);
#1113=FILL_AREA_STYLE_COLOUR('',#1132);
#1114=FILL_AREA_STYLE_COLOUR('',#1132);
#1115=FILL_AREA_STYLE_COLOUR('',#1132);
#1116=FILL_AREA_STYLE_COLOUR('',#1132);
#1117=FILL_AREA_STYLE_COLOUR('',#1132);
#1118=FILL_AREA_STYLE_COLOUR('',#1132);
#1119=FILL_AREA_STYLE_COLOUR('',#1131);
#1120=FILL_AREA_STYLE_COLOUR('',#1131);
#1121=FILL_AREA_STYLE_COLOUR('',#1131);
#1122=FILL_AREA_STYLE_COLOUR('',#1131);
#1123=FILL_AREA_STYLE_COLOUR('',#1131);
#1124=FILL_AREA_STYLE_COLOUR('',#1131);
#1125=FILL_AREA_STYLE_COLOUR('',#1131);
#1126=FILL_AREA_STYLE_COLOUR('',#1131);
#1127=FILL_AREA_STYLE_COLOUR('',#1131);
#1128=FILL_AREA_STYLE_COLOUR('',#1131);
#1129=FILL_AREA_STYLE_COLOUR('',#1131);
#1130=FILL_AREA_STYLE_COLOUR('',#1131);
#1131=COLOUR_RGB('',0.200000002980232,0.200000002980232,0.200000002980232);
#1132=COLOUR_RGB('',0.699999988079071,0.699999988079071,0.699999988079071);
#1133=ADVANCED_FACE('',(#696,#697,#698),#751,.F.);
#1134=ADVANCED_FACE('',(#699,#700,#701),#752,.F.);
#1135=ADVANCED_FACE('',(#702,#703,#704),#753,.F.);
#1136=ADVANCED_FACE('',(#705),#754,.F.);
#1137=ADVANCED_FACE('',(#706),#755,.F.);
#1138=ADVANCED_FACE('',(#707),#756,.T.);
#1139=ADVANCED_FACE('',(#708),#757,.F.);
#1140=ADVANCED_FACE('',(#709),#758,.F.);
#1141=ADVANCED_FACE('',(#710),#759,.F.);
#1142=ADVANCED_FACE('',(#711),#760,.F.);
#1143=ADVANCED_FACE('',(#712),#761,.T.);
#1144=ADVANCED_FACE('',(#713),#762,.T.);
#1145=ADVANCED_FACE('',(#714),#763,.T.);
#1146=ADVANCED_FACE('',(#715),#764,.T.);
#1147=ADVANCED_FACE('',(#716),#765,.T.);
#1148=ADVANCED_FACE('',(#717),#766,.F.);
#1149=ADVANCED_FACE('',(#718),#767,.F.);
#1150=ADVANCED_FACE('',(#719),#768,.F.);
#1151=ADVANCED_FACE('',(#720),#769,.F.);
#1152=ADVANCED_FACE('',(#721),#770,.F.);
#1153=ADVANCED_FACE('',(#722),#771,.F.);
#1154=ADVANCED_FACE('',(#723),#772,.F.);
#1155=ADVANCED_FACE('',(#724),#773,.F.);
#1156=ADVANCED_FACE('',(#725),#774,.F.);
#1157=ADVANCED_FACE('',(#726),#775,.F.);
#1158=ADVANCED_FACE('',(#727),#776,.F.);
#1159=ADVANCED_FACE('',(#728),#777,.T.);
#1160=ADVANCED_FACE('',(#729),#778,.T.);
#1161=ADVANCED_FACE('',(#730),#779,.T.);
#1162=ADVANCED_FACE('',(#731),#780,.T.);
#1163=ADVANCED_FACE('',(#732),#781,.T.);
#1164=ADVANCED_FACE('',(#733),#782,.T.);
#1165=ADVANCED_FACE('',(#734),#783,.T.);
#1166=ADVANCED_FACE('',(#735),#784,.T.);
#1167=ADVANCED_FACE('',(#736),#785,.T.);
#1168=ADVANCED_FACE('',(#737),#786,.T.);
#1169=ADVANCED_FACE('',(#738),#787,.F.);
#1170=ADVANCED_FACE('',(#739),#24,.T.);
#1171=ADVANCED_FACE('',(#740),#25,.T.);
#1172=ADVANCED_FACE('',(#741),#26,.T.);
#1173=ADVANCED_FACE('',(#742),#27,.T.);
#1174=ADVANCED_FACE('',(#743),#28,.T.);
#1175=ADVANCED_FACE('',(#744),#20,.T.);
#1176=ADVANCED_FACE('',(#745),#21,.T.);
#1177=ADVANCED_FACE('',(#746),#29,.T.);
#1178=ADVANCED_FACE('',(#747),#30,.T.);
#1179=ADVANCED_FACE('',(#748),#22,.T.);
#1180=ADVANCED_FACE('',(#749),#23,.T.);
#1181=ADVANCED_FACE('',(#750),#31,.T.);
#1182=CLOSED_SHELL('',(#1133,#1134,#1135,#1136,#1137,#1138,#1139,#1140,
#1141,#1142,#1143,#1144,#1145,#1146,#1147,#1148,#1149,#1150,#1151,#1152,
#1153,#1154,#1155,#1156,#1157,#1158,#1159,#1160,#1161,#1162,#1163,#1164,
#1165,#1166,#1167,#1168,#1169,#1170,#1171,#1172,#1173,#1174,#1175,#1176,
#1177,#1178,#1179,#1180,#1181));
#1183=MANIFOLD_SOLID_BREP('',#1182);
#1184=SHAPE_DEFINITION_REPRESENTATION(#1716,#1185);
#1185=SHAPE_REPRESENTATION('SP3205-01ETG',(#1186),#1711);
#1186=AXIS2_PLACEMENT_3D('',#1479,#1252,#1253);
#1187=AXIS2_PLACEMENT_3D('',#1480,#1254,#1255);
#1188=AXIS2_PLACEMENT_3D('',#1505,#1268,#1269);
#1189=AXIS2_PLACEMENT_3D('',#1530,#1282,#1283);
#1190=AXIS2_PLACEMENT_3D('',#1544,#1290,#1291);
#1191=AXIS2_PLACEMENT_3D('',#1545,#1292,#1293);
#1192=AXIS2_PLACEMENT_3D('',#1549,#1295,#1296);
#1193=AXIS2_PLACEMENT_3D('',#1550,#1297,#1298);
#1194=AXIS2_PLACEMENT_3D('',#1559,#1303,#1304);
#1195=AXIS2_PLACEMENT_3D('',#1565,#1308,#1309);
#1196=AXIS2_PLACEMENT_3D('',#1571,#1313,#1314);
#1197=AXIS2_PLACEMENT_3D('',#1580,#1319,#1320);
#1198=AXIS2_PLACEMENT_3D('',#1586,#1324,#1325);
#1199=AXIS2_PLACEMENT_3D('',#1590,#1328,#1329);
#1200=AXIS2_PLACEMENT_3D('',#1594,#1332,#1333);
#1201=AXIS2_PLACEMENT_3D('',#1596,#1335,#1336);
#1202=AXIS2_PLACEMENT_3D('',#1597,#1337,#1338);
#1203=AXIS2_PLACEMENT_3D('',#1603,#1342,#1343);
#1204=AXIS2_PLACEMENT_3D('',#1607,#1346,#1347);
#1205=AXIS2_PLACEMENT_3D('',#1613,#1351,#1352);
#1206=AXIS2_PLACEMENT_3D('',#1615,#1354,#1355);
#1207=AXIS2_PLACEMENT_3D('',#1617,#1357,#1358);
#1208=AXIS2_PLACEMENT_3D('',#1618,#1359,#1360);
#1209=AXIS2_PLACEMENT_3D('',#1627,#1365,#1366);
#1210=AXIS2_PLACEMENT_3D('',#1630,#1369,#1370);
#1211=AXIS2_PLACEMENT_3D('',#1632,#1372,#1373);
#1212=AXIS2_PLACEMENT_3D('',#1634,#1375,#1376);
#1213=AXIS2_PLACEMENT_3D('',#1635,#1377,#1378);
#1214=AXIS2_PLACEMENT_3D('',#1641,#1382,#1383);
#1215=AXIS2_PLACEMENT_3D('',#1645,#1386,#1387);
#1216=AXIS2_PLACEMENT_3D('',#1649,#1390,#1391);
#1217=AXIS2_PLACEMENT_3D('',#1651,#1393,#1394);
#1218=AXIS2_PLACEMENT_3D('',#1652,#1395,#1396);
#1219=AXIS2_PLACEMENT_3D('',#1661,#1401,#1402);
#1220=AXIS2_PLACEMENT_3D('',#1664,#1405,#1406);
#1221=AXIS2_PLACEMENT_3D('',#1666,#1408,#1409);
#1222=AXIS2_PLACEMENT_3D('',#1668,#1411,#1412);
#1223=AXIS2_PLACEMENT_3D('',#1669,#1413,#1414);
#1224=AXIS2_PLACEMENT_3D('',#1675,#1418,#1419);
#1225=AXIS2_PLACEMENT_3D('',#1679,#1422,#1423);
#1226=AXIS2_PLACEMENT_3D('',#1683,#1426,#1427);
#1227=AXIS2_PLACEMENT_3D('',#1685,#1429,#1430);
#1228=AXIS2_PLACEMENT_3D('',#1686,#1431,#1432);
#1229=AXIS2_PLACEMENT_3D('',#1687,#1433,#1434);
#1230=AXIS2_PLACEMENT_3D('',#1688,#1435,#1436);
#1231=AXIS2_PLACEMENT_3D('',#1689,#1437,#1438);
#1232=AXIS2_PLACEMENT_3D('',#1690,#1439,#1440);
#1233=AXIS2_PLACEMENT_3D('',#1691,#1441,#1442);
#1234=AXIS2_PLACEMENT_3D('',#1692,#1443,#1444);
#1235=AXIS2_PLACEMENT_3D('',#1693,#1445,#1446);
#1236=AXIS2_PLACEMENT_3D('',#1694,#1447,#1448);
#1237=AXIS2_PLACEMENT_3D('',#1695,#1449,#1450);
#1238=AXIS2_PLACEMENT_3D('',#1696,#1451,#1452);
#1239=AXIS2_PLACEMENT_3D('',#1697,#1453,#1454);
#1240=AXIS2_PLACEMENT_3D('',#1698,#1455,#1456);
#1241=AXIS2_PLACEMENT_3D('',#1699,#1457,#1458);
#1242=AXIS2_PLACEMENT_3D('',#1700,#1459,#1460);
#1243=AXIS2_PLACEMENT_3D('',#1701,#1461,#1462);
#1244=AXIS2_PLACEMENT_3D('',#1702,#1463,#1464);
#1245=AXIS2_PLACEMENT_3D('',#1703,#1465,#1466);
#1246=AXIS2_PLACEMENT_3D('',#1704,#1467,#1468);
#1247=AXIS2_PLACEMENT_3D('',#1705,#1469,#1470);
#1248=AXIS2_PLACEMENT_3D('',#1706,#1471,#1472);
#1249=AXIS2_PLACEMENT_3D('',#1707,#1473,#1474);
#1250=AXIS2_PLACEMENT_3D('',#1708,#1475,#1476);
#1251=AXIS2_PLACEMENT_3D('',#1709,#1477,#1478);
#1252=DIRECTION('',(0.,0.,1.));
#1253=DIRECTION('',(1.,0.,0.));
#1254=DIRECTION('',(0.,1.,0.));
#1255=DIRECTION('',(0.,0.,1.));
#1256=DIRECTION('',(1.,0.,0.));
#1257=DIRECTION('',(0.,0.,-1.));
#1258=DIRECTION('',(-1.,0.,0.));
#1259=DIRECTION('',(0.,0.,1.));
#1260=DIRECTION('',(0.,0.,-1.));
#1261=DIRECTION('',(1.,0.,0.));
#1262=DIRECTION('',(0.,0.,-1.));
#1263=DIRECTION('',(1.,0.,0.));
#1264=DIRECTION('',(0.,0.,-1.));
#1265=DIRECTION('',(-1.,0.,0.));
#1266=DIRECTION('',(0.,0.,1.));
#1267=DIRECTION('',(1.,0.,0.));
#1268=DIRECTION('',(0.,-1.,0.));
#1269=DIRECTION('',(0.,0.,-1.));
#1270=DIRECTION('',(1.,0.,0.));
#1271=DIRECTION('',(0.,0.,1.));
#1272=DIRECTION('',(-1.,0.,0.));
#1273=DIRECTION('',(0.,0.,-1.));
#1274=DIRECTION('',(0.,0.,-1.));
#1275=DIRECTION('',(-1.,0.,0.));
#1276=DIRECTION('',(0.,0.,-1.));
#1277=DIRECTION('',(-1.,0.,0.));
#1278=DIRECTION('',(0.,0.,1.));
#1279=DIRECTION('',(-1.,0.,0.));
#1280=DIRECTION('',(0.,0.,-1.));
#1281=DIRECTION('',(1.,0.,0.));
#1282=DIRECTION('',(0.,0.,1.));
#1283=DIRECTION('',(1.,0.,0.));
#1284=DIRECTION('',(-1.,0.,0.));
#1285=DIRECTION('',(0.,-1.,0.));
#1286=DIRECTION('',(1.,0.,0.));
#1287=DIRECTION('',(-0.707106781186548,-0.707106781186547,0.));
#1288=DIRECTION('',(0.,1.,0.));
#1289=DIRECTION('',(0.,1.,0.));
#1290=DIRECTION('',(0.,0.,1.));
#1291=DIRECTION('',(1.,0.,0.));
#1292=DIRECTION('',(0.,0.,1.));
#1293=DIRECTION('',(1.,0.,0.));
#1294=DIRECTION('',(0.,-1.,0.));
#1295=DIRECTION('',(0.,0.,1.));
#1296=DIRECTION('',(1.,0.,0.));
#1297=DIRECTION('',(0.,0.,1.));
#1298=DIRECTION('',(1.,0.,0.));
#1299=DIRECTION('',(0.,-1.,0.));
#1300=DIRECTION('',(1.,0.,0.));
#1301=DIRECTION('',(0.,1.,0.));
#1302=DIRECTION('',(-1.,0.,0.));
#1303=DIRECTION('',(-1.,0.,0.));
#1304=DIRECTION('',(0.,0.,1.));
#1305=DIRECTION('',(0.,0.,-1.));
#1306=DIRECTION('',(0.,1.,0.));
#1307=DIRECTION('',(0.,0.,-1.));
#1308=DIRECTION('',(1.,0.,0.));
#1309=DIRECTION('',(0.,0.,-1.));
#1310=DIRECTION('',(0.,0.,-1.));
#1311=DIRECTION('',(0.,-1.,0.));
#1312=DIRECTION('',(0.,0.,-1.));
#1313=DIRECTION('',(0.,0.,1.));
#1314=DIRECTION('',(1.,0.,0.));
#1315=DIRECTION('',(0.,-1.,0.));
#1316=DIRECTION('',(1.,0.,0.));
#1317=DIRECTION('',(0.,1.,0.));
#1318=DIRECTION('',(-1.,0.,0.));
#1319=DIRECTION('',(-1.,0.,0.));
#1320=DIRECTION('',(0.,0.,1.));
#1321=DIRECTION('',(0.,0.,1.));
#1322=DIRECTION('',(0.,-1.,0.));
#1323=DIRECTION('',(0.,0.,1.));
#1324=DIRECTION('',(0.,1.,0.));
#1325=DIRECTION('',(0.,0.,1.));
#1326=DIRECTION('',(0.,0.,1.));
#1327=DIRECTION('',(-1.,0.,0.));
#1328=DIRECTION('',(1.,0.,0.));
#1329=DIRECTION('',(0.,0.,-1.));
#1330=DIRECTION('',(0.,0.,1.));
#1331=DIRECTION('',(0.,1.,0.));
#1332=DIRECTION('',(0.,-1.,0.));
#1333=DIRECTION('',(0.,0.,-1.));
#1334=DIRECTION('',(1.,0.,0.));
#1335=DIRECTION('',(0.,0.,-1.));
#1336=DIRECTION('',(-1.,0.,0.));
#1337=DIRECTION('',(-1.,0.,0.));
#1338=DIRECTION('',(0.,0.,1.));
#1339=DIRECTION('',(0.,0.,1.));
#1340=DIRECTION('',(0.,-1.,0.));
#1341=DIRECTION('',(0.,0.,1.));
#1342=DIRECTION('',(0.,-1.,0.));
#1343=DIRECTION('',(0.,0.,-1.));
#1344=DIRECTION('',(1.,0.,0.));
#1345=DIRECTION('',(0.,0.,1.));
#1346=DIRECTION('',(1.,0.,0.));
#1347=DIRECTION('',(0.,0.,-1.));
#1348=DIRECTION('',(0.,0.,-1.));
#1349=DIRECTION('',(0.,1.,0.));
#1350=DIRECTION('',(0.,0.,1.));
#1351=DIRECTION('',(0.,1.,0.));
#1352=DIRECTION('',(0.,0.,1.));
#1353=DIRECTION('',(-1.,0.,0.));
#1354=DIRECTION('',(0.,0.,1.));
#1355=DIRECTION('',(1.,0.,0.));
#1356=DIRECTION('',(0.707106781186548,0.707106781186547,0.));
#1357=DIRECTION('',(-0.707106781186547,0.707106781186548,0.));
#1358=DIRECTION('',(0.,0.,1.));
#1359=DIRECTION('',(0.,-1.,0.));
#1360=DIRECTION('',(0.,0.,-1.));
#1361=DIRECTION('',(0.,0.,-1.));
#1362=DIRECTION('',(-1.,0.,0.));
#1363=DIRECTION('',(0.,0.,1.));
#1364=DIRECTION('',(1.,0.,0.));
#1365=DIRECTION('',(0.,0.,-1.));
#1366=DIRECTION('',(-1.,0.,0.));
#1367=DIRECTION('',(0.,1.,0.));
#1368=DIRECTION('',(0.,1.,0.));
#1369=DIRECTION('',(-1.,0.,0.));
#1370=DIRECTION('',(0.,0.,1.));
#1371=DIRECTION('',(0.,1.,0.));
#1372=DIRECTION('',(0.,0.,1.));
#1373=DIRECTION('',(1.,0.,0.));
#1374=DIRECTION('',(0.,1.,0.));
#1375=DIRECTION('',(1.,0.,0.));
#1376=DIRECTION('',(0.,0.,-1.));
#1377=DIRECTION('',(1.,0.,0.));
#1378=DIRECTION('',(0.,0.,-1.));
#1379=DIRECTION('',(0.,1.,0.));
#1380=DIRECTION('',(0.,1.,0.));
#1381=DIRECTION('',(0.,0.,-1.));
#1382=DIRECTION('',(0.,0.,1.));
#1383=DIRECTION('',(1.,0.,0.));
#1384=DIRECTION('',(0.,1.,0.));
#1385=DIRECTION('',(1.,0.,0.));
#1386=DIRECTION('',(-1.,0.,0.));
#1387=DIRECTION('',(0.,0.,1.));
#1388=DIRECTION('',(0.,1.,0.));
#1389=DIRECTION('',(0.,0.,1.));
#1390=DIRECTION('',(0.,0.,-1.));
#1391=DIRECTION('',(-1.,0.,0.));
#1392=DIRECTION('',(-1.,0.,0.));
#1393=DIRECTION('',(0.,-1.,0.));
#1394=DIRECTION('',(0.,0.,-1.));
#1395=DIRECTION('',(0.,1.,0.));
#1396=DIRECTION('',(0.,0.,1.));
#1397=DIRECTION('',(0.,0.,-1.));
#1398=DIRECTION('',(-1.,0.,0.));
#1399=DIRECTION('',(0.,0.,1.));
#1400=DIRECTION('',(1.,0.,0.));
#1401=DIRECTION('',(0.,0.,1.));
#1402=DIRECTION('',(1.,0.,0.));
#1403=DIRECTION('',(0.,1.,0.));
#1404=DIRECTION('',(0.,1.,0.));
#1405=DIRECTION('',(-1.,0.,0.));
#1406=DIRECTION('',(0.,0.,1.));
#1407=DIRECTION('',(0.,1.,0.));
#1408=DIRECTION('',(0.,0.,-1.));
#1409=DIRECTION('',(-1.,0.,0.));
#1410=DIRECTION('',(0.,1.,0.));
#1411=DIRECTION('',(1.,0.,0.));
#1412=DIRECTION('',(0.,0.,-1.));
#1413=DIRECTION('',(1.,0.,0.));
#1414=DIRECTION('',(0.,0.,-1.));
#1415=DIRECTION('',(0.,1.,0.));
#1416=DIRECTION('',(0.,0.,-1.));
#1417=DIRECTION('',(0.,1.,0.));
#1418=DIRECTION('',(0.,0.,-1.));
#1419=DIRECTION('',(-1.,0.,0.));
#1420=DIRECTION('',(-1.,0.,0.));
#1421=DIRECTION('',(0.,1.,0.));
#1422=DIRECTION('',(-1.,0.,0.));
#1423=DIRECTION('',(0.,0.,1.));
#1424=DIRECTION('',(0.,0.,1.));
#1425=DIRECTION('',(0.,1.,0.));
#1426=DIRECTION('',(0.,0.,1.));
#1427=DIRECTION('',(1.,0.,0.));
#1428=DIRECTION('',(1.,0.,0.));
#1429=DIRECTION('',(0.,1.,0.));
#1430=DIRECTION('',(0.,0.,1.));
#1431=DIRECTION('',(0.,0.,-1.));
#1432=DIRECTION('',(-1.,0.,0.));
#1433=DIRECTION('',(0.,0.,-1.));
#1434=DIRECTION('',(-1.,0.,0.));
#1435=DIRECTION('',(0.,0.,-1.));
#1436=DIRECTION('',(-1.,0.,0.));
#1437=DIRECTION('',(0.,0.,-1.));
#1438=DIRECTION('',(-1.,0.,0.));
#1439=DIRECTION('',(0.,0.,-1.));
#1440=DIRECTION('',(-1.,0.,0.));
#1441=DIRECTION('',(0.,0.,-1.));
#1442=DIRECTION('',(-1.,0.,0.));
#1443=DIRECTION('',(0.,0.,-1.));
#1444=DIRECTION('',(-1.,0.,0.));
#1445=DIRECTION('',(0.,0.,-1.));
#1446=DIRECTION('',(-1.,0.,0.));
#1447=DIRECTION('',(1.,0.,0.));
#1448=DIRECTION('',(0.,0.,-1.));
#1449=DIRECTION('',(1.,0.,0.));
#1450=DIRECTION('',(0.,0.,-1.));
#1451=DIRECTION('',(-1.,3.61400724161834E-15,0.));
#1452=DIRECTION('',(-3.61400724161834E-15,-1.,0.));
#1453=DIRECTION('',(0.,0.,1.));
#1454=DIRECTION('',(1.,0.,0.));
#1455=DIRECTION('',(0.,-1.,0.));
#1456=DIRECTION('',(0.,0.,-1.));
#1457=DIRECTION('',(0.,0.,1.));
#1458=DIRECTION('',(1.,0.,0.));
#1459=DIRECTION('',(3.61400724161834E-15,-1.,-1.30610483424698E-29));
#1460=DIRECTION('',(1.,3.61400724161834E-15,0.));
#1461=DIRECTION('',(0.,1.,0.));
#1462=DIRECTION('',(0.,0.,1.));
#1463=DIRECTION('',(3.61400724161834E-15,-1.,0.));
#1464=DIRECTION('',(1.,3.61400724161834E-15,0.));
#1465=DIRECTION('',(0.,-1.,0.));
#1466=DIRECTION('',(0.,0.,-1.));
#1467=DIRECTION('',(0.,-1.,0.));
#1468=DIRECTION('',(0.,0.,-1.));
#1469=DIRECTION('',(0.,0.,1.));
#1470=DIRECTION('',(1.,0.,0.));
#1471=DIRECTION('',(1.,0.,0.));
#1472=DIRECTION('',(0.,0.,-1.));
#1473=DIRECTION('',(0.,0.,1.));
#1474=DIRECTION('',(1.,0.,0.));
#1475=DIRECTION('',(-1.,3.61400724161834E-15,1.30610483424698E-29));
#1476=DIRECTION('',(-3.61400724161834E-15,-1.,0.));
#1477=DIRECTION('',(-1.,0.,0.));
#1478=DIRECTION('',(0.,0.,1.));
#1479=CARTESIAN_POINT('',(0.,0.,0.));
#1480=CARTESIAN_POINT('',(-0.5,-0.3,0.48));
#1481=CARTESIAN_POINT('',(-0.5,-0.3,0.108478423854619));
#1482=CARTESIAN_POINT('',(0.232127573915617,-0.3,0.108478423854619));
#1483=CARTESIAN_POINT('',(0.325348169004952,-0.3,0.108478423854619));
#1484=CARTESIAN_POINT('',(0.325348169004952,-0.3,0.48));
#1485=CARTESIAN_POINT('',(0.325348169004952,-0.3,0.08160568769563));
#1486=CARTESIAN_POINT('',(-0.5,-0.3,0.08160568769563));
#1487=CARTESIAN_POINT('',(0.232127573915617,-0.3,0.08160568769563));
#1488=CARTESIAN_POINT('',(0.232127573915617,-0.3,0.48));
#1489=CARTESIAN_POINT('',(0.485,-0.3,0.48));
#1490=CARTESIAN_POINT('',(0.485,-0.3,0.));
#1491=CARTESIAN_POINT('',(0.485,-0.3,0.465));
#1492=CARTESIAN_POINT('',(-0.485,-0.3,0.465));
#1493=CARTESIAN_POINT('',(-0.485,-0.3,0.465));
#1494=CARTESIAN_POINT('',(-0.485,-0.3,0.48));
#1495=CARTESIAN_POINT('',(-0.485,-0.3,0.));
#1496=CARTESIAN_POINT('',(-0.5,-0.3,0.));
#1497=CARTESIAN_POINT('',(-0.325348169004952,-0.3,0.48));
#1498=CARTESIAN_POINT('',(-0.325348169004952,-0.3,0.108478423854619));
#1499=CARTESIAN_POINT('',(-0.325348169004952,-0.3,0.08160568769563));
#1500=CARTESIAN_POINT('',(-0.5,-0.3,0.108478423854619));
#1501=CARTESIAN_POINT('',(-0.232127573915617,-0.3,0.108478423854619));
#1502=CARTESIAN_POINT('',(-0.232127573915617,-0.3,0.48));
#1503=CARTESIAN_POINT('',(-0.232127573915617,-0.3,0.0816056876956299));
#1504=CARTESIAN_POINT('',(-0.5,-0.3,0.08160568769563));
#1505=CARTESIAN_POINT('',(0.5,0.3,0.48));
#1506=CARTESIAN_POINT('',(0.5,0.3,0.08160568769563));
#1507=CARTESIAN_POINT('',(0.232127573915617,0.3,0.08160568769563));
#1508=CARTESIAN_POINT('',(0.325348169004952,0.3,0.08160568769563));
#1509=CARTESIAN_POINT('',(0.325348169004952,0.3,0.48));
#1510=CARTESIAN_POINT('',(0.325348169004952,0.3,0.108478423854619));
#1511=CARTESIAN_POINT('',(0.5,0.3,0.108478423854619));
#1512=CARTESIAN_POINT('',(0.232127573915617,0.3,0.108478423854619));
#1513=CARTESIAN_POINT('',(0.232127573915617,0.3,0.48));
#1514=CARTESIAN_POINT('',(-0.485,0.3,0.48));
#1515=CARTESIAN_POINT('',(-0.485,0.3,0.));
#1516=CARTESIAN_POINT('',(-0.485,0.3,0.465));
#1517=CARTESIAN_POINT('',(0.485,0.3,0.465));
#1518=CARTESIAN_POINT('',(0.485,0.3,0.465));
#1519=CARTESIAN_POINT('',(0.485,0.3,0.48));
#1520=CARTESIAN_POINT('',(0.485,0.3,0.));
#1521=CARTESIAN_POINT('',(0.5,0.3,0.));
#1522=CARTESIAN_POINT('',(-0.325348169004952,0.3,0.48));
#1523=CARTESIAN_POINT('',(-0.325348169004952,0.3,0.08160568769563));
#1524=CARTESIAN_POINT('',(-0.325348169004952,0.3,0.108478423854619));
#1525=CARTESIAN_POINT('',(0.5,0.3,0.08160568769563));
#1526=CARTESIAN_POINT('',(-0.232127573915617,0.3,0.0816056876956299));
#1527=CARTESIAN_POINT('',(-0.232127573915617,0.3,0.48));
#1528=CARTESIAN_POINT('',(-0.232127573915617,0.3,0.108478423854619));
#1529=CARTESIAN_POINT('',(0.5,0.3,0.108478423854619));
#1530=CARTESIAN_POINT('',(0.,0.,0.));
#1531=CARTESIAN_POINT('',(0.45,0.25,0.));
#1532=CARTESIAN_POINT('',(0.45,0.25,0.));
#1533=CARTESIAN_POINT('',(0.2,0.25,0.));
#1534=CARTESIAN_POINT('',(0.2,0.25,0.));
#1535=CARTESIAN_POINT('',(0.2,-0.25,0.));
#1536=CARTESIAN_POINT('',(0.2,-0.25,0.));
#1537=CARTESIAN_POINT('',(0.363195237377951,-0.25,0.));
#1538=CARTESIAN_POINT('',(0.306597618688975,-0.306597618688975,0.));
#1539=CARTESIAN_POINT('',(0.45,-0.16319523737795,0.));
#1540=CARTESIAN_POINT('',(0.45,-0.25,0.));
#1541=CARTESIAN_POINT('',(0.5,-0.3,0.));
#1542=CARTESIAN_POINT('',(0.5,-0.285,0.));
#1543=CARTESIAN_POINT('',(0.5,0.285,0.));
#1544=CARTESIAN_POINT('',(0.485,-0.285,0.));
#1545=CARTESIAN_POINT('',(-0.485,-0.285,0.));
#1546=CARTESIAN_POINT('',(-0.5,-0.285,0.));
#1547=CARTESIAN_POINT('',(-0.5,0.3,0.));
#1548=CARTESIAN_POINT('',(-0.5,0.285,0.));
#1549=CARTESIAN_POINT('',(-0.485,0.285,0.));
#1550=CARTESIAN_POINT('',(0.485,0.285,0.));
#1551=CARTESIAN_POINT('',(-0.2,0.25,0.));
#1552=CARTESIAN_POINT('',(-0.2,0.25,0.));
#1553=CARTESIAN_POINT('',(-0.2,-0.25,0.));
#1554=CARTESIAN_POINT('',(-0.45,0.25,0.));
#1555=CARTESIAN_POINT('',(-0.45,0.25,0.));
#1556=CARTESIAN_POINT('',(-0.45,-0.25,0.));
#1557=CARTESIAN_POINT('',(-0.45,-0.25,0.));
#1558=CARTESIAN_POINT('',(-0.2,-0.25,0.));
#1559=CARTESIAN_POINT('',(0.5,-0.3,0.48));
#1560=CARTESIAN_POINT('',(0.5,0.285,0.48));
#1561=CARTESIAN_POINT('',(0.5,0.285,0.465));
#1562=CARTESIAN_POINT('',(0.5,-0.285,0.465));
#1563=CARTESIAN_POINT('',(0.5,-0.285,0.465));
#1564=CARTESIAN_POINT('',(0.5,-0.285,0.48));
#1565=CARTESIAN_POINT('',(-0.5,0.3,0.48));
#1566=CARTESIAN_POINT('',(-0.5,-0.285,0.48));
#1567=CARTESIAN_POINT('',(-0.5,-0.285,0.465));
#1568=CARTESIAN_POINT('',(-0.5,0.285,0.465));
#1569=CARTESIAN_POINT('',(-0.5,0.285,0.465));
#1570=CARTESIAN_POINT('',(-0.5,0.285,0.48));
#1571=CARTESIAN_POINT('',(0.,0.,0.48));
#1572=CARTESIAN_POINT('',(-0.485,-0.285,0.48));
#1573=CARTESIAN_POINT('',(-0.485,0.285,0.48));
#1574=CARTESIAN_POINT('',(-0.485,-0.285,0.48));
#1575=CARTESIAN_POINT('',(0.485,-0.285,0.48));
#1576=CARTESIAN_POINT('',(0.485,-0.285,0.48));
#1577=CARTESIAN_POINT('',(0.485,0.285,0.48));
#1578=CARTESIAN_POINT('',(0.485,0.285,0.48));
#1579=CARTESIAN_POINT('',(-0.485,0.285,0.48));
#1580=CARTESIAN_POINT('',(-0.2,0.25,-0.02));
#1581=CARTESIAN_POINT('',(-0.2,-0.25,-0.02));
#1582=CARTESIAN_POINT('',(-0.2,-0.25,-0.02));
#1583=CARTESIAN_POINT('',(-0.2,0.25,-0.02));
#1584=CARTESIAN_POINT('',(-0.2,0.25,-0.02));
#1585=CARTESIAN_POINT('',(-0.2,0.25,-0.02));
#1586=CARTESIAN_POINT('',(-0.2,-0.25,-0.02));
#1587=CARTESIAN_POINT('',(-0.45,-0.25,-0.02));
#1588=CARTESIAN_POINT('',(-0.45,-0.25,-0.02));
#1589=CARTESIAN_POINT('',(-0.2,-0.25,-0.02));
#1590=CARTESIAN_POINT('',(-0.45,-0.25,-0.02));
#1591=CARTESIAN_POINT('',(-0.45,0.25,-0.02));
#1592=CARTESIAN_POINT('',(-0.45,0.25,-0.02));
#1593=CARTESIAN_POINT('',(-0.45,-0.25,-0.02));
#1594=CARTESIAN_POINT('',(-0.45,0.25,-0.02));
#1595=CARTESIAN_POINT('',(-0.45,0.25,-0.02));
#1596=CARTESIAN_POINT('',(0.,0.,-0.02));
#1597=CARTESIAN_POINT('',(0.2,0.25,-0.02));
#1598=CARTESIAN_POINT('',(0.2,0.25,-0.02));
#1599=CARTESIAN_POINT('',(0.2,0.25,-0.02));
#1600=CARTESIAN_POINT('',(0.2,0.25,-0.02));
#1601=CARTESIAN_POINT('',(0.2,-0.25,-0.02));
#1602=CARTESIAN_POINT('',(0.2,-0.25,-0.02));
#1603=CARTESIAN_POINT('',(0.2,-0.25,-0.02));
#1604=CARTESIAN_POINT('',(0.2,-0.25,-0.02));
#1605=CARTESIAN_POINT('',(0.363195237377951,-0.25,-0.02));
#1606=CARTESIAN_POINT('',(0.363195237377951,-0.25,-0.02));
#1607=CARTESIAN_POINT('',(0.45,-0.25,-0.02));
#1608=CARTESIAN_POINT('',(0.45,-0.16319523737795,-0.02));
#1609=CARTESIAN_POINT('',(0.45,-0.16319523737795,-0.02));
#1610=CARTESIAN_POINT('',(0.45,-0.25,-0.02));
#1611=CARTESIAN_POINT('',(0.45,0.25,-0.02));
#1612=CARTESIAN_POINT('',(0.45,0.25,-0.02));
#1613=CARTESIAN_POINT('',(0.45,0.25,-0.02));
#1614=CARTESIAN_POINT('',(0.45,0.25,-0.02));
#1615=CARTESIAN_POINT('',(0.,0.,-0.02));
#1616=CARTESIAN_POINT('',(0.363195237377951,-0.25,-0.02));
#1617=CARTESIAN_POINT('',(0.363195237377951,-0.25,-0.02));
#1618=CARTESIAN_POINT('',(0.,0.303502179634574,0.));
#1619=CARTESIAN_POINT('',(-0.325348169004952,0.303502179634574,0.108478423854619));
#1620=CARTESIAN_POINT('',(-0.325348169004952,0.303502179634574,0.108478423854619));
#1621=CARTESIAN_POINT('',(-0.325348169004952,0.303502179634574,0.08160568769563));
#1622=CARTESIAN_POINT('',(-0.232127573915617,0.303502179634574,0.108478423854619));
#1623=CARTESIAN_POINT('',(-0.232127573915617,0.303502179634574,0.108478423854619));
#1624=CARTESIAN_POINT('',(-0.232127573915617,0.303502179634574,0.08160568769563));
#1625=CARTESIAN_POINT('',(-0.232127573915617,0.303502179634574,0.08160568769563));
#1626=CARTESIAN_POINT('',(-0.325348169004952,0.303502179634574,0.08160568769563));
#1627=CARTESIAN_POINT('',(-0.232127573915617,-0.303502179634574,0.108478423854619));
#1628=CARTESIAN_POINT('',(-0.325348169004952,-0.303502179634574,0.108478423854619));
#1629=CARTESIAN_POINT('',(-0.232127573915617,-0.303502179634574,0.108478423854619));
#1630=CARTESIAN_POINT('',(-0.232127573915617,-0.303502179634574,0.08160568769563));
#1631=CARTESIAN_POINT('',(-0.232127573915617,-0.303502179634574,0.08160568769563));
#1632=CARTESIAN_POINT('',(-0.325348169004952,-0.303502179634574,0.08160568769563));
#1633=CARTESIAN_POINT('',(-0.325348169004952,-0.303502179634574,0.08160568769563));
#1634=CARTESIAN_POINT('',(-0.325348169004952,-0.303502179634574,0.108478423854619));
#1635=CARTESIAN_POINT('',(-0.325348169004952,-0.303502179634574,0.108478423854619));
#1636=CARTESIAN_POINT('',(-0.325348169004952,-0.303502179634574,0.108478423854619));
#1637=CARTESIAN_POINT('',(-0.325348169004952,-0.303502179634574,0.108478423854619));
#1638=CARTESIAN_POINT('',(-0.325348169004952,-0.303502179634574,0.08160568769563));
#1639=CARTESIAN_POINT('',(-0.325348169004952,-0.303502179634574,0.08160568769563));
#1640=CARTESIAN_POINT('',(-0.325348169004952,-0.303502179634574,0.108478423854619));
#1641=CARTESIAN_POINT('',(-0.325348169004952,-0.303502179634574,0.08160568769563));
#1642=CARTESIAN_POINT('',(-0.232127573915617,-0.303502179634574,0.08160568769563));
#1643=CARTESIAN_POINT('',(-0.232127573915617,-0.303502179634574,0.08160568769563));
#1644=CARTESIAN_POINT('',(-0.325348169004952,-0.303502179634574,0.08160568769563));
#1645=CARTESIAN_POINT('',(-0.232127573915617,-0.303502179634574,0.08160568769563));
#1646=CARTESIAN_POINT('',(-0.232127573915617,-0.303502179634574,0.108478423854619));
#1647=CARTESIAN_POINT('',(-0.232127573915617,-0.303502179634574,0.108478423854619));
#1648=CARTESIAN_POINT('',(-0.232127573915617,-0.303502179634574,0.08160568769563));
#1649=CARTESIAN_POINT('',(-0.232127573915617,-0.303502179634574,0.108478423854619));
#1650=CARTESIAN_POINT('',(-0.232127573915617,-0.303502179634574,0.108478423854619));
#1651=CARTESIAN_POINT('',(0.,-0.303502179634574,0.));
#1652=CARTESIAN_POINT('',(0.,0.303502179634574,0.));
#1653=CARTESIAN_POINT('',(0.325348169004952,0.303502179634574,0.108478423854619));
#1654=CARTESIAN_POINT('',(0.325348169004952,0.303502179634574,0.108478423854619));
#1655=CARTESIAN_POINT('',(0.325348169004952,0.303502179634574,0.08160568769563));
#1656=CARTESIAN_POINT('',(0.325348169004952,0.303502179634574,0.08160568769563));
#1657=CARTESIAN_POINT('',(0.232127573915617,0.303502179634574,0.08160568769563));
#1658=CARTESIAN_POINT('',(0.232127573915617,0.303502179634574,0.08160568769563));
#1659=CARTESIAN_POINT('',(0.232127573915617,0.303502179634574,0.108478423854619));
#1660=CARTESIAN_POINT('',(0.232127573915617,0.303502179634574,0.108478423854619));
#1661=CARTESIAN_POINT('',(0.232127573915617,-0.303502179634574,0.108478423854619));
#1662=CARTESIAN_POINT('',(0.325348169004952,-0.303502179634574,0.108478423854619));
#1663=CARTESIAN_POINT('',(0.232127573915617,-0.303502179634574,0.108478423854619));
#1664=CARTESIAN_POINT('',(0.232127573915617,-0.303502179634574,0.08160568769563));
#1665=CARTESIAN_POINT('',(0.232127573915617,-0.303502179634574,0.08160568769563));
#1666=CARTESIAN_POINT('',(0.325348169004952,-0.303502179634574,0.08160568769563));
#1667=CARTESIAN_POINT('',(0.325348169004952,-0.303502179634574,0.08160568769563));
#1668=CARTESIAN_POINT('',(0.325348169004952,-0.303502179634574,0.108478423854619));
#1669=CARTESIAN_POINT('',(0.325348169004952,-0.303502179634574,0.108478423854619));
#1670=CARTESIAN_POINT('',(0.325348169004952,-0.303502179634574,0.108478423854619));
#1671=CARTESIAN_POINT('',(0.325348169004952,-0.303502179634574,0.108478423854619));
#1672=CARTESIAN_POINT('',(0.325348169004952,-0.303502179634574,0.108478423854619));
#1673=CARTESIAN_POINT('',(0.325348169004952,-0.303502179634574,0.08160568769563));
#1674=CARTESIAN_POINT('',(0.325348169004952,-0.303502179634574,0.08160568769563));
#1675=CARTESIAN_POINT('',(0.325348169004952,-0.303502179634574,0.08160568769563));
#1676=CARTESIAN_POINT('',(0.325348169004952,-0.303502179634574,0.08160568769563));
#1677=CARTESIAN_POINT('',(0.232127573915617,-0.303502179634574,0.08160568769563));
#1678=CARTESIAN_POINT('',(0.232127573915617,-0.303502179634574,0.08160568769563));
#1679=CARTESIAN_POINT('',(0.232127573915617,-0.303502179634574,0.08160568769563));
#1680=CARTESIAN_POINT('',(0.232127573915617,-0.303502179634574,0.08160568769563));
#1681=CARTESIAN_POINT('',(0.232127573915617,-0.303502179634574,0.108478423854619));
#1682=CARTESIAN_POINT('',(0.232127573915617,-0.303502179634574,0.108478423854619));
#1683=CARTESIAN_POINT('',(0.232127573915617,-0.303502179634574,0.108478423854619));
#1684=CARTESIAN_POINT('',(0.232127573915617,-0.303502179634574,0.108478423854619));
#1685=CARTESIAN_POINT('',(0.,-0.303502179634574,0.));
#1686=CARTESIAN_POINT('',(-0.485,-0.285,0.48));
#1687=CARTESIAN_POINT('',(-0.485,-0.285,0.465));
#1688=CARTESIAN_POINT('',(0.485,0.285,0.48));
#1689=CARTESIAN_POINT('',(0.485,0.285,0.465));
#1690=CARTESIAN_POINT('',(-0.485,0.285,0.48));
#1691=CARTESIAN_POINT('',(-0.485,0.285,0.465));
#1692=CARTESIAN_POINT('',(0.485,-0.285,0.48));
#1693=CARTESIAN_POINT('',(0.485,-0.285,0.465));
#1694=CARTESIAN_POINT('',(0.,0.285,0.465));
#1695=CARTESIAN_POINT('',(0.485,0.285,0.465));
#1696=CARTESIAN_POINT('',(-0.485,0.285,0.465));
#1697=CARTESIAN_POINT('',(-0.485,0.285,0.465));
#1698=CARTESIAN_POINT('',(-0.485,0.285,0.465));
#1699=CARTESIAN_POINT('',(0.485,0.285,0.465));
#1700=CARTESIAN_POINT('',(0.485,0.285,0.465));
#1701=CARTESIAN_POINT('',(-0.485,0.,0.465));
#1702=CARTESIAN_POINT('',(-0.485,-0.285,0.465));
#1703=CARTESIAN_POINT('',(0.485,0.,0.465));
#1704=CARTESIAN_POINT('',(0.485,-0.285,0.465));
#1705=CARTESIAN_POINT('',(-0.485,-0.285,0.465));
#1706=CARTESIAN_POINT('',(-0.485,-0.285,0.465));
#1707=CARTESIAN_POINT('',(0.485,-0.285,0.465));
#1708=CARTESIAN_POINT('',(0.485,-0.285,0.465));
#1709=CARTESIAN_POINT('',(0.,-0.285,0.465));
#1710=MECHANICAL_DESIGN_GEOMETRIC_PRESENTATION_REPRESENTATION('',(#788,
#789,#790,#791,#792,#793,#794,#795,#796,#797,#798,#799,#800,#801,#802,#803,
#804,#805,#806,#807,#808,#809,#810,#811,#812,#813,#814,#815,#816,#817,#818,
#819,#820,#821,#822,#823,#824,#825,#826,#827,#828,#829,#830,#831,#832,#833,
#834,#835,#836),#1711);
#1711=(
GEOMETRIC_REPRESENTATION_CONTEXT(3)
GLOBAL_UNCERTAINTY_ASSIGNED_CONTEXT((#1712))
GLOBAL_UNIT_ASSIGNED_CONTEXT((#1715,#1714,#1713))
REPRESENTATION_CONTEXT('SP3205-01ETG','TOP_LEVEL_ASSEMBLY_PART')
);
#1712=UNCERTAINTY_MEASURE_WITH_UNIT(LENGTH_MEASURE(0.005),#1715,
'DISTANCE_ACCURACY_VALUE','Maximum Tolerance applied to model');
#1713=(
NAMED_UNIT(*)
SI_UNIT($,.STERADIAN.)
SOLID_ANGLE_UNIT()
);
#1714=(
NAMED_UNIT(*)
PLANE_ANGLE_UNIT()
SI_UNIT($,.RADIAN.)
);
#1715=(
LENGTH_UNIT()
NAMED_UNIT(*)
SI_UNIT(.MILLI.,.METRE.)
);
#1716=PRODUCT_DEFINITION_SHAPE('','',#1717);
#1717=PRODUCT_DEFINITION('','',#1719,#1718);
#1718=PRODUCT_DEFINITION_CONTEXT('',#1725,'design');
#1719=PRODUCT_DEFINITION_FORMATION_WITH_SPECIFIED_SOURCE('','',#1721,
 .NOT_KNOWN.);
#1720=PRODUCT_RELATED_PRODUCT_CATEGORY('','',(#1721));
#1721=PRODUCT('SP3205-01ETG','SP3205-01ETG','SP3205-01ETG',(#1723));
#1722=PRODUCT_CATEGORY('','');
#1723=PRODUCT_CONTEXT('',#1725,'mechanical');
#1724=APPLICATION_PROTOCOL_DEFINITION('international standard',
'automotive_design',2010,#1725);
#1725=APPLICATION_CONTEXT(
'core data for automotive mechanical design processes');
ENDSEC;
END-ISO-10303-21;
